<svg xmlns="http://www.w3.org/2000/svg" width="37.251" height="40" viewBox="0 0 37.251 40">
  <g id="Group_981" data-name="Group 981" transform="translate(-422.47 -1177)">
    <g id="Group_937" data-name="Group 937" transform="translate(422.47 1184.333)">
      <g id="Group_666" data-name="Group 666" transform="translate(0)">
        <path id="Path_18006" data-name="Path 18006" d="M5.31,93.975a.583.583,0,0,0-.586-.056l-4.346,2a.687.687,0,0,0,0,1.225l4.346,2a.583.583,0,0,0,.586-.056.681.681,0,0,0,.279-.557v-4A.681.681,0,0,0,5.31,93.975Zm-.962,3.545L2.2,96.532l2.149-.989Z" transform="translate(-0.002 -93.865)"/>
      </g>
    </g>
    <g id="Group_938" data-name="Group 938" transform="translate(429.92 1177)">
      <g id="Group_668" data-name="Group 668" transform="translate(0 0)">
        <path id="Path_18007" data-name="Path 18007" d="M109.851,0h-3.1A4.52,4.52,0,0,0,102.4,4.668a.645.645,0,0,0,.621.667h3.1A4.52,4.52,0,0,0,110.472.668.645.645,0,0,0,109.851,0Zm-3.725,4h-2.421a3.174,3.174,0,0,1,3.042-2.667h2.421A3.173,3.173,0,0,1,106.126,4Z" transform="translate(-102.401 -0.001)"/>
      </g>
    </g>
    <g id="Group_939" data-name="Group 939" transform="translate(429.92 1184.333)">
      <g id="Group_670" data-name="Group 670">
        <path id="Path_18008" data-name="Path 18008" d="M104.264,93.867a2.005,2.005,0,1,0,1.863,2A1.937,1.937,0,0,0,104.264,93.867Zm0,2.667a.668.668,0,1,1,.621-.667A.646.646,0,0,1,104.264,96.534Z" transform="translate(-102.401 -93.867)"/>
      </g>
    </g>
    <g id="Group_940" data-name="Group 940" transform="translate(438.612 1211)">
      <g id="Group_672" data-name="Group 672">
        <rect id="Rectangle_945" data-name="Rectangle 945" width="1.242" height="5.333"/>
      </g>
    </g>
    <g id="Group_941" data-name="Group 941" transform="translate(436.129 1215.667)">
      <g id="Group_674" data-name="Group 674">
        <rect id="Rectangle_946" data-name="Rectangle 946" width="9.933" height="1.333"/>
      </g>
    </g>
    <g id="Group_942" data-name="Group 942" transform="translate(442.337 1211)">
      <g id="Group_676" data-name="Group 676">
        <rect id="Rectangle_947" data-name="Rectangle 947" width="1.242" height="5.333"/>
      </g>
    </g>
    <g id="Group_943" data-name="Group 943" transform="translate(439.232 1213)">
      <g id="Group_678" data-name="Group 678">
        <rect id="Rectangle_948" data-name="Rectangle 948" width="1.863" height="1.333"/>
      </g>
    </g>
    <g id="Group_945" data-name="Group 945" transform="translate(422.47 1188.333)">
      <g id="Group_682" data-name="Group 682" transform="translate(0)">
        <path id="Path_18009" data-name="Path 18009" d="M5.279,145.158a.584.584,0,0,0-.62,0l-3.255,2A3.076,3.076,0,0,0,0,149.735v.308a3.1,3.1,0,0,0,.8,2.129,2.689,2.689,0,0,0,1.974.9h.019a2.905,2.905,0,0,0,2.794-3v-4.333A.678.678,0,0,0,5.279,145.158Zm-.933,4.91a1.614,1.614,0,0,1-1.552,1.667v.667l-.013-.667a1.5,1.5,0,0,1-1.094-.5,1.724,1.724,0,0,1-.445-1.188v-.3a1.712,1.712,0,0,1,.78-1.431l2.324-1.429Z" transform="translate(-0.001 -145.068)"/>
      </g>
    </g>
    <g id="Group_946" data-name="Group 946" transform="translate(426.816 1180.99)">
      <g id="Group_684" data-name="Group 684">
        <path id="Path_18010" data-name="Path 18010" d="M92.64,51.748v-.667H87.05a11.455,11.455,0,0,0-10.324,7L74.014,64.2l-4.333-9.765a5.394,5.394,0,0,0-4.432-3.349,4.928,4.928,0,0,0-3.758,1.383,5.7,5.7,0,0,0-1.746,3.83c-.007.119-.011.239-.011.359V66.748c0,8.266,6.27,15,13.969,15,7.482,0,13.556-7.161,13.949-13.368a5.868,5.868,0,0,0,4.987-5.965v-.667H90.561a6.168,6.168,0,0,0,2.079-4.667v-.667H90.561A6.168,6.168,0,0,0,92.64,51.748Zm-1.286,6a4.466,4.466,0,0,1-4.3,4v1.333h4.3a4.466,4.466,0,0,1-4.3,4h-.621v.667c0,5.7-5.873,12.667-12.727,12.667-7.014,0-12.724-6.135-12.727-13.667V56.654c0-.091,0-.182.008-.275a4.334,4.334,0,0,1,1.329-2.915,3.768,3.768,0,0,1,2.6-1.061q.122,0,.246.008a4.145,4.145,0,0,1,3.4,2.583l5.459,12.3,3.832-8.643a10.21,10.21,0,0,1,9.2-6.24h4.3a4.466,4.466,0,0,1-4.3,4v1.333h4.3Z" transform="translate(-59.735 -51.071)"/>
      </g>
    </g>
    <g id="Group_947" data-name="Group 947" transform="translate(431.782 1196.999)">
      <g id="Group_686" data-name="Group 686">
        <path id="Path_18011" data-name="Path 18011" d="M139.175,256v1.333h7.3a4.506,4.506,0,0,1-4.224,3.333L142.235,262h1.753a4.5,4.5,0,0,1-4.23,3.333h-2.446c-4.45,0-8.071-3.888-8.071-8.667V256H128v.667c0,5.514,4.178,10,9.313,10h2.446a5.849,5.849,0,0,0,5.619-5.24l.065-.5a6.172,6.172,0,0,0,2.418-4.169l.1-.76h-8.785Z" transform="translate(-128 -256.001)"/>
      </g>
    </g>
  </g>
</svg>
