<svg id="ecologism" xmlns="http://www.w3.org/2000/svg" width="40.003" height="40" viewBox="0 0 40.003 40">
  <path id="Path_17990" data-name="Path 17990" d="M7.06,325.105H.8a.781.781,0,0,0,0,1.562H7.06a12.269,12.269,0,0,1,12.256,12.256.781.781,0,1,0,1.563,0A13.834,13.834,0,0,0,7.06,325.105Zm0,0" transform="translate(-0.018 -299.705)"/>
  <path id="Path_17991" data-name="Path 17991" d="M7.06,405.1H.8a.781.781,0,0,0,0,1.563H7.06a6.012,6.012,0,0,1,6.006,6.006.781.781,0,0,0,1.563,0A7.577,7.577,0,0,0,7.06,405.1Zm0,0" transform="translate(-0.018 -373.447)"/>
  <path id="Path_17992" data-name="Path 17992" d="M39.22,19.15h-.3a4.461,4.461,0,0,0,.97-3.909.781.781,0,0,0-.59-.59,4.463,4.463,0,0,0-4.159,1.2,4.53,4.53,0,0,0-.531.639,4.547,4.547,0,0,0-.531-.639,4.463,4.463,0,0,0-4.159-1.2.781.781,0,0,0-.59.59,4.461,4.461,0,0,0,1.13,4.085,19.989,19.989,0,0,0-9.678,4.061v-5.9a7.591,7.591,0,0,0,.886.053,7.506,7.506,0,0,0,7.3-9.164.781.781,0,0,0-.59-.59,7.49,7.49,0,0,0-4.669.441A7.514,7.514,0,0,0,20.419.121a.781.781,0,0,0-.835,0,7.473,7.473,0,0,0-3.5,6.347,7.552,7.552,0,0,0,.208,1.759,7.488,7.488,0,0,0-4.669-.441.781.781,0,0,0-.59.59,7.506,7.506,0,0,0,7.3,9.164,7.581,7.581,0,0,0,.886-.053v5.778a19.859,19.859,0,0,0-9.658-3.959,4.462,4.462,0,0,0,1.11-4.065.781.781,0,0,0-.59-.59,4.463,4.463,0,0,0-4.159,1.2,4.529,4.529,0,0,0-.531.639,4.547,4.547,0,0,0-.531-.639A4.464,4.464,0,0,0,.7,14.652a.781.781,0,0,0-.59.59,4.461,4.461,0,0,0,.97,3.909h-.3a.781.781,0,0,0,0,1.563H7.041A18.526,18.526,0,0,1,25.547,39.219a.79.79,0,0,0,.016.157.781.781,0,0,0,1.547-.157,6.012,6.012,0,0,1,6.006-6.006h6.1a.781.781,0,0,0,0-1.563h-6.1A7.569,7.569,0,0,0,26.708,35.2,19.825,19.825,0,0,0,24.931,30.1a12.167,12.167,0,0,1,8.184-3.142h2.98a.781.781,0,1,0,0-1.562h-2.98a13.717,13.717,0,0,0-8.968,3.312,20.226,20.226,0,0,0-2.913-3.682,18.45,18.45,0,0,1,11.881-4.318h6.1a.781.781,0,0,0,0-1.563Zm-2.974-2.192a2.907,2.907,0,0,1,2.19-.852,2.919,2.919,0,0,1-2.865,3.045H35.5l-.106,0c0-.03,0-.06,0-.09s0-.063,0-.094A2.9,2.9,0,0,1,36.247,16.958Zm-5.462-.852a2.919,2.919,0,0,1,3.045,2.859c0,.031,0,.062,0,.094s0,.06,0,.09l-.11,0h-.064a2.919,2.919,0,0,1-2.869-3.045Zm-8.262-5.2A5.911,5.911,0,0,1,27.539,9.22a5.942,5.942,0,0,1-5.648,6.753l2.726-2.725a.781.781,0,1,0-1.1-1.105l-2.726,2.726a5.9,5.9,0,0,1,1.362-3.553l.064-.076C22.31,11.124,22.414,11.012,22.522,10.9ZM20,1.73a5.943,5.943,0,0,1,.781,8.769V6.914a.781.781,0,1,0-1.563,0V10.5A5.943,5.943,0,0,1,20,1.73ZM12.464,9.22A5.913,5.913,0,0,1,17.48,10.9c.109.108.212.221.311.336l.064.075a5.9,5.9,0,0,1,1.362,3.553l-2.725-2.725a.781.781,0,0,0-1.105,1.1l2.726,2.726A5.943,5.943,0,0,1,12.464,9.22ZM7.028,16.958a2.908,2.908,0,0,1,2.19-.852A2.919,2.919,0,0,1,6.353,19.15H6.282l-.106,0c0-.03,0-.06,0-.09s0-.063,0-.094A2.905,2.905,0,0,1,7.028,16.958ZM2.418,18.3a2.9,2.9,0,0,1-.852-2.19,2.92,2.92,0,0,1,3.045,2.859c0,.031,0,.062,0,.093s0,.06,0,.09c-.037,0-.074,0-.11,0H4.434A2.9,2.9,0,0,1,2.418,18.3Zm0,0" transform="translate(0 0)"/>
  <path id="Path_17993" data-name="Path 17993" d="M492.766,325.105a.782.782,0,1,0,.552.229A.785.785,0,0,0,492.766,325.105Zm0,0" transform="translate(-453.545 -299.705)"/>
</svg>
