<svg xmlns="http://www.w3.org/2000/svg" width="69.128" height="70" viewBox="0 0 69.128 70">
  <g id="Flat" transform="translate(-3 -2.268)">
    <g id="Color_copy" data-name="Color copy" transform="translate(3 2.268)">
      <g id="Group_1024" data-name="Group 1024" transform="translate(0 0)">
        <g id="Group_1017" data-name="Group 1017" transform="translate(18.072)">
          <g id="Group_1016" data-name="Group 1016">
            <rect id="Rectangle_1147" data-name="Rectangle 1147" width="4.767" height="14.302" rx="2" transform="matrix(0.866, 0.5, -0.5, 0.866, 10.088, 0.318)" fill="#f9e109"/>
            <rect id="Rectangle_1148" data-name="Rectangle 1148" width="4.767" height="14.302" rx="2" transform="matrix(0.866, 0.5, -0.5, 0.866, 14.216, 2.702)" fill="#f9e109"/>
            <rect id="Rectangle_1149" data-name="Rectangle 1149" width="4.767" height="9.535" rx="2" transform="matrix(0.866, 0.5, -0.5, 0.866, 4.767, 0)" fill="#f9e109"/>
            <rect id="Rectangle_1150" data-name="Rectangle 1150" width="4.767" height="9.535" rx="2" transform="matrix(0.866, 0.5, -0.5, 0.866, 17.153, 7.15)" fill="#f9e109"/>
          </g>
          <path id="Path_18426" data-name="Path 18426" d="M0,0H35.756V4.767H0Z" transform="matrix(0.866, 0.5, -0.5, 0.866, 20.09, 11.599)" fill="#84d2f4"/>
          <path id="Path_18427" data-name="Path 18427" d="M25.807,12.528a2.384,2.384,0,0,1-3.256.874,2.357,2.357,0,0,1-.866-.883l-.006.01a2.384,2.384,0,1,0,4.129,2.384l4.767-8.257a2.373,2.373,0,0,0-.006-2.374Z" transform="translate(-17.55 -1.882)" fill="#fcbc04"/>
          <path id="Path_18428" data-name="Path 18428" d="M29.27,14.528a2.367,2.367,0,0,1-4.123-.01v.01a2.384,2.384,0,1,0,4.129,2.384l4.767-8.257a2.373,2.373,0,0,0-.006-2.374Z" transform="translate(-16.884 -1.499)" fill="#fcbc04"/>
          <path id="Path_18429" data-name="Path 18429" d="M23.341,8.126A2.384,2.384,0,0,1,20.091,9a2.346,2.346,0,0,1-.866-.882v.01a2.384,2.384,0,1,0,4.129,2.384l2.384-4.129a2.371,2.371,0,0,0,0-2.373Z" transform="translate(-18.021 -1.934)" fill="#fcbc04"/>
          <path id="Path_18430" data-name="Path 18430" d="M33.734,14.127A2.384,2.384,0,0,1,30.478,15a2.355,2.355,0,0,1-.866-.882v.01a2.384,2.384,0,1,0,4.129,2.384l2.384-4.129a2.375,2.375,0,0,0,0-2.374Z" transform="translate(-16.028 -0.783)" fill="#fcbc04"/>
          <path id="Path_18431" data-name="Path 18431" d="M63.3,28.106a4.747,4.747,0,0,1-4.634-.058L39.771,17.141a4.753,4.753,0,0,1-2.365-3.986L35.4,12l-2.384,4.129L63.985,34.007l2.384-4.129Z" transform="translate(-15.313 -0.401)" fill="#57b7eb"/>
        </g>
        <g id="Group_1020" data-name="Group 1020" transform="translate(0 19.942)">
          <path id="Path_18432" data-name="Path 18432" d="M12.535,29H33.988a9.535,9.535,0,0,1,9.535,9.535V62.372a4.767,4.767,0,0,1-4.767,4.767H7.767A4.767,4.767,0,0,1,3,62.372V38.535A9.535,9.535,0,0,1,12.535,29Z" transform="translate(-3 -17.081)" fill="#84d2f4"/>
          <path id="Path_18433" data-name="Path 18433" d="M32.8,61.167A21.454,21.454,0,0,1,11.343,39.714V29.069A9.535,9.535,0,0,0,3,38.522V62.359a4.767,4.767,0,0,0,4.767,4.767H38.756a4.767,4.767,0,0,0,4.767-4.767V61.167Z" transform="translate(-3 -17.068)" fill="#57b7eb"/>
          <path id="Path_18434" data-name="Path 18434" d="M3,37H43.523V60.837A4.767,4.767,0,0,1,38.756,65.6H7.767A4.767,4.767,0,0,1,3,60.837Z" transform="translate(-3 -15.546)" fill="#fcbc04"/>
          <path id="Path_18435" data-name="Path 18435" d="M32.8,59.645A21.454,21.454,0,0,1,11.343,38.192V37H3V60.837A4.767,4.767,0,0,0,7.767,65.6H38.756a4.767,4.767,0,0,0,4.767-4.767V59.645Z" transform="translate(-3 -15.546)" fill="#e59730"/>
          <rect id="Rectangle_1151" data-name="Rectangle 1151" width="28.605" height="4.767" rx="2" transform="translate(5.959 7.151)" fill="#84d2f4"/>
          <path id="Path_18436" data-name="Path 18436" d="M31.837,25H12.767a2.384,2.384,0,0,1-2.384,2.384H8a2.384,2.384,0,0,0,2.384,2.384H34.221A2.384,2.384,0,0,0,36.6,27.384H34.221A2.384,2.384,0,0,1,31.837,25Z" transform="translate(-2.041 -17.849)" fill="#57b7eb"/>
          <rect id="Rectangle_1152" data-name="Rectangle 1152" width="28.605" height="4.767" rx="2" transform="translate(5.959 2.384)" fill="#84d2f4"/>
          <path id="Path_18437" data-name="Path 18437" d="M31.837,21H12.767a2.384,2.384,0,0,1-2.384,2.384H8a2.384,2.384,0,0,0,2.384,2.384H34.221A2.384,2.384,0,0,0,36.6,23.384H34.221A2.384,2.384,0,0,1,31.837,21Z" transform="translate(-2.041 -18.616)" fill="#57b7eb"/>
          <g id="Group_1018" data-name="Group 1018" transform="translate(11.66 26.817)">
            <path id="Path_18438" data-name="Path 18438" d="M22.274,46.5h-3.44l-1.721,2.98,1.721,2.98h3.44l1.721-2.98Z" transform="translate(-11.952 -40.541)" fill="#f9e109"/>
            <path id="Path_18439" data-name="Path 18439" d="M19.3,51.076l-1.032-1.788L19.3,47.5h2.064L22.4,49.288l-1.032,1.788Z" transform="translate(-11.731 -40.349)" fill="#fcbc04"/>
            <path id="Path_18440" data-name="Path 18440" d="M22.274,51.5h-3.44l-1.721,2.98,1.721,2.98h3.44l1.721-2.98Z" transform="translate(-11.952 -39.581)" fill="#f9e109"/>
            <path id="Path_18441" data-name="Path 18441" d="M19.3,56.076l-1.032-1.788L19.3,52.5h2.064L22.4,54.288l-1.032,1.788Z" transform="translate(-11.731 -39.39)" fill="#fcbc04"/>
            <path id="Path_18442" data-name="Path 18442" d="M22.274,41.5h-3.44l-1.721,2.98,1.721,2.98h3.44l1.721-2.98Z" transform="translate(-11.952 -41.5)" fill="#f9e109"/>
            <path id="Path_18443" data-name="Path 18443" d="M19.3,46.076l-1.032-1.788L19.3,42.5h2.064L22.4,44.288l-1.032,1.788Z" transform="translate(-11.731 -41.308)" fill="#fcbc04"/>
            <path id="Path_18444" data-name="Path 18444" d="M26.6,44H23.163l-1.72,2.98,1.72,2.98H26.6l1.721-2.98Z" transform="translate(-11.121 -41.02)" fill="#f9e109"/>
            <path id="Path_18445" data-name="Path 18445" d="M23.63,48.576,22.6,46.788,23.63,45h2.064l1.032,1.788-1.032,1.788Z" transform="translate(-10.9 -40.828)" fill="#fcbc04"/>
            <path id="Path_18446" data-name="Path 18446" d="M17.945,44H14.5l-1.721,2.98,1.721,2.98h3.441l1.72-2.98Z" transform="translate(-12.783 -41.02)" fill="#f9e109"/>
            <path id="Path_18447" data-name="Path 18447" d="M14.97,48.576l-1.033-1.788L14.97,45h2.064l1.032,1.788-1.032,1.788Z" transform="translate(-12.562 -40.828)" fill="#fcbc04"/>
            <path id="Path_18448" data-name="Path 18448" d="M26.6,49H23.163l-1.72,2.98,1.72,2.98H26.6l1.721-2.98Z" transform="translate(-11.121 -40.061)" fill="#f9e109"/>
            <path id="Path_18449" data-name="Path 18449" d="M23.63,53.576,22.6,51.788,23.63,50h2.064l1.032,1.788-1.032,1.788Z" transform="translate(-10.9 -39.869)" fill="#fcbc04"/>
            <path id="Path_18450" data-name="Path 18450" d="M17.945,49H14.5l-1.721,2.98,1.721,2.98h3.441l1.72-2.98Z" transform="translate(-12.783 -40.061)" fill="#f9e109"/>
            <path id="Path_18451" data-name="Path 18451" d="M14.97,53.576l-1.033-1.788L14.97,50h2.064l1.032,1.788-1.032,1.788Z" transform="translate(-12.562 -39.869)" fill="#fcbc04"/>
          </g>
          <path id="Path_18452" data-name="Path 18452" d="M14,22.576V37.942a2.473,2.473,0,0,0,1.983,2.479,2.384,2.384,0,0,0,2.784-2.352V33.3a2.384,2.384,0,0,0,2.784,2.352,2.473,2.473,0,0,0,1.983-2.479v-4.64a2.384,2.384,0,0,0,2.784,2.352A2.473,2.473,0,0,0,28.3,28.407V22.576A3.576,3.576,0,0,0,24.727,19H17.576A3.576,3.576,0,0,0,14,22.576Z" transform="translate(-0.89 -19)" fill="#f9e109"/>
          <path id="Path_18453" data-name="Path 18453" d="M17.114,54.226l1.721,2.98h3.44l.994-1.722a21.369,21.369,0,0,1-5.337-2.664Z" transform="translate(-0.292 -12.511)" fill="#fcbc04"/>
          <path id="Path_18454" data-name="Path 18454" d="M14.5,54.894h3.44l.812-1.406a21.547,21.547,0,0,1-4.486-4.145l-1.485,2.572Z" transform="translate(-1.123 -13.179)" fill="#fcbc04"/>
          <path id="Path_18455" data-name="Path 18455" d="M18.709,53.359l-.441.764L19.3,55.911h2.064l.551-.953A21.442,21.442,0,0,1,18.709,53.359Z" transform="translate(-0.071 -12.408)" fill="#e59730"/>
          <path id="Path_18456" data-name="Path 18456" d="M14.876,50.137l-.939,1.625,1.029,1.788H17.03l.538-.931a21.524,21.524,0,0,1-2.691-2.481Z" transform="translate(-0.902 -13.026)" fill="#e59730"/>
          <g id="Group_1019" data-name="Group 1019" transform="translate(13.11 0.167)">
            <path id="Path_18457" data-name="Path 18457" d="M18.367,38.011a2.473,2.473,0,0,1-1.983-2.479V20.165a3.555,3.555,0,0,1,.167-1.025A3.564,3.564,0,0,0,14,22.549V37.915a2.473,2.473,0,0,0,1.983,2.479,2.384,2.384,0,0,0,2.784-2.352v-.012a2.527,2.527,0,0,1-.4-.02Z" transform="translate(-13.999 -19.14)" fill="#fcbc04"/>
            <path id="Path_18458" data-name="Path 18458" d="M20.384,30.576V29.384A2.384,2.384,0,0,0,18,27v4.615a2.49,2.49,0,0,0,2.212,2.53,2.371,2.371,0,0,0,2.242-1.218,2.375,2.375,0,0,1-2.07-2.352Z" transform="translate(-13.232 -17.632)" fill="#fcbc04"/>
            <path id="Path_18459" data-name="Path 18459" d="M24.384,26.576V25.384A2.384,2.384,0,0,0,22,23v4.615a2.49,2.49,0,0,0,2.212,2.536,2.371,2.371,0,0,0,2.242-1.218,2.375,2.375,0,0,1-2.07-2.358Z" transform="translate(-12.465 -18.399)" fill="#fcbc04"/>
          </g>
        </g>
        <g id="Group_1023" data-name="Group 1023" transform="translate(40.19 38.681)">
          <circle id="Ellipse_116" data-name="Ellipse 116" cx="4.767" cy="4.767" r="4.767" transform="translate(7.383 7.38)" fill="#f9e109"/>
          <path id="Path_18460" data-name="Path 18460" d="M51.154,44.011a4.767,4.767,0,0,1-6.741,0,4.669,4.669,0,0,1-.815-1.135,4.758,4.758,0,1,0,8.27.193,4.715,4.715,0,0,1-.714.942Z" transform="translate(-35.531 -33.159)" fill="#fcbc04"/>
          <rect id="Rectangle_1153" data-name="Rectangle 1153" width="9.535" height="14.302" rx="4" transform="translate(10.451 17.205) rotate(-45)" fill="#f9e109"/>
          <path id="Path_18461" data-name="Path 18461" d="M59.859,53.091a4.767,4.767,0,0,1-6.742,0l-3.371-3.371a4.726,4.726,0,0,1-1.167-1.978l7.115-.79-.4-.4A4.768,4.768,0,1,0,48.554,53.3l3.371,3.371a4.748,4.748,0,0,0,8.1-3.778c-.068.067-.107.139-.17.2Z" transform="translate(-34.718 -32.721)" fill="#fcbc04"/>
          <path id="Path_18462" data-name="Path 18462" d="M0,0H9.535V4.767H0Z" transform="translate(13.822 20.575) rotate(-45)" fill="#57b7eb"/>
          <path id="Path_18463" data-name="Path 18463" d="M57.1,46.5l-8.77.975,6.239-6.239A3.093,3.093,0,1,1,57.1,46.5Z" transform="translate(-34.493 -33.646)" fill="#84d2f4"/>
          <path id="Path_18464" data-name="Path 18464" d="M48.5,55.1l.975-8.77L43.24,52.568A3.093,3.093,0,1,0,48.5,55.1Z" transform="translate(-35.643 -32.496)" fill="#84d2f4"/>
          <g id="Group_1021" data-name="Group 1021" transform="translate(13.836 13.833)">
            <path id="Path_18465" data-name="Path 18465" d="M54.464,46.727l-.4-.4-.5.5Z" transform="translate(-47.324 -46.329)" fill="#4891d3"/>
            <path id="Path_18466" data-name="Path 18466" d="M52.891,52.165l-2.179-2.179L48.329,52.37,51.7,55.74l2.611-2.611a4.742,4.742,0,0,1-1.42-.964Z" transform="translate(-48.329 -45.627)" fill="#4891d3"/>
          </g>
          <path id="Path_18467" data-name="Path 18467" d="M57.1,43.816l-2.319.257a10.81,10.81,0,0,0-6.45,3.1L57.1,46.2a3.1,3.1,0,0,0,2.51-4.275,3.046,3.046,0,0,1-2.51,1.894Z" transform="translate(-34.493 -33.342)" fill="#57b7eb"/>
          <path id="Path_18468" data-name="Path 18468" d="M48.506,52.715a3.1,3.1,0,0,1-5.264,1.846,3.063,3.063,0,0,1-.665-1,3.1,3.1,0,1,0,5.93,1.534l.975-8.77-.3.3Z" transform="translate(-35.646 -32.496)" fill="#57b7eb"/>
          <g id="Group_1022" data-name="Group 1022">
            <path id="Path_18469" data-name="Path 18469" d="M37.915,47.259a1.192,1.192,0,0,1-.615-2.214l.982-.589a8.02,8.02,0,0,1,7.747-.3,1.192,1.192,0,1,1-1.066,2.132,5.646,5.646,0,0,0-5.456.21l-.983.589A1.184,1.184,0,0,1,37.915,47.259Z" transform="translate(-36.721 -33.077)" fill="#e59730"/>
            <path id="Path_18470" data-name="Path 18470" d="M47.224,44.691a1.192,1.192,0,0,1-1.067-.659,8.018,8.018,0,0,1,.3-7.747l.59-.983a1.192,1.192,0,1,1,2.043,1.228l-.59.982a5.652,5.652,0,0,0-.209,5.456,1.192,1.192,0,0,1-1.066,1.725Z" transform="translate(-35.074 -34.723)" fill="#e59730"/>
          </g>
        </g>
      </g>
    </g>
  </g>
</svg>
