<svg id="harvest" xmlns="http://www.w3.org/2000/svg" width="43.133" height="40" viewBox="0 0 43.133 40">
  <g id="Group_657" data-name="Group 657" transform="translate(0 0)">
    <g id="Group_656" data-name="Group 656" transform="translate(0 0)">
      <path id="Path_17994" data-name="Path 17994" d="M42.87,35.524a.842.842,0,0,0-.285-.492,5.311,5.311,0,0,1-1.82-3.527l-.025-.136a.842.842,0,0,0-.711-.682,2.813,2.813,0,0,0-.39-.026,3.871,3.871,0,0,0-2.647,1.092.843.843,0,0,0-.224.469c-.06.453-.091.867-.119,1.233-.1,1.377-.194,1.524-.614,1.656a.842.842,0,0,0-.55.553A19.462,19.462,0,0,1,33.931,39.3c-.313-.6-.66-1.137-.982-1.638-.789-1.225-1.411-2.193-1.2-3.392.69-3.887.34-6.816-1.041-8.7a5.541,5.541,0,0,0-3.194-2.1,3.713,3.713,0,0,1,2.5-3.217.842.842,0,0,0-.436-1.627,5.394,5.394,0,0,0-3.73,4.634,5.589,5.589,0,0,0-3.57,1.21c-1.836,1.467-2.946,4.193-3.3,8.1-.106,1.176-.867,1.863-1.92,2.813a12.2,12.2,0,0,0-2.585,2.95A10.435,10.435,0,0,0,11.42,37.6,3.7,3.7,0,0,1,13.9,34.5a.842.842,0,0,0-.436-1.627,4.5,4.5,0,0,0-1.266.572,4.981,4.981,0,0,0-6.168-3.825.842.842,0,0,0-.6.6,5,5,0,0,0,1.29,4.811,4.944,4.944,0,0,0,3.232,1.45,6.313,6.313,0,0,0-.232,1.113,10.517,10.517,0,0,0,.8,21,10.418,10.418,0,0,0,5.966-1.856c.277.121.555.238.834.348a20.724,20.724,0,0,0,7.616,1.507A16.962,16.962,0,0,0,35.8,54.765a21.361,21.361,0,0,0,6.82-11.2A21.871,21.871,0,0,0,42.87,35.524ZM18.185,36.631c1.133-1.022,2.3-2.079,2.47-3.913.309-3.434,1.208-5.768,2.671-6.938a4.057,4.057,0,0,1,3.192-.795,4,4,0,0,1,2.831,1.577c1.1,1.5,1.348,4,.742,7.415-.328,1.85.571,3.247,1.441,4.6a12.906,12.906,0,0,1,1.33,2.447,20.207,20.207,0,0,1-11.888,8.185A10.516,10.516,0,0,0,15.98,39.09,10.941,10.941,0,0,1,18.185,36.631Zm-10.272-2.8a3.31,3.31,0,0,1-.946-2.682,3.337,3.337,0,0,1,.351-.019,3.274,3.274,0,0,1,2.33.965,3.31,3.31,0,0,1,.946,2.682,3.336,3.336,0,0,1-.351.019h0A3.274,3.274,0,0,1,7.913,33.833Zm2.6,23.074a8.824,8.824,0,1,1,8.714-7.385q-.813.1-1.636.133a7.232,7.232,0,0,0-.367-4.333.842.842,0,0,0-1.559.639,5.563,5.563,0,0,1,.195,3.667,18.521,18.521,0,0,1-3.6-.6.843.843,0,0,0-.706.127,4.833,4.833,0,0,0-1.951,2.482.843.843,0,0,0,.254.923,28.471,28.471,0,0,0,4.83,3.3A8.754,8.754,0,0,1,10.517,56.907ZM41,43.131c-2.311,8.626-8.316,13.776-16.063,13.776a21.981,21.981,0,0,1-13.5-5.233,3,3,0,0,1,.8-.911,20,20,0,0,0,4.788.588A20.341,20.341,0,0,0,29.619,46.9a22.443,22.443,0,0,0,4.852-5.248c.016-.021.03-.043.044-.066a21.493,21.493,0,0,0,2.456-5.037c1.181-.594,1.271-1.8,1.358-2.965.02-.267.04-.54.072-.829a2.281,2.281,0,0,1,.819-.357,6.6,6.6,0,0,0,2.041,3.716A20.378,20.378,0,0,1,41,43.131Z" transform="translate(0 -18.592)"/>
    </g>
  </g>
  <g id="Group_659" data-name="Group 659" transform="translate(26 8.062)">
    <g id="Group_658" data-name="Group 658" transform="translate(0 0)">
      <path id="Path_17995" data-name="Path 17995" d="M309.8,114.356a.842.842,0,0,0-.651,1.554c.613.257.951,2.106.412,5.143a.842.842,0,1,0,1.659.295C311.7,118.632,311.847,115.214,309.8,114.356Z" transform="translate(-308.632 -114.29)"/>
    </g>
  </g>
  <g id="Group_661" data-name="Group 661" transform="translate(31.209 31.903)">
    <g id="Group_660" data-name="Group 660" transform="translate(0 0)">
      <path id="Path_17996" data-name="Path 17996" d="M371.99,397.632a.843.843,0,0,0-1.18-.168l0,0a.842.842,0,0,0,1,1.358l.019-.014A.842.842,0,0,0,371.99,397.632Z" transform="translate(-370.462 -397.295)"/>
    </g>
  </g>
  <g id="Group_663" data-name="Group 663" transform="translate(23.445 33.143)">
    <g id="Group_662" data-name="Group 662">
      <path id="Path_17997" data-name="Path 17997" d="M285.659,412.474a.843.843,0,0,0-1.134-.366,12.162,12.162,0,0,1-5.352,1.415.842.842,0,0,0-.064,1.684c.013,0,.058,0,.133,0a13.924,13.924,0,0,0,6.05-1.6A.842.842,0,0,0,285.659,412.474Z" transform="translate(-278.3 -412.015)"/>
    </g>
  </g>
  <g id="Group_665" data-name="Group 665" transform="translate(14.209 24.106)">
    <g id="Group_664" data-name="Group 664" transform="translate(0 0)">
      <path id="Path_17998" data-name="Path 17998" d="M170.125,305.017l-.028-.028a.842.842,0,0,0-1.188,1.195l.018.018a.842.842,0,1,0,1.2-1.185Z" transform="translate(-168.661 -304.744)"/>
    </g>
  </g>
</svg>
