<svg id="harvester_1_" data-name="harvester (1)" xmlns="http://www.w3.org/2000/svg" width="91.304" height="70" viewBox="0 0 91.304 70">
  <path id="Path_18512" data-name="Path 18512" d="M124.841,378.509H44.189a1.522,1.522,0,0,1,0-3.044h80.652a1.522,1.522,0,0,1,0,3.044Zm0,0" transform="translate(-35.059 -308.509)" fill="#f3d55b"/>
  <path id="Path_18513" data-name="Path 18513" d="M3.043,378.509H1.522a1.522,1.522,0,0,1,0-3.044H3.043a1.522,1.522,0,0,1,0,3.044Zm0,0" transform="translate(0 -308.509)" fill="#f3d55b"/>
  <path id="Path_18514" data-name="Path 18514" d="M87.332,57.826h5.022L96.8,50.141,92.36,42.456H83.488l-4.428,7.685,1.689,2.938-9.816-9.07V36.522a3.043,3.043,0,1,0,0-6.087L79.242,9.678a2.951,2.951,0,0,0,.822-2.07,3.053,3.053,0,0,0-3.043-3.043H58.759a2.974,2.974,0,0,0-2.146.9,2.887,2.887,0,0,0-.49.624H51.15A6.087,6.087,0,0,0,45.064,0H20.036L16.559.055a6.087,6.087,0,0,0-5.6,3.93l-2.32,6.128a1.522,1.522,0,0,0,1.421,2.061h4.467a1.521,1.521,0,0,0,1.36-.841l2.2-4.4a1.523,1.523,0,0,1,1.362-.841H40.727A19.783,19.783,0,0,0,21.538,21.076l-.061.228H17.2a3.054,3.054,0,0,0-3,2.542l-.936,6.925a3.022,3.022,0,0,0,.511,5.614h-.047l3.424,12.95a3.043,3.043,0,0,0,2.983,2.4h2.917a9.131,9.131,0,1,0,15.922,6.087H52.794a10.637,10.637,0,0,0,17.978,6.087H87.079A2.111,2.111,0,0,0,89.194,61.8a2.074,2.074,0,0,0-.685-1.552L86.9,58.754a1.549,1.549,0,0,0,.364-.649ZM56.081,9.07v0Zm0,0" transform="translate(-7.021)" fill="#e57e25"/>
  <path id="Path_18515" data-name="Path 18515" d="M42.5,119.465,40.22,128.6l-6.087,1.521,1.1-8.11a3.054,3.054,0,0,1,3-2.542Zm0,0" transform="translate(-28.046 -98.161)" fill="#d25627"/>
  <path id="Path_18516" data-name="Path 18516" d="M94.834,204.168v12.341L76.7,225.472H62.878l-15.917-6.087H44.039a3.043,3.043,0,0,1-2.983-2.4l-3.424-12.95Zm0,0" transform="translate(-30.922 -167.647)" fill="#f0c419"/>
  <path id="Path_18517" data-name="Path 18517" d="M95.061,282.2a9.13,9.13,0,1,1-9.13-9.13A9.13,9.13,0,0,1,95.061,282.2Zm0,0" transform="translate(-63.105 -224.371)" fill="#35495e"/>
  <path id="Path_18518" data-name="Path 18518" d="M117.02,310.243a3.043,3.043,0,1,1-3.043-3.043A3.043,3.043,0,0,1,117.02,310.243Zm0,0" transform="translate(-91.151 -252.417)" fill="#a5a5a4"/>
  <path id="Path_18519" data-name="Path 18519" d="M227.028,58.481h-13.7V34.133h12.174l-1.431.776.274,2.207,1.476,11.809,1.02,8.065Zm0,0" transform="translate(-175.289 -28.046)" fill="#d25627"/>
  <path id="Path_18520" data-name="Path 18520" d="M94.135,34.133V58.481H68.266l2.283-9.131.061-.228A19.783,19.783,0,0,1,89.8,34.133Zm0,0" transform="translate(-56.092 -28.046)" fill="#f29c1f"/>
  <path id="Path_18521" data-name="Path 18521" d="M297.414,28.645a2.951,2.951,0,0,1-.822,2.07l-.076.076a2.976,2.976,0,0,1-2.146.9H276.11a3.088,3.088,0,0,1-2.678-1.583V30.09a3.1,3.1,0,0,1-.365-1.445,2.963,2.963,0,0,1,.091-.746,2.9,2.9,0,0,1,.807-1.4,2.974,2.974,0,0,1,2.146-.9h18.261A3.053,3.053,0,0,1,297.414,28.645Zm0,0" transform="translate(-224.371 -21.036)" fill="#f0c419"/>
  <path id="Path_18522" data-name="Path 18522" d="M309.775,54.273,301.466,75.03H289.292l-.182-1.491.182-.031,14.045-18.261h4.216a2.976,2.976,0,0,0,2.146-.9Zm0,0" transform="translate(-237.553 -44.595)" fill="#90bae1"/>
  <path id="Path_18523" data-name="Path 18523" d="M20.029,0H45.057a6.087,6.087,0,0,1,6.087,6.087h-31.7a1.523,1.523,0,0,0-1.362.841l-2.2,4.4a1.521,1.521,0,0,1-1.36.841H10.058a1.521,1.521,0,0,1-1.422-2.061l2.32-6.128a6.087,6.087,0,0,1,5.6-3.929Zm0,0" transform="translate(-7.014)" fill="#f0c419"/>
  <path id="Path_18524" data-name="Path 18524" d="M410.68,253.448h6.589l4.443-7.685-4.443-7.685H408.4l-4.428,7.685,1.689,2.938" transform="translate(-331.93 -195.622)" fill="#f29c1f"/>
  <path id="Path_18525" data-name="Path 18525" d="M434.584,283.669a1.459,1.459,0,0,1-.29-.031,1.48,1.48,0,0,1-1.2-1.689l.015-.092,1.913-7.643a1.522,1.522,0,1,1,2.952.743l-1.888,7.517A1.576,1.576,0,0,1,434.584,283.669Zm0,0" transform="translate(-355.844 -224.369)" fill="#d25627"/>
  <g id="Group_1039" data-name="Group 1039" transform="translate(16.739 21.247)">
    <path id="Path_18526" data-name="Path 18526" d="M95.388,129.853a1.445,1.445,0,0,1-.3-.03,1.522,1.522,0,0,1-1.186-1.8l1.521-7.609a1.522,1.522,0,1,1,2.983.6l-1.522,7.609A1.521,1.521,0,0,1,95.388,129.853Zm0,0" transform="translate(-93.866 -119.144)" fill="#f0c419"/>
    <path id="Path_18527" data-name="Path 18527" d="M129.521,130.326a1.436,1.436,0,0,1-.3-.03,1.522,1.522,0,0,1-1.187-1.8l1.521-7.609a1.522,1.522,0,0,1,2.983.6l-1.522,7.609A1.521,1.521,0,0,1,129.521,130.326Zm0,0" transform="translate(-121.912 -119.617)" fill="#f0c419"/>
    <path id="Path_18528" data-name="Path 18528" d="M163.654,130.326a1.436,1.436,0,0,1-.3-.03,1.522,1.522,0,0,1-1.187-1.8l1.521-7.609a1.522,1.522,0,0,1,2.983.6l-1.521,7.609A1.522,1.522,0,0,1,163.654,130.326Zm0,0" transform="translate(-149.958 -119.617)" fill="#f0c419"/>
  </g>
  <path id="Path_18529" data-name="Path 18529" d="M284.259,52.442l-7.669,10.226-1.476-11.809a3.088,3.088,0,0,0,2.678,1.583Zm0,0" transform="translate(-226.053 -41.79)" fill="#90bae1"/>
  <path id="Path_18530" data-name="Path 18530" d="M298.638,59.734,284.593,77.995l-.182.031-1.02-8.065,7.669-10.226Zm0,0" transform="translate(-232.854 -49.082)" fill="#b0d3f0"/>
  <path id="Path_18531" data-name="Path 18531" d="M277.3,266.652A10.652,10.652,0,1,1,266.652,256,10.652,10.652,0,0,1,277.3,266.652Zm0,0" transform="translate(-210.348 -210.348)" fill="#35495e"/>
  <path id="Path_18532" data-name="Path 18532" d="M299.263,294.7a4.565,4.565,0,1,1-4.565-4.565A4.565,4.565,0,0,1,299.263,294.7Zm0,0" transform="translate(-238.394 -238.394)" fill="#a5a5a4"/>
</svg>
