<svg xmlns="http://www.w3.org/2000/svg" width="71.225" height="70" viewBox="0 0 71.225 70">
  <g id="wheat" transform="translate(0 -4.392)">
    <g id="Group_902" data-name="Group 902" transform="translate(0 66.337)">
      <path id="Path_18182" data-name="Path 18182" d="M436.9,464.931l1.421.172a10.693,10.693,0,0,1,.54-3.511C438.009,462.134,437.13,464.318,436.9,464.931Z" transform="translate(-375.982 -459.792)" fill="#7fb241"/>
      <path id="Path_18183" data-name="Path 18183" d="M428.746,448.68a5.651,5.651,0,0,0-2.971,4.952l1.457.176C426.963,452.593,428.746,448.68,428.746,448.68Z" transform="translate(-366.411 -448.68)" fill="#7fb241"/>
      <path id="Path_18184" data-name="Path 18184" d="M436.253,485.647s.027-.069.065-.172l-.094-.011A1.019,1.019,0,0,0,436.253,485.647Z" transform="translate(-375.404 -480.335)" fill="#7fb241"/>
      <path id="Path_18185" data-name="Path 18185" d="M452.624,461.608a10.693,10.693,0,0,1,.54,3.511l1.421-.172C454.351,464.332,453.474,462.148,452.624,461.608Z" transform="translate(-389.517 -459.806)" fill="#7fb241"/>
      <path id="Path_18186" data-name="Path 18186" d="M456.5,448.68s1.782,3.913,1.512,5.129l1.457-.176A5.642,5.642,0,0,0,456.5,448.68Z" transform="translate(-392.849 -448.68)" fill="#7fb241"/>
      <path id="Path_18187" data-name="Path 18187" d="M466.753,485.647a1.078,1.078,0,0,0,.029-.183l-.094.011C466.726,485.578,466.753,485.647,466.753,485.647Z" transform="translate(-401.62 -480.335)" fill="#7fb241"/>
      <path id="Path_18188" data-name="Path 18188" d="M489.933,485.647s.027-.069.065-.172l-.094-.011A1.262,1.262,0,0,0,489.933,485.647Z" transform="translate(-421.599 -480.335)" fill="#7fb241"/>
      <path id="Path_18189" data-name="Path 18189" d="M482.426,448.68a5.65,5.65,0,0,0-2.971,4.952l1.457.176C480.643,452.593,482.426,448.68,482.426,448.68Z" transform="translate(-412.606 -448.68)" fill="#7fb241"/>
      <path id="Path_18190" data-name="Path 18190" d="M492.537,461.608c-.85.54-1.727,2.724-1.961,3.339l1.421.172A10.743,10.743,0,0,1,492.537,461.608Z" transform="translate(-422.178 -459.806)" fill="#7fb241"/>
      <path id="Path_18191" data-name="Path 18191" d="M398.944,461.608a10.693,10.693,0,0,1,.54,3.511l1.421-.172C400.671,464.332,399.792,462.148,398.944,461.608Z" transform="translate(-343.321 -459.806)" fill="#7fb241"/>
      <path id="Path_18192" data-name="Path 18192" d="M402.816,448.68s1.785,3.913,1.515,5.129l1.457-.176A5.653,5.653,0,0,0,402.816,448.68Z" transform="translate(-346.654 -448.68)" fill="#7fb241"/>
      <path id="Path_18193" data-name="Path 18193" d="M413.073,485.647a1.081,1.081,0,0,0,.029-.183l-.094.011C413.046,485.578,413.073,485.647,413.073,485.647Z" transform="translate(-355.425 -480.335)" fill="#7fb241"/>
      <rect id="Rectangle_1111" data-name="Rectangle 1111" width="71.225" height="3.777" transform="translate(0 4.279)" fill="#7fb241"/>
    </g>
    <circle id="Ellipse_106" data-name="Ellipse 106" cx="8.796" cy="8.796" r="8.796" transform="translate(51.868 4.392)" fill="#f3c432"/>
    <path id="Path_18194" data-name="Path 18194" d="M264.183,61.879a2.111,2.111,0,0,0-.939.223,3.929,3.929,0,0,0-.317-.428,2.883,2.883,0,0,0-2.454-1.37h-.031a4.083,4.083,0,0,0-.551-.038c-.076,0-.149,0-.223.007a3.94,3.94,0,0,0-3.754-2.748,3.835,3.835,0,0,0-.455.027c.011-.132.018-.265.018-.4a5.048,5.048,0,1,0-10.1,0c0,.058,0,.116,0,.172a4.286,4.286,0,0,0-5.34,4.879,3.321,3.321,0,1,0,2.3,5.854,6.521,6.521,0,0,0,9.559.486,3.379,3.379,0,0,0,5.448-1.238,3.977,3.977,0,0,0,6.13-1.356,2.093,2.093,0,0,0,2.793-1.976A2.088,2.088,0,0,0,264.183,61.879Z" transform="translate(-203.853 -41.06)" fill="#e9eff4"/>
    <path id="Path_18195" data-name="Path 18195" d="M262.226,290.17a42.9,42.9,0,0,1,10.558-30.3c-.167-.145-.332-.292-.5-.437a43.559,43.559,0,0,0-10.721,30.738Z" transform="translate(-225.054 -219.481)" fill="#f3c432"/>
    <g id="Group_903" data-name="Group 903" transform="translate(31.957 35.378)">
      <path id="Path_18196" data-name="Path 18196" d="M229.757,352.184c-1.736,5.222.866,10.007,4.6,10.333C234.9,358.011,233.3,353.5,229.757,352.184Z" transform="translate(-229.208 -334.679)" fill="#ffd83b"/>
      <path id="Path_18197" data-name="Path 18197" d="M274.467,380.873c-1.218,3.569-4.566,6.385-8.323,6.039C266.755,382.137,270.96,379.556,274.467,380.873Z" transform="translate(-260.994 -359.073)" fill="#ffd83b"/>
      <path id="Path_18198" data-name="Path 18198" d="M250.338,294.536c-2.617,4.843-.879,9.969,2.737,10.947C254.389,301.175,253.595,296.448,250.338,294.536Z" transform="translate(-246.31 -285.069)" fill="#ffd83b"/>
      <path id="Path_18199" data-name="Path 18199" d="M286.982,336.393c-1.818,3.3-5.6,5.463-9.238,4.464C279.169,336.3,283.756,334.484,286.982,336.393Z" transform="translate(-270.977 -320.443)" fill="#ffd83b"/>
      <path id="Path_18200" data-name="Path 18200" d="M279.514,241.464c-3.456,4.337-2.639,9.686.75,11.283C282.309,248.739,282.381,243.918,279.514,241.464Z" transform="translate(-270.586 -239.396)" fill="#ffd83b"/>
      <path id="Path_18201" data-name="Path 18201" d="M308.518,294.281c-2.391,2.954-6.487,4.41-9.894,2.788C300.826,292.835,305.68,291.829,308.518,294.281Z" transform="translate(-288.946 -283.718)" fill="#ffd83b"/>
      <path id="Path_18202" data-name="Path 18202" d="M325.873,226.632a12.106,12.106,0,0,1-8.071,8.841C317.363,231.214,321.519,226.643,325.873,226.632Z" transform="translate(-305.423 -226.632)" fill="#ffd83b"/>
    </g>
    <g id="Group_904" data-name="Group 904" transform="translate(29.98 50.828)">
      <path id="Path_18203" data-name="Path 18203" d="M272.645,428.554a5.681,5.681,0,0,0-1.191-.263,5.9,5.9,0,0,0-3.737.758,6.487,6.487,0,0,0-1.57,1.33q-.12,1.68-.107,3.38c.031-.174.067-.352.127-.587a6.5,6.5,0,0,1,1.972-3.259,5.514,5.514,0,0,1,3.3-1.332,5.389,5.389,0,0,1,1.189.049l.453.071Z" transform="translate(-258.926 -415.579)" fill="#f3c432"/>
      <path id="Path_18204" data-name="Path 18204" d="M215.484,426.6a4.184,4.184,0,0,1,1.225,0,6.265,6.265,0,0,1,3.467,1.76,9.887,9.887,0,0,1,1.347,1.628q-.077,1.713-.02,3.442c-.038-.176-.08-.357-.145-.6a10.486,10.486,0,0,0-1.749-3.612,6.647,6.647,0,0,0-2.962-2.258,4.219,4.219,0,0,0-1.164-.261c-.29-.022-.457-.033-.457-.033Z" transform="translate(-215.024 -414.13)" fill="#f3c432"/>
      <path id="Path_18205" data-name="Path 18205" d="M358.518,357.309a27.989,27.989,0,0,1,6.891-19.575l-.326-.286a28.416,28.416,0,0,0-7,19.861Z" transform="translate(-338.12 -337.448)" fill="#f3c432"/>
    </g>
    <g id="Group_905" data-name="Group 905" transform="translate(46.978 47.843)">
      <path id="Path_18206" data-name="Path 18206" d="M337.3,397.96c-1.133,3.409.564,6.53,3,6.744C340.66,401.761,339.614,398.819,337.3,397.96Z" transform="translate(-336.944 -386.538)" fill="#ffd83b"/>
      <path id="Path_18207" data-name="Path 18207" d="M366.472,416.689a5.5,5.5,0,0,1-5.432,3.94C361.442,417.515,364.183,415.828,366.472,416.689Z" transform="translate(-357.68 -402.464)" fill="#ffd83b"/>
      <path id="Path_18208" data-name="Path 18208" d="M350.726,360.36c-1.709,3.159-.573,6.5,1.787,7.143C353.37,364.69,352.852,361.6,350.726,360.36Z" transform="translate(-348.098 -354.181)" fill="#ffd83b"/>
      <path id="Path_18209" data-name="Path 18209" d="M374.652,387.657a5.479,5.479,0,0,1-6.028,2.913C369.552,387.6,372.546,386.413,374.652,387.657Z" transform="translate(-364.207 -377.251)" fill="#ffd83b"/>
      <path id="Path_18210" data-name="Path 18210" d="M369.772,325.72c-2.255,2.829-1.722,6.32.489,7.362C371.6,330.467,371.642,327.322,369.772,325.72Z" transform="translate(-363.946 -324.37)" fill="#ffd83b"/>
      <path id="Path_18211" data-name="Path 18211" d="M388.7,360.187a5.481,5.481,0,0,1-6.456,1.818C383.677,359.243,386.844,358.587,388.7,360.187Z" transform="translate(-375.925 -353.294)" fill="#ffd83b"/>
      <path id="Path_18212" data-name="Path 18212" d="M400.029,316.04a7.9,7.9,0,0,1-5.265,5.769A5.647,5.647,0,0,1,400.029,316.04Z" transform="translate(-386.684 -316.04)" fill="#ffd83b"/>
    </g>
    <g id="Group_906" data-name="Group 906" transform="translate(7.502 39.951)">
      <path id="Path_18213" data-name="Path 18213" d="M365.3,447.79a3.718,3.718,0,0,0-.779-.172,3.842,3.842,0,0,0-2.438.5,4.2,4.2,0,0,0-1.024.868c-.051.732-.076,1.466-.069,2.2.02-.114.045-.23.083-.384a4.241,4.241,0,0,1,1.287-2.126,3.579,3.579,0,0,1,2.153-.868,3.353,3.353,0,0,1,.776.033l.294.047S365.476,447.85,365.3,447.79Z" transform="translate(-318.156 -421.35)" fill="#f3c432"/>
      <path id="Path_18214" data-name="Path 18214" d="M327.981,446.515a2.693,2.693,0,0,1,.8,0,4.08,4.08,0,0,1,2.262,1.149,6.411,6.411,0,0,1,.879,1.062q-.05,1.118-.013,2.246c-.025-.116-.053-.232-.094-.388a6.836,6.836,0,0,0-1.14-2.356,4.322,4.322,0,0,0-1.934-1.472,2.671,2.671,0,0,0-.761-.17l-.3-.022S327.792,446.544,327.981,446.515Z" transform="translate(-289.495 -420.406)" fill="#f3c432"/>
      <path id="Path_18215" data-name="Path 18215" d="M54.514,290.17a42.9,42.9,0,0,1,10.558-30.3c-.167-.145-.332-.292-.5-.437A43.559,43.559,0,0,0,53.852,290.17Z" transform="translate(-53.804 -259.432)" fill="#f3c432"/>
    </g>
    <g id="Group_907" data-name="Group 907" transform="translate(2.997 35.378)">
      <path id="Path_18216" data-name="Path 18216" d="M22.045,352.184c-1.736,5.222.866,10.007,4.6,10.333C27.19,358.011,25.586,353.5,22.045,352.184Z" transform="translate(-21.496 -334.679)" fill="#ffd83b"/>
      <path id="Path_18217" data-name="Path 18217" d="M66.755,380.873c-1.218,3.569-4.566,6.385-8.323,6.039C59.043,382.137,63.246,379.556,66.755,380.873Z" transform="translate(-53.282 -359.073)" fill="#ffd83b"/>
      <path id="Path_18218" data-name="Path 18218" d="M42.626,294.536c-2.617,4.843-.879,9.969,2.737,10.947C46.677,301.175,45.883,296.448,42.626,294.536Z" transform="translate(-38.598 -285.069)" fill="#ffd83b"/>
      <path id="Path_18219" data-name="Path 18219" d="M79.27,336.393c-1.818,3.3-5.6,5.463-9.238,4.464C71.457,336.3,76.044,334.484,79.27,336.393Z" transform="translate(-63.265 -320.443)" fill="#ffd83b"/>
      <path id="Path_18220" data-name="Path 18220" d="M71.786,241.464c-3.455,4.337-2.639,9.686.75,11.283C74.584,248.739,74.653,243.918,71.786,241.464Z" transform="translate(-62.86 -239.396)" fill="#ffd83b"/>
      <path id="Path_18221" data-name="Path 18221" d="M100.806,294.281c-2.391,2.954-6.487,4.41-9.894,2.788C93.114,292.835,97.968,291.829,100.806,294.281Z" transform="translate(-81.234 -283.718)" fill="#ffd83b"/>
      <path id="Path_18222" data-name="Path 18222" d="M118.147,226.632a12.106,12.106,0,0,1-8.071,8.841C109.639,231.214,113.793,226.643,118.147,226.632Z" transform="translate(-97.699 -226.632)" fill="#ffd83b"/>
    </g>
    <g id="Group_908" data-name="Group 908" transform="translate(1.019 50.828)">
      <path id="Path_18223" data-name="Path 18223" d="M64.933,428.554a5.681,5.681,0,0,0-1.191-.263,5.9,5.9,0,0,0-3.737.758,6.488,6.488,0,0,0-1.57,1.33q-.12,1.68-.107,3.38c.031-.174.067-.352.127-.587a6.5,6.5,0,0,1,1.972-3.259,5.514,5.514,0,0,1,3.3-1.332,5.389,5.389,0,0,1,1.189.049l.453.071Z" transform="translate(-51.214 -415.579)" fill="#f3c432"/>
      <path id="Path_18224" data-name="Path 18224" d="M7.772,426.6A4.184,4.184,0,0,1,9,426.6a6.265,6.265,0,0,1,3.467,1.76,9.887,9.887,0,0,1,1.347,1.628q-.077,1.713-.02,3.442c-.038-.176-.08-.357-.145-.6a10.486,10.486,0,0,0-1.749-3.612,6.646,6.646,0,0,0-2.962-2.258,4.219,4.219,0,0,0-1.164-.261c-.29-.022-.457-.033-.457-.033Z" transform="translate(-7.312 -414.13)" fill="#f3c432"/>
      <path id="Path_18225" data-name="Path 18225" d="M150.806,357.309a27.989,27.989,0,0,1,6.891-19.575l-.326-.286a28.416,28.416,0,0,0-7,19.861Z" transform="translate(-130.408 -337.448)" fill="#f3c432"/>
    </g>
    <g id="Group_909" data-name="Group 909" transform="translate(18.018 47.843)">
      <path id="Path_18226" data-name="Path 18226" d="M129.591,397.96c-1.133,3.409.564,6.53,3,6.744C132.946,401.761,131.9,398.819,129.591,397.96Z" transform="translate(-129.232 -386.538)" fill="#ffd83b"/>
      <path id="Path_18227" data-name="Path 18227" d="M158.76,416.689a5.5,5.5,0,0,1-5.432,3.94C153.727,417.515,156.471,415.828,158.76,416.689Z" transform="translate(-149.968 -402.464)" fill="#ffd83b"/>
      <path id="Path_18228" data-name="Path 18228" d="M143.014,360.36c-1.709,3.159-.573,6.5,1.787,7.143C145.658,364.69,145.14,361.6,143.014,360.36Z" transform="translate(-140.386 -354.181)" fill="#ffd83b"/>
      <path id="Path_18229" data-name="Path 18229" d="M166.924,387.657a5.479,5.479,0,0,1-6.028,2.913C161.826,387.6,164.82,386.413,166.924,387.657Z" transform="translate(-156.481 -377.251)" fill="#ffd83b"/>
      <path id="Path_18230" data-name="Path 18230" d="M162.044,325.72c-2.255,2.829-1.722,6.32.489,7.362C163.869,330.467,163.916,327.322,162.044,325.72Z" transform="translate(-156.22 -324.37)" fill="#ffd83b"/>
      <path id="Path_18231" data-name="Path 18231" d="M180.968,360.187a5.481,5.481,0,0,1-6.456,1.818C175.951,359.243,179.116,358.587,180.968,360.187Z" transform="translate(-168.199 -353.294)" fill="#ffd83b"/>
      <path id="Path_18232" data-name="Path 18232" d="M192.3,316.04a7.9,7.9,0,0,1-5.265,5.769A5.65,5.65,0,0,1,192.3,316.04Z" transform="translate(-178.96 -316.04)" fill="#ffd83b"/>
    </g>
    <g id="Group_910" data-name="Group 910" transform="translate(16.726 66.031)">
      <path id="Path_18233" data-name="Path 18233" d="M157.567,447.79a3.717,3.717,0,0,0-.779-.172,3.842,3.842,0,0,0-2.438.5,4.2,4.2,0,0,0-1.024.868c-.051.732-.076,1.466-.069,2.2.02-.114.045-.23.083-.384a4.241,4.241,0,0,1,1.287-2.126,3.579,3.579,0,0,1,2.153-.868,3.353,3.353,0,0,1,.776.033l.294.047S157.748,447.85,157.567,447.79Z" transform="translate(-148.615 -447.43)" fill="#f3c432"/>
      <path id="Path_18234" data-name="Path 18234" d="M120.269,446.515a2.693,2.693,0,0,1,.8,0,4.08,4.08,0,0,1,2.262,1.149,6.411,6.411,0,0,1,.879,1.062q-.05,1.118-.013,2.246c-.025-.116-.054-.232-.094-.388a6.836,6.836,0,0,0-1.14-2.356,4.321,4.321,0,0,0-1.934-1.472,2.671,2.671,0,0,0-.761-.17l-.3-.022S120.077,446.544,120.269,446.515Z" transform="translate(-119.968 -446.486)" fill="#f3c432"/>
    </g>
  </g>
</svg>
