<svg xmlns="http://www.w3.org/2000/svg" width="40" height="40" viewBox="0 0 40 40">
  <g id="sheep_1_" data-name="sheep (1)" transform="translate(-16 -15.997)">
    <circle id="Ellipse_118" data-name="Ellipse 118" cx="0.667" cy="0.667" r="0.667" transform="translate(50 25.997)"/>
    <path id="Path_18533" data-name="Path 18533" d="M55.333,22A3.337,3.337,0,0,0,52,18.664h-.084a2.667,2.667,0,0,0-3.967-1.614,3,3,0,0,0-4.885.453,3.333,3.333,0,0,0-4.05,4.642,3.345,3.345,0,0,0-2.293,2.583,4.011,4.011,0,0,0-2.819.53,3.314,3.314,0,0,0-1.9-.595,3.35,3.35,0,0,0-2.844,1.6,2.673,2.673,0,0,0-2.823.323,2.666,2.666,0,0,0-3.985.767A3.405,3.405,0,0,0,22,27.331a3.337,3.337,0,0,0-3.333,3.333,3.4,3.4,0,0,0,.018.348,2.666,2.666,0,0,0-1.2,3.208,4,4,0,0,0,.362,6.482A4,4,0,0,0,22,46.608v6.056a.662.662,0,0,0,.071.3h0L23.4,55.628A.667.667,0,0,0,24,56h2.667a.667.667,0,0,0,.6-.965L26,52.506V47.315a3.668,3.668,0,0,0,1.89-.736,3.338,3.338,0,0,0,4.7-.478,3,3,0,0,0,3.317.12,3.99,3.99,0,0,0,5.43.085v6.358a.662.662,0,0,0,.071.3h0l1.333,2.667a.667.667,0,0,0,.6.369H46a.667.667,0,0,0,.6-.965l-1.263-2.526V47.274a4.006,4.006,0,0,0,3.333-3.943q0-.033,0-.067a3.338,3.338,0,0,0,2.348-4.7,4,4,0,0,0,.683-5.848,3.32,3.32,0,0,0,.3-1.329,5.176,5.176,0,0,0,1.934.477,2.053,2.053,0,0,0,1.087-.28A2.438,2.438,0,0,0,56,29.331a7.435,7.435,0,0,0-1.842-4.8A3.326,3.326,0,0,0,55.333,22Zm-32,30V46.49a3.685,3.685,0,0,0,1.333.7V52Zm1.079,2.667-.667-1.333h1.176l.667,1.333ZM42.666,52V46.789A4.02,4.02,0,0,0,44,47.273V52Zm1.079,2.667-.667-1.333h1.176l.667,1.333Zm6.062-16.922a.667.667,0,0,0-.237,1.017A1.975,1.975,0,0,1,50,40a2,2,0,0,1-2,2h-.043a.667.667,0,0,0-.678.8,2.729,2.729,0,0,1,.054.536,2.667,2.667,0,0,1-5.067,1.163.667.667,0,0,0-1.2,0,2.682,2.682,0,0,1-2.4,1.5,2.644,2.644,0,0,1-2.145-1.082.667.667,0,0,0-1.008-.074,1.667,1.667,0,0,1-2.524-.19.667.667,0,0,0-1.15.133,2,2,0,0,1-3.408.457.667.667,0,0,0-1.02-.027,2.332,2.332,0,0,1-3.643-.192.667.667,0,0,0-.921-.16A2.666,2.666,0,0,1,19.337,40.9a.667.667,0,0,0-.266-1.067,2.667,2.667,0,0,1-.4-4.811.667.667,0,0,0,.221-.949,1.324,1.324,0,0,1-.225-.74,1.338,1.338,0,0,1,.958-1.279.667.667,0,0,0,.454-.827,2,2,0,0,1,2.481-2.481.667.667,0,0,0,.827-.454,1.332,1.332,0,0,1,2.39-.361.667.667,0,0,0,1.112,0,1.332,1.332,0,0,1,2.067-.193.667.667,0,0,0,1.119-.283,2,2,0,0,1,3.33-.878.667.667,0,0,0,.893.038A2.67,2.67,0,0,1,36,26a2.638,2.638,0,0,1,1.078.227.667.667,0,0,0,.933-.686A1.815,1.815,0,0,1,38,25.331a2,2,0,0,1,2-2c.061,0,.124,0,.188.009a.667.667,0,0,0,.5-1.166,2,2,0,0,1,2.37-3.207.667.667,0,0,0,1-.4,1.667,1.667,0,0,1,3.133-.251.667.667,0,0,0,1.12.157,1.333,1.333,0,0,1,2.357.854c0,.022,0,.043,0,.065a.667.667,0,0,0,.835.665A1.974,1.974,0,0,1,52,20a2,2,0,1,1-1.792,2.889.667.667,0,0,0-1.133-.1,1.333,1.333,0,0,1-1.588.441,11.8,11.8,0,0,0-.165-2.02.667.667,0,0,0-1.151-.323l-6,6.667a.667.667,0,0,0,.392,1.1,10.681,10.681,0,0,0,1.532.105c1.438,0,3.5-.278,4.461-1.73q.06-.092.115-.186A1.329,1.329,0,0,1,47.333,28a3.286,3.286,0,0,1-.126.569.667.667,0,0,0,.8.873,4.49,4.49,0,0,1,.655-.109,2,2,0,0,1,1.654,3.126.667.667,0,0,0,.11.875,2.667,2.667,0,0,1-.624,4.41ZM45.443,26.3c-.6.917-2.148,1.135-3.37,1.134L46.149,22.9A6.231,6.231,0,0,1,45.443,26.3Zm1.785,2.219q-.011.023-.02.047a.466.466,0,0,1,.019-.047Zm.786.923.03-.009-.03.009Zm6.653-.108c0,.34-.044.938-.341,1.119-.556.338-2.01-.358-2.743-.731A3.335,3.335,0,0,0,48.666,28a2.658,2.658,0,0,0-1.48-2.389,7.522,7.522,0,0,0,.208-1.014,2.658,2.658,0,0,0,2.1-.392,3.335,3.335,0,0,0,3.461.987A6.2,6.2,0,0,1,54.666,29.331Z" transform="translate(0 0)"/>
  </g>
</svg>
