<svg xmlns="http://www.w3.org/2000/svg" width="52.137" height="52.137" viewBox="0 0 52.137 52.137">
  <g id="wheat" opacity="0.5">
    <path id="Path_9044" data-name="Path 9044" d="M49.977,15.122l-2.16,2.16-2.16-2.16a7.6,7.6,0,0,0-4.323-2.158l5.4-5.4L44.577,5.4l-5.4,5.4a7.579,7.579,0,0,0-2.161-4.32l-2.16-2.16,2.16-2.16L34.855,0,8.212,26.643a7.638,7.638,0,0,0,0,10.8l2.16,2.16L0,49.977l2.16,2.16L12.533,41.765l2.16,2.16a7.646,7.646,0,0,0,10.8,0L52.137,17.282Zm-12.962,2.16a4.588,4.588,0,0,1,6.481,0l2.16,2.16-4.321,4.321-2.16-2.16a7.58,7.58,0,0,0-4.32-2.161ZM17.573,25.923l-2.16-2.16,4.321-4.321,2.16,2.16a4.583,4.583,0,0,1,0,6.481l-2.16,2.16a7.579,7.579,0,0,0-2.161-4.32Zm10.8-4.321-2.16,2.16a7.579,7.579,0,0,0-2.161-4.32l-2.16-2.16,4.321-4.321,2.16,2.16a4.588,4.588,0,0,1,0,6.481Zm-4.321,8.641a4.583,4.583,0,0,1,6.481,0L32.7,32.4l-4.32,4.32-2.16-2.16a7.58,7.58,0,0,0-4.32-2.161Zm8.641-2.16a7.58,7.58,0,0,0-4.32-2.161l2.16-2.16a4.588,4.588,0,0,1,6.481,0l2.16,2.16-4.321,4.321Zm2.16-19.442a4.583,4.583,0,0,1,0,6.481l-2.16,2.16a7.579,7.579,0,0,0-2.161-4.32l-2.16-2.16L32.7,6.481ZM10.372,35.284a4.583,4.583,0,0,1,0-6.481l2.88-2.88,2.16,2.16a4.583,4.583,0,0,1,0,6.481l-2.88,2.88Zm12.962,6.481a4.588,4.588,0,0,1-6.481,0l-2.16-2.16,2.88-2.88a4.583,4.583,0,0,1,6.481,0l2.16,2.16Z" transform="translate(0 0)" fill="#95a585"/>
  </g>
</svg>
