<svg xmlns="http://www.w3.org/2000/svg" width="32.83" height="30.958" viewBox="0 0 32.83 30.958">
  <g id="Group_180" data-name="Group 180" transform="translate(-56.066 -4353.146)">
    <circle id="Ellipse_10" data-name="Ellipse 10" cx="3.5" cy="3.5" r="3.5" transform="translate(69 4365)" fill="#0b6255"/>
    <g id="Path_124" data-name="Path 124" transform="translate(56.343 4352.608)" fill="none">
      <path d="M15.887.537c10.792,0,14.067,6.881,16.333,15.338S24.736,31.5,15.887,31.5-5.225,23.166,1.814,12.78,5.095.537,15.887.537Z" stroke="none"/>
      <path d="M 15.88679218292236 1.037351608276367 C 12.07226181030273 1.037351608276367 10.22488212585449 1.280832290649414 9.070602416992188 1.935691833496094 C 7.906782150268555 2.595972061157227 7.33253288269043 3.781951904296875 6.38115119934082 5.746822357177734 C 5.532732009887695 7.499052047729492 4.370771408081055 9.898811340332031 2.228351593017578 13.06005096435547 C 1.023591995239258 14.83773231506348 0.3548011779785156 16.62934112548828 0.2405509948730469 18.38511276245117 C 0.1373920440673828 19.97054290771484 0.4844722747802734 21.52754211425781 1.272132873535156 23.01287078857422 C 2.46339225769043 25.2592716217041 4.677331924438477 27.3140811920166 7.506101608276367 28.79880142211914 C 10.16634178161621 30.19506072998047 13.22098159790039 30.99585151672363 15.88679218292236 30.99585151672363 C 18.49134063720703 30.99585151672363 21.20209121704102 30.36719131469727 23.72597122192383 29.17784118652344 C 26.25121116638184 27.98786163330078 28.36739158630371 26.34050178527832 29.84575271606445 24.41387176513672 C 31.24713134765625 22.58755111694336 32.71283340454102 19.64618110656738 31.7371711730957 16.00494194030762 C 30.76101112365723 12.36188125610352 29.42009162902832 8.248971939086914 26.87591171264648 5.366001129150391 C 25.63113212585449 3.955451965332031 24.19335174560547 2.921821594238281 22.48042297363281 2.206050872802734 C 20.59842300415039 1.419641494750977 18.44163131713867 1.037351608276367 15.88679218292236 1.037351608276367 M 15.88679218292236 0.5373516082763672 C 26.67903137207031 0.5373516082763672 29.95415115356445 7.418790817260742 32.22013092041016 15.87553215026855 C 34.48610305786133 24.33226203918457 24.73551177978516 31.49585151672363 15.88679218292236 31.49585151672363 C 7.03807258605957 31.49585151672363 -5.224826812744141 23.16630172729492 1.814451217651367 12.779541015625 C 8.853731155395508 2.392782211303711 5.094551086425781 0.5373516082763672 15.88679218292236 0.5373516082763672 Z" stroke="none" fill="#0b6255"/>
    </g>
  </g>
</svg>
