<svg xmlns="http://www.w3.org/2000/svg" xmlns:xlink="http://www.w3.org/1999/xlink" width="70.428" height="51.871" viewBox="0 0 70.428 51.871">
  <defs>
    <linearGradient id="linear-gradient" x1="0.5" x2="0.5" y2="1" gradientUnits="objectBoundingBox">
      <stop offset="0" stop-color="#f2e0cb"/>
      <stop offset="1" stop-color="#dcb383"/>
    </linearGradient>
  </defs>
  <path id="Path_18537" data-name="Path 18537" d="M874.845,45.483a5.56,5.56,0,0,0-2.6-1.651,12.44,12.44,0,0,0-8.97-6.889,13.844,13.844,0,0,0-6.816.331,1.136,1.136,0,0,0-.129-.094c-7.362-4.5-16.6-6.093-20.3-4.722-3.74,1.4-7.755,5.631-11.3,11.925-.226.4-.43.8-.589,1.143-.468.723-1.439,2.226-5.609,4.052-4.187,1.831-7.8,3.41-9.777,7.965-.825,1.9-.976,3.485-.454,4.7a3.116,3.116,0,0,0,.678,1.006,8.6,8.6,0,0,0-1.188,3.466,8.492,8.492,0,0,0,2.027,6.884,7.2,7.2,0,0,0,4.633,2.466,8.053,8.053,0,0,0,2.485,2.466,10.654,10.654,0,0,0,9.449,1.178l.126,1.237.022.1a.868.868,0,0,0,1.051.562c2.073-.608,7.765-.086,11.869.352a115.9,115.9,0,0,0,13.082.866c1.613,0,3.313-.046,5.114-.153,9.841-.594,12.369-4.864,12.423-5.625.035-.457-.005-4.789-.264-9.8l-.062-1.191c-.18-3.592-.226-4.453-.973-4.966.4-.68.825-1.455,1.2-2.194a41.809,41.809,0,0,0,4.907-3.081,5.618,5.618,0,0,0,2.218-4.052A8.266,8.266,0,0,0,874.845,45.483Zm-21.358-5.859c.229.277.516.161,1.041-.051a14.16,14.16,0,0,1,8.432-.852,10.747,10.747,0,0,1,7.107,4.878,6.055,6.055,0,0,0-3.541,1.215l-.137.234.1.207c.161.341.484.28,1.076.175,1.234-.226,4.122-.756,5.942,1.261a6.469,6.469,0,0,1,1.807,4.886,3.866,3.866,0,0,1-1.492,2.786c-.774.57-1.624,1.14-2.541,1.7a23.742,23.742,0,0,0,1.054-2.813,3.263,3.263,0,0,1,.468-.955c.159-.242.274-.419.223-.643l-.059-.2-.15-.091c-.325-.194-.874-.161-1.619,1.086a21.825,21.825,0,0,0-.99,2.113c-.4.914-.852,1.949-1.374,2.993-.051.11-.107.215-.169.336-.091.183-.186.363-.285.543-.624,1.145-1.145,2.226-1.53,3.036l-.414.877c-.161.339-.3.637-.422.887-.126.118-.266.242-.419.36a18.18,18.18,0,0,1-4.356,2.291,18.526,18.526,0,0,0,.874-4.644,25.535,25.535,0,0,0-.763-9.6A4.858,4.858,0,0,0,859.2,48.54a1.815,1.815,0,0,0-1.514-.019l-.261.116.006.274a.475.475,0,0,0,.366.428,3.676,3.676,0,0,1,2.111,2.519c-.747-.745-1.581-1.342-2.084-.981l-.175.143-.011.194c-.014.272.167.436.605.834a8.365,8.365,0,0,1,2.073,2.53,26.546,26.546,0,0,1-.274,8.207c-.347,2.041-.6,3.157-.748,3.719a13.608,13.608,0,0,1-1.9.344c-.772.075-1.466.134-2.1.18a12.766,12.766,0,0,0,1.388-3.646c.726-3.055.457-5.23-.186-5.8a.609.609,0,0,0-.627-.132c-.462.172-.406.67-.336,1.3a8.6,8.6,0,0,1-.35,3.966c-.885,2.6-1.293,3.8-2.928,4.515-.548.043-1.027.089-1.468.156l-1.6.3c.083-.9.1-1.847.129-2.885a33.6,33.6,0,0,1,.325-4.509,4.717,4.717,0,0,1,.871-2.009,3.322,3.322,0,0,1,1.25-.04,3.413,3.413,0,0,1,2.173,1.1.51.51,0,0,0,.538.218l.247-.083.046-.247c.142-.758-.5-1.551-1.75-2.178a4.938,4.938,0,0,0-.93-.358,17.488,17.488,0,0,1,2.049-1.358c.664-.387.938-.546.82-.92-.032-.1-.134-.341-.562-.312-.995.073-5.87,1.834-6.534,5.9a34.632,34.632,0,0,0-.347,4.886,31,31,0,0,1-.2,3.243,7.335,7.335,0,0,1-.589,2.194c-1.245,2.619-5.827,3.958-9.613,2.8a8.25,8.25,0,0,1-4.378-3.049c-.258-.331-.433-.581-.713-.538l-.234-.5.016.565-.043.035c-.18.143-.221.35-.331.906a10.672,10.672,0,0,1-2.541,5.483,7.386,7.386,0,0,1-1.893,1.412,8.732,8.732,0,0,1-9.083-.428,6.717,6.717,0,0,1-2.277-2.4,8.969,8.969,0,0,1-.946-4.657c.013-.535.019-.86-.328-.965l-.288-.051-.175.188a6.864,6.864,0,0,0-.333,4.921,6,6,0,0,1-2.406-1.656,6.731,6.731,0,0,1-1.581-5.469,7.721,7.721,0,0,1,1.288-3.4,14.248,14.248,0,0,1,4.006-3.735c.61-.411.863-.581.721-.944l-.118-.231-.229-.038c-.532-.056-3.167.963-5.165,3.189a1.326,1.326,0,0,1-.135-.253,4.539,4.539,0,0,1,.462-3.251c1.689-3.9,4.843-5.281,8.839-7.031a21.629,21.629,0,0,0,3.565-1.906c-.842,3.759-.153,6.6.226,6.994l.2.188.226-.054c.376-.089.376-.4.371-1.14a19.546,19.546,0,0,1,1.82-8.809l.059-.091a.883.883,0,0,0,.118-.272c.145-.288.3-.578.462-.869,3.345-5.929,7.024-9.879,10.361-11.121,3.111-1.159,11.25.336,17.814,4.041-.554.344-1.016.739-1.084,1.046l-.04.234ZM868,67.338c.239,4.574.3,8.7.274,9.473-.339.688-3.13,3.6-10.731,4.055a99.306,99.306,0,0,1-17.9-.7,77.512,77.512,0,0,0-8.255-.6,29.219,29.219,0,0,0-3.192.164l-.081-.815a8.973,8.973,0,0,0,4.472-6.625,7.932,7.932,0,0,0,4.009,2.573c4.125,1.245,9.97.013,11.764-3.754a8.149,8.149,0,0,0,.6-1.823c.92-.083,2.842-.277,5.523-.61.817-.1,1.546-.177,2.223-.245,1.043-.1,1.947-.194,2.856-.36a15.221,15.221,0,0,0,4.315-1.5,11.607,11.607,0,0,0,3.92-2.88c.054.7.1,1.611.14,2.458Z" transform="translate(-807.218 -31.453)" stroke="rgba(0,0,0,0)" stroke-width="1" fill="url(#linear-gradient)"/>
</svg>
