<svg xmlns="http://www.w3.org/2000/svg" width="94.236" height="69.316" viewBox="0 0 94.236 69.316">
  <path id="Path_18537" data-name="Path 18537" d="M897.862,50.113a7.467,7.467,0,0,0-3.485-2.217,16.706,16.706,0,0,0-12.046-9.251,18.591,18.591,0,0,0-9.154.444,1.53,1.53,0,0,0-.173-.126c-9.887-6.038-22.294-8.182-27.256-6.341-5.023,1.874-10.414,7.561-15.181,16.015-.3.538-.578,1.072-.791,1.535-.628.971-1.932,2.99-7.532,5.442-5.622,2.459-10.479,4.579-13.13,10.7-1.108,2.557-1.311,4.68-.61,6.312a4.182,4.182,0,0,0,.91,1.35,11.549,11.549,0,0,0-1.6,4.655,11.4,11.4,0,0,0,2.722,9.244,9.667,9.667,0,0,0,6.222,3.311,10.814,10.814,0,0,0,3.337,3.311,14.307,14.307,0,0,0,12.689,1.582l.17,1.661.029.134a1.165,1.165,0,0,0,1.412.755c2.784-.816,10.428-.116,15.939.473a155.643,155.643,0,0,0,17.567,1.163c2.167,0,4.449-.061,6.868-.206,13.216-.8,16.61-6.532,16.683-7.554.047-.614-.007-6.431-.354-13.162l-.083-1.6c-.242-4.824-.3-5.98-1.307-6.669.538-.914,1.108-1.954,1.618-2.947a56.141,56.141,0,0,0,6.59-4.138,7.545,7.545,0,0,0,2.979-5.442A11.1,11.1,0,0,0,897.862,50.113ZM869.18,42.244c.307.372.693.217,1.4-.069A19.015,19.015,0,0,1,881.9,41.031a14.433,14.433,0,0,1,9.544,6.55c-2.373.148-4.438,1.148-4.756,1.632l-.184.314.13.278c.217.459.65.376,1.444.235,1.658-.3,5.536-1.015,7.98,1.694a8.686,8.686,0,0,1,2.427,6.561,5.192,5.192,0,0,1-2,3.741c-1.04.766-2.181,1.531-3.412,2.289a31.887,31.887,0,0,0,1.416-3.777,4.382,4.382,0,0,1,.628-1.282c.213-.325.368-.563.3-.863l-.08-.264-.2-.123c-.437-.26-1.173-.217-2.174,1.459a29.326,29.326,0,0,0-1.329,2.838c-.538,1.228-1.145,2.618-1.845,4.019-.068.148-.144.289-.228.451-.123.246-.249.488-.383.729-.838,1.538-1.538,2.99-2.054,4.077l-.556,1.177c-.217.455-.4.856-.567,1.192-.17.159-.357.325-.563.484a24.414,24.414,0,0,1-5.85,3.077,24.877,24.877,0,0,0,1.173-6.236c.394-5.283.058-9.5-1.025-12.888-.7-2.192-1.693-3.636-2.875-4.178a2.437,2.437,0,0,0-2.033-.025l-.35.155.008.368a.637.637,0,0,0,.491.574,4.936,4.936,0,0,1,2.834,3.383c-1-1-2.123-1.8-2.8-1.318l-.235.191-.014.26c-.018.365.224.585.813,1.119a11.233,11.233,0,0,1,2.784,3.4,35.65,35.65,0,0,1-.368,11.021c-.466,2.741-.809,4.239-1,4.994a18.273,18.273,0,0,1-2.549.462c-1.036.1-1.968.181-2.817.242a17.141,17.141,0,0,0,1.863-4.9c.975-4.1.614-7.023-.249-7.789a.818.818,0,0,0-.842-.177c-.621.231-.545.9-.451,1.744a11.549,11.549,0,0,1-.469,5.326c-1.188,3.492-1.737,5.11-3.932,6.063-.736.058-1.379.119-1.971.209l-2.149.408c.112-1.213.141-2.481.173-3.875A45.147,45.147,0,0,1,864.027,70a6.336,6.336,0,0,1,1.17-2.7,4.461,4.461,0,0,1,1.679-.054,4.584,4.584,0,0,1,2.918,1.473.685.685,0,0,0,.722.292l.332-.112.062-.332c.191-1.018-.668-2.084-2.351-2.925a6.631,6.631,0,0,0-1.249-.48,23.48,23.48,0,0,1,2.752-1.824c.891-.52,1.26-.733,1.1-1.235-.043-.141-.18-.459-.755-.419-1.336.1-7.883,2.463-8.775,7.926a46.52,46.52,0,0,0-.466,6.561,41.632,41.632,0,0,1-.263,4.355,9.854,9.854,0,0,1-.791,2.947c-1.672,3.517-7.825,5.315-12.909,3.759a11.079,11.079,0,0,1-5.879-4.095c-.347-.444-.582-.78-.957-.722l-.314-.668.021.758-.058.047c-.242.191-.3.469-.444,1.217a14.332,14.332,0,0,1-3.412,7.363,9.92,9.92,0,0,1-2.542,1.9,11.726,11.726,0,0,1-12.2-.574,9.021,9.021,0,0,1-3.058-3.225,12.045,12.045,0,0,1-1.271-6.254c.018-.719.025-1.156-.441-1.3l-.386-.069-.235.253c-.5.538-1.289,3.485-.448,6.608a8.06,8.06,0,0,1-3.232-2.224,9.039,9.039,0,0,1-2.123-7.345,10.37,10.37,0,0,1,1.73-4.568,19.135,19.135,0,0,1,5.38-5.016c.82-.553,1.159-.78.968-1.267l-.159-.311-.307-.051c-.715-.076-4.253,1.293-6.936,4.283a1.784,1.784,0,0,1-.181-.339c-.4-.975-.18-2.524.621-4.366,2.268-5.24,6.5-7.092,11.87-9.443A29.046,29.046,0,0,0,828,55.269c-1.13,5.048-.206,8.861.3,9.392l.271.253.3-.072c.505-.119.505-.531.5-1.531a26.25,26.25,0,0,1,2.445-11.83l.08-.123a1.188,1.188,0,0,0,.159-.365c.195-.386.4-.776.621-1.166,4.492-7.962,9.432-13.267,13.913-14.935,4.178-1.556,15.108.451,23.923,5.427-.744.462-1.365.993-1.455,1.4l-.054.314Zm19.5,37.218c.322,6.142.4,11.682.368,12.721-.455.924-4.2,4.831-14.411,5.445a133.359,133.359,0,0,1-24.038-.942,104.091,104.091,0,0,0-11.086-.809,39.235,39.235,0,0,0-4.286.22L835.114,95a12.05,12.05,0,0,0,6.005-8.9,10.652,10.652,0,0,0,5.384,3.456c5.539,1.672,13.389.018,15.8-5.041a10.945,10.945,0,0,0,.805-2.448c1.235-.112,3.817-.372,7.417-.82,1.1-.141,2.076-.238,2.986-.329,1.4-.141,2.615-.26,3.835-.484a20.442,20.442,0,0,0,5.8-2.019,15.589,15.589,0,0,0,5.265-3.867c.072.946.134,2.163.188,3.3Z" transform="translate(-807.217 -31.442)" fill="#fff" stroke="rgba(0,0,0,0)" stroke-width="1"/>
</svg>
