<svg xmlns="http://www.w3.org/2000/svg" width="10.829" height="52.268" viewBox="0 0 10.829 52.268"><defs><style>.a{opacity:0.6;}.b{fill:#252f38;}</style></defs><g class="a" transform="matrix(0, -1, 1, 0, -12.402, -788.649)"><g transform="translate(-840.917 12.402)"><path class="b" d="M55.282,57.488H53.964V51.134h-.881V49.956h.841V49.73a2.266,2.266,0,0,1,.632-1.736,2.676,2.676,0,0,1,1.89-.592v1.253h-.114a1.116,1.116,0,0,0-.844.274,1.315,1.315,0,0,0-.259.917v.109h1.217v1.178H55.282Z" transform="translate(-53.083 -47.402)"/><path class="b" d="M58.538,49.055H57.219V47.5h1.318ZM57.219,57.47V49.938h1.318V57.47Z" transform="translate(-52.329 -47.384)"/><path class="b" d="M60.144,57.47V47.5h1.318v5.925L64.1,49.937h1.554l-2.717,3.574,3.215,3.957H64.44l-2.978-3.827V57.47Z" transform="translate(-51.797 -47.384)"/><path class="b" d="M67.488,49.055H66.17V47.5h1.318ZM66.17,57.47V49.938h1.318V57.47Z" transform="translate(-50.699 -47.384)"/><path class="b" d="M70.438,57.113H69.105V49.581h1.252v.87a2.279,2.279,0,0,1,.756-.743,1.955,1.955,0,0,1,.993-.25v1.418a1.846,1.846,0,0,0-.747.144,1.409,1.409,0,0,0-.538.4,2.366,2.366,0,0,0-.384,1.507Z" transform="translate(-50.164 -47.027)"/><path class="b" d="M77.489,53.313a3.926,3.926,0,0,0-.387-2,1.323,1.323,0,0,0-1.215-.626,1.408,1.408,0,0,0-1.271.63,3.609,3.609,0,0,0-.411,1.937v3.855H72.941V49.581h1.184v.883a2.475,2.475,0,0,1,.835-.75,2.219,2.219,0,0,1,1.069-.257,2.635,2.635,0,0,1,1.339.308,2.364,2.364,0,0,1,.888.993,2.291,2.291,0,0,1,.909-.976,2.745,2.745,0,0,1,1.379-.325,2.572,2.572,0,0,1,2,.832,3.182,3.182,0,0,1,.754,2.222v4.6h-1.34V52.724a2.408,2.408,0,0,0-.41-1.5,1.58,1.58,0,0,0-2.395.038,3.625,3.625,0,0,0-.376,1.917v3.937H77.489Z" transform="translate(-49.466 -47.027)"/><path class="b" d="M82.481,53.372a4.212,4.212,0,0,1,.263-1.493,3.859,3.859,0,0,1,.8-1.273,4.08,4.08,0,0,1,1.241-.911,3.377,3.377,0,0,1,1.46-.335,3.8,3.8,0,0,1,1.5.291,3.747,3.747,0,0,1,1.245.873,4.06,4.06,0,0,1,.834,1.28,3.828,3.828,0,0,1,.3,1.472,4.306,4.306,0,0,1-.269,1.513,3.876,3.876,0,0,1-.767,1.274,4.036,4.036,0,0,1-.6.544,4.3,4.3,0,0,1-.676.414,3.558,3.558,0,0,1-1.493.322,3.732,3.732,0,0,1-1.5-.3,3.687,3.687,0,0,1-1.231-.88,4.322,4.322,0,0,1-.815-1.287,4.771,4.771,0,0,1-.214-.746A3.825,3.825,0,0,1,82.481,53.372Zm1.379-.013a2.651,2.651,0,0,0,.7,1.883,2.3,2.3,0,0,0,1.752.753,2.246,2.246,0,0,0,1.726-.761,2.69,2.69,0,0,0,.7-1.89,2.658,2.658,0,0,0-.7-1.893,2.385,2.385,0,0,0-3.471.014A2.661,2.661,0,0,0,83.86,53.358Z" transform="translate(-47.728 -47.045)"/><path class="b" d="M95.061,57.914l.2-.9a3.465,3.465,0,0,1-1.3.54,3.311,3.311,0,0,1-1.366-.03,3.756,3.756,0,0,1-2.46-1.727,3.916,3.916,0,0,1-.467-3.017,4.112,4.112,0,0,1,.6-1.412A3.79,3.79,0,0,1,91.3,50.326a3.542,3.542,0,0,1,1.375-.583,3.8,3.8,0,0,1,1.542.06,3.567,3.567,0,0,1,1.3.576,3.653,3.653,0,0,1,.975,1.077l.913-3.955,1.3.3L96.361,58.213Zm-4.043-4.842a2.669,2.669,0,0,0,.311,2.034,2.449,2.449,0,0,0,1.608,1.162,2.328,2.328,0,0,0,1.855-.373,2.508,2.508,0,0,0,1.126-1.6,2.69,2.69,0,0,0-.315-2.014,2.363,2.363,0,0,0-1.551-1.17,2.411,2.411,0,0,0-1.915.331A2.5,2.5,0,0,0,91.019,53.072Z" transform="translate(-46.439 -47.384)"/></g></g></svg>