<svg xmlns="http://www.w3.org/2000/svg" width="88.711" height="86.657" viewBox="0 0 88.711 86.657">
  <g id="Group_1086" data-name="Group 1086" transform="translate(0.497 0.504)">
    <path id="Path_307" data-name="Path 307" d="M734.2,55.812l.281.288.361-.16c.4-.175.4-.175.259-2.557-.113-1.835-.281-4.6-.222-6.551a42.6,42.6,0,0,1,.5-4.622c.35-2.44.474-3.261-.186-3.524l-.4-.088-.248.168c-.915.635-1.412,4.552-1.357,7.978C733.241,50.439,733.708,55.308,734.2,55.812Z" transform="translate(-697.659 -6.119)" fill="#fff" stroke="rgba(0,0,0,0)" stroke-width="1"/>
    <path id="Path_308" data-name="Path 308" d="M808.027,46.276c-3.429-3.706-9.2-5.4-17.174-5.041a18.966,18.966,0,0,0-6.573-7.781c-5.691-3.983-13.128-4.082-18.2-2.834a18.776,18.776,0,0,0-4.76,2.046l-.022-.018-.022.011c-1.4-1.01-5.351-3.276-12.377-2.929-9.083.485-16.546,6.431-19.475,15.518a26.58,26.58,0,0,0-.682,2.681l-.018.011v.007a11.775,11.775,0,0,0-5.278,9.947c-.168,5.534,2.09,10.553,4.48,15.864l1.065,2.389c2.907,6.621,4.534,11.326,4.268,15.777l-.259,2.3c-.307,2.78-.628,5.658-.872,9.123-.624,8.89-.164,10.954-.164,10.954a1.317,1.317,0,0,0,2.342.522c.03-.033,3.156-3.568,20.125-5.307a59.89,59.89,0,0,1,28.825,4.188c1.663.649,2.167.835,2.805.569,1.021-.427,1.094-.854,1.569-9.138.222-3.878.675-11.815,1.287-13.329.084-.051.2-.128.31-.2h.007l.157-.1.026-.015,1.218-.806-.054-.007a71.707,71.707,0,0,0,7.051-6.165c3.134-3.046,4.731-5.931,4.753-8.576a6.127,6.127,0,0,0-.088-.948l.036-.026,0,0c3.294-2.4,5.9-4.5,7.019-7.314a6.277,6.277,0,0,0-.719-6.544l.029-.033-.026-.022a10.953,10.953,0,0,0,2.389-5.264A11.787,11.787,0,0,0,808.027,46.276ZM782.77,35.606a15.827,15.827,0,0,1,5.935,7.35,1.3,1.3,0,0,0,1.343.937c7.525-.492,13.081.952,16.054,4.166a9.112,9.112,0,0,1,2.324,7.35c-.424,2.94-2.411,5.4-3.484,6.716-.7.861-1.021,1.258-.7,1.7l.2.23.252.026.065,0a4.51,4.51,0,0,0,2.006-1.116c.427.58.927,1.751.15,3.7-.9,2.258-3.334,4.148-6.679,6.573l-.263.19-.007.007-.153.109h0l-.047.037,0,0-.135.106-2.433,1.773.1-.036c-.5.376-.974.708-1.488,1.113-4.633,3.659-6.293,7.365-6.117,8.445l.12.445.314.113a.644.644,0,0,0,.237.044c.387,0,.693-.387,1.3-1.149a32.9,32.9,0,0,1,5.778-5.836c.726-.576,1.433-1.083,2.145-1.609-.4,1.671-1.63,3.553-3.775,5.639a53.641,53.641,0,0,1-7.989,6.767,8.629,8.629,0,0,0-.879-.627l-.171-.109a26.06,26.06,0,0,0-6.413-2.977l.011-.029h0a88,88,0,0,1,6.511-12.194c3.564-5.4,7.963-11.859,10.36-13.891a7.648,7.648,0,0,1,1.827-1.31,2.913,2.913,0,0,1,.069.73,4.206,4.206,0,0,1-.7,2.17c-.255.445-.5.865-.19,1.262a.779.779,0,0,0,.861.27c.8-.23,1.671-1.729,1.824-3.144.179-1.649.138-3.7-1.088-4.082-1.543-.478-4.545,2.225-8.477,7.642a151.442,151.442,0,0,0-9.094,14.555c-.489.861-.916,1.616-1.281,2.236a34.123,34.123,0,0,0-2.582,5.176l-.029-.011v.007l-.029-.011c-1.525-.4-3.155-.748-4.826-1.069l.091-.033-.449-.073a15.443,15.443,0,0,0,4.359-4.078c.3-.5.664-1.065,1.018-1.612,1.306-2.006,1.795-2.758,1.138-3.221-.6-.427-1.054.16-1.809,1.142a30.578,30.578,0,0,1-3.334,3.764v0c-1.156,1.094-2.3,2.006-3.141,2.674-.467.368-.8.642-1.054.875l-.135-.022.007-.018-.04,0a113.134,113.134,0,0,0,6.628-14.9c2.513-7.248,2.739-11.52,2.656-14.434-.051-1.9-.5-3.02-1.331-3.323-.445-.16-1.171-.142-2.076.875-1.153,1.291-2.1,3.2-2.047,3.8l.04.285.416.3.24-.036c.318-.051.489-.3.868-.846a9.473,9.473,0,0,1,1-1.266,3.426,3.426,0,0,1,.54-.463,4.605,4.605,0,0,1,.171,1.576c0,4.724-1.164,9.364-4.428,17.724A70.35,70.35,0,0,1,768.055,83.1h0l-.007.007c-1.112-.139-2.207-.244-3.29-.336l.007-.011-.018,0c.175-.314.379-.693.627-1.153l.65-1.189c1.459-2.67,1.55-5,1.269-5.413l-.2-.288-.7.109-.106.336a34.918,34.918,0,0,1-3.542,7.128h0c-.088.12-.113.193-.179.292l-.058,0-.007.015c-1.51-.088-2.97-.131-4.352-.124l0-.007H758.1l0-.007a10.347,10.347,0,0,1-1.116-3.5,16.482,16.482,0,0,1,.179-5.822.674.674,0,0,0-.193-.708l-.336-.223-.321.128a1.985,1.985,0,0,0-.945,1.579l-.047.434a31.418,31.418,0,0,0-.186,7.434,5.134,5.134,0,0,0,.2.751l-.212.007.007.007c-.9.055-1.824.146-2.739.233l.025-.029-.361.036c1.313-3.319.817-10.914.343-15.488-.821-7.945-2.834-13.876-4.045-15.426l-.007-.015,0,0c-.2-.252-.379-.387-.525-.387l-.792-.007.255.751a75.119,75.119,0,0,1,3.429,18.866,61.721,61.721,0,0,1-.237,10.589c-.033-.281-.062-.562-.077-.7-.062-.682-.117-1.488-.164-2.258-.186-2.842-.237-3.122-.6-3.349l-.274-.153-.266.109c-.522.223-.547.686-.507,4.228l.014,1.331c0,.383-.007.737-.014,1.058-.007.5,0,.9.026,1.251l-.124.018,0,.018c-.66.091-1.295.193-1.922.3l.011-.033-.062.011a17.259,17.259,0,0,0,.387-2.418,11.589,11.589,0,0,0-.325-4.3l-.241-.328-.383.109c-.412.117-.427.394-.481,1.215a22.207,22.207,0,0,1-.54,4.005,6.283,6.283,0,0,1-.872,2.2l-.314.062c-.525-.467-2.221-3.163-3.185-7.328a27.212,27.212,0,0,1-.7-4.95,14.469,14.469,0,0,1,.664,1.9c.485,1.853,1.014,3.52,1.021,3.535l.471,1.485.587-1.445c.281-.693-.383-3.67-.985-5.5-1.572-4.786-2.367-4.593-2.743-4.5l-.3.12-.121.2c-.521.861-.481,5.847.54,9.9a34.342,34.342,0,0,0,2.452,7.1l-.1.026.018.022c-2.116.613-2.63,1.094-2.82,1.452l-.161.339.215.285a.49.49,0,0,0,.475.244,16.7,16.7,0,0,0,2.316-.416c2.1-.441,5.636-1.182,9.638-1.682A63.283,63.283,0,0,1,763,84.49a59.427,59.427,0,0,1,10.239,1.55A55.59,55.59,0,0,1,783.3,89.422a47.273,47.273,0,0,0-5.675.73c-2.952.576-3.382.923-3.269,1.536.069.387.182.967,4.042.3a64.377,64.377,0,0,1,7.117-.821c-.248.314-.544.675-.8.981-1.82,2.225-1.941,2.408-1.813,2.8l.1.292.522.142.193-.08a2.434,2.434,0,0,0,.8-.649l1.467-1.507c-.409,2.615-.671,6.675-.967,11.841-.12,2.1-.274,4.862-.434,6.409l-.4-.153a62.4,62.4,0,0,0-30.006-4.337c-11.3,1.16-16.937,3.064-19.742,4.625,0-.259,0-.54,0-.857.015-1.9.124-4.3.325-7.146.237-3.36.543-6.15.886-9.2l.222-2.043.011-.095h0a118.432,118.432,0,0,0,.788-12.468l0-1.244c-.026-9.225-2.334-19.782-3.192-20.464l-.248-.179-.263.058c-.646.146-.616.383-.142,4.344a142.539,142.539,0,0,1,1.219,16.243c0,1-.051,1.977-.073,2.958-.788-2.207-1.707-4.385-2.572-6.351l-1.073-2.408c-2.356-5.249-4.4-9.783-4.246-14.715a9.776,9.776,0,0,1,2.123-6.019c-.307,4.363.189,8.638.766,9.214l.234.208.27-.033c.613-.066.628-.471.708-2.707a58.932,58.932,0,0,1,.938-9.408v-.007a29.3,29.3,0,0,1,.817-3.159c2.623-8.149,9.021-13.271,17.112-13.7a18.051,18.051,0,0,1,9.834,1.9c-.89.66-2.225,1.747-2.313,2.331l-.029.288.153.193c.386.492.835.255,2.729-.751a34.259,34.259,0,0,1,7.3-3.144C771.214,32.064,777.8,32.126,782.77,35.606Z" transform="translate(-723.441 -29.694)" fill="#fff" stroke="rgba(0,0,0,0)" stroke-width="1"/>
  </g>
</svg>
