<svg xmlns="http://www.w3.org/2000/svg" width="128.023" height="26.58" viewBox="0 0 128.023 26.58">
  <g id="T_BRUSH-01" data-name="T BRUSH-01" transform="translate(-208.3 -253.5)">
    <path id="Path_27" data-name="Path 27" d="M448.677,271.5v12.071a4.478,4.478,0,0,1-1.234,3.221,4.153,4.153,0,0,1-3.1,1.264,4.456,4.456,0,0,1-3.191-1.234,4.307,4.307,0,0,1-1.264-3.251V271.5H434.8v11.589a9.471,9.471,0,1,0,18.934,0V271.5Z" transform="translate(-158.319 -12.582)" fill="#0b6255"/>
    <path id="Path_28" data-name="Path 28" d="M521.343,281.51a13.393,13.393,0,0,0-4.455-2.679l-2.077-.873a7.33,7.33,0,0,1-1.866-.963,1.568,1.568,0,0,1-.6-1.294c0-.873.452-1.9,2.649-1.9a7.02,7.02,0,0,1,4.365,1.535l.181.151a.285.285,0,0,0,.391-.06l2.137-2.589a.281.281,0,0,0-.03-.391l-.181-.151a9.519,9.519,0,0,0-6.833-2.5,8.66,8.66,0,0,0-5.479,1.625,5.255,5.255,0,0,0-2.017,4.395,4.894,4.894,0,0,0,1.294,3.522,12.177,12.177,0,0,0,4.3,2.649l2.288.963a7.725,7.725,0,0,1,1.836.993,1.614,1.614,0,0,1,.6,1.294,1.745,1.745,0,0,1-.933,1.625,4.275,4.275,0,0,1-2.167.512,8.243,8.243,0,0,1-5.569-2.318l-.181-.181a.293.293,0,0,0-.421.03l-2.137,2.589a.274.274,0,0,0,0,.361l.12.15a10.081,10.081,0,0,0,8.1,3.4,9.1,9.1,0,0,0,5.719-1.716,5.534,5.534,0,0,0,2.228-4.726A4.609,4.609,0,0,0,521.343,281.51Z" transform="translate(-208.349 -11.393)" fill="#0b6255"/>
    <path id="Path_29" data-name="Path 29" d="M391.866,271.5A10.579,10.579,0,0,0,381.3,282.066v10.566h5.087V282.608a5.745,5.745,0,0,1,1.656-4.425,6.26,6.26,0,0,1,4.455-1.535h1.174V271.5Z" transform="translate(-120.924 -12.582)" fill="#0b6255"/>
    <path id="Path_30" data-name="Path 30" d="M254.992,289.5a3.494,3.494,0,0,0-3.492,3.492v1.6h6.622a3.494,3.494,0,0,0,3.492-3.492V289.53h-6.622Z" transform="translate(-30.196 -25.163)" fill="#89b09e"/>
    <path id="Path_31" data-name="Path 31" d="M215.946,264.075a3.494,3.494,0,0,0,3.492-3.492v-1.6h-6.051V253.6H208.3v16.827a9.706,9.706,0,0,0,9.693,9.693h1.415v-5.087h-1.415a4.612,4.612,0,0,1-4.606-4.636v-6.352h2.559Z" transform="translate(0 -0.07)" fill="#0b6255"/>
    <path id="Path_32" data-name="Path 32" d="M587.627,260.664a7.062,7.062,0,0,0-5.509-2.228A8.26,8.26,0,0,0,577,259.791a6.8,6.8,0,0,0-.963.873l-.151.15V253.5H570.8v26.52h5.087V267.437a4.354,4.354,0,0,1,1.264-3.251,4.31,4.31,0,0,1,3.191-1.264,4.127,4.127,0,0,1,3.131,1.264,4.479,4.479,0,0,1,1.2,3.251V280.02H589.7v-13.4A8.648,8.648,0,0,0,587.627,260.664Z" transform="translate(-253.381 0)" fill="#0b6255"/>
    <path id="Path_33" data-name="Path 33" d="M315.046,269.213a6.364,6.364,0,0,1-1.656,4.515,6,6,0,0,1-8.368.09,6.3,6.3,0,0,1-1.626-4.576,6.372,6.372,0,0,1,1.626-4.606,5.536,5.536,0,0,1,4.124-1.686,5.675,5.675,0,0,1,4.214,1.746A6.3,6.3,0,0,1,315.046,269.213Zm5.178.03a10.971,10.971,0,0,0-2.83-7.766,9.266,9.266,0,0,0-7.164-3.04h-.512a9.3,9.3,0,0,0-6.231,2.167v-7.1H298.4v15.8c0,.391.03.783.06,1.174a9.221,9.221,0,0,0,3.07,6.773A10.567,10.567,0,0,0,308,280.02h.09a1.024,1.024,0,0,1,.3.03h.361c.12,0,.271.03.391.03h1.084a9.31,9.31,0,0,0,7.164-3.04,4.686,4.686,0,0,0,.482-.6,1.315,1.315,0,0,0,.181-.211h0l.632-.813h0a9.913,9.913,0,0,0,1.355-3.552c.06-.391.09-.783.12-1.2C320.194,270.176,320.224,269.725,320.224,269.243Z" transform="translate(-62.978 0)" fill="#0b6255"/>
  </g>
</svg>
