<svg xmlns="http://www.w3.org/2000/svg" width="94.342" height="85.882" viewBox="0 0 94.342 85.882">
  <path id="Path_18538" data-name="Path 18538" d="M852.988,62.046c.6-.647,1.036-1.1,1.066-1.134a1.418,1.418,0,0,0,.014-1.967c-.393-.4-3.989-3.949-11.49-6.912l.029-.04.025-.029A1.419,1.419,0,0,0,842.462,50c-6.708-5.789-17.235-8.148-21.166-8.861.189-.491.324-.858.385-1.08a2.033,2.033,0,0,0-.687-2.022c-2.4-2.436-16.021-7.763-26.347-5.12a1.4,1.4,0,0,0-1.055,1.284l0,.044c-.356-.124-.676-.2-1-.287l0-.029-.036-.007-.018-.065-.007-.029-.011-.025-.007-.025a3.261,3.261,0,0,0-.393-1.164l-1.036-3.076.167,2.131c-1.349-.916-3.731-1-10.166-.425a43.194,43.194,0,0,0-14.435,3.716,1.457,1.457,0,0,0-.735.934c-.2.873-1.883,9.061,1.255,27.365a192.16,192.16,0,0,0,9.047,33.354h0l0,0-.414.135a1.406,1.406,0,0,0-.96,1.225,42.933,42.933,0,0,0,1.815,14.079,1.407,1.407,0,0,0,.741.876,1.365,1.365,0,0,0,1.16.033c.956-.371,9.854-3.6,27.754-2.389a191.386,191.386,0,0,1,29.038,3.941,7.752,7.752,0,0,0,1.345.244h0c1.367,0,1.6-1.1,2.171-3.749a68.429,68.429,0,0,1,3.123-10.985L842,99.97l.029-.058,0,0c.145-.338.305-.727.487-1.174l.117-.284a140.6,140.6,0,0,1,6.381-13.588c2.959-5.6,5.261-9.625,6.788-12.29l.189-.324c2.032-3.531,2.512-4.4,2.512-5.189C858.508,66.405,858.457,65.482,852.988,62.046ZM777.623,99.137c.3-.095.6-.189.906-.28l.018,0c9.392-2.843,24.129-5.021,32.561-3.745,2.676.564,5.363,1.2,7.985,1.894,7.094,1.891,11.635,3.323,14.642,4.272,2.08.658,3.4,1.069,4.371,1.258l-.015.044.015,0c-1,3.182-1.611,5.956-2.015,7.839-.094.458-.192.913-.28,1.294a194.057,194.057,0,0,0-29.314-3.971c-15.108-1.029-23.947.974-27.5,2.076a42.98,42.98,0,0,1-1.371-10.446ZM840,97.439l-.16.389c-.163.4-.316.764-.454,1.084v.007c-.222.5-.356.771-.44.913-.644-.084-2.553-.684-4.36-1.251-2.8-.887-7.5-2.374-14.766-4.309-3.091-.822-6.247-1.527-9.381-2.094-.32-.058-.626-.109-.938-.16v0l-.557-.095-.026,0-.523-.084v.007c-8.534-1.378-15.73-1.458-16.475-.818l-.218.2,0,.262c.007.636.283.673,3.636,1.084h0A108.3,108.3,0,0,0,778.925,95.8a188.367,188.367,0,0,1-8.974-33.023,113.175,113.175,0,0,1-1.821-19.1,42.438,42.438,0,0,1,.422-6.472,42.388,42.388,0,0,1,12.788-3.142c2.054-.189,7.447-.68,8.3-.076a5.652,5.652,0,0,0,.152,1.425c.044.207.084.4.1.553.117,1.029.218,2.062.32,3.094l.128,1.28c.364,3.622.8,7.832,1.331,11.984,3.011,23.264,3.418,23.671,3.585,23.842a.7.7,0,0,0,.505.222.679.679,0,0,0,.262-.055c.28-.116,1.018-.429.891-5.432-.033-1.029-.146-2.542-.258-4.018l-.08-1.029a148.184,148.184,0,0,1-.608-18.537c.214-3.945.516-6.512.7-8.05.218-1.873.283-2.436-.106-2.825a.747.747,0,0,0-.262-.175l.047-.8c9.221-1.847,20.511,2.774,22.427,4.36-.131.356-.323.854-.534,1.4h-.008l-.175.447-.316.524.094.036c-1.843,4.68-5.363,13.766-7.029,23.067a128.273,128.273,0,0,0-1.738,21.373c0,1.629.251,4.472.964,5.156a.732.732,0,0,0,.523.225h.029c.684-.025.687-.124.945-5.112a173.334,173.334,0,0,1,2.062-21.14,121.642,121.642,0,0,1,6.658-21.973c2.778.491,12.766,2.531,19.3,7.483l-.094.124h0l-.262.353-.04.055-.367.5.008,0a79.255,79.255,0,0,0-8.923,16.242c-4.236,10.432-6.4,23.493-5.869,24.434l.149.251.258.047a1.3,1.3,0,0,0,.222.025c.487,0,.665-.64,1.974-5.338A178.133,178.133,0,0,1,832.5,69.645a77.8,77.8,0,0,1,8.326-15.257A36.493,36.493,0,0,1,851.021,60c-.237.255-.546.6-.847.927h0l-.371.415a99.035,99.035,0,0,0-9.763,12.592c-4.429,7.01-7.261,17.1-6.876,18.111l.124.295.273.076a.932.932,0,0,0,.233.036c.469,0,.738-.636,1.949-3.494a95.793,95.793,0,0,1,6.694-13.512,93.731,93.731,0,0,1,8.635-11.268,39.9,39.9,0,0,1,4.458,3.116c-.353.713-1.185,2.156-2.007,3.585-1.556,2.713-3.912,6.81-7.007,12.664A141.48,141.48,0,0,0,840,97.439ZM794.2,41.971l-.124,1.76c-.113,1.531-.233,3.418-.331,5.352-.272-2.927-.534-6.018-.691-8.516-.036-.585-.047-1.185-.058-1.793l.058.175-.084-.814c-.007-.378-.025-.749-.04-1.124.731.273,1.309.564,1.324.571a1.409,1.409,0,0,0,.422.091A29.331,29.331,0,0,0,794.2,41.971Z" transform="translate(-764.662 -29.372)" fill="#fff" stroke="rgba(0,0,0,0)" stroke-width="1"/>
</svg>
