<svg xmlns="http://www.w3.org/2000/svg" xmlns:xlink="http://www.w3.org/1999/xlink" width="39.58" height="61.138" viewBox="0 0 39.58 61.138">
  <defs>
    <linearGradient id="linear-gradient" x1="0.5" x2="0.5" y2="1" gradientUnits="objectBoundingBox">
      <stop offset="0" stop-color="#f2e0cb"/>
      <stop offset="1" stop-color="#dcb383"/>
    </linearGradient>
  </defs>
  <g id="Group_271" data-name="Group 271" transform="translate(0.487 0.638)">
    <path id="Path_300" data-name="Path 300" d="M700.526,33.571c.147,1.444.331,3.236.594,5.009.247,1.664.6,5.6.877,8.757.406,4.559.461,5.019.546,5.166l.132.218.232-.073c.628-.2.258-4.91.13-6.35-.224-2.53-.67-6.151-1.065-9.343-.308-2.5-.574-4.667-.649-5.634-.071-.9-.067-1.484-.065-1.875,0-.551,0-.984-.5-1a.527.527,0,0,0-.4.176c-.287.324-.329,1.139-.123,2.422C700.327,31.612,700.419,32.522,700.526,33.571Z" transform="translate(-667.332 -23.321)" stroke="rgba(0,0,0,0)" stroke-width="1" fill="url(#linear-gradient)"/>
    <path id="Path_301" data-name="Path 301" d="M720.751,68.045l-.161-2.175c-.006-.092-.006-.193,0-.3.019-.368.092-.833.191-1.48l.013-.082a69.518,69.518,0,0,0,.643-15.3c-.458-10.3-1.586-16.976-3.261-19.312-1.268-1.767-2.562-1.635-3.022-1.513a6.2,6.2,0,0,0-1.691-1.333c-2.129-1.113-4.772-1.026-6.289.211-.147.121-.3.234-.446.341a6.76,6.76,0,0,1-1.66-.191,14.158,14.158,0,0,0-5.756-.126,8.864,8.864,0,0,0-4.433,2.547,7.05,7.05,0,0,0-6.363-.26,6.6,6.6,0,0,0-3.035,3.4,2.852,2.852,0,0,0-2.461,2.434c-.258,1.775,1.35,6.928,3.213,12.9l.448,1.446a134.536,134.536,0,0,0,6.3,16.826,35.457,35.457,0,0,1,1.593,3.811c.442,1.279.76,2.468,1.13,3.845l1.731,6.252c.77,2.8,1.135,4.086,1.415,4.816a2.091,2.091,0,0,0,.406.743.758.758,0,0,0,.55.234,2.923,2.923,0,0,0,1.183-.44,23.765,23.765,0,0,1,8.429-2.539,40.657,40.657,0,0,1,10.354-.172c.935.1,1.218.126,1.5-.078C721.722,82.219,721.815,82.152,720.751,68.045Zm-.871,13.23a41.922,41.922,0,0,0-10.643.18,25.487,25.487,0,0,0-8.548,2.512,15.19,15.19,0,0,1,6.155-2.4,21.308,21.308,0,0,1,4.077-.419,10.147,10.147,0,0,0,1.7-.128l.31-.071-.059-.295c-.05-.245-.772-.347-1.8-.347a33.249,33.249,0,0,0-5.5.553A12.52,12.52,0,0,0,699.8,83.4c-.293-.961-.672-2.34-1.069-3.788L697,73.376c-.32-1.2-.6-2.244-.953-3.336.023-.371.408-1.159,2.551-2.476a21.636,21.636,0,0,1,3.885-1.892c.538-.2.682-.26.726-.46l.04-.2-.161-.119c-.4-.3-3.3.756-5.174,1.869a10.1,10.1,0,0,0-2.388,1.8c-.372-.977-.8-1.967-1.333-3.073a132.341,132.341,0,0,1-6.227-16.644l-.454-1.446a104.97,104.97,0,0,1-3.079-11.009,4.885,4.885,0,0,1-.084-1.294,1.417,1.417,0,0,1,.555-.977,4.059,4.059,0,0,0-.2,1.969l.086.13.14.021c.3.042.368-.174.588-.8a18.361,18.361,0,0,1,.8-1.99,6.306,6.306,0,0,1,2.773-3.154,5.764,5.764,0,0,1,4.925.107c-.18.289-.262.548-.042.716.236.18.421.021.921-.4l.249-.211a10.414,10.414,0,0,1,4.439-2.4,13.109,13.109,0,0,1,5.27.136l.063.011c-.224.167-.308.3-.255.5l.08.184.138.057a3.7,3.7,0,0,0,2.285-.6.691.691,0,0,0,.326-.2,5.837,5.837,0,0,0,.542-.393,4.611,4.611,0,0,1,4.812-.059,10.288,10.288,0,0,1,2.511,2.1c.5.534.687.73.957.578l.132-.092.031-.13a1.632,1.632,0,0,0-.28-.879,2.834,2.834,0,0,1,.891.856c.515.724,1.271,2.447,1.93,6.568a110.052,110.052,0,0,1,1.078,12.02,67.978,67.978,0,0,1-.63,15.038l-.025.153c-.034.23-.067.44-.094.636a14.3,14.3,0,0,0-2.6-.806,27.739,27.739,0,0,0,.364-6.656c0-.069-.213-6.9-.735-7.122l-.188-.073-.144.13c-.454.417-.159,6.566-.1,7.794a17.488,17.488,0,0,1-.293,5.726c-.659-.1-1.335-.169-2.022-.207a16.893,16.893,0,0,0-.044-3.315c-.191-2.443-1.338-11.507-1.808-11.79l-.176-.1-.159.109c-.464.318.708,7.305.72,7.374a59.023,59.023,0,0,1,.6,5.894c.01.186.011.341.013.469a.631.631,0,0,0-.132-.054.433.433,0,0,0-.467.18,1.615,1.615,0,0,0-.126,1.183c-4.031.011-7.981.929-8.238,1.25l-.1.124.036.146c.075.3.19.285,1.279.144,2.61-.343,9.494-1.247,14.226,1.03l.157,2.116c.209,2.78.826,10.934.849,13.167Z" transform="translate(-682.992 -25.769)" stroke="rgba(0,0,0,0)" stroke-width="1" fill="url(#linear-gradient)"/>
    <path id="Path_302" data-name="Path 302" d="M698.947,37.206c.4,2.976,1.183,10.111,1.555,14.693a.347.347,0,0,0-.193-.19l-.207-.061-.14.117c-.435.362.222,3.717.433,4.736.276,1.329.437,1.787.653,1.909l.031.22.017-.2a.351.351,0,0,0,.163.013c.339-.036.465-.257.444-2.442-.032-3.248-.986-12.123-1.444-16.392l-.067-.62c-.01-.088-.975-8.709-1.815-8.709h-.006l-.155.013-.086.105c-.161.191-.128.44.209,2.648C698.5,34.095,698.714,35.481,698.947,37.206Z" transform="translate(-669.227 -21.642)" stroke="rgba(0,0,0,0)" stroke-width="1" fill="url(#linear-gradient)"/>
    <path id="Path_303" data-name="Path 303" d="M692.695,29.909l.136.033a.425.425,0,0,0,.184,0,5.553,5.553,0,0,1,.346,1.172c.094.446.178,1.134.295,2.085.232,1.884.582,4.734,1.409,9.261.858,4.682,3.579,16.9,4.031,17.16l.123.071.13-.044c.316-.105.473-.157-1.586-9.019-.626-2.683-1.3-6.379-2.049-11.3-.17-1.124-.326-2.221-.469-3.246a49.5,49.5,0,0,0-.9-5.283c-.333-1.151-.816-1.969-1.229-2.082a.372.372,0,0,0-.368.082.9.9,0,0,0-.266.638.572.572,0,0,0,.153.391Z" transform="translate(-674.305 -23.09)" stroke="rgba(0,0,0,0)" stroke-width="1" fill="url(#linear-gradient)"/>
    <path id="Path_304" data-name="Path 304" d="M693.4,42.866c-1.785-5.291-1.892-5.293-2.166-5.279l-.163.01-.088.124c-.255.364.979,4.194,1.735,6.44,1.036,3.077,2.131,6.85,2.5,8.257a.317.317,0,0,0-.308.013l-.186.151.033.2a2.01,2.01,0,0,0,.731,1.2.589.589,0,0,0,.276.073.546.546,0,0,0,.218-.048c.653-.289.588-.693-.234-3.721C695.309,48.659,694.252,45.386,693.4,42.866Z" transform="translate(-675.711 -14.958)" stroke="rgba(0,0,0,0)" stroke-width="1" fill="url(#linear-gradient)"/>
    <path id="Path_305" data-name="Path 305" d="M688.662,30.763l.136-.052a.573.573,0,0,0,.3-.414,1.1,1.1,0,0,1,.077-.19.4.4,0,0,0,.059-.031l.006.082c.013.789.021,1.268.883,5.5.678,3.326,1.576,6.009,2.047,6.11l.2.038.115-.161c.117-.159.09-.253-.18-1.166-.22-.745-.551-1.869-.867-3.271a49.043,49.043,0,0,1-1.015-7c-.006-.553-.061-1.093-.438-1.308a1.082,1.082,0,0,0-1.042.169,1.243,1.243,0,0,0-.748,1.049.641.641,0,0,0,.279.567Z" transform="translate(-678.229 -22.983)" stroke="rgba(0,0,0,0)" stroke-width="1" fill="url(#linear-gradient)"/>
    <path id="Path_306" data-name="Path 306" d="M693.933,51.9c-.946-1.526-3.156-6.947-4.475-10.187-1.124-2.759-1.124-2.759-1.342-2.78l-.172-.011-.1.134c-.322.429,2.273,7.11,2.3,7.179,1.1,2.8,3.031,7.108,3.46,7.317a1.186,1.186,0,0,0,.509.115.815.815,0,0,0,.337-.065.585.585,0,0,0,.335-.383.458.458,0,0,0-.209-.565A2.372,2.372,0,0,1,693.933,51.9Z" transform="translate(-678.579 -13.735)" stroke="rgba(0,0,0,0)" stroke-width="1" fill="url(#linear-gradient)"/>
  </g>
</svg>
