<svg xmlns="http://www.w3.org/2000/svg" width="58.873" height="91.203" viewBox="0 0 58.873 91.203">
  <g id="Group_271" data-name="Group 271" transform="translate(0.483 0.703)">
    <path id="Path_300" data-name="Path 300" d="M700.735,36.134c.221,2.166.5,4.854.89,7.514.371,2.5.893,8.4,1.316,13.135.609,6.839.692,7.528.819,7.75l.2.327.347-.109c.942-.3.388-7.365.2-9.525-.336-3.794-1.005-9.226-1.6-14.014-.463-3.757-.862-7-.974-8.451-.106-1.344-.1-2.226-.1-2.812,0-.827.006-1.476-.75-1.505a.791.791,0,0,0-.6.264c-.431.485-.494,1.709-.184,3.634C700.436,33.2,700.574,34.56,700.735,36.134Z" transform="translate(-650.944 -20.759)" fill="#fff" stroke="rgba(0,0,0,0)" stroke-width="1"/>
    <path id="Path_301" data-name="Path 301" d="M739.63,89.182l-.242-3.263c-.008-.138-.008-.29,0-.448.029-.551.138-1.249.287-2.22l.02-.123c.54-3.447,1.548-9.864.965-22.953-.687-15.451-2.379-25.464-4.892-28.968-1.9-2.651-3.843-2.453-4.533-2.269a9.3,9.3,0,0,0-2.536-2c-3.194-1.669-7.158-1.54-9.433.316-.221.181-.445.35-.669.511a10.141,10.141,0,0,1-2.491-.287,21.238,21.238,0,0,0-8.634-.19,13.3,13.3,0,0,0-6.65,3.82,10.575,10.575,0,0,0-9.545-.391,9.9,9.9,0,0,0-4.552,5.1,4.277,4.277,0,0,0-3.691,3.651c-.388,2.663,2.025,10.392,4.82,19.343l.672,2.169a201.813,201.813,0,0,0,9.45,25.24,53.191,53.191,0,0,1,2.39,5.716c.664,1.919,1.141,3.7,1.695,5.768l2.6,9.378c1.154,4.2,1.7,6.13,2.123,7.224a3.136,3.136,0,0,0,.609,1.114,1.136,1.136,0,0,0,.824.35,4.385,4.385,0,0,0,1.775-.661,35.647,35.647,0,0,1,12.644-3.809,60.985,60.985,0,0,1,15.531-.259c1.4.146,1.827.19,2.249-.118C741.086,110.444,741.227,110.343,739.63,89.182Zm-1.307,19.845a62.884,62.884,0,0,0-15.965.27,38.23,38.23,0,0,0-12.823,3.769c1.792-1.456,5.047-2.735,9.232-3.6a31.962,31.962,0,0,1,6.115-.629,15.221,15.221,0,0,0,2.557-.192l.465-.106-.089-.442c-.075-.368-1.158-.52-2.694-.52a49.874,49.874,0,0,0-8.246.83,18.782,18.782,0,0,0-8.669,3.815c-.439-1.442-1.008-3.51-1.6-5.682l-2.594-9.361c-.479-1.8-.9-3.366-1.43-5,.034-.557.612-1.738,3.826-3.714a32.458,32.458,0,0,1,5.828-2.838c.807-.307,1.023-.391,1.089-.689l.06-.307-.241-.178c-.6-.445-4.946,1.135-7.761,2.8a15.143,15.143,0,0,0-3.582,2.7c-.557-1.465-1.2-2.95-2-4.61a198.52,198.52,0,0,1-9.341-24.967l-.681-2.169c-2.088-6.7-4.064-13.035-4.619-16.513a7.327,7.327,0,0,1-.126-1.942,2.126,2.126,0,0,1,.833-1.465c-.319,1.215-.54,2.574-.3,2.953l.13.2.21.032c.445.063.551-.261.882-1.206a27.552,27.552,0,0,1,1.2-2.984,9.46,9.46,0,0,1,4.159-4.731,8.646,8.646,0,0,1,7.388.161c-.27.434-.393.822-.063,1.074.354.27.632.032,1.382-.606l.373-.316a15.621,15.621,0,0,1,6.658-3.593,19.663,19.663,0,0,1,7.9.2l.095.017c-.336.25-.463.454-.382.75l.12.276.207.086c.572.238,2.172-.187,3.427-.9a1.036,1.036,0,0,0,.488-.293,8.743,8.743,0,0,0,.813-.589c1.669-1.367,4.705-1.4,7.218-.089a15.433,15.433,0,0,1,3.766,3.151c.75.8,1.031,1.094,1.436.867l.2-.138.046-.2a2.447,2.447,0,0,0-.419-1.318,4.252,4.252,0,0,1,1.336,1.284c.773,1.086,1.907,3.671,2.9,9.852a165.07,165.07,0,0,1,1.617,18.03c.574,12.929-.414,19.19-.945,22.557l-.038.23c-.052.345-.1.661-.141.954a21.452,21.452,0,0,0-3.9-1.209c.666-2.329.632-6.756.546-9.984,0-.1-.319-10.355-1.1-10.682l-.282-.109-.215.2c-.681.626-.238,9.849-.144,11.691.224,4.314.075,7.2-.439,8.588-.988-.146-2-.253-3.033-.31a25.342,25.342,0,0,0-.066-4.972c-.287-3.665-2.008-17.26-2.711-17.685l-.264-.144-.238.164c-.7.477,1.063,10.958,1.08,11.062a88.52,88.52,0,0,1,.893,8.841c.014.279.017.511.02.7a.949.949,0,0,0-.2-.08.649.649,0,0,0-.7.27,2.423,2.423,0,0,0-.189,1.775c-6.047.017-11.972,1.393-12.357,1.876l-.144.187.055.218c.112.454.284.428,1.919.215,3.915-.514,14.241-1.87,21.339,1.545l.235,3.174c.313,4.171,1.238,16.4,1.273,19.75Z" transform="translate(-682.992 -25.769)" fill="#fff" stroke="rgba(0,0,0,0)" stroke-width="1"/>
    <path id="Path_302" data-name="Path 302" d="M699.4,40.669c.6,4.464,1.775,15.166,2.332,22.04a.52.52,0,0,0-.29-.284l-.31-.092-.21.175c-.652.543.333,5.575.649,7.1.414,1.993.655,2.68.98,2.864l.046.33.026-.3a.527.527,0,0,0,.244.02c.509-.055.7-.385.666-3.662-.049-4.872-1.479-18.185-2.166-24.588l-.1-.931c-.014-.132-1.462-13.064-2.723-13.064h-.008l-.233.02-.129.158c-.241.287-.193.661.313,3.972C698.731,36,699.052,38.081,699.4,40.669Z" transform="translate(-654.823 -17.323)" fill="#fff" stroke="rgba(0,0,0,0)" stroke-width="1"/>
    <path id="Path_303" data-name="Path 303" d="M692.8,30.515l.2.049a.638.638,0,0,0,.276,0,8.327,8.327,0,0,1,.52,1.758c.141.669.267,1.7.442,3.128.348,2.826.873,7.1,2.114,13.891,1.287,7.023,5.368,25.343,6.046,25.739l.184.106.2-.066c.474-.158.709-.236-2.378-13.529-.939-4.024-1.945-9.568-3.073-16.953-.255-1.686-.488-3.332-.7-4.869a74.281,74.281,0,0,0-1.344-7.925c-.5-1.726-1.224-2.953-1.844-3.122a.557.557,0,0,0-.552.124,1.355,1.355,0,0,0-.4.956.858.858,0,0,0,.23.586Z" transform="translate(-665.215 -20.287)" fill="#fff" stroke="rgba(0,0,0,0)" stroke-width="1"/>
    <path id="Path_304" data-name="Path 304" d="M694.625,45.506c-2.677-7.936-2.838-7.939-3.249-7.919l-.244.014-.132.187c-.382.546,1.468,6.291,2.6,9.66,1.554,4.616,3.2,10.274,3.757,12.386a.476.476,0,0,0-.462.02l-.279.227.049.3a3.016,3.016,0,0,0,1.1,1.8.883.883,0,0,0,.414.109.819.819,0,0,0,.327-.072c.98-.434.882-1.04-.351-5.581C697.489,54.2,695.9,49.286,694.625,45.506Z" transform="translate(-668.092 -3.644)" fill="#fff" stroke="rgba(0,0,0,0)" stroke-width="1"/>
    <path id="Path_305" data-name="Path 305" d="M688.895,31.737l.2-.078a.86.86,0,0,0,.454-.62,1.651,1.651,0,0,1,.115-.284.591.591,0,0,0,.089-.046l.009.124c.02,1.183.031,1.9,1.324,8.247,1.017,4.989,2.364,9.014,3.071,9.166l.3.057.173-.241c.175-.238.135-.379-.27-1.749-.33-1.117-.827-2.8-1.3-4.906A73.558,73.558,0,0,1,691.54,30.9c-.009-.83-.092-1.64-.658-1.962a1.623,1.623,0,0,0-1.563.253,1.865,1.865,0,0,0-1.123,1.574.961.961,0,0,0,.419.85Z" transform="translate(-673.245 -20.067)" fill="#fff" stroke="rgba(0,0,0,0)" stroke-width="1"/>
    <path id="Path_306" data-name="Path 306" d="M696.993,58.391c-1.419-2.289-4.734-10.421-6.713-15.281-1.686-4.139-1.686-4.139-2.014-4.171l-.258-.017-.152.2c-.483.643,3.409,10.665,3.447,10.769,1.643,4.2,4.547,10.662,5.19,10.975a1.779,1.779,0,0,0,.764.172,1.223,1.223,0,0,0,.506-.1.878.878,0,0,0,.5-.574.687.687,0,0,0-.313-.847A3.558,3.558,0,0,1,696.993,58.391Z" transform="translate(-673.961 -1.142)" fill="#fff" stroke="rgba(0,0,0,0)" stroke-width="1"/>
  </g>
</svg>
