<?xml version="1.0" standalone="no"?>
<!DOCTYPE svg PUBLIC "-//W3C//DTD SVG 1.1//EN" "http://www.w3.org/Graphics/SVG/1.1/DTD/svg11.dtd" >
<svg xmlns="http://www.w3.org/2000/svg" xmlns:xlink="http://www.w3.org/1999/xlink" version="1.1">
<metadata></metadata>
<defs>
<font id="gilmerlight" horiz-adv-x="1316" >
<font-face units-per-em="2048" ascent="1618" descent="-430" />
<missing-glyph horiz-adv-x="542" />
<glyph unicode="&#xd;" horiz-adv-x="681" />
<glyph horiz-adv-x="0" />
<glyph horiz-adv-x="0" />
<glyph unicode=" "  horiz-adv-x="542" />
<glyph unicode="&#x09;" horiz-adv-x="542" />
<glyph unicode="&#xa0;" horiz-adv-x="542" />
<glyph unicode="!" horiz-adv-x="483" d="M154 74q0 37 25 62q24 24 63 24q38 0 64 -24q24 -26 24 -62q0 -37 -24 -61q-25 -25 -64 -25t-63 25q-25 24 -25 61zM184 1434h123l-20 -1076h-82z" />
<glyph unicode="&#x22;" horiz-adv-x="643" d="M123 1434h123l-17 -394h-90zM397 1434h123l-16 -394h-90z" />
<glyph unicode="#" horiz-adv-x="1476" d="M92 416l14 94h308l55 352h-307l14 94h307l68 426h102l-67 -426h387l67 426h103l-68 -426h309l-14 -94h-309l-55 -352h309l-15 -94h-309l-65 -416h-103l66 416h-387l-66 -416h-102l65 416h-307zM516 510h387l55 352h-387z" />
<glyph unicode="$" horiz-adv-x="1304" d="M61 403l101 29q51 -156 192 -258q140 -102 330 -102q187 0 306 94q120 95 120 217q0 97 -66 162q-68 63 -233 117l-354 114q-156 50 -234 125q-80 77 -80 197q0 143 129 251q130 108 322 109v273h92v-277q177 -18 302 -108q125 -92 186 -226l-99 -30q-57 125 -181 200 q-122 72 -294 72q-154 0 -254 -79t-100 -185q0 -85 61 -137q61 -55 205 -101l344 -110q184 -57 270 -138q86 -83 86 -225q0 -168 -148 -289q-148 -122 -378 -123v-272h-92v277q-196 26 -339 144q-141 117 -194 279z" />
<glyph unicode="%" horiz-adv-x="1996" d="M113 1078q0 155 111 263q110 107 268 107q159 0 269 -107q109 -108 109 -264q0 -159 -109 -265q-110 -107 -269 -107t-268 109q-111 108 -111 264zM211 1077q0 -115 81 -196q81 -82 200 -82q118 0 199 82q81 83 81 196q0 117 -80 197t-200 80q-121 0 -201 -80t-80 -197z M477 0l930 1434h111l-928 -1434h-113zM1126 354q0 158 110 266q110 107 270 107q159 0 269 -107q109 -108 109 -266q0 -157 -109 -263q-110 -107 -270 -107q-159 0 -268 108q-111 107 -111 262zM1225 354q0 -116 81 -195q80 -81 199 -81t200 81t81 195q0 116 -80 198 q-80 81 -201 81t-200 -81q-80 -82 -80 -198z" />
<glyph unicode="&#x26;" horiz-adv-x="1396" d="M143 367q0 131 78 243q78 111 232 187l-7 6q-75 80 -110 148q-37 68 -37 159q0 160 111 254q109 94 270 94q156 0 258 -84q103 -85 137 -211l-94 -26q-33 106 -109 167q-76 60 -190 60q-124 0 -203 -69q-80 -71 -80 -187q0 -115 136 -254l487 -508q84 134 117 289l92 -23 q-33 -174 -141 -336l266 -276h-135l-193 199q-194 -222 -471 -224q-171 0 -293 110q-121 109 -121 282zM244 365q0 -119 90 -207q89 -88 229 -88q233 0 402 196l-447 463q-145 -78 -208 -163q-66 -87 -66 -201z" />
<glyph unicode="'" horiz-adv-x="368" d="M123 1434h123l-17 -394h-90z" />
<glyph unicode="(" horiz-adv-x="544" d="M133 618q6 511 236 902h104q-236 -415 -236 -901q0 -487 236 -902h-104q-242 410 -236 901z" />
<glyph unicode=")" horiz-adv-x="544" d="M72 -283q236 415 236 902q-2 489 -236 901h104q228 -387 236 -902q6 -491 -236 -901h-104z" />
<glyph unicode="*" horiz-adv-x="831" d="M123 1042l199 109l-199 109l53 90l193 -117l-4 225h102l-4 -225l192 117l54 -90l-197 -109l197 -109l-54 -88l-192 117l4 -227h-102l4 225l-193 -115z" />
<glyph unicode="+" horiz-adv-x="1126" d="M154 672v92h362v362h96v-362h361v-92h-361v-365h-96v365h-362z" />
<glyph unicode="," horiz-adv-x="460" d="M123 -281l88 455h127l-121 -455h-94z" />
<glyph unicode="-" horiz-adv-x="1024" d="M154 592v92h716v-92h-716z" />
<glyph unicode="." horiz-adv-x="421" d="M123 74q0 37 25 62q24 24 63 24t64 -24q24 -26 24 -62q0 -37 -24 -61q-25 -25 -64 -25t-63 25q-25 24 -25 61z" />
<glyph unicode="/" horiz-adv-x="1101" d="M92 -186l811 1804h107l-811 -1804h-107z" />
<glyph unicode="0" horiz-adv-x="1290" d="M102 717q0 332 142 537q141 204 401 204q259 0 402 -204q141 -206 141 -537t-141 -536q-143 -206 -402 -206q-260 0 -401 206q-142 205 -142 536zM207 717q0 -296 115 -469q114 -174 323 -174q211 0 325 174q113 175 113 469t-113 469q-114 174 -325 174 q-209 0 -323 -175q-115 -175 -115 -468z" />
<glyph unicode="1" horiz-adv-x="745" d="M51 1214l424 220h86v-1434h-104v1309l-379 -189z" />
<glyph unicode="2" horiz-adv-x="1159" d="M92 0v86l578 563q125 121 187 208q58 82 58 179q0 150 -94 238t-258 88q-144 0 -239 -82q-98 -83 -129 -223l-95 26q26 155 152 265q128 110 311 110q200 0 328 -113q127 -114 127 -309q0 -126 -67 -223q-69 -99 -210 -233l-499 -484h805v-96h-955z" />
<glyph unicode="3" horiz-adv-x="1179" d="M72 358l98 27q28 -141 142 -230q113 -89 284 -89q177 0 284 104q105 103 105 256q0 150 -93 245t-245 95q-119 0 -205 -66l-22 80l473 557h-780v97h915v-88l-418 -486q218 12 348 -110q129 -123 129 -324q0 -189 -140 -323t-351 -134q-217 0 -352 114q-134 113 -172 275z " />
<glyph unicode="4" horiz-adv-x="1189" d="M61 338v82l555 1014h115l-547 -1000h645v397h105v-397h205v-96h-205v-338h-105v338h-768z" />
<glyph unicode="5" horiz-adv-x="1181" d="M92 350l96 25q41 -137 145 -220t263 -83q175 0 284 107q107 107 107 261q0 162 -103 265q-104 102 -288 102q-211 0 -377 -139l-74 24l64 742h805v-97h-713l-47 -538q137 104 342 104q220 0 357 -127q137 -128 137 -336q0 -198 -140 -332q-140 -133 -354 -133 q-203 0 -331 108q-128 107 -173 267z" />
<glyph unicode="6" horiz-adv-x="1140" d="M72 453q0 153 123 338l438 643h119l-373 -549q77 45 196 45q218 0 357 -137q137 -139 137 -340t-138 -339q-138 -139 -359 -139q-222 0 -361 139q-139 138 -139 339zM174 453q0 -162 111 -271q110 -110 287 -110q176 0 286 110q109 109 109 271q0 161 -111 271 q-112 110 -287 110q-174 0 -284 -110q-111 -110 -111 -271z" />
<glyph unicode="7" horiz-adv-x="1054" d="M41 1337v97h963v-86l-605 -1348h-110l600 1337h-848z" />
<glyph unicode="8" horiz-adv-x="1224" d="M102 397q0 129 73 229q74 100 202 146q-98 47 -155 131q-58 83 -58 184q0 159 124 265t326 106t324 -106q123 -106 123 -265q0 -100 -57 -184q-59 -85 -156 -131q128 -46 202 -146q72 -101 72 -229q0 -184 -140 -303t-368 -119t-370 119q-142 118 -142 303zM205 398 q0 -143 112 -234q112 -92 297 -92q181 0 294 92q112 91 112 233q0 139 -111 231q-112 91 -295 91q-186 0 -297 -90q-112 -90 -112 -231zM266 1088q0 -120 93 -197q91 -76 255 -76q157 0 251 77q93 76 93 196q0 118 -93 196t-251 78q-164 0 -256 -77t-92 -197z" />
<glyph unicode="9" horiz-adv-x="1140" d="M72 981q0 201 138 339t360 138q220 0 360 -138q139 -138 139 -339q0 -153 -123 -338l-438 -643h-119l373 549q-78 -45 -197 -45q-219 0 -356 137t-137 340zM174 981q0 -161 111 -271q110 -110 286 -110q173 0 285 110q111 110 111 271q0 163 -111 272q-110 109 -287 109 q-176 0 -285 -109q-110 -110 -110 -272z" />
<glyph unicode=":" horiz-adv-x="421" d="M123 74q0 37 25 62q24 24 63 24t64 -24q24 -26 24 -62q0 -37 -24 -61q-25 -25 -64 -25t-63 25q-25 24 -25 61zM123 897q0 37 25 62q24 24 63 24t64 -24q24 -26 24 -62q0 -37 -24 -61q-25 -25 -64 -25t-63 25q-25 24 -25 61z" />
<glyph unicode=";" horiz-adv-x="468" d="M123 -281l88 455h127l-121 -455h-94zM170 897q0 37 25 62q24 24 63 24q38 0 64 -24q24 -26 24 -62q0 -37 -24 -61q-25 -25 -64 -25t-63 25q-25 24 -25 61z" />
<glyph unicode="&#x3c;" horiz-adv-x="1116" d="M133 668v100l819 332v-105l-694 -276l694 -279v-104z" />
<glyph unicode="=" horiz-adv-x="1130" d="M154 860v92h819v-92h-819zM158 483v92h819v-92h-819z" />
<glyph unicode="&#x3e;" horiz-adv-x="1116" d="M164 336v104l694 279l-694 276v105l819 -332v-100z" />
<glyph unicode="?" horiz-adv-x="1138" d="M102 1092q39 160 157 263t312 103q183 0 304 -110q120 -111 120 -287q0 -91 -42 -165q-41 -73 -102 -124q-59 -50 -119 -104q-59 -54 -102 -131q-42 -78 -42 -179h-96q0 111 41 201q40 88 100 145q63 60 119 106q60 51 100 113q41 62 41 136q0 133 -88 218t-235 85 q-149 0 -243 -79q-96 -79 -130 -218zM449 74q0 37 25 62q24 24 63 24q37 0 63 -24q25 -25 25 -62t-25 -61q-25 -25 -63 -25q-39 0 -63 25q-25 24 -25 61z" />
<glyph unicode="@" horiz-adv-x="2072" d="M113 524q0 252 126 461t341 329q214 120 471 120q395 0 652 -257t257 -645q0 -224 -107 -358q-108 -133 -262 -133q-99 0 -155 60q-56 59 -68 157q-118 -195 -375 -195q-186 0 -315 132q-129 131 -129 327q0 199 128 330t320 131q245 0 373 -197v172h103v-639 q0 -188 133 -188q98 0 177 109q79 107 79 292q0 343 -226 575t-585 232q-347 0 -594 -236q-246 -237 -246 -579q0 -339 231 -565q230 -227 578 -227q280 0 440 125l27 -93q-180 -126 -467 -126q-394 0 -650 256q-257 257 -257 630zM651 522q0 -156 101 -260t245 -104 q160 0 267 104q106 103 106 261q0 157 -105 260q-107 102 -268 102q-150 0 -248 -101q-98 -103 -98 -262z" />
<glyph unicode="A" horiz-adv-x="1394" d="M31 0l606 1434h121l606 -1434h-115l-176 422h-751l-177 -422h-114zM362 518h670l-334 801z" />
<glyph unicode="B" horiz-adv-x="1396" d="M164 0v1434h633q183 0 305 -102q122 -104 123 -265v-8q0 -111 -52 -188q-55 -82 -157 -121q129 -39 201 -133q71 -95 71 -224q0 -164 -119 -278q-119 -115 -323 -115h-682zM268 96h570q158 0 252 88t94 215q0 120 -91 208q-92 89 -249 89h-576v-600zM268 784h545 q141 0 226 81q81 77 81 186v10q0 121 -90 199q-91 77 -242 77h-520v-553z" />
<glyph unicode="C" horiz-adv-x="1601" d="M92 721q0 314 211 525q212 212 526 212q233 0 412 -114q179 -116 252 -302l-100 -24q-63 154 -213 249q-151 95 -351 95q-279 0 -456 -187q-178 -187 -178 -452q0 -275 177 -462q177 -189 457 -189q202 0 350 94q147 94 212 250l98 -27q-77 -186 -253 -300 q-178 -114 -407 -114q-315 0 -526 214t-211 532z" />
<glyph unicode="D" horiz-adv-x="1474" d="M164 0v1434h506q334 0 523 -202t189 -515q0 -317 -189 -517t-523 -200h-506zM268 96h402q290 0 451 174q159 174 159 449q0 266 -161 442t-449 176h-402v-1241z" />
<glyph unicode="E" horiz-adv-x="1271" d="M164 0v1434h985v-97h-881v-563h776v-90h-776v-588h879v-96h-983z" />
<glyph unicode="F" horiz-adv-x="1173" d="M164 0v1434h969v-97h-865v-575h760v-92h-760v-670h-104z" />
<glyph unicode="G" horiz-adv-x="1636" d="M92 721q0 314 211 525q212 212 526 212q232 0 411 -113q178 -114 251 -303l-100 -24q-63 154 -212 249t-350 95q-281 0 -457 -186q-177 -188 -177 -453q0 -275 178 -462q179 -189 461 -189q261 0 431 155q169 154 181 422h-625v92h723v-61q-1 -334 -203 -519 q-203 -186 -507 -186q-315 0 -528 214q-214 214 -214 532z" />
<glyph unicode="H" horiz-adv-x="1462" d="M164 0v1434h104v-656h926v656h104v-1434h-104v684h-926v-684h-104z" />
<glyph unicode="I" horiz-adv-x="432" d="M164 0v1434h104v-1434h-104z" />
<glyph unicode="J" horiz-adv-x="1230" d="M82 348l94 29q45 -140 150 -223q103 -82 266 -82q184 0 288 111q103 109 103 284v870h-817v97h921v-967q0 -224 -136 -357q-137 -135 -359 -135q-194 0 -324 102q-130 100 -186 271z" />
<glyph unicode="K" horiz-adv-x="1363" d="M164 0v1434h104v-914l850 914h137l-608 -650l666 -784h-131l-602 713l-312 -334v-379h-104z" />
<glyph unicode="L" horiz-adv-x="1165" d="M164 0v1434h104v-1338h836v-96h-940z" />
<glyph unicode="M" horiz-adv-x="1658" d="M164 0v1434h100l565 -805l566 805h100v-1434h-104v1257l-562 -802l-561 802v-1257h-104z" />
<glyph unicode="N" horiz-adv-x="1472" d="M164 0v1434h96l944 -1258v1258h105v-1434h-97l-944 1257v-1257h-104z" />
<glyph unicode="O" horiz-adv-x="1648" d="M92 721q0 313 210 525t523 212q311 0 521 -212t210 -525q0 -317 -210 -531q-210 -215 -521 -215q-313 0 -523 214t-210 532zM195 723q0 -274 176 -462q175 -189 454 -189q276 0 453 190q176 190 176 461q0 264 -176 452q-175 187 -452 187t-454 -187t-177 -452z" />
<glyph unicode="P" horiz-adv-x="1302" d="M164 0v1434h612q209 0 332 -136t123 -311t-123 -309q-123 -133 -338 -133h-502v-545h-104zM268 641h500q166 0 264 104t98 244q0 141 -99 245q-99 103 -257 103h-506v-696z" />
<glyph unicode="Q" horiz-adv-x="1648" d="M92 721q0 314 211 525q212 212 523 212t521 -212q209 -212 209 -525q0 -315 -210 -533l161 -188h-123l-108 127q-194 -152 -451 -152q-311 0 -522 214t-211 532zM195 723q0 -272 177 -461q177 -190 453 -190q221 0 387 129l-344 403h125l289 -340q172 187 172 459 q0 265 -177 452t-452 187q-276 0 -453 -187t-177 -452z" />
<glyph unicode="R" horiz-adv-x="1366" d="M164 0v1434h645q203 0 320 -129q116 -130 116 -293q0 -156 -102 -277q-103 -121 -281 -139l402 -596h-121l-398 594h-477v-594h-104zM268 688h541q154 0 245 96q91 94 91 228q0 132 -92 229q-91 96 -246 96h-539v-649z" />
<glyph unicode="S" horiz-adv-x="1347" d="M78 403l100 29q51 -156 192 -258q140 -102 330 -102q187 0 306 94q120 95 120 217q0 97 -66 162q-68 63 -233 117l-354 114q-155 50 -233 125q-80 77 -80 197q0 145 132 253q133 107 329 107q211 0 355 -93q143 -92 214 -245l-98 -30q-57 125 -181 200q-123 72 -295 72 q-154 0 -254 -79t-100 -185q0 -85 61 -137q61 -55 205 -101l344 -110q184 -57 271 -138q86 -83 86 -225q0 -170 -151 -291t-382 -121q-226 0 -393 124q-168 125 -225 304z" />
<glyph unicode="T" horiz-adv-x="1273" d="M31 1337v97h1212v-97h-553v-1337h-104v1337h-555z" />
<glyph unicode="U" horiz-adv-x="1433" d="M143 561v873h105v-871q0 -223 122 -357t347 -134t347 134t122 357v871h104v-873q0 -267 -152 -427q-153 -159 -421 -159t-421 159t-153 427z" />
<glyph unicode="V" horiz-adv-x="1355" d="M41 1434h109l528 -1303l528 1303h109l-584 -1434h-106z" />
<glyph unicode="W" horiz-adv-x="2002" d="M41 1434h106l406 -1278l399 1278h97l399 -1278l407 1278h107l-459 -1434h-106l-396 1264l-397 -1264h-106z" />
<glyph unicode="X" horiz-adv-x="1370" d="M51 0l559 723l-547 711h127l496 -637l494 637h127l-547 -711l559 -723h-127l-506 651l-508 -651h-127z" />
<glyph unicode="Y" horiz-adv-x="1308" d="M31 1434h119l505 -775l504 775h119l-571 -875v-559h-105v559z" />
<glyph unicode="Z" horiz-adv-x="1271" d="M92 0v70l934 1267h-907v97h1048v-70l-929 -1268h952v-96h-1098z" />
<glyph unicode="[" horiz-adv-x="667" d="M164 -283v1803h422v-95h-320v-1613h320v-95h-422z" />
<glyph unicode="\" horiz-adv-x="1101" d="M92 1618h107l811 -1804h-107z" />
<glyph unicode="]" horiz-adv-x="667" d="M82 -188h319v1613h-319v95h422v-1803h-422v95z" />
<glyph unicode="^" horiz-adv-x="1036" d="M92 883l373 612h106l373 -612h-110l-316 524l-315 -524h-111z" />
<glyph unicode="_" horiz-adv-x="1187" d="M92 -160h1004v-88h-1004v88z" />
<glyph unicode="`" horiz-adv-x="288" d="M0 1452h123l166 -274h-103z" />
<glyph unicode="a" d="M96 508q0 228 148 379q147 151 370 151q148 0 260 -63q113 -65 179 -174v213h100v-1014h-100v215q-63 -113 -177 -176q-115 -64 -262 -64q-223 0 -370 153q-148 152 -148 380zM197 506q0 -189 121 -313q122 -125 307 -125q178 0 304 127t126 311t-126 311t-304 127 q-188 0 -308 -125t-120 -313z" />
<glyph unicode="b" d="M164 0v1495h100v-694q66 111 179 174t259 63q223 0 371 -151t148 -379q0 -227 -147 -380q-148 -153 -372 -153q-148 0 -260 64q-113 62 -178 176v-215h-100zM262 506q0 -184 126 -311t304 -127q185 0 307 125q121 124 121 313q0 188 -119 313q-120 125 -309 125 q-178 0 -304 -127t-126 -311z" />
<glyph unicode="c" horiz-adv-x="1179" d="M96 510q0 226 149 378q148 150 376 150q174 0 298 -91q124 -92 158 -204l-94 -28q-32 93 -131 161q-101 68 -231 68q-186 0 -305 -128t-119 -310q0 -180 119 -308t305 -128q131 0 231 66q99 63 131 157l94 -25q-34 -115 -157 -204q-124 -89 -299 -89q-228 0 -376 153 q-149 154 -149 382z" />
<glyph unicode="d" d="M96 508q0 228 148 379q147 151 370 151q148 0 260 -63q113 -65 179 -174v694h100v-1495h-100v215q-63 -113 -177 -176q-113 -64 -262 -64q-223 0 -370 153q-148 152 -148 380zM197 506q0 -189 121 -313q122 -125 307 -125q178 0 304 127t126 311t-126 311t-304 127 q-188 0 -308 -125t-120 -313z" />
<glyph unicode="e" horiz-adv-x="1202" d="M96 508q0 227 143 379q142 151 367 151q233 0 367 -143q133 -142 133 -360q0 -28 -2 -62h-905q8 -182 124 -292q115 -111 300 -111q137 0 236 66q98 64 142 161l97 -29q-62 -129 -179 -210q-119 -83 -296 -83q-230 0 -379 146q-148 145 -148 387zM199 563l807 2 q-12 173 -117 276q-104 103 -283 103q-170 0 -283 -110q-114 -111 -124 -271z" />
<glyph unicode="f" horiz-adv-x="806" d="M61 920v94h222v155q0 169 76 260q75 91 225 91q110 0 192 -41l-26 -90q-75 38 -160 38h-4q-203 0 -203 -264v-149h393v-94h-393v-920h-100v920h-222z" />
<glyph unicode="g" d="M96 526q0 219 148 366q148 146 370 146q148 0 260 -58q114 -59 179 -161v195h100v-981q0 -211 -138 -349q-138 -139 -356 -139q-329 0 -477 267l92 34q121 -206 382 -206h3q178 0 284 112q105 110 110 281v200q-63 -103 -177 -162q-115 -59 -262 -59q-223 0 -370 147 q-148 145 -148 367zM197 525q0 -181 121 -301q122 -120 307 -120q177 0 304 122q126 122 126 298t-126 298q-127 122 -304 122q-187 0 -308 -119q-120 -120 -120 -300z" />
<glyph unicode="h" horiz-adv-x="1230" d="M164 0v1495h100v-690q55 106 158 170q103 63 244 63q187 0 300 -116q111 -117 111 -324v-598h-100v588q0 168 -84 261t-238 93q-174 0 -282 -118q-109 -118 -109 -310v-514h-100z" />
<glyph unicode="i" horiz-adv-x="450" d="M143 1311q0 33 24 56q22 22 58 22q34 0 59 -23q23 -23 23 -55q0 -35 -23 -58q-24 -24 -59 -24t-58 24q-24 23 -24 58zM176 0v1014h100v-1014h-100z" />
<glyph unicode="j" horiz-adv-x="442" d="M-164 -416l27 92q57 -38 125 -38h4q89 0 132 61q44 62 44 172v1143h100v-1143q0 -155 -69 -240q-71 -86 -209 -86q-81 0 -154 39zM135 1311q0 33 24 56q22 22 58 22q34 0 59 -23q23 -23 23 -55q0 -35 -23 -58q-24 -24 -59 -24t-58 24q-24 23 -24 58z" />
<glyph unicode="k" horiz-adv-x="1044" d="M164 0v1495h100v-1028l547 547h133l-438 -441l498 -573h-125l-441 504l-174 -174v-330h-100z" />
<glyph unicode="l" horiz-adv-x="428" d="M164 0v1495h100v-1495h-100z" />
<glyph unicode="m" horiz-adv-x="1875" d="M164 0v1014h100v-195q51 97 144 159q92 60 215 60q249 0 335 -225q45 100 141 163q95 62 232 62q182 0 287 -112q104 -113 104 -312v-614h-100v606q0 158 -78 247t-221 89q-142 0 -237 -107q-95 -109 -95 -278v-557h-100v606q0 159 -73 247q-74 89 -208 89 q-150 0 -248 -116q-98 -118 -98 -304v-522h-100z" />
<glyph unicode="n" horiz-adv-x="1230" d="M164 0v1014h100v-209q55 106 158 170q103 63 244 63q187 0 300 -116q111 -117 111 -324v-598h-100v588q0 168 -84 261t-238 93q-174 0 -282 -118q-109 -118 -109 -310v-514h-100z" />
<glyph unicode="o" horiz-adv-x="1257" d="M96 508q0 228 153 379q151 151 382 151q228 0 379 -151t151 -379t-151 -380q-152 -153 -379 -153q-229 0 -382 153t-153 380zM197 506q0 -186 125 -311t309 -125q181 0 306 125q124 124 124 311t-124 312q-125 126 -306 126q-185 0 -309 -126q-125 -127 -125 -312z" />
<glyph unicode="p" d="M164 -430v1444h100v-213q66 111 179 174t259 63q223 0 371 -151t148 -379q0 -227 -147 -380q-148 -153 -372 -153q-148 0 -260 64q-113 62 -178 176v-645h-100zM262 506q0 -184 126 -311t304 -127q185 0 307 125q121 124 121 313q0 188 -119 313q-120 125 -309 125 q-178 0 -304 -127t-126 -311z" />
<glyph unicode="q" d="M96 508q0 228 148 379q147 151 370 151q148 0 260 -63q113 -65 179 -174v213h100v-1444h-100v645q-63 -113 -177 -176q-113 -64 -262 -64q-223 0 -370 153q-148 152 -148 380zM197 506q0 -189 121 -313q122 -125 307 -125q178 0 304 127t126 311t-126 311t-304 127 q-188 0 -308 -125t-120 -313z" />
<glyph unicode="r" horiz-adv-x="694" d="M164 0v1014h100v-189q46 107 145 164q73 41 169 41q31 0 65 -4v-94q-27 3 -53 3q-137 0 -223 -90q-103 -107 -103 -353v-492h-100z" />
<glyph unicode="s" horiz-adv-x="1034" d="M72 279l98 26q28 -98 127 -167q98 -68 225 -68q132 0 215 58q84 59 84 142q0 67 -38 105q-37 37 -130 63l-303 90q-106 32 -166 85q-63 53 -63 151q0 111 103 193q102 81 251 81q155 0 265 -71q109 -73 155 -181l-96 -28q-29 78 -117 132q-89 54 -209 54q-115 0 -183 -56 q-69 -57 -69 -126q0 -55 41 -87q40 -31 123 -57l307 -92q228 -67 230 -252q0 -128 -114 -214q-113 -85 -286 -85q-161 0 -286 86t-164 218z" />
<glyph unicode="t" horiz-adv-x="833" d="M51 920v94h215v360h101v-360h374v-94h-374v-631q0 -205 186 -205q79 0 158 39l30 -94q-101 -43 -198 -43q-137 0 -207 81q-70 79 -70 222v631h-215z" />
<glyph unicode="u" horiz-adv-x="1230" d="M154 416v598h100v-588q0 -168 84 -261t237 -93q173 0 283 119q109 118 109 309v514h100v-1014h-100v209q-55 -105 -157 -170q-103 -64 -245 -64q-188 0 -299 117q-112 116 -112 324z" />
<glyph unicode="v" horiz-adv-x="1073" d="M31 1014h106l400 -899l399 899h106l-450 -1014h-111z" />
<glyph unicode="w" horiz-adv-x="1529" d="M31 1014h106l295 -881l287 881h92l287 -881l295 881h106l-348 -1014h-104l-281 850l-283 -850h-104z" />
<glyph unicode="x" horiz-adv-x="1046" d="M31 0l420 512l-400 502h125l348 -436l346 436h125l-399 -502l420 -512h-127l-365 449l-366 -449h-127z" />
<glyph unicode="y" horiz-adv-x="1079" d="M31 1014h110l416 -881l383 881h109l-633 -1444h-109l197 448z" />
<glyph unicode="z" horiz-adv-x="1042" d="M96 0v70l692 850h-679v94h819v-76l-686 -844h704v-94h-850z" />
<glyph unicode="{" horiz-adv-x="786" d="M123 571v95h43q93 0 148 55t55 145v377q0 287 260 287h76v-92h-66q-172 0 -172 -199v-373q0 -204 -156 -248q156 -44 156 -247v-373q0 -199 172 -199h66v-92h-76q-260 0 -260 287v377q0 90 -55 145t-148 55h-43z" />
<glyph unicode="|" horiz-adv-x="403" d="M154 -256v1905h96v-1905h-96z" />
<glyph unicode="}" horiz-adv-x="786" d="M82 -201h65q172 0 172 199v373q0 205 156 247q-156 44 -156 248v373q0 199 -172 199h-65v92h76q260 0 260 -287v-377q0 -89 56 -145q55 -55 147 -55h43v-95h-43q-92 0 -147 -55q-56 -56 -56 -145v-377q0 -287 -260 -287h-76v92z" />
<glyph unicode="~" horiz-adv-x="1208" d="M133 629q0 97 59 162q58 63 177 63q85 0 170 -46q108 -59 165 -91q78 -45 140 -45q139 0 139 164l92 -27q0 -99 -57 -164t-176 -65q-85 0 -170 46q-108 59 -165 91q-79 45 -140 45q-142 0 -142 -160z" />
<glyph unicode="&#xa2;" horiz-adv-x="1175" d="M102 717q0 212 134 361q134 147 339 165v221h93v-221q160 -12 272 -100q112 -89 143 -193l-94 -28q-32 93 -131 161q-101 68 -231 68q-186 0 -305 -128t-119 -310q0 -180 119 -308q118 -129 305 -129q131 0 231 66q99 65 131 158l94 -25q-33 -106 -144 -193 q-113 -88 -271 -98v-217h-93v217q-206 18 -340 168q-133 149 -133 365z" />
<glyph unicode="&#xa3;" horiz-adv-x="1327" d="M102 0v96h215v512h-174v92h174v373q0 186 106 289q105 102 282 102q173 0 286 -95q110 -94 142 -236l-91 -27q-78 262 -340 262q-134 0 -208 -78q-74 -79 -74 -221v-369h543v-92h-543v-512h825v-96h-1143z" />
<glyph unicode="&#xa5;" horiz-adv-x="1349" d="M51 1434h119l506 -775l504 775h118l-518 -793h394v-86h-447v-147h447v-86h-447v-322h-104v322h-445v86h445v147h-445v86h391z" />
<glyph unicode="&#xa8;" horiz-adv-x="520" d="M0 1262q0 32 22 53q22 20 54 20t55 -20q21 -21 21 -53q0 -34 -21 -53q-23 -21 -55 -21q-33 0 -54 21q-22 19 -22 53zM369 1262q0 32 22 53q22 20 54 20q31 0 54 -20q21 -21 21 -53q0 -34 -21 -53q-23 -21 -54 -21q-33 0 -54 21q-22 19 -22 53z" />
<glyph unicode="&#xa9;" horiz-adv-x="1558" d="M92 721q0 287 199 483q198 195 489 195t489 -195q197 -197 197 -483q0 -292 -196 -488q-196 -198 -490 -198q-293 0 -490 198q-198 197 -198 488zM186 721q0 -255 171 -424q172 -170 423 -170q252 0 422 170t170 424q0 252 -170 419t-422 167q-251 0 -423 -167 q-171 -166 -171 -419zM434 719q0 147 102 248q100 100 250 100q121 0 208 -60q88 -62 116 -151l-100 -25q-19 61 -80 102q-59 40 -142 40q-113 0 -182 -74q-69 -73 -69 -180q0 -110 70 -183q69 -75 181 -75q80 0 140 39q60 40 82 100l98 -27q-28 -88 -114 -148t-206 -60 q-152 0 -253 101t-101 253z" />
<glyph unicode="&#xab;" horiz-adv-x="901" d="M154 655l204 349h117l-205 -349l205 -348h-117zM426 655l205 349h117l-205 -349l205 -348h-117z" />
<glyph unicode="&#xad;" horiz-adv-x="1024" d="M154 592v92h716v-92h-716z" />
<glyph unicode="&#xae;" horiz-adv-x="1558" d="M92 717q0 291 198 487q196 195 490 195q291 0 489 -195q197 -197 197 -487q0 -291 -197 -486q-197 -196 -489 -196q-294 0 -490 196q-198 195 -198 486zM186 717q0 -254 170 -424t424 -170q253 0 423 170q169 169 169 424t-169 424q-170 170 -423 170q-254 0 -424 -170 t-170 -424zM526 379v680h324q100 0 162 -65q61 -65 61 -150q0 -71 -43 -127q-43 -58 -119 -76l166 -262h-116l-158 254h-176v-254h-101zM627 723h217q57 0 93 36t36 85q0 51 -35 86t-92 35h-219v-242z" />
<glyph unicode="&#xb4;" horiz-adv-x="288" d="M0 1178l166 274h123l-187 -274h-102z" />
<glyph unicode="&#xb8;" horiz-adv-x="413" d="M0 -389l23 80q68 -52 141 -59q72 -9 116 17t44 68q0 55 -72 77q-70 22 -152 5l64 201h94l-37 -123q89 -1 141 -48q52 -46 52 -114q0 -81 -61 -124q-62 -44 -150 -44q-115 0 -203 64z" />
<glyph unicode="&#xbb;" horiz-adv-x="901" d="M154 307l204 348l-204 349h116l205 -349l-205 -348h-116zM426 307l205 348l-205 349h117l205 -349l-205 -348h-117z" />
<glyph unicode="&#xc2;" horiz-adv-x="1394" d="M31 0l606 1434h121l606 -1434h-115l-176 422h-751l-177 -422h-114zM362 518h670l-334 801zM416 1597l221 256h119l223 -256h-119l-164 193l-161 -193h-119z" />
<glyph unicode="&#xc7;" horiz-adv-x="1601" d="M92 721q0 314 211 525q212 212 526 212q233 0 412 -114q179 -116 252 -302l-100 -24q-63 154 -213 249q-151 95 -351 95q-279 0 -456 -187q-178 -187 -178 -452q0 -275 177 -462q176 -189 457 -189q202 0 350 94q147 94 212 250l98 -27q-72 -178 -235 -289 q-163 -112 -380 -123l-30 -100q87 -1 140 -48q52 -46 52 -114q0 -81 -61 -124q-62 -44 -150 -44q-116 0 -202 64l22 80q68 -52 141 -59q72 -9 116 17t44 68q0 54 -71 77q-70 22 -152 5l55 178q-298 18 -491 229q-195 210 -195 515z" />
<glyph unicode="&#xce;" horiz-adv-x="432" d="M-63 1597l221 256h118l224 -256h-119l-164 193l-162 -193h-118zM164 0v1434h104v-1434h-104z" />
<glyph unicode="&#xd6;" horiz-adv-x="1648" d="M92 721q0 313 210 525t523 212q311 0 521 -212t210 -525q0 -317 -210 -531q-210 -215 -521 -215q-313 0 -523 214t-210 532zM195 723q0 -274 176 -462q175 -189 454 -189q276 0 453 190q176 190 176 461q0 264 -176 452q-175 187 -452 187t-454 -187t-177 -452zM565 1682 q0 32 22 53q22 20 54 20t55 -20q21 -21 21 -53q0 -34 -21 -53q-22 -21 -55 -21t-54 21q-22 19 -22 53zM934 1682q0 32 22 53q22 20 54 20q31 0 54 -20q21 -21 21 -53q0 -34 -21 -53q-22 -21 -54 -21q-33 0 -54 21q-22 19 -22 53z" />
<glyph unicode="&#xdb;" horiz-adv-x="1433" d="M143 561v873h105v-871q0 -223 122 -357t347 -134t347 134t122 357v871h104v-873q0 -267 -152 -427q-153 -159 -421 -159t-421 159t-153 427zM436 1597l221 256h119l223 -256h-118l-164 193l-162 -193h-119z" />
<glyph unicode="&#xdc;" horiz-adv-x="1433" d="M143 561v873h105v-871q0 -223 122 -357t347 -134t347 134t122 357v871h104v-873q0 -267 -152 -427q-153 -159 -421 -159t-421 159t-153 427zM457 1682q0 32 22 53q22 20 54 20q31 0 54 -20q21 -21 21 -53q0 -34 -21 -53q-23 -21 -54 -21q-33 0 -54 21q-22 19 -22 53z M825 1682q0 32 22 53q22 20 54 20t55 -20q21 -21 21 -53q0 -34 -21 -53q-22 -21 -55 -21t-54 21q-22 19 -22 53z" />
<glyph unicode="&#xe2;" d="M96 508q0 228 148 379q147 151 370 151q148 0 260 -63q113 -65 179 -174v213h100v-1014h-100v215q-63 -113 -177 -176q-113 -64 -262 -64q-223 0 -370 153q-148 152 -148 380zM197 506q0 -189 121 -313q122 -125 307 -125q178 0 304 127t126 311t-126 311t-304 127 q-188 0 -308 -125t-120 -313zM346 1178l221 256h119l223 -256h-118l-164 192l-162 -192h-119z" />
<glyph unicode="&#xe7;" horiz-adv-x="1179" d="M96 510q0 226 149 378q148 150 376 150q174 0 298 -91q124 -92 158 -204l-94 -28q-32 93 -131 161q-101 68 -231 68q-186 0 -305 -128t-119 -310q0 -180 119 -308t305 -128q131 0 231 66q99 63 131 157l94 -25q-33 -104 -140 -190q-109 -86 -263 -101l-31 -100 q89 -1 141 -48q52 -46 52 -114q0 -81 -61 -124q-62 -44 -150 -44q-115 0 -203 64l22 80q68 -52 141 -59q72 -9 116 17t44 68q0 54 -71 77q-70 22 -152 5l56 178q-211 13 -346 165q-136 151 -136 368z" />
<glyph unicode="&#xee;" horiz-adv-x="430" d="M-68 1178l222 256h118l224 -256h-119l-164 192l-162 -192h-119zM164 0v1014h102v-1014h-102z" />
<glyph unicode="&#xf6;" horiz-adv-x="1257" d="M96 508q0 228 153 379q151 151 382 151q228 0 379 -151t151 -379t-151 -380q-152 -153 -379 -153q-229 0 -382 153t-153 380zM197 506q0 -186 125 -311t309 -125q181 0 306 125q124 124 124 311t-124 312q-125 126 -306 126q-185 0 -309 -126q-125 -127 -125 -312z M371 1262q0 32 22 53q22 20 54 20q31 0 54 -20q21 -21 21 -53q0 -34 -21 -53q-23 -21 -54 -21q-33 0 -54 21q-22 19 -22 53zM739 1262q0 32 22 53q22 20 54 20t55 -20q21 -21 21 -53q0 -34 -21 -53q-22 -21 -55 -21t-54 21q-22 19 -22 53z" />
<glyph unicode="&#xfb;" horiz-adv-x="1230" d="M154 416v598h100v-588q0 -168 84 -261t237 -93q173 0 283 119q109 118 109 309v514h100v-1014h-100v209q-55 -105 -157 -170q-103 -64 -245 -64q-188 0 -299 117q-112 116 -112 324zM336 1178l221 256h119l223 -256h-119l-164 192l-161 -192h-119z" />
<glyph unicode="&#xfc;" horiz-adv-x="1230" d="M154 416v598h100v-588q0 -168 84 -261t237 -93q173 0 283 119q109 118 109 309v514h100v-1014h-100v209q-55 -105 -157 -170q-103 -64 -245 -64q-188 0 -299 117q-112 116 -112 324zM356 1262q0 32 22 53q22 20 54 20t55 -20q21 -21 21 -53q0 -34 -21 -53 q-23 -21 -55 -21q-33 0 -54 21q-22 19 -22 53zM725 1262q0 32 22 53q22 20 54 20t55 -20q21 -21 21 -53q0 -34 -21 -53q-22 -21 -55 -21t-54 21q-22 19 -22 53z" />
<glyph unicode="&#x11e;" horiz-adv-x="1636" d="M92 721q0 314 211 525q212 212 526 212q232 0 411 -113q178 -114 251 -303l-100 -24q-63 154 -212 249t-350 95q-281 0 -457 -186q-177 -188 -177 -453q0 -275 178 -462q179 -189 461 -189q261 0 431 155q169 154 181 422h-625v92h723v-61q-1 -334 -203 -519 q-203 -186 -507 -186q-315 0 -528 214q-214 214 -214 532zM528 1837h95q1 -78 49 -129q46 -49 141 -49q96 0 144 49q47 50 47 129h94q0 -114 -74 -188t-211 -74t-211 74t-74 188z" />
<glyph unicode="&#x11f;" d="M96 526q0 219 148 366q148 146 370 146q148 0 260 -58q114 -59 179 -161v195h100v-981q0 -211 -138 -349q-138 -139 -356 -139q-329 0 -477 267l92 34q122 -207 385 -206q178 0 284 112q105 110 110 281v200q-63 -103 -177 -162q-115 -59 -262 -59q-223 0 -370 147 q-148 145 -148 367zM197 525q0 -181 121 -301q122 -120 307 -120q177 0 304 122q126 122 126 298t-126 298q-127 122 -304 122q-187 0 -308 -119q-120 -120 -120 -300zM346 1417h94q1 -79 50 -129q46 -49 141 -49q97 0 143 49q47 50 47 129h94q0 -115 -73 -188 q-74 -74 -211 -74t-211 74t-74 188z" />
<glyph unicode="&#x130;" horiz-adv-x="432" d="M129 1688q0 36 25 61q24 25 63 25t64 -25q24 -25 24 -61q0 -37 -24 -61q-25 -25 -64 -25t-63 25q-25 24 -25 61zM164 0v1434h104v-1434h-104z" />
<glyph unicode="&#x131;" horiz-adv-x="430" d="M164 0v1014h102v-1014h-102z" />
<glyph unicode="&#x15e;" horiz-adv-x="1347" d="M78 403l100 29q51 -156 192 -258q140 -102 330 -102q187 0 306 94q120 95 120 217q0 97 -66 162q-68 63 -233 117l-354 114q-155 50 -233 125q-80 77 -80 197q0 145 132 253q133 107 329 107q211 0 355 -93q143 -92 214 -245l-98 -30q-57 125 -181 200q-123 72 -295 72 q-154 0 -254 -79t-100 -185q0 -85 61 -137q61 -55 205 -101l344 -110q184 -57 271 -138q86 -83 86 -225q0 -164 -141 -283q-142 -120 -363 -129l-29 -98q88 -1 141 -48q52 -46 52 -114q0 -81 -61 -124q-62 -44 -150 -44q-115 0 -203 64l23 80q68 -52 141 -59q72 -9 116 17 t44 68q0 55 -72 77q-70 22 -152 5l58 178q-203 18 -352 140q-151 122 -203 286z" />
<glyph unicode="&#x15f;" horiz-adv-x="1034" d="M72 279l98 26q28 -98 127 -167q98 -68 225 -68q132 0 215 58q84 59 84 142q0 67 -38 105q-37 37 -130 63l-303 90q-106 32 -166 85q-63 53 -63 151q0 111 103 193q102 81 251 81q155 0 265 -71q109 -73 155 -181l-96 -28q-29 78 -117 132q-89 54 -209 54q-115 0 -183 -56 q-69 -57 -69 -126q0 -55 41 -87q40 -31 123 -57l307 -92q228 -67 230 -252q0 -128 -114 -214q-113 -85 -286 -85h-2l-28 -98q87 -1 140 -48q52 -46 52 -114q0 -81 -61 -124q-62 -44 -150 -44q-115 0 -203 64l23 80q68 -52 141 -59q72 -9 116 17t44 68q0 54 -71 77 q-70 22 -152 5l57 185q-130 22 -227 104q-97 79 -129 191z" />
<glyph unicode="&#x2c6;" horiz-adv-x="563" d="M0 1178l221 256h119l223 -256h-119l-163 192l-162 -192h-119z" />
<glyph unicode="&#x2da;" horiz-adv-x="430" d="M0 1346q0 90 62 149t153 59q92 0 154 -59q61 -58 61 -149q0 -92 -61 -150q-62 -59 -154 -59q-91 0 -153 59t-62 150zM88 1346q0 -56 34 -90q35 -35 93 -35t93 35q34 34 34 90t-34 90t-93 34t-93 -34t-34 -90z" />
<glyph unicode="&#x2dc;" horiz-adv-x="581" d="M0 1202q0 215 150 215q60 0 152 -65q92 -66 130 -66q58 0 60 125h90q0 -215 -150 -215q-60 0 -152 66q-92 65 -130 65q-58 0 -60 -125h-90z" />
<glyph unicode="&#x2000;" horiz-adv-x="926" />
<glyph unicode="&#x2001;" horiz-adv-x="1853" />
<glyph unicode="&#x2002;" horiz-adv-x="926" />
<glyph unicode="&#x2003;" horiz-adv-x="1853" />
<glyph unicode="&#x2004;" horiz-adv-x="617" />
<glyph unicode="&#x2005;" horiz-adv-x="463" />
<glyph unicode="&#x2006;" horiz-adv-x="308" />
<glyph unicode="&#x2007;" horiz-adv-x="308" />
<glyph unicode="&#x2008;" horiz-adv-x="231" />
<glyph unicode="&#x2009;" horiz-adv-x="370" />
<glyph unicode="&#x200a;" horiz-adv-x="102" />
<glyph unicode="&#x2010;" horiz-adv-x="1024" d="M154 592v92h716v-92h-716z" />
<glyph unicode="&#x2011;" horiz-adv-x="1024" d="M154 592v92h716v-92h-716z" />
<glyph unicode="&#x2012;" horiz-adv-x="1024" d="M154 592v92h716v-92h-716z" />
<glyph unicode="&#x2013;" horiz-adv-x="1290" d="M154 592v92h983v-92h-983z" />
<glyph unicode="&#x2014;" horiz-adv-x="1904" d="M154 592v92h1597v-92h-1597z" />
<glyph unicode="&#x2018;" horiz-adv-x="460" d="M123 979l121 455h94l-88 -455h-127z" />
<glyph unicode="&#x2019;" horiz-adv-x="460" d="M123 979l88 455h127l-121 -455h-94z" />
<glyph unicode="&#x201a;" horiz-adv-x="460" d="M123 -281l88 455h127l-121 -455h-94z" />
<glyph unicode="&#x201c;" horiz-adv-x="733" d="M123 979l121 455h94l-88 -455h-127zM395 979l121 455h94l-88 -455h-127z" />
<glyph unicode="&#x201d;" horiz-adv-x="733" d="M123 979l88 455h127l-121 -455h-94zM395 979l88 455h127l-121 -455h-94z" />
<glyph unicode="&#x201e;" horiz-adv-x="733" d="M123 -281l88 455h127l-121 -455h-94zM395 -281l88 455h127l-121 -455h-94z" />
<glyph unicode="&#x2026;" horiz-adv-x="1183" d="M123 74q0 37 25 62q24 24 63 24t64 -24q24 -26 24 -62q0 -37 -24 -61q-25 -25 -64 -25t-63 25q-25 24 -25 61zM504 74q0 37 25 62q24 24 63 24q38 0 64 -24q24 -26 24 -62q0 -37 -24 -61q-25 -25 -64 -25t-63 25q-25 24 -25 61zM885 74q0 37 25 62q24 24 63 24t64 -24 q24 -26 24 -62q0 -37 -24 -61q-25 -25 -64 -25t-63 25q-25 24 -25 61z" />
<glyph unicode="&#x202f;" horiz-adv-x="370" />
<glyph unicode="&#x2039;" horiz-adv-x="628" d="M154 655l204 349h117l-205 -349l205 -348h-117z" />
<glyph unicode="&#x203a;" horiz-adv-x="628" d="M154 307l204 348l-204 349h116l205 -349l-205 -348h-116z" />
<glyph unicode="&#x205f;" horiz-adv-x="463" />
<glyph unicode="&#x20ac;" horiz-adv-x="1548" d="M72 545v86h180q-4 51 -4 90q0 35 4 86h-180v86h194q56 251 253 408t466 157q265 0 459 -147l-62 -78q-166 129 -397 129q-228 0 -395 -131q-166 -130 -219 -338h719v-86h-736q-4 -47 -4 -84q0 -47 6 -92h734v-86h-717q52 -211 217 -342q164 -131 395 -131q237 0 401 131 l60 -76q-191 -152 -461 -152q-267 0 -463 159q-197 159 -256 411h-194z" />
<glyph unicode="&#x2122;" horiz-adv-x="1449" d="M61 1356v78h560v-78h-238v-578h-84v578h-238zM705 778v656h79l242 -344l238 344h84v-656h-82v520l-238 -337l-244 337v-520h-79z" />
<glyph unicode="&#x25fc;" horiz-adv-x="1014" d="M0 0v1015h1015v-1015h-1015z" />
</font>
</defs>
</svg>
