<?xml version="1.0" standalone="no"?>
<!DOCTYPE svg PUBLIC "-//W3C//DTD SVG 1.1//EN" "http://www.w3.org/Graphics/SVG/1.1/DTD/svg11.dtd" >
<svg xmlns="http://www.w3.org/2000/svg" xmlns:xlink="http://www.w3.org/1999/xlink" version="1.1">
<metadata></metadata>
<defs>
<font id="gilmerheavy" horiz-adv-x="1320" >
<font-face units-per-em="2048" ascent="1618" descent="-430" />
<missing-glyph horiz-adv-x="491" />
<glyph unicode="&#xd;" horiz-adv-x="681" />
<glyph horiz-adv-x="0" />
<glyph horiz-adv-x="0" />
<glyph unicode=" "  horiz-adv-x="491" />
<glyph unicode="&#x09;" horiz-adv-x="491" />
<glyph unicode="&#xa0;" horiz-adv-x="491" />
<glyph unicode="!" horiz-adv-x="591" d="M102 176q0 78 57 132q55 54 138 54q81 0 136 -54q56 -54 56 -132q0 -81 -56 -137q-55 -55 -136 -55q-83 0 -138 55q-57 56 -57 137zM121 1434h352l-43 -932h-266z" />
<glyph unicode="&#x22;" horiz-adv-x="839" d="M82 1434h303l-37 -506h-229zM455 1434h303l-37 -506h-229z" />
<glyph unicode="#" horiz-adv-x="1484" d="M41 328l39 243h264l35 230h-264l39 243h264l53 338h266l-53 -338h229l54 338h266l-53 -338h264l-39 -243h-264l-35 -230h264l-39 -243h-264l-51 -328h-266l51 328h-230l-51 -328h-266l51 328h-264zM610 571h230l34 230h-229z" />
<glyph unicode="$" horiz-adv-x="1374" d="M41 406l324 100q43 -106 139 -172t231 -66q101 0 162 40t61 95q0 89 -153 138l-369 114q-149 46 -240 146q-90 98 -87 233q-1 158 117 276q118 117 309 144v277h278v-287q169 -38 290 -135q123 -100 169 -224l-314 -92q-44 77 -128 124q-85 48 -187 48q-85 0 -138 -33 q-52 -34 -52 -85q0 -75 96 -103l360 -115q186 -58 291 -148q103 -88 103 -255q0 -175 -134 -300q-134 -123 -356 -149v-274h-278v287q-183 40 -311 156q-127 114 -183 260z" />
<glyph unicode="%" horiz-adv-x="2193" d="M72 1030q0 176 124 297q122 121 306 121q182 0 306 -121t124 -297t-124 -297t-306 -121q-181 0 -305 121q-125 122 -125 297zM317 1030q0 -76 53 -129t132 -53t132 53q52 52 52 129q0 78 -52 130t-132 52t-132 -52q-53 -53 -53 -130zM504 0l930 1434h254l-928 -1434h-256 zM1262 402q0 176 124 297q123 120 306 120q182 0 306 -120q124 -121 124 -297q0 -177 -124 -297q-124 -121 -306 -121q-181 0 -305 121q-125 120 -125 297zM1507 401q0 -76 53 -129t132 -53q80 0 132 54q52 52 52 128q0 79 -52 131t-132 52t-132 -52q-53 -53 -53 -131z" />
<glyph unicode="&#x26;" horiz-adv-x="1492" d="M102 399q0 118 64 225q63 106 186 183q-98 128 -98 242q0 197 129 305t346 108q175 0 300 -102q124 -103 142 -246l-292 -84q-12 65 -54 106q-43 40 -104 40q-67 0 -104 -37q-39 -37 -39 -95q0 -12 5 -30q5 -19 9 -28q6 -13 17 -27q3 -4 7 -9.5t6 -8.5t3 -4q5 -5 18 -24 l16 -16l316 -340q53 99 74 195l286 -82q-34 -172 -147 -340l305 -330h-395l-109 115q-189 -144 -411 -146q-196 0 -336 120t-140 310zM430 428q0 -68 50 -115t134 -47q86 0 177 64l-252 270q-109 -76 -109 -172z" />
<glyph unicode="'" horiz-adv-x="466" d="M82 1434h303l-37 -506h-229z" />
<glyph unicode="(" horiz-adv-x="665" d="M92 625q-4 513 236 901h317q-236 -388 -236 -901t236 -901h-317q-231 377 -236 901z" />
<glyph unicode=")" horiz-adv-x="665" d="M20 -276q236 388 236 901t-236 901h318q240 -386 235 -901q-5 -525 -235 -901h-318z" />
<glyph unicode="*" horiz-adv-x="876" d="M82 1006l192 100l-192 100l92 158l182 -115l-10 215h184l-10 -215l182 115l93 -158l-193 -100l193 -100l-93 -158l-182 117l10 -217h-184l10 217l-182 -117z" />
<glyph unicode="+" horiz-adv-x="1146" d="M113 590v256h333v334h256v-334h332v-256h-332v-332h-256v332h-333z" />
<glyph unicode="," horiz-adv-x="591" d="M82 -281l90 605h338l-174 -605h-254z" />
<glyph unicode="-" horiz-adv-x="983" d="M113 492v266h757v-266h-757z" />
<glyph unicode="." horiz-adv-x="550" d="M82 176q0 78 57 132q55 54 137 54q80 0 137 -54q56 -54 56 -132q0 -81 -56 -137q-56 -55 -137 -55q-83 0 -138 55q-56 56 -56 137z" />
<glyph unicode="/" horiz-adv-x="1165" d="M51 -186l811 1804h252l-811 -1804h-252z" />
<glyph unicode="0" horiz-adv-x="1341" d="M61 717q0 333 163 539q164 206 448 206t446 -206q162 -207 162 -539t-162 -539t-446 -207t-448 207q-163 206 -163 539zM401 717q0 -206 68 -322t203 -116q134 0 202 116q66 115 66 322t-66 323q-67 115 -202 115q-136 0 -203 -115q-68 -116 -68 -323z" />
<glyph unicode="1" horiz-adv-x="913" d="M31 1208l438 226h291v-1434h-344v1059l-303 -139z" />
<glyph unicode="2" horiz-adv-x="1214" d="M61 1034q23 176 168 302q144 126 355 126q239 0 385 -119q145 -120 145 -339q0 -129 -62 -233q-63 -105 -196 -226l-264 -238h541v-307h-1063v227l553 514q80 73 117 127q36 54 36 115q0 83 -49 129q-50 47 -135 47t-144 -58q-61 -58 -81 -155z" />
<glyph unicode="3" horiz-adv-x="1247" d="M61 422l301 86q18 -97 89 -170q71 -72 165 -72q102 0 162 60q60 58 60 141t-57 141q-58 58 -158 58q-77 0 -129 -27l-56 197l232 294h-564v304h1010v-224l-293 -315q154 -37 248 -148q94 -112 94 -280q0 -210 -151 -352q-152 -144 -377 -144q-254 0 -399 133 q-146 132 -177 318z" />
<glyph unicode="4" horiz-adv-x="1277" d="M61 258v246l474 930h364l-440 -877h268v258h340v-258h170v-299h-170v-258h-340v258h-666z" />
<glyph unicode="5" horiz-adv-x="1226" d="M61 371l306 86q28 -81 94 -136q64 -55 145 -55q101 0 162 59q59 59 59 148q0 90 -58 148q-59 57 -165 57q-124 0 -213 -62l-270 80l61 738h908v-304h-607l-16 -221q99 35 215 35q206 0 339 -138q134 -139 134 -339q0 -210 -149 -353q-151 -143 -377 -143q-232 0 -375 115 q-145 115 -193 285z" />
<glyph unicode="6" horiz-adv-x="1220" d="M51 487q0 143 101 304l407 643h383l-280 -443q224 -17 365 -155q142 -139 142 -349q0 -221 -159 -368q-160 -148 -399 -148t-400 147q-160 145 -160 369zM389 487q0 -95 61 -153q60 -60 161 -60q100 0 160 60q60 58 60 153q0 89 -60 151q-60 60 -161 60q-98 0 -159 -60 q-62 -60 -62 -151z" />
<glyph unicode="7" horiz-adv-x="1124" d="M31 1126v308h1052v-232l-524 -1202h-360l495 1126h-663z" />
<glyph unicode="8" horiz-adv-x="1261" d="M61 420q0 254 238 362q-176 95 -176 293q0 164 139 276q140 111 369 111t369 -111q139 -112 139 -276q0 -198 -176 -293q239 -111 237 -362q0 -190 -157 -319q-157 -130 -412 -130t-413 128q-157 127 -157 321zM403 449q0 -84 61 -139q62 -56 167 -56q104 0 166 56 q61 55 61 139q0 86 -61 141t-166 55q-106 0 -167 -55t-61 -141zM451 1044q0 -67 49 -110q50 -45 131 -45q82 0 131 46t49 110q0 63 -49 108q-50 45 -131 45t-131 -45q-49 -45 -49 -109z" />
<glyph unicode="9" horiz-adv-x="1220" d="M51 946q0 221 160 369q160 147 400 147q238 0 399 -146q159 -147 159 -370q0 -143 -100 -303l-407 -643h-383l280 442q-222 16 -365 156t-143 348zM389 946q0 -90 61 -150q60 -61 160 -61q99 0 160 61q61 60 61 150q0 94 -60 154q-61 59 -160 59q-100 0 -161 -59 q-61 -60 -61 -154z" />
<glyph unicode=":" horiz-adv-x="550" d="M82 176q0 78 57 132q55 54 137 54q80 0 137 -54q56 -54 56 -132q0 -81 -56 -137q-56 -55 -137 -55q-83 0 -138 55q-56 56 -56 137zM82 874q0 78 57 133q55 54 137 54q80 0 137 -54q56 -56 56 -133q0 -81 -56 -137q-56 -55 -137 -55q-82 0 -138 56t-56 136z" />
<glyph unicode=";" horiz-adv-x="600" d="M82 -281l90 605h338l-174 -605h-254zM131 877q0 78 57 132q56 54 138 54q80 0 136 -54q56 -56 56 -132q0 -81 -56 -137t-136 -56q-82 0 -138 56q-57 56 -57 137z" />
<glyph unicode="&#x3c;" horiz-adv-x="1136" d="M92 569v297l922 348v-276l-619 -219l619 -221v-277z" />
<glyph unicode="=" horiz-adv-x="1146" d="M113 385v256h921v-256h-921zM113 795v256h921v-256h-921z" />
<glyph unicode="&#x3e;" horiz-adv-x="1136" d="M123 221v277l618 221l-618 219v276l921 -348v-297z" />
<glyph unicode="?" horiz-adv-x="1177" d="M61 1026q22 181 161 309q137 127 360 127q220 0 362 -116q141 -117 141 -297q0 -86 -36 -161q-39 -78 -89 -125q-52 -49 -105 -93q-56 -46 -90 -86q-38 -44 -38 -82h-317q0 78 35 146q34 66 84 113q48 45 98 89q52 45 84 89q34 46 34 93q0 59 -45 95t-120 36 q-83 0 -142 -62q-60 -64 -82 -165zM375 176q0 78 56 132q55 54 138 54q80 0 137 -54q56 -54 56 -132q0 -81 -56 -137q-56 -55 -137 -55q-83 0 -138 55q-56 56 -56 137z" />
<glyph unicode="@" horiz-adv-x="1990" d="M72 524q0 252 126 461t341 329t471 120q396 0 653 -254q256 -253 256 -645q0 -237 -123 -377t-311 -140q-217 0 -295 166q-109 -121 -256 -121q-186 0 -306 130q-120 129 -120 330q0 199 120 330q120 130 306 130q142 0 242 -111v86h251v-639q0 -58 24 -86.5t71 -27.5 q77 0 126 88q50 89 50 239q0 306 -187 500q-187 195 -499 195q-304 0 -512 -202q-209 -203 -209 -501q0 -292 198 -485q197 -195 496 -195q253 0 399 119l58 -201q-173 -124 -463 -124q-394 0 -650 256q-257 257 -257 630zM770 525q0 -99 59 -161q59 -63 154 -63 q90 0 149 62q58 61 58 161q0 98 -57 159q-59 60 -150 60q-95 0 -154 -60q-59 -61 -59 -158z" />
<glyph unicode="A" horiz-adv-x="1507" d="M0 0l530 1434h447l530 -1434h-350l-100 274h-606l-101 -274h-350zM559 571h389l-194 537z" />
<glyph unicode="B" horiz-adv-x="1423" d="M123 0v1434h700q218 0 354 -107q134 -108 134 -283q0 -197 -172 -294q223 -109 223 -340q0 -193 -134 -301q-133 -109 -368 -109h-737zM455 293h405q76 0 120 42t44 107q0 68 -43 108t-121 40h-405v-297zM455 856h368q69 0 112 43q44 44 44 105q0 60 -44 101 q-40 38 -105 38h-7h-368v-287z" />
<glyph unicode="C" horiz-adv-x="1583" d="M68 717q0 316 215 531q214 214 536 214q286 0 471 -145q186 -146 232 -336l-332 -82q-28 97 -129 171q-100 73 -240 73q-182 0 -293 -123q-112 -122 -112 -301q0 -175 113 -302q113 -126 292 -126q140 0 241 71q100 71 128 168l332 -84q-47 -189 -231 -331 q-185 -144 -466 -144q-327 0 -541 213q-216 213 -216 533z" />
<glyph unicode="D" horiz-adv-x="1529" d="M123 0v1434h661q304 0 491 -199t187 -518q0 -315 -186 -516t-492 -201h-661zM459 305h317q147 0 245 116q97 115 97 302q0 185 -97 295q-98 110 -245 110h-317v-823z" />
<glyph unicode="E" horiz-adv-x="1284" d="M123 0v1434h1079v-308h-747v-249h643v-297h-643v-273h745v-307h-1077z" />
<glyph unicode="F" horiz-adv-x="1220" d="M123 0v1434h1067v-310h-727v-284h622v-303h-622v-537h-340z" />
<glyph unicode="G" horiz-adv-x="1636" d="M68 717q0 317 217 531t538 214q260 0 444 -127q184 -128 255 -317l-316 -90q-113 215 -379 215q-183 0 -298 -123q-117 -123 -117 -301q0 -177 120 -305q118 -127 334 -127q146 0 235 70q88 69 111 167l-376 -2v293h733v-170q0 -295 -201 -484q-200 -190 -528 -190 q-335 0 -553 214q-219 215 -219 532z" />
<glyph unicode="H" horiz-adv-x="1490" d="M123 0v1434h340v-551h565v551h340v-1434h-340v575h-565v-575h-340z" />
<glyph unicode="I" horiz-adv-x="589" d="M123 0v1434h344v-1434h-344z" />
<glyph unicode="J" horiz-adv-x="1282" d="M41 365l317 92q58 -189 250 -191q102 0 163 67q60 66 60 167v637h-628v297h966v-945q0 -239 -151 -378q-152 -140 -404 -140q-216 0 -361 106q-148 105 -212 288z" />
<glyph unicode="K" horiz-adv-x="1464" d="M123 0v1434h340v-623l520 623h430l-549 -619l590 -815h-412l-401 563l-178 -201v-362h-340z" />
<glyph unicode="L" horiz-adv-x="1177" d="M123 0v1434h340v-1123h674v-311h-1014z" />
<glyph unicode="M" horiz-adv-x="1767" d="M123 0v1434h323l439 -637l436 637h324v-1434h-340v840l-422 -576l-420 576v-840h-340z" />
<glyph unicode="N" horiz-adv-x="1507" d="M123 0v1434h276l645 -822v822h340v-1434h-276l-645 821v-821h-340z" />
<glyph unicode="O" horiz-adv-x="1654" d="M68 717q0 319 216 532t544 213q327 0 543 -213t216 -532q0 -320 -216 -533t-543 -213q-328 0 -544 213t-216 533zM412 717q0 -188 115 -309q114 -123 301 -123q185 0 301 123q114 122 114 309q0 186 -114 309q-116 123 -301 123q-187 0 -301 -123q-115 -122 -115 -309z " />
<glyph unicode="P" horiz-adv-x="1357" d="M123 0v1434h690q229 0 372 -158q142 -157 142 -358q0 -202 -144 -360q-145 -157 -384 -157h-340v-401h-336zM459 705h332q89 0 148 63q58 62 58 147q0 84 -55 148q-55 63 -137 63h-346v-421z" />
<glyph unicode="Q" horiz-adv-x="1642" d="M68 717q0 315 219 530q220 215 530 215t531 -215q219 -215 219 -530q0 -275 -181 -486l189 -231h-332l-59 68q-173 -95 -367 -97q-310 0 -530 215q-219 214 -219 531zM399 717q0 -192 116 -313q115 -121 302 -121q83 0 154 24l-316 359h379l146 -181q55 103 55 232 q0 193 -115 314q-116 120 -302 120q-188 0 -303 -121q-116 -122 -116 -313z" />
<glyph unicode="R" horiz-adv-x="1441" d="M123 0v1434h717q227 0 368 -146q140 -148 140 -338q0 -141 -77 -260t-216 -176l346 -514h-391l-305 471h-246v-471h-336zM459 768h356q87 0 146 53q57 53 57 129q0 75 -55 127q-56 53 -134 53h-370v-362z" />
<glyph unicode="S" horiz-adv-x="1374" d="M51 406l324 100q43 -106 139 -172t231 -66q101 0 162 40q62 41 62 95q0 89 -154 138l-369 114q-150 47 -239 146q-88 95 -88 227v6q-1 178 150 303q152 125 380 125t401 -109q173 -110 232 -268l-313 -92q-44 77 -128 124q-85 48 -188 48q-85 0 -138 -33q-52 -34 -52 -85 q0 -75 96 -103l361 -115q186 -58 291 -148q102 -89 102 -255q0 -195 -163 -325t-425 -130q-254 0 -430 126q-177 127 -244 309z" />
<glyph unicode="T" horiz-adv-x="1314" d="M31 1126v308h1253v-308h-457v-1126h-340v1126h-456z" />
<glyph unicode="U" horiz-adv-x="1499" d="M113 596v838h344v-832q0 -142 75 -231q73 -88 218 -88q143 0 218 88q74 89 74 231v832h344v-838q0 -282 -167 -454q-168 -171 -469 -171q-304 0 -470 171q-167 172 -167 454z" />
<glyph unicode="V" horiz-adv-x="1490" d="M0 1434h377l368 -998l371 998h375l-559 -1434h-373z" />
<glyph unicode="W" horiz-adv-x="2066" d="M0 1434h358l258 -947l265 947h305l264 -947l258 947h358l-428 -1434h-360l-244 852l-246 -852h-360z" />
<glyph unicode="X" horiz-adv-x="1474" d="M10 0l504 721l-491 713h409l305 -449l305 449h410l-491 -713l503 -721h-409l-318 459l-317 -459h-410z" />
<glyph unicode="Y" horiz-adv-x="1415" d="M0 1434h383l326 -586l325 586h381l-534 -918v-516h-344v516z" />
<glyph unicode="Z" horiz-adv-x="1306" d="M61 0v227l697 906h-686v301h1153v-232l-690 -901h710v-301h-1184z" />
<glyph unicode="[" horiz-adv-x="716" d="M123 -276v1802h553v-287h-236v-1229h236v-286h-553z" />
<glyph unicode="\" horiz-adv-x="1165" d="M51 1618h252l811 -1804h-252z" />
<glyph unicode="]" horiz-adv-x="716" d="M41 10h235v1229h-235v287h553v-1802h-553v286z" />
<glyph unicode="^" horiz-adv-x="1239" d="M61 778l398 717h323l396 -717h-326l-231 422l-234 -422h-326z" />
<glyph unicode="_" horiz-adv-x="1269" d="M72 -82h1126v-246h-1126v246z" />
<glyph unicode="`" horiz-adv-x="509" d="M0 1495h356l154 -291h-277z" />
<glyph unicode="a" d="M61 523q0 236 148 393q147 157 360 157q185 0 301 -125v96h328v-1044h-328v96q-119 -125 -301 -125q-213 0 -360 158q-148 157 -148 394zM385 524q0 -117 69 -189q69 -73 175 -73q110 0 180 73t70 189q0 114 -71 187q-71 71 -179 71q-106 0 -175 -71q-69 -72 -69 -187z " />
<glyph unicode="b" d="M123 0v1495h328v-547q116 125 301 125q213 0 361 -157q147 -158 147 -393q0 -237 -147 -394q-149 -158 -361 -158q-182 0 -301 125v-96h-328zM442 524q0 -116 71 -189q70 -73 179 -73q106 0 175 73t69 189q0 114 -68 187q-69 71 -176 71q-108 0 -179 -71 q-71 -73 -71 -187z" />
<glyph unicode="c" horiz-adv-x="1189" d="M61 523q0 235 158 393q157 157 397 157q209 0 350 -108q140 -110 173 -246l-303 -86q-13 60 -74 106q-60 45 -144 45q-106 0 -171 -75q-66 -77 -66 -184q0 -109 66 -187q65 -78 171 -78q83 0 144 44q59 44 74 104l303 -86q-33 -138 -172 -244q-140 -107 -346 -107 q-241 0 -401 158q-159 157 -159 394z" />
<glyph unicode="d" d="M61 523q0 236 148 393q147 157 360 157q185 0 301 -125v547h328v-1495h-328v96q-119 -125 -301 -125q-213 0 -360 158q-148 157 -148 394zM385 524q0 -117 69 -189q69 -73 175 -73q110 0 180 73t70 189q0 114 -71 187q-71 71 -179 71q-106 0 -175 -71q-69 -72 -69 -187z " />
<glyph unicode="e" horiz-adv-x="1222" d="M61 520q0 240 153 397q153 156 400 156q252 0 400 -153q147 -154 147 -388q0 -58 -8 -108h-772q38 -180 260 -180q151 0 209 106l295 -86q-50 -114 -184 -203q-137 -90 -326 -90q-256 0 -415 153q-159 152 -159 396zM381 621h461q-7 73 -70 126q-62 52 -159 52 q-96 0 -158 -53t-74 -125z" />
<glyph unicode="f" horiz-adv-x="854" d="M31 758v286h190v74q0 187 101 297q100 109 286 109q146 0 246 -45l-78 -260q-53 22 -112 22h-5q-51 0 -80 -33q-30 -33 -30 -90v-74h287v-286h-287v-758h-328v758h-190z" />
<glyph unicode="g" horiz-adv-x="1310" d="M61 543q0 239 144 384q143 146 366 146q173 0 289 -125v96h328v-1005q0 -221 -149 -359q-149 -139 -400 -139q-356 0 -506 273l283 102q70 -109 231 -109q104 0 159 64q54 63 54 166v100q-116 -125 -289 -125q-221 0 -365 153q-145 151 -145 378zM385 543q0 -107 68 -172 q68 -66 176 -66t174 66q65 65 65 172q0 105 -65 172q-67 65 -174 65q-108 0 -176 -65q-68 -66 -68 -172z" />
<glyph unicode="h" horiz-adv-x="1280" d="M123 0v1495h328v-559q119 137 309 137q203 0 305 -125t102 -340v-608h-327v543q0 227 -187 227q-94 0 -148 -69q-54 -70 -54 -191v-510h-328z" />
<glyph unicode="i" horiz-adv-x="569" d="M96 1352q0 76 56 129t133 53t133 -53q55 -54 55 -129q0 -78 -55 -132q-55 -55 -133 -55t-133 55q-56 54 -56 132zM117 0v1044h327v-1044h-327z" />
<glyph unicode="j" horiz-adv-x="573" d="M-143 -414l71 250q38 -20 80 -20h3q54 0 81 38q29 38 29 115v1075h328v-1044q0 -216 -95 -338q-96 -121 -291 -121q-102 0 -206 45zM100 1352q0 76 56 129t133 53t133 -53q55 -54 55 -129q0 -78 -55 -132q-55 -55 -133 -55t-133 55q-56 54 -56 132z" />
<glyph unicode="k" horiz-adv-x="1175" d="M123 0v1495h328v-833l313 382h377l-387 -446l422 -598h-369l-256 362l-100 -114v-248h-328z" />
<glyph unicode="l" horiz-adv-x="573" d="M123 0v1495h328v-1495h-328z" />
<glyph unicode="m" horiz-adv-x="1914" d="M123 0v1044h328v-102q113 131 288 131q207 0 303 -139q130 139 344 139q191 0 303 -118q113 -119 113 -339v-616h-327v543q0 227 -166 227q-181 0 -183 -252v-518h-327v543q0 227 -166 227q-182 0 -182 -252v-518h-328z" />
<glyph unicode="n" horiz-adv-x="1280" d="M123 0v1044h328v-108q119 137 309 137q203 0 305 -125t102 -340v-608h-327v543q0 227 -187 227q-94 0 -148 -69q-54 -70 -54 -191v-510h-328z" />
<glyph unicode="o" horiz-adv-x="1245" d="M61 523q0 235 159 393q158 157 403 157q244 0 402 -157q159 -158 159 -393q0 -237 -159 -394q-160 -158 -402 -158q-243 0 -403 158q-159 157 -159 394zM379 523q0 -114 67 -185q66 -72 177 -72q109 0 177 72q66 72 66 185q0 112 -66 184q-68 71 -177 71q-111 0 -177 -71 q-67 -71 -67 -184z" />
<glyph unicode="p" d="M123 -430v1474h328v-96q116 125 301 125q213 0 361 -157q147 -158 147 -393q0 -237 -147 -394q-149 -158 -361 -158q-182 0 -301 125v-526h-328zM442 524q0 -116 71 -189q70 -73 179 -73q106 0 175 73t69 189q0 114 -68 187q-69 71 -176 71q-108 0 -179 -71 q-71 -73 -71 -187z" />
<glyph unicode="q" d="M61 523q0 236 148 393q147 157 360 157q185 0 301 -125v96h328v-1474h-328v526q-119 -125 -301 -125q-213 0 -360 158q-148 157 -148 394zM385 524q0 -117 69 -189q69 -73 175 -73q110 0 180 73t70 189q0 114 -71 187q-71 71 -179 71q-106 0 -175 -71q-69 -72 -69 -187z " />
<glyph unicode="r" horiz-adv-x="819" d="M123 0v1044h328v-141q47 86 131 128q62 32 141 31q26 0 55 -3v-307q-46 8 -86 8q-104 0 -161 -55q-80 -77 -80 -269v-436h-328z" />
<glyph unicode="s" horiz-adv-x="1073" d="M25 295l292 86q27 -69 91 -110q63 -42 151 -42q58 0 95 23q36 22 36 53q0 51 -98 80l-250 74q-264 79 -264 291q0 137 128 230t306 93q167 0 295 -71q127 -72 178 -195l-287 -82q-71 98 -188 98q-45 0 -78 -18q-33 -19 -33 -47q0 -41 60 -62l241 -67q69 -19 120 -41 q49 -21 97 -55q47 -34 72 -88q23 -55 23 -126q0 -153 -130 -250q-131 -98 -335 -98q-193 0 -337 96q-145 95 -185 228z" />
<glyph unicode="t" horiz-adv-x="847" d="M20 758v286h162v328h328v-328h281v-286h-281v-381q0 -109 108 -109q60 0 111 27l78 -260q-129 -51 -256 -51q-185 0 -276 105q-93 103 -93 288v381h-162z" />
<glyph unicode="u" horiz-adv-x="1280" d="M113 436v608h327v-542q0 -227 187 -228q94 0 148 70t54 191v509h328v-1044h-328v109q-119 -137 -309 -138q-203 0 -305 125t-102 340z" />
<glyph unicode="v" horiz-adv-x="1212" d="M0 1044h360l246 -671l248 671h358l-421 -1044h-369z" />
<glyph unicode="w" horiz-adv-x="1705" d="M0 1044h338l190 -626l189 626h272l191 -626l188 626h338l-360 -1044h-304l-188 586l-190 -586h-304z" />
<glyph unicode="x" horiz-adv-x="1142" d="M0 0l377 526l-361 518h367l188 -270l189 270h366l-360 -518l377 -526h-369l-203 285l-202 -285h-369z" />
<glyph unicode="y" horiz-adv-x="1236" d="M0 1044h358l273 -636l256 636h350l-621 -1474h-333l186 455l14 2l-14 -2z" />
<glyph unicode="z" horiz-adv-x="1099" d="M78 0v205l497 571h-485v268h920v-204l-500 -572h518v-268h-950z" />
<glyph unicode="{" horiz-adv-x="727" d="M82 481v287h39q45 0 75 30q29 29 29 74v316q0 348 332 348h129v-287h-41q-59 0 -80 -27q-22 -28 -22 -96v-254q0 -77 -35 -147q-34 -69 -115 -100q81 -32 115 -100q35 -72 35 -148v-254q0 -69 22 -95q21 -28 80 -28h41v-287h-129q-332 0 -332 348v316q0 44 -29 75 q-31 29 -75 29h-39z" />
<glyph unicode="|" horiz-adv-x="512" d="M113 -256v1905h286v-1905h-286z" />
<glyph unicode="}" horiz-adv-x="727" d="M41 0h41q59 0 81 28q21 27 21 95v254q0 76 35 148q34 68 115 100q-81 32 -115 101q-35 70 -35 146v254q0 68 -21 96q-23 27 -81 27h-41v287h129q332 0 332 -348v-316q0 -46 30 -74q28 -30 74 -30h39v-287h-39q-45 0 -74 -29q-30 -30 -30 -75v-316q0 -348 -332 -348h-129 v287z" />
<glyph unicode="~" horiz-adv-x="1200" d="M92 600q0 129 68 224q67 94 205 94q96 0 226 -57q129 -58 152 -58q74 0 74 115l291 -84q0 -131 -66 -224q-67 -94 -202 -94q-98 0 -227 58q-132 57 -154 57q-76 0 -76 -115z" />
<glyph unicode="&#xa2;" horiz-adv-x="1179" d="M61 717q0 200 115 345q116 146 301 189v213h277v-211q157 -33 257 -130q101 -98 128 -210l-303 -86q-13 60 -74 107q-60 45 -144 45q-107 0 -171 -76q-66 -77 -66 -184q0 -109 66 -186q65 -78 171 -78q83 0 144 44q59 44 74 103l303 -86q-27 -111 -129 -207 q-104 -96 -256 -129v-213h-277v215q-185 45 -301 192q-115 145 -115 343z" />
<glyph unicode="&#xa3;" horiz-adv-x="1306" d="M82 0v315h133v242h-109v268h109v179q0 219 134 339q134 119 358 119q188 0 317 -114q129 -116 147 -273l-305 -88q-34 172 -168 172q-70 0 -108 -47q-39 -46 -39 -129v-158h457v-268h-457v-242h694v-315h-1163z" />
<glyph unicode="&#xa5;" horiz-adv-x="1435" d="M10 1434h383l326 -586l325 586h381l-430 -738h265v-174h-365l-4 -6v-102h369v-174h-369v-240h-344v240h-352v174h352v102l-4 6h-348v174h247z" />
<glyph unicode="&#xa8;" horiz-adv-x="722" d="M0 1307q0 65 46 110t112 45t112 -46q47 -47 47 -109q0 -65 -47 -112q-46 -46 -112 -46t-112 46t-46 112zM406 1307q0 65 46 110q47 45 112 45q66 0 112 -46q47 -47 47 -109q0 -65 -47 -112q-46 -46 -112 -46t-112 46t-46 112z" />
<glyph unicode="&#xa9;" horiz-adv-x="1509" d="M61 721q0 289 200 487q200 197 495 197q294 0 494 -197q198 -198 198 -487q0 -295 -198 -493q-199 -199 -494 -199q-296 0 -495 199q-200 198 -200 493zM219 721q0 -228 155 -383q154 -154 382 -154q227 0 381 154q153 154 153 383q0 227 -153 378q-155 150 -381 150 q-227 0 -382 -150q-155 -152 -155 -378zM406 717q0 151 101 252q100 100 253 100q134 0 223 -68q89 -69 111 -159l-158 -39q-12 47 -60 81q-49 34 -114 34q-86 0 -139 -57q-54 -59 -54 -144t54 -143q53 -60 139 -60q67 0 114 34q48 34 60 81l158 -41q-22 -87 -110 -157 q-87 -69 -220 -69q-156 0 -257 102q-101 101 -101 253z" />
<glyph unicode="&#xab;" horiz-adv-x="1157" d="M113 655l215 389h286l-204 -389l204 -389h-286zM543 655l215 389h286l-204 -389l204 -389h-286z" />
<glyph unicode="&#xad;" horiz-adv-x="983" d="M113 492v266h757v-266h-757z" />
<glyph unicode="&#xae;" horiz-adv-x="1509" d="M61 717q0 293 200 491q200 197 495 197q293 0 493 -197q199 -198 199 -491q0 -294 -199 -490q-199 -198 -493 -198q-296 0 -495 198q-200 197 -200 490zM221 717q0 -227 154 -381q153 -154 381 -154q227 0 380 154q152 154 152 381q0 228 -152 382q-154 152 -380 152 q-227 0 -381 -152q-154 -153 -154 -382zM481 379v680h340q108 0 176 -71q66 -70 66 -161q0 -67 -37 -122q-38 -55 -102 -84l153 -242h-184l-133 221h-119v-221h-160zM641 741h168q44 0 70 25q26 26 26 61t-25 60q-26 24 -63 24h-176v-170z" />
<glyph unicode="&#xb4;" horiz-adv-x="509" d="M0 1204l154 291h356l-234 -291h-276z" />
<glyph unicode="&#xb8;" horiz-adv-x="468" d="M0 -387l35 121q56 -39 133 -38q78 2 78 54q0 46 -57 62q-59 16 -111 0l59 188h228l-35 -109q60 -11 99 -56q40 -46 40 -103q0 -88 -67 -139q-67 -52 -181 -52q-129 0 -221 72z" />
<glyph unicode="&#xbb;" horiz-adv-x="1157" d="M113 266l204 389l-204 389h286l215 -389l-215 -389h-286zM543 266l205 389l-205 389h286l215 -389l-215 -389h-286z" />
<glyph unicode="&#xc2;" horiz-adv-x="1507" d="M0 0l530 1434h447l530 -1434h-350l-100 274h-606l-101 -274h-350zM377 1577l223 307h307l223 -307h-286l-90 143l-90 -143h-287zM559 571h389l-194 537z" />
<glyph unicode="&#xc7;" horiz-adv-x="1583" d="M68 717q0 316 215 531q214 214 536 214q286 0 471 -145q186 -146 232 -336l-332 -82q-28 97 -129 171q-100 73 -240 73q-182 0 -293 -123q-112 -122 -112 -301q0 -175 113 -302q113 -126 292 -126q140 0 241 71q100 71 128 168l332 -84q-40 -163 -190 -299 q-151 -136 -380 -167l-28 -89q60 -11 99 -56q40 -46 40 -103q0 -88 -67 -139q-67 -52 -181 -52q-130 0 -221 72l35 121q56 -39 133 -38q78 2 78 54q0 46 -57 62q-59 16 -111 0l53 165q-287 34 -473 241q-184 205 -184 499z" />
<glyph unicode="&#xce;" horiz-adv-x="589" d="M-82 1577l223 307h308l223 -307h-287l-90 143l-90 -143h-287zM123 0v1434h344v-1434h-344z" />
<glyph unicode="&#xd6;" horiz-adv-x="1654" d="M68 717q0 319 216 532t544 213q327 0 543 -213t216 -532q0 -320 -216 -533t-543 -213q-328 0 -544 213t-216 533zM412 717q0 -188 115 -309q114 -123 301 -123q185 0 301 123q114 122 114 309q0 186 -114 309q-116 123 -301 123q-187 0 -301 -123q-115 -122 -115 -309z M465 1696q0 65 46 110q47 45 112 45q66 0 112 -46q47 -47 47 -109q0 -65 -47 -112q-46 -46 -112 -46t-112 46t-46 112zM870 1696q0 65 47 110t112 45q66 0 112 -46q47 -47 47 -109q0 -65 -47 -112q-46 -46 -112 -46t-112 46q-47 47 -47 112z" />
<glyph unicode="&#xdb;" horiz-adv-x="1499" d="M113 596v838h344v-832q0 -142 75 -231q73 -88 218 -88q143 0 218 88q74 89 74 231v832h344v-838q0 -282 -167 -454q-168 -171 -469 -171q-304 0 -470 171q-167 172 -167 454zM373 1577l223 307h307l223 -307h-286l-90 143l-91 -143h-286z" />
<glyph unicode="&#xdc;" horiz-adv-x="1499" d="M113 596v838h344v-832q0 -142 75 -231q73 -88 218 -88q143 0 218 88q74 89 74 231v832h344v-838q0 -282 -167 -454q-168 -171 -469 -171q-304 0 -470 171q-167 172 -167 454zM387 1696q0 65 46 110t112 45t113 -46q47 -47 47 -109q0 -65 -47 -112q-47 -46 -113 -46 t-112 46t-46 112zM793 1696q0 65 46 110q47 45 112 45q66 0 112 -46q47 -47 47 -109q0 -65 -47 -112q-46 -46 -112 -46t-112 46t-46 112z" />
<glyph unicode="&#xe2;" d="M61 523q0 236 148 393q147 157 360 157q185 0 301 -125v96h328v-1044h-328v96q-119 -125 -301 -125q-213 0 -360 158q-148 157 -148 394zM266 1188l223 307h308l223 -307h-287l-90 143l-90 -143h-287zM385 524q0 -117 69 -189q69 -73 175 -73q110 0 180 73t70 189 q0 114 -71 187q-71 71 -179 71q-106 0 -175 -71q-69 -72 -69 -187z" />
<glyph unicode="&#xe7;" horiz-adv-x="1189" d="M61 522q0 236 158 394q157 157 397 157q209 0 350 -108q140 -110 173 -246l-303 -86q-13 60 -74 106q-60 45 -144 45q-106 0 -171 -75q-66 -77 -66 -184q0 -109 66 -187q65 -78 171 -78q83 0 144 44q59 44 74 104l303 -86q-27 -114 -130 -209q-103 -97 -261 -129l-29 -93 q60 -11 99 -56q40 -46 40 -103q0 -88 -67 -139q-67 -52 -181 -52q-130 0 -221 72l35 121q56 -39 133 -38q78 2 78 54q0 46 -57 62q-58 16 -111 0l53 168q-204 33 -331 183q-128 151 -128 359z" />
<glyph unicode="&#xee;" horiz-adv-x="573" d="M-90 1188l223 307h307l224 -307h-287l-90 143l-90 -143h-287zM123 0v1044h328v-1044h-328z" />
<glyph unicode="&#xf6;" horiz-adv-x="1245" d="M61 523q0 235 159 393q158 157 403 157q244 0 402 -157q159 -158 159 -393q0 -237 -159 -394q-160 -158 -402 -158q-243 0 -403 158q-159 157 -159 394zM260 1307q0 65 46 110t112 45t113 -46q47 -47 47 -109q0 -65 -47 -112q-47 -46 -113 -46t-112 46t-46 112zM379 523 q0 -114 67 -185q66 -72 177 -72q109 0 177 72q66 72 66 185q0 112 -66 184q-68 71 -177 71q-111 0 -177 -71q-67 -71 -67 -184zM666 1307q0 65 46 110t112 45t112 -46q47 -47 47 -109q0 -65 -47 -112q-46 -46 -112 -46t-112 46t-46 112z" />
<glyph unicode="&#xfb;" horiz-adv-x="1280" d="M113 436v608h327v-542q0 -227 187 -228q94 0 148 70t54 191v509h328v-1044h-328v109q-119 -137 -309 -138q-203 0 -305 125t-102 340zM262 1188l223 307h308l223 -307h-287l-90 143l-90 -143h-287z" />
<glyph unicode="&#xfc;" horiz-adv-x="1280" d="M113 436v608h327v-542q0 -227 187 -228q94 0 148 70t54 191v509h328v-1044h-328v109q-119 -137 -309 -138q-203 0 -305 125t-102 340zM276 1307q0 65 47 110q46 45 112 45t112 -46q47 -47 47 -109q0 -65 -47 -112q-46 -46 -112 -46t-112 46q-47 47 -47 112zM682 1307 q0 65 46 110t112 45t112 -46q47 -47 47 -109q0 -65 -47 -112q-46 -46 -112 -46t-112 46t-46 112z" />
<glyph unicode="&#x11e;" horiz-adv-x="1636" d="M68 717q0 317 217 531t538 214q260 0 444 -127q184 -128 255 -317l-316 -90q-113 215 -379 215q-183 0 -298 -123q-117 -123 -117 -301q0 -177 120 -305q118 -127 334 -127q146 0 235 70q88 69 111 167l-376 -2v293h733v-170q0 -295 -201 -484q-200 -190 -528 -190 q-335 0 -553 214q-219 215 -219 532zM471 1866h248q0 -121 111 -121q110 0 110 121h248q0 -138 -91 -226q-91 -90 -267 -90t-268 90q-91 88 -91 226z" />
<glyph unicode="&#x11f;" horiz-adv-x="1310" d="M61 543q0 239 144 384q143 146 366 146q173 0 289 -125v96h328v-1005q0 -221 -149 -359q-149 -139 -400 -139q-356 0 -506 273l283 102q70 -109 231 -109q104 0 159 64q54 63 54 166v100q-116 -125 -289 -125q-221 0 -365 153q-145 151 -145 378zM287 1477h248 q0 -121 111 -121q110 0 110 121h248q0 -138 -91 -226q-91 -90 -268 -90q-175 0 -267 89q-91 88 -91 227zM385 543q0 -107 68 -172q68 -66 176 -66t174 66q65 65 65 172q0 105 -65 172q-67 65 -174 65q-108 0 -176 -65q-68 -66 -68 -172z" />
<glyph unicode="&#x130;" horiz-adv-x="589" d="M117 1726q0 72 52 124q53 51 126 51t126 -51q52 -52 52 -124q0 -74 -52 -125q-53 -51 -126 -51q-74 0 -126 52q-52 51 -52 124zM123 0v1434h344v-1434h-344z" />
<glyph unicode="&#x131;" horiz-adv-x="573" d="M123 0v1044h328v-1044h-328z" />
<glyph unicode="&#x15e;" horiz-adv-x="1374" d="M51 406l324 100q43 -106 139 -172t231 -66q101 0 162 40q62 41 62 95q0 89 -154 138l-369 114q-150 47 -239 146q-90 97 -88 233q-1 178 150 303q152 125 380 125t401 -109q173 -110 232 -268l-313 -92q-44 77 -128 124q-85 48 -188 48q-85 0 -138 -33q-52 -34 -52 -85 q0 -75 96 -103l361 -115q186 -58 291 -148q102 -89 102 -255q0 -174 -130 -298t-347 -151l-29 -86q60 -11 99 -56q40 -46 40 -103q0 -88 -67 -139q-67 -52 -181 -52q-130 0 -221 72l35 121q56 -39 133 -38q78 2 78 54q0 46 -57 62q-58 16 -111 0l53 168q-209 27 -353 147 q-144 119 -204 279z" />
<glyph unicode="&#x15f;" horiz-adv-x="1073" d="M25 295l292 86q27 -69 91 -110q63 -42 151 -42q58 0 95 23q36 22 36 53q0 51 -98 80l-250 74q-264 79 -264 291q0 137 128 230t306 93q167 0 295 -71q127 -72 178 -195l-287 -82q-71 98 -188 98q-45 0 -78 -18q-33 -19 -33 -47q0 -41 60 -62l241 -67q69 -19 120 -41 q49 -21 97 -55q47 -34 72 -88q23 -55 23 -126q0 -127 -93 -218q-93 -90 -251 -119l-29 -91q60 -11 99 -56q40 -46 40 -103q0 -88 -67 -139q-67 -52 -181 -52q-130 0 -221 72l35 121q56 -39 133 -38q78 2 78 54q0 46 -57 62q-58 16 -111 0l53 168q-155 25 -268 114 q-112 88 -147 201z" />
<glyph unicode="&#x2c6;" horiz-adv-x="753" d="M0 1188l223 307h307l224 -307h-287l-90 143l-90 -143h-287z" />
<glyph unicode="&#x2da;" horiz-adv-x="532" d="M0 1368q0 112 76 185t191 73q114 0 190 -73q75 -73 75 -185q0 -110 -75 -184q-77 -74 -190 -74q-114 0 -191 74q-76 73 -76 184zM178 1368q0 -40 25 -62q24 -24 63 -24q38 0 64 24q24 22 24 62q0 36 -24 62q-26 24 -64 24q-39 0 -63 -24q-25 -25 -25 -62z" />
<glyph unicode="&#x2dc;" horiz-adv-x="716" d="M0 1176q0 319 213 319q65 0 151 -48q85 -48 103 -48q43 0 43 88h207q0 -320 -213 -320q-66 0 -151 49q-86 48 -103 48q-43 0 -43 -88h-207z" />
<glyph unicode="&#x2000;" horiz-adv-x="950" />
<glyph unicode="&#x2001;" horiz-adv-x="1901" />
<glyph unicode="&#x2002;" horiz-adv-x="950" />
<glyph unicode="&#x2003;" horiz-adv-x="1901" />
<glyph unicode="&#x2004;" horiz-adv-x="633" />
<glyph unicode="&#x2005;" horiz-adv-x="475" />
<glyph unicode="&#x2006;" horiz-adv-x="316" />
<glyph unicode="&#x2007;" horiz-adv-x="316" />
<glyph unicode="&#x2008;" horiz-adv-x="237" />
<glyph unicode="&#x2009;" horiz-adv-x="380" />
<glyph unicode="&#x200a;" horiz-adv-x="105" />
<glyph unicode="&#x2010;" horiz-adv-x="983" d="M113 492v266h757v-266h-757z" />
<glyph unicode="&#x2011;" horiz-adv-x="983" d="M113 492v266h757v-266h-757z" />
<glyph unicode="&#x2012;" horiz-adv-x="983" d="M113 492v266h757v-266h-757z" />
<glyph unicode="&#x2013;" horiz-adv-x="1249" d="M113 492v266h1024v-266h-1024z" />
<glyph unicode="&#x2014;" horiz-adv-x="1863" d="M113 492v266h1638v-266h-1638z" />
<glyph unicode="&#x2018;" horiz-adv-x="591" d="M82 829l174 605h254l-90 -605h-338z" />
<glyph unicode="&#x2019;" horiz-adv-x="591" d="M82 829l90 605h338l-174 -605h-254z" />
<glyph unicode="&#x201a;" horiz-adv-x="591" d="M82 -281l90 605h338l-174 -605h-254z" />
<glyph unicode="&#x201c;" horiz-adv-x="1021" d="M82 829l174 605h254l-90 -605h-338zM512 829l174 605h254l-90 -605h-338z" />
<glyph unicode="&#x201d;" horiz-adv-x="1021" d="M82 829l90 605h338l-174 -605h-254zM512 829l90 605h338l-174 -605h-254z" />
<glyph unicode="&#x201e;" horiz-adv-x="1021" d="M82 -281l90 605h338l-174 -605h-254zM512 -281l90 605h338l-174 -605h-254z" />
<glyph unicode="&#x2026;" horiz-adv-x="1550" d="M82 176q0 78 57 132q55 54 137 54q80 0 137 -54q56 -54 56 -132q0 -81 -56 -137q-56 -55 -137 -55q-83 0 -138 55q-56 56 -56 137zM582 176q0 78 56 132t138 54q80 0 137 -54q56 -54 56 -132q0 -81 -56 -137q-56 -55 -137 -55q-83 0 -138 55q-56 56 -56 137zM1081 176 q0 78 57 132q56 54 138 54q80 0 136 -54t56 -132q0 -81 -56 -137q-55 -55 -136 -55q-83 0 -138 55q-57 55 -57 137z" />
<glyph unicode="&#x202f;" horiz-adv-x="380" />
<glyph unicode="&#x2039;" horiz-adv-x="727" d="M113 655l215 389h286l-204 -389l204 -389h-286z" />
<glyph unicode="&#x203a;" horiz-adv-x="727" d="M113 266l204 389l-204 389h286l215 -389l-215 -389h-286z" />
<glyph unicode="&#x205f;" horiz-adv-x="475" />
<glyph unicode="&#x20ac;" horiz-adv-x="1546" d="M41 489v175h201q-2 24 -2 53q0 31 2 55h-201v174h231q72 232 267 374q193 142 452 142q285 0 490 -162l-207 -264q-111 105 -281 107q-232 0 -348 -197h461v-174h-516q-2 -24 -2 -53q0 -22 4 -55h514v-175h-459q52 -90 143 -144q88 -54 203 -54q175 0 285 106l207 -264 q-201 -162 -488 -162q-261 0 -458 143q-197 142 -267 375h-231z" />
<glyph unicode="&#x2122;" horiz-adv-x="1492" d="M61 1264v170h574v-170h-197v-486h-184v486h-193zM696 778v656h185l182 -267l180 267h189v-656h-181v367l-186 -258l-193 258v-367h-176z" />
<glyph unicode="&#x25fc;" horiz-adv-x="1045" d="M0 0v1045h1045v-1045h-1045z" />
</font>
</defs>
</svg>
