<svg version="1.1" xmlns="http://www.w3.org/2000/svg" xmlns:xlink="http://www.w3.org/1999/xlink" x="0px" y="0px"
	 viewBox="0 0 500 500" style="enable-background:new 0 0 500 500;" xml:space="preserve">
<path d="M474.89,225.9H83.25L267.02,42.13c9.41-9.41,9.41-24.66,0-34.07s-24.66-9.41-34.07,0L8.04,232.96
	c-2.22,2.22-3.98,4.88-5.2,7.83c-2.44,5.89-2.44,12.53,0,18.42c1.22,2.94,2.98,5.61,5.2,7.83l224.9,224.9
	c4.71,4.71,10.86,7.06,17.04,7.06c6.18,0,12.33-2.35,17.04-7.06c9.41-9.41,9.41-24.66,0-34.07L83.25,274.1h391.64
	c13.3,0,24.1-10.79,24.1-24.1C498.98,236.7,488.19,225.9,474.89,225.9z"/>
</svg>
