<svg version="1.1" xmlns="http://www.w3.org/2000/svg" xmlns:xlink="http://www.w3.org/1999/xlink" x="0px" y="0px"
	 viewBox="0 0 500 500" style="enable-background:new 0 0 500 500;" xml:space="preserve">
<path d="M239.36,3.16C237.35,4,235.74,5.45,234,6.72c-1.16,0.85-2.51,1.31-3.56,2.36L9.12,230.37
	c-10.82,10.82-10.82,28.35,0,39.17c10.82,10.82,28.35,10.82,39.17,0L222.33,95.53v375.75c0,15.29,12.41,27.7,27.7,27.7
	s27.7-12.41,27.7-27.7V95.54l173.98,174c10.82,10.82,28.35,10.82,39.17,0c5.41-5.41,8.12-12.48,8.12-19.59
	c0-7.11-2.71-14.18-8.12-19.59L269.61,9.08c-1.05-1.05-2.39-1.52-3.56-2.36c-1.74-1.27-3.35-2.72-5.36-3.56
	C253.87,0.31,246.18,0.31,239.36,3.16z"/>
</svg>
