<svg version="1.1" xmlns="http://www.w3.org/2000/svg" xmlns:xlink="http://www.w3.org/1999/xlink" x="0px" y="0px"
	 viewBox="0 0 500 500" style="enable-background:new 0 0 500 500;" xml:space="preserve">
<path d="M496.87,239.42c-1.4-3.38-3.42-6.44-5.97-8.99L269.58,9.11c-10.81-10.81-28.31-10.81-39.12,0
	s-10.81,28.31,0,39.12l174.1,174.1H28.69c-15.27,0-27.67,12.39-27.67,27.67s12.39,27.67,27.67,27.67h375.87l-174.1,174.12
	c-10.81,10.81-10.81,28.31,0,39.12c5.4,5.4,12.48,8.11,19.56,8.11c7.08,0,14.16-2.7,19.56-8.11L490.9,269.55
	c2.55-2.55,4.57-5.61,5.97-8.99C499.67,253.8,499.67,246.18,496.87,239.42z"/>
</svg>
