<svg version="1.1" id="Layer_1" xmlns="http://www.w3.org/2000/svg" xmlns:xlink="http://www.w3.org/1999/xlink" x="0px" y="0px"
	 viewBox="0 0 500 500" style="enable-background:new 0 0 500 500;" xml:space="preserve">
<g>
	<path d="M430.86,79.13c-0.29-2.25-1.13-4.45-2.86-6.18c-1.71-1.71-3.89-2.54-6.12-2.85C377.16,27.35,316.62,1,250,1
		C112.7,1,1,112.7,1,250c0,137.3,111.7,249,249,249s249-111.7,249-249C499,183.89,473.05,123.75,430.86,79.13z M250,22.34
		c59.18,0,113.14,22.71,153.67,59.86L82.2,403.67C45.05,363.14,22.34,309.18,22.34,250C22.34,124.47,124.47,22.34,250,22.34z
		 M250,477.66c-58.69,0-112.26-22.33-152.68-58.94l321.4-321.4c36.6,40.41,58.94,93.98,58.94,152.67
		C477.66,375.53,375.53,477.66,250,477.66z"/>
	<path d="M418.54,278.26c-0.44-0.26-0.89-0.49-1.36-0.68c-7.77-3.22-15.03-2.9-21.45-2.66c-4.87,0.2-9.15,0.3-13.31-1.05
		c3.05-16.28,3.02-33.05-0.09-49.32c4.2-1.38,8.49-1.29,13.42-1.08c6.38,0.27,13.67,0.57,21.45-2.66c0.37-0.15,0.73-0.33,1.08-0.52
		c16.3-9.02,23.17-29.18,16.05-46.29c-0.04-0.12-0.05-0.24-0.1-0.36c-0.02-0.06-0.06-0.1-0.08-0.16c-0.06-0.15-0.09-0.3-0.15-0.45
		c-0.14-0.31-0.34-0.58-0.5-0.87c-7.26-16.76-26.13-25.88-43.8-20.81c-0.39,0.11-0.76,0.24-1.13,0.4
		c-7.78,3.22-12.71,8.57-17.06,13.29c-3.69,4.01-6.88,7.46-11.53,9.39c-1.32,0.55-2.67,1.01-3.97,1.36l-1.17,0.29
		c-5.81,0.99-9.71,6.51-8.72,12.32c0.89,5.2,5.41,8.88,10.5,8.87c0.6,0,1.2-0.05,1.81-0.15c0.19-0.03,0.64-0.11,0.83-0.16
		c0.72-0.16,1.45-0.34,2.26-0.56c2.26-0.61,4.49-1.37,6.64-2.27c8.98-3.72,14.56-9.78,19.04-14.64c3.22-3.5,5.81-6.3,8.98-7.79
		c7.49-1.82,15.33,2.26,18.09,9.51c0.06,0.15,0.15,0.27,0.21,0.41c0.02,0.05,0.03,0.1,0.05,0.15c3.18,7.08,0.51,15.53-6.07,19.52
		c-3.29,1.19-7.11,1.03-11.85,0.84c-6.63-0.27-14.85-0.6-23.8,3.1c-2.18,0.9-4.29,1.93-6.4,3.14c-0.67,0.39-1.33,0.79-1.96,1.19
		c-0.18,0.12-0.38,0.28-0.58,0.43c-0.17,0.12-0.33,0.24-0.49,0.37c-0.04,0.03-0.09,0.07-0.13,0.1c-0.12,0.1-0.2,0.22-0.31,0.32
		c-0.38,0.35-0.75,0.7-1.07,1.1c-0.15,0.19-0.28,0.38-0.42,0.58c-0.26,0.37-0.52,0.74-0.74,1.14c-0.11,0.2-0.19,0.42-0.29,0.63
		c-0.2,0.43-0.38,0.86-0.52,1.31c-0.05,0.16-0.08,0.32-0.12,0.48c-0.14,0.53-0.24,1.06-0.3,1.61c-0.01,0.07,0,0.14-0.01,0.21
		c-0.09,1.16-0.04,2.34,0.27,3.53c4.76,18.24,4.79,37.53,0.09,55.79c-0.04,0.15-0.04,0.3-0.07,0.45c-0.08,0.35-0.12,0.71-0.16,1.06
		c-0.04,0.35-0.07,0.7-0.08,1.04c0,0.34,0.02,0.66,0.05,1c0.03,0.36,0.06,0.71,0.13,1.06c0.06,0.33,0.15,0.65,0.24,0.97
		c0.1,0.33,0.19,0.66,0.32,0.98c0.13,0.33,0.29,0.65,0.45,0.96c0.15,0.29,0.29,0.57,0.46,0.84c0.2,0.31,0.42,0.6,0.65,0.89
		c0.2,0.25,0.4,0.5,0.62,0.74c0.25,0.26,0.51,0.5,0.79,0.73c0.26,0.23,0.53,0.45,0.82,0.65c0.13,0.09,0.23,0.2,0.36,0.29
		c0.66,0.42,1.34,0.83,2.05,1.24c2.03,1.17,4.13,2.2,6.3,3.09c8.98,3.72,17.2,3.36,23.82,3.11c4.68-0.19,8.43-0.35,11.71,0.79
		c5.74,3.8,8.53,10.94,6.82,17.65c-1.08,4.22-3.74,7.77-7.49,10c-3.53,2.1-7.61,2.77-11.6,1.96c-3.11-1.51-5.66-4.28-8.83-7.73
		c-4.48-4.87-10.06-10.94-19.04-14.65c-2.17-0.9-4.39-1.65-6.66-2.27c-0.74-0.2-1.47-0.38-2.18-0.54c-0.07-0.02-0.14-0.01-0.22-0.03
		c-0.56-0.12-1.13-0.19-1.7-0.21c-0.14-0.01-0.28-0.01-0.43-0.02c-0.55,0-1.1,0.04-1.64,0.12c-0.15,0.02-0.29,0.04-0.43,0.07
		c-0.54,0.1-1.06,0.25-1.58,0.44c-0.12,0.04-0.25,0.08-0.37,0.13c-0.52,0.21-1.02,0.46-1.51,0.75c-0.1,0.06-0.2,0.12-0.3,0.18
		c-0.47,0.3-0.91,0.64-1.33,1.01c-0.1,0.09-0.21,0.18-0.31,0.28c-0.38,0.36-0.72,0.76-1.05,1.18c-0.12,0.15-0.23,0.3-0.34,0.46
		c-0.14,0.2-0.3,0.37-0.43,0.58c-9.58,16.22-23.25,29.85-39.52,39.39c-3.37,1.98-5.21,5.52-5.23,9.16c0,0.07-0.02,0.13-0.02,0.2
		c0,0.12,0.03,0.23,0.04,0.35c0.02,0.48,0.07,0.95,0.16,1.43c0.03,0.17,0.02,0.35,0.06,0.52c0.17,0.74,0.35,1.51,0.56,2.33
		c0.62,2.26,1.38,4.47,2.28,6.64c3.72,8.98,9.78,14.56,14.65,19.04c3.49,3.22,6.29,5.8,7.8,8.98c1.82,7.48-2.26,15.35-9.52,18.1
		c-0.1,0.04-0.18,0.1-0.28,0.14c-0.1,0.04-0.21,0.06-0.31,0.1c-7.07,3.18-15.52,0.51-19.52-6.07c-1.19-3.3-1.03-7.11-0.84-11.86
		c0.27-6.61,0.61-14.84-3.11-23.82c-0.9-2.15-1.92-4.26-3.09-6.32c-0.39-0.67-0.79-1.33-1.54-2.49c-0.07-0.11-0.16-0.19-0.24-0.29
		c-0.14-0.19-0.3-0.36-0.46-0.55c-0.3-0.36-0.6-0.71-0.94-1.02c-0.15-0.14-0.33-0.26-0.49-0.39c-0.36-0.29-0.73-0.58-1.12-0.82
		c-0.24-0.15-0.5-0.26-0.75-0.39c-0.33-0.16-0.64-0.34-0.98-0.47c-0.45-0.18-0.92-0.3-1.39-0.41c-0.14-0.03-0.27-0.08-0.41-0.11
		c-1.51-0.3-3.1-0.31-4.7,0.08c-18.15,4.59-37.33,4.52-55.45-0.22c-0.14-0.04-0.27-0.03-0.41-0.06c-0.36-0.08-0.72-0.13-1.09-0.17
		c-0.35-0.04-0.7-0.08-1.05-0.08c-0.31,0-0.62,0.02-0.93,0.04c-0.4,0.03-0.79,0.06-1.17,0.13c-0.26,0.05-0.52,0.12-0.78,0.19
		c-0.41,0.11-0.81,0.22-1.2,0.38c-0.24,0.09-0.47,0.21-0.7,0.32c-0.39,0.19-0.76,0.38-1.12,0.61c-0.21,0.14-0.41,0.29-0.62,0.45
		c-0.35,0.26-0.69,0.54-1.01,0.84c-0.18,0.17-0.34,0.35-0.5,0.54c-0.31,0.34-0.6,0.7-0.87,1.08c-0.06,0.09-0.14,0.16-0.2,0.24
		c-0.03,0.05-0.37,0.56-0.4,0.61c-0.4,0.63-0.8,1.29-1.21,1.99c-1.15,2.03-2.18,4.13-3.08,6.28c-3.72,8.98-3.38,17.21-3.11,23.82
		c0.2,4.8,0.36,8.64-0.88,11.96c-3.75,6.59-11.97,9.29-18.93,6.18c-0.06-0.03-0.13-0.04-0.19-0.06c-0.13-0.06-0.25-0.14-0.39-0.19
		c-7.14-2.71-11.02-10.44-9.01-17.75c1.48-3.22,4.31-5.82,7.84-9.08c4.86-4.48,10.92-10.06,14.65-19.04
		c0.9-2.16,1.65-4.37,2.29-6.71c0.2-0.74,0.38-1.47,0.54-2.18c0.02-0.11,0.15-0.75,0.17-0.85c1.12-5.72-2.62-11.01-8.33-12.21
		c-5.68-1.24-11.37,2.66-12.66,8.34l-0.34,1.38c-0.38,1.38-0.84,2.74-1.39,4.06c-1.93,4.64-5.39,7.83-9.4,11.53
		c-4.72,4.34-10.06,9.27-13.28,17.04c-0.13,0.31-0.24,0.61-0.33,0.92c-5.52,17.74,3.46,36.68,20.41,43.9
		c0.23,0.12,0.43,0.28,0.68,0.39c0.16,0.07,0.33,0.12,0.49,0.19c0.03,0.01,0.05,0.03,0.08,0.04c0.01,0.01,0.03,0,0.04,0.01
		c4.59,1.96,9.39,2.93,14.13,2.93c13.05,0,25.63-7.09,32.06-19.31c0.15-0.28,0.29-0.58,0.41-0.88c3.22-7.77,2.92-15.04,2.66-21.45
		c-0.21-5.05-0.32-9.46,1.2-13.78c8.27,1.59,16.67,2.39,25.08,2.39c8.06,0,16.11-0.74,24.04-2.2c1.44,4.25,1.34,8.6,1.13,13.57
		c-0.26,6.41-0.56,13.68,2.66,21.45c0.15,0.37,0.33,0.73,0.52,1.08c6.63,11.99,19.3,18.93,32.34,18.93c4.79,0,9.63-0.97,14.24-2.93
		c0.02-0.01,0.05,0,0.07-0.01c0.05-0.02,0.09-0.05,0.14-0.07c0.15-0.06,0.3-0.11,0.45-0.17c0.21-0.1,0.39-0.23,0.59-0.34
		c16.96-7.16,26.23-26.15,21.11-43.96c-0.11-0.39-0.24-0.77-0.4-1.14c-3.22-7.77-8.57-12.7-13.28-17.04
		c-3.62-3.34-6.73-6.32-8.73-10.27c13.69-9.31,25.56-21.14,34.92-34.79c3.91,2,6.86,5.09,10.17,8.68
		c4.35,4.72,9.27,10.07,17.05,13.3c0.47,0.19,0.95,0.35,1.45,0.48c3.1,0.79,6.25,1.19,9.37,1.19c6.68,0,13.27-1.79,19.16-5.29
		c8.66-5.14,14.79-13.33,17.27-23.08C439.92,303.89,432.81,286.74,418.54,278.26z"/>
	<path d="M69.14,325.91c5.69,14.1,19.51,23.02,34.19,23.02c3.33,0,6.7-0.46,10.03-1.42c0.38-0.11,0.76-0.24,1.13-0.4
		c7.77-3.22,12.7-8.57,17.05-13.28c3.69-4.01,6.87-7.47,11.56-9.4c1.32-0.56,2.67-1.01,3.89-1.35l1.08-0.28
		c5.82-0.92,9.8-6.38,8.88-12.21c-0.92-5.82-6.38-9.8-12.2-8.87c-0.22,0.03-0.69,0.11-0.9,0.16c-0.72,0.16-1.45,0.34-2.34,0.58
		c-2.26,0.62-4.48,1.38-6.6,2.27c-8.98,3.72-14.56,9.78-19.05,14.64c-3.22,3.5-5.8,6.3-8.98,7.8c-7.5,1.81-15.34-2.26-18.09-9.51
		c-0.02-0.05-0.06-0.1-0.08-0.15c-0.06-0.14-0.08-0.29-0.15-0.44c-3.19-7.08-0.52-15.53,6.06-19.52c3.3-1.19,7.11-1.04,11.87-0.84
		c6.62,0.28,14.84,0.62,23.83-3.11c2.16-0.9,4.26-1.93,6.33-3.12c0.68-0.39,1.35-0.79,1.98-1.19c0.25-0.16,0.54-0.38,0.8-0.58
		c0.03-0.02,0.06-0.05,0.1-0.07c0.05-0.04,0.11-0.08,0.15-0.11c0.27-0.22,0.48-0.47,0.72-0.71c0.22-0.22,0.46-0.42,0.66-0.65
		c0.31-0.36,0.57-0.75,0.82-1.14c0.12-0.18,0.25-0.34,0.36-0.53c0.23-0.4,0.4-0.82,0.57-1.24c0.09-0.22,0.2-0.43,0.28-0.66
		c0.12-0.36,0.19-0.73,0.27-1.1c0.07-0.32,0.16-0.64,0.2-0.97c0.03-0.27,0.03-0.54,0.04-0.81c0.02-0.44,0.05-0.87,0.01-1.32
		c-0.01-0.14-0.05-0.28-0.07-0.42c-0.06-0.49-0.1-0.99-0.23-1.48c-4.76-18.24-4.79-37.54-0.09-55.79c0.03-0.11,0.03-0.22,0.05-0.33
		c0.1-0.44,0.16-0.89,0.2-1.33c0.02-0.26,0.05-0.53,0.06-0.79c0.01-0.42-0.02-0.83-0.06-1.25c-0.03-0.28-0.05-0.56-0.1-0.83
		c-0.07-0.4-0.18-0.79-0.29-1.18c-0.08-0.26-0.15-0.53-0.25-0.78c-0.15-0.39-0.33-0.75-0.52-1.12c-0.12-0.24-0.25-0.47-0.39-0.7
		c-0.22-0.34-0.46-0.67-0.72-0.99c-0.18-0.23-0.36-0.45-0.56-0.66c-0.26-0.27-0.54-0.52-0.83-0.77c-0.26-0.22-0.52-0.44-0.8-0.63
		c-0.13-0.09-0.23-0.2-0.36-0.29c-0.67-0.43-1.35-0.85-2.03-1.23c-2.03-1.17-4.14-2.21-6.3-3.1c-8.98-3.72-17.2-3.39-23.82-3.11
		c-4.7,0.19-8.45,0.34-11.72-0.79c-7.22-4.76-9.5-14.43-5.04-21.94c3.54-5.96,10.57-9.04,17.31-7.66c3.11,1.51,5.66,4.28,8.83,7.72
		c4.48,4.87,10.06,10.93,19.03,14.64c2.17,0.9,4.38,1.66,6.74,2.3c0.57,0.15,1.13,0.28,1.69,0.41c0.05,0.01,0.1,0.02,0.15,0.04
		c0.11,0.03,0.23,0.06,0.35,0.08c0.75,0.17,1.49,0.25,2.23,0.25c0.03,0,0.07,0.01,0.1,0.01c0.15,0,0.29-0.05,0.43-0.06
		c0.66-0.03,1.31-0.1,1.94-0.25c0.25-0.06,0.49-0.13,0.74-0.21c0.58-0.18,1.14-0.4,1.68-0.67c0.21-0.1,0.42-0.19,0.62-0.31
		c0.72-0.42,1.4-0.91,2-1.49c0.04-0.04,0.07-0.08,0.1-0.12c0.59-0.58,1.09-1.24,1.53-1.95c0.04-0.07,0.11-0.12,0.15-0.19
		c9.59-16.23,23.26-29.85,39.52-39.39c2.71-1.59,4.42-4.2,5.02-7.05c0.03-0.13,0.04-0.27,0.07-0.41c0.09-0.52,0.15-1.04,0.16-1.57
		c0-0.1,0.03-0.2,0.03-0.3c0-0.17-0.05-0.33-0.06-0.5c-0.02-0.43-0.07-0.85-0.14-1.27c-0.03-0.19-0.02-0.39-0.07-0.58
		c-0.16-0.72-0.34-1.45-0.56-2.27c-0.61-2.25-1.37-4.46-2.27-6.63c-3.72-8.98-9.78-14.55-14.65-19.03c-3.5-3.22-6.3-5.8-7.8-8.99
		c-1.83-7.48,2.26-15.34,9.52-18.09c0.18-0.07,0.32-0.17,0.5-0.25c0.03-0.01,0.06-0.02,0.09-0.03c7.09-3.19,15.53-0.51,19.52,6.07
		c1.19,3.3,1.04,7.1,0.84,11.86c-0.27,6.61-0.61,14.84,3.11,23.83c0.89,2.15,1.92,4.25,3.14,6.38c0.39,0.66,0.77,1.3,1.16,1.91
		c0.1,0.15,0.35,0.52,0.45,0.67c0.02,0.03,0.06,0.06,0.08,0.09c0.48,0.67,1.03,1.28,1.64,1.81c0.04,0.04,0.09,0.06,0.13,0.09
		c0.58,0.49,1.2,0.9,1.86,1.25c0.1,0.05,0.2,0.09,0.3,0.14c2.2,1.09,4.76,1.47,7.32,0.81c18.15-4.6,37.33-4.52,55.45,0.22
		c0.9,0.24,1.81,0.35,2.71,0.35c3.82,0,7.28-2.12,9.17-5.43l0.11,0.06c0.42-0.66,0.83-1.34,1.23-2.03c1.17-2.04,2.21-4.15,3.11-6.32
		c3.72-8.98,3.38-17.21,3.11-23.82c-0.19-4.8-0.35-8.64,0.88-11.96c3.74-6.58,11.95-9.31,18.92-6.18c0.16,0.07,0.33,0.1,0.5,0.17
		c0.03,0.01,0.05,0.03,0.08,0.04c7.14,2.72,11.02,10.45,9.01,17.76c-1.48,3.22-4.31,5.83-7.84,9.08
		c-4.87,4.48-10.92,10.06-14.65,19.03c-0.9,2.16-1.65,4.39-2.27,6.66c-0.2,0.74-0.38,1.47-0.54,2.18c-0.02,0.08-0.15,0.7-0.17,0.78
		c-1.19,5.72,2.5,11.07,8.21,12.32c0.73,0.16,1.47,0.24,2.19,0.24c4.91,0,9.4-3.55,10.55-8.51l0.36-1.45
		c0.37-1.38,0.83-2.73,1.38-4.05c1.92-4.64,5.38-7.83,9.39-11.52c4.72-4.35,10.07-9.27,13.29-17.04c0.13-0.3,0.24-0.61,0.33-0.92
		c5.56-17.91-3.62-37.09-20.9-44.15c-0.07-0.03-0.13-0.08-0.2-0.11c-0.03-0.01-0.07-0.02-0.1-0.03c-0.16-0.07-0.3-0.17-0.47-0.23
		c-0.36-0.14-0.74-0.2-1.1-0.3c-17-6.66-36.53,0.39-45.13,16.72c-0.15,0.29-0.28,0.58-0.41,0.88c-3.22,7.77-2.92,15.04-2.66,21.45
		c0.21,5.05,0.31,9.45-1.19,13.76c-16.2-3.12-32.91-3.18-49.12-0.19c-1.44-4.26-1.34-8.61-1.13-13.59
		c0.26-6.41,0.56-13.68-2.66-21.45c-0.15-0.37-0.33-0.73-0.52-1.08c-9.06-16.38-29.38-23.27-46.55-15.97
		c-0.04,0.01-0.07,0.02-0.11,0.03c-0.02,0.01-0.03,0.02-0.05,0.02c-0.18,0.08-0.37,0.1-0.55,0.18c-0.37,0.17-0.69,0.39-1.04,0.6
		c-16.66,7.31-25.74,26.09-20.67,43.73c0.11,0.39,0.24,0.76,0.4,1.13c3.22,7.78,8.57,12.71,13.29,17.06c3.6,3.32,6.7,6.29,8.7,10.21
		c-13.69,9.3-25.56,21.14-34.92,34.79c-3.89-2-6.85-5.08-10.15-8.66c-4.35-4.72-9.27-10.07-17.04-13.29
		c-0.47-0.19-0.95-0.35-1.44-0.48c-16.11-4.11-33.24,2.99-41.72,17.28c-10.6,17.86-4.68,41.01,13.18,51.61
		c0.44,0.26,0.89,0.49,1.36,0.68c7.77,3.22,15.04,2.92,21.46,2.66c4.87-0.2,9.13-0.29,13.3,1.05c-3.05,16.28-3.02,33.05,0.09,49.32
		c-4.19,1.36-8.49,1.26-13.37,1.07c-6.41-0.28-13.68-0.56-21.46,2.66c-0.37,0.15-0.73,0.33-1.08,0.52
		c-16.13,8.93-22.99,28.75-16.24,45.74c0.09,0.31,0.13,0.62,0.25,0.92c0.06,0.17,0.16,0.31,0.23,0.48c0.02,0.04,0.02,0.08,0.04,0.11
		C69.1,325.85,69.12,325.88,69.14,325.91z"/>
	<path d="M257.97,156.58c-5.89,0.19-10.51,5.13-10.31,11.02c0.18,5.57-4.19,10.25-9.76,10.44c-4.95,0.11-9.49-3.47-10.3-8.47
		c-0.95-5.81-6.41-9.72-12.26-8.81c-5.82,0.96-9.76,6.44-8.81,12.26c2.49,15.2,15.73,26.37,31.02,26.36c0.35,0,0.71,0,1.06-0.02
		c8.4-0.28,16.18-3.81,21.92-9.95c5.74-6.13,8.74-14.13,8.46-22.53C268.79,161,263.74,156.36,257.97,156.58z"/>
	<path d="M175.03,203.59c-5.8-0.81-11.24,3.22-12.07,9.05c-0.83,5.83,3.22,11.24,9.05,12.07c2.67,0.38,5.03,1.78,6.65,3.94
		c1.62,2.16,2.3,4.82,1.92,7.49c-0.72,5.03-5.13,8.99-10.17,8.67c-5.87,0.11-10.75,4.59-10.86,10.48
		c-0.1,5.89,4.59,10.76,10.48,10.86c0.19,0,0.38,0,0.57,0c15.57,0,28.9-11.51,31.12-26.98C204.16,222.01,192.2,206.04,175.03,203.59
		z"/>
	<path d="M250.42,339.34c0.94,0,1.9-0.13,2.85-0.39c5.68-1.56,9.01-7.45,7.44-13.12c-1.48-5.37,1.68-10.95,7.04-12.44
		c4.93-1.34,10.09,1.18,12.03,5.9c2.24,5.45,8.47,8.06,13.93,5.82c5.45-2.24,8.05-8.48,5.82-13.93
		c-6.04-14.7-22.13-22.59-37.46-18.35c-8.1,2.24-14.84,7.49-18.98,14.8c-4.14,7.31-5.19,15.79-2.95,23.89
		C241.45,336.24,245.74,339.34,250.42,339.34z"/>
	<path d="M325.87,287.29c0.24,0,0.49-0.01,0.73-0.01c5.89-0.14,10.56-5.02,10.43-10.91c-0.14-5.81-4.88-10.43-10.66-10.43
		c-0.17,0-0.33,0.01-0.49,0.01c-5.46,0-9.96-4.38-10.09-9.87c-0.12-5.12,3.61-9.51,8.68-10.24c5.83-0.83,9.89-6.24,9.06-12.07
		c-0.83-5.84-6.23-9.91-12.07-9.06c-15.75,2.24-27.36,15.93-27.01,31.84C294.85,273.65,308.87,287.29,325.87,287.29z"/>
</g>
</svg>
