<svg xmlns="http://www.w3.org/2000/svg" viewBox="0 0 500 500"><path d="M451.46 150.68c-.94-2.24-2.29-4.27-3.99-5.96L309.17 6.42c-1.69-1.69-3.71-3.05-5.95-3.99-2.23-.93-4.64-1.43-7.11-1.43H111.67c-35.6 0-64.56 28.96-64.56 64.56v368.89c0 35.59 28.96 64.56 64.56 64.56h276.67c35.59 0 64.56-28.96 64.56-64.56V157.78c-.01-2.46-.51-4.87-1.44-7.1zm-136.9-86.71l75.36 75.36h-75.36V63.97zM416 434.44c0 15.26-12.41 27.67-27.67 27.67H111.67C96.41 462.11 84 449.7 84 434.44V65.56c0-15.26 12.41-27.67 27.67-27.67h166v119.89c0 10.19 8.25 18.44 18.44 18.44H416v258.22z"/><path d="M139.33 273.06c0 10.19 8.25 18.44 18.44 18.44h184.44c10.19 0 18.44-8.26 18.44-18.44 0-10.19-8.25-18.44-18.44-18.44H157.78c-10.2-.01-18.45 8.25-18.45 18.44zM342.22 346.83H157.78c-10.19 0-18.44 8.26-18.44 18.44 0 10.19 8.25 18.44 18.44 18.44h184.44c10.19 0 18.44-8.26 18.44-18.44.01-10.18-8.24-18.44-18.44-18.44zM157.78 199.28h46.11c10.19 0 18.44-8.26 18.44-18.44 0-10.19-8.25-18.44-18.44-18.44h-46.11c-10.19 0-18.44 8.26-18.44 18.44-.01 10.18 8.24 18.44 18.44 18.44z"/></svg>