<svg id="calendar" xmlns="http://www.w3.org/2000/svg" viewBox="0 0 20 20">
  <g id="Group_503" data-name="Group 503">
    <g id="Group_502" data-name="Group 502">
      <path id="Path_17972" data-name="Path 17972" d="M279,280.4a1.564,1.564,0,0,0,1.563,1.563H282.4a1.564,1.564,0,0,0,1.563-1.562v-1.836A1.564,1.564,0,0,0,282.4,277h-1.836A1.564,1.564,0,0,0,279,278.563Zm1.563-1.836H282.4V280.4h-1.837Z" transform="translate(-268.102 -266.18)"/>
      <circle id="Ellipse_46" data-name="Ellipse 46" cx="0.781" cy="0.781" r="0.781" transform="translate(14.297 7.422)"/>
      <circle id="Ellipse_47" data-name="Ellipse 47" cx="0.781" cy="0.781" r="0.781" transform="translate(10.898 7.422)"/>
      <path id="Path_17973" data-name="Path 17973" d="M19.219,13.75A.781.781,0,0,0,20,12.969V4.688a3.129,3.129,0,0,0-3.125-3.125H15.859V.781a.781.781,0,0,0-1.562,0v.781H10.742V.781a.781.781,0,0,0-1.562,0v.781H5.664V.781A.781.781,0,0,0,4.1.781v.781H3.125A3.129,3.129,0,0,0,0,4.688V16.875A3.129,3.129,0,0,0,3.125,20h13.75A3.129,3.129,0,0,0,20,16.875a.781.781,0,0,0-1.562,0,1.564,1.564,0,0,1-1.562,1.563H3.125a1.564,1.564,0,0,1-1.562-1.562V4.688A1.564,1.564,0,0,1,3.125,3.125H4.1v.781a.781.781,0,0,0,1.563,0V3.125H9.18v.781a.781.781,0,0,0,1.563,0V3.125H14.3v.781a.781.781,0,0,0,1.563,0V3.125h1.016a1.564,1.564,0,0,1,1.563,1.563v8.281A.781.781,0,0,0,19.219,13.75Z"/>
      <circle id="Ellipse_48" data-name="Ellipse 48" cx="0.781" cy="0.781" r="0.781" transform="translate(4.102 14.219)"/>
      <circle id="Ellipse_49" data-name="Ellipse 49" cx="0.781" cy="0.781" r="0.781" transform="translate(4.102 7.422)"/>
      <circle id="Ellipse_50" data-name="Ellipse 50" cx="0.781" cy="0.781" r="0.781" transform="translate(4.102 10.82)"/>
      <circle id="Ellipse_51" data-name="Ellipse 51" cx="0.781" cy="0.781" r="0.781" transform="translate(7.5 10.82)"/>
      <circle id="Ellipse_52" data-name="Ellipse 52" cx="0.781" cy="0.781" r="0.781" transform="translate(7.5 7.422)"/>
      <circle id="Ellipse_53" data-name="Ellipse 53" cx="0.781" cy="0.781" r="0.781" transform="translate(7.5 14.219)"/>
    </g>
  </g>
</svg>
