<svg xmlns="http://www.w3.org/2000/svg" viewBox="0 0 500 500"><path d="M480.56 210.48c-10.19 0-18.44 8.26-18.44 18.44v21.2c-.09 116.92-95.23 211.99-212.13 211.99h-.11c-56.67-.04-109.91-22.13-149.95-62.21-40.04-40.1-62.07-93.37-62.03-150.02.04-56.66 22.12-109.91 62.21-149.95 40.04-40 93.27-62.03 149.88-62.03h.13c29.9.02 58.92 6.2 86.22 18.36 9.33 4.11 20.23-.05 24.35-9.35 4.16-9.3-.04-20.21-9.33-24.35C319.27 8.27 285.23 1.02 250.14 1h-.16C183.54 1 121.05 26.86 74.02 73.82 26.97 120.83 1.04 183.35 1 249.86c-.05 66.5 25.81 129.05 72.82 176.1 46.99 47.06 109.51 72.99 176.01 73.04h.14C387.2 499 498.91 387.4 499 250.14v-21.21c0-10.19-8.25-18.45-18.44-18.45z"/><path d="M193.87 214.27c-7.2-7.2-18.88-7.2-26.08 0-7.2 7.2-7.2 18.88 0 26.08l69.17 69.17c3.46 3.46 8.16 5.4 13.04 5.4 4.9 0 9.58-1.95 13.04-5.41L493.6 78.72c7.2-7.2 7.2-18.89 0-26.08-7.2-7.19-18.88-7.2-26.08.02L250 270.39l-56.13-56.12z"/></svg>