<svg xmlns="http://www.w3.org/2000/svg" viewBox="0 0 500 500"><path d="M250 1C112.69 1 1 112.69 1 250s111.69 249 249 249 249-111.69 249-249S387.31 1 250 1zm0 461.11c-116.95 0-212.11-95.16-212.11-212.11S133.05 37.89 250 37.89 462.11 133.05 462.11 250 366.95 462.11 250 462.11z"/><path d="M357.59 260.19c.09-.13.16-.26.24-.39.24-.38.47-.76.68-1.15.09-.18.17-.36.26-.54.18-.36.35-.72.51-1.09.08-.2.15-.4.22-.61.13-.36.27-.72.38-1.09.07-.23.12-.46.18-.68.09-.35.19-.7.26-1.06.06-.29.09-.59.13-.88.04-.3.1-.59.13-.89.12-1.21.12-2.43 0-3.63-.03-.3-.09-.6-.13-.89-.04-.29-.08-.59-.13-.88-.07-.36-.17-.71-.26-1.06-.06-.23-.11-.46-.18-.68-.11-.37-.25-.73-.38-1.08-.08-.2-.14-.41-.22-.61-.15-.37-.33-.73-.5-1.09-.09-.18-.17-.36-.26-.54-.21-.39-.44-.77-.68-1.15-.08-.13-.15-.26-.24-.39-.33-.5-.68-.98-1.06-1.44l-.01-.01c-.43-.52-.88-1.02-1.36-1.49l-92.13-92.13c-7.2-7.2-18.88-7.2-26.08 0-7.2 7.2-7.2 18.88 0 26.08l60.74 60.74H157.78c-10.19 0-18.44 8.25-18.44 18.44s8.25 18.44 18.44 18.44H297.7l-60.74 60.74c-7.2 7.2-7.2 18.88 0 26.08 3.6 3.6 8.32 5.4 13.04 5.4s9.44-1.8 13.04-5.4l92.13-92.13c.48-.47.93-.97 1.36-1.49 0 0 0-.01.01-.01.37-.46.72-.94 1.05-1.44z"/></svg>