<?xml version="1.0" encoding="utf-8"?>
<!-- Generator: Adobe Illustrator 23.0.6, SVG Export Plug-In . SVG Version: 6.00 Build 0)  -->
<svg version="1.1" id="Layer_1" xmlns="http://www.w3.org/2000/svg" xmlns:xlink="http://www.w3.org/1999/xlink" x="0px" y="0px"
	 viewBox="0 0 500 500" style="enable-background:new 0 0 500 500;" xml:space="preserve">
<path d="M467.6,258.4c-3.6-54.6-47.5-98.3-102.2-101.5c-18.8-46.5-64.6-78-115.4-78c-63.9,0-116.7,48.3-123.7,110.3
	c-26.5,5-48.5,23.5-58,49.1C28.7,249.7,1,285.9,1,327.8c0,51.5,41.8,93.3,93.3,93.3h311.3c51.5,0,93.3-42,93.3-93.2
	C499,301.1,487.6,276.2,467.6,258.4z M405.8,390H94.5c-34.3,0-62.3-28-62.3-62.3c0-30,21.5-55.7,51.2-61.1l10.1-1.8l2.3-10
	c5-21.3,23.6-36,45.4-36l0,0H157v-15.6c0-51.5,41.8-93.3,93.3-93.3c41,0,77.9,27.5,89.5,66.9l3.5,11.7l15.9-0.8
	c43,0,77.9,34.9,77.9,77v9l6.1,4.7c15.8,11.9,24.9,30,24.9,49.5C468.1,362,440.1,390,405.8,390z"/>
<polygon points="323.2,285.6 301.3,263.5 265.6,299.2 265.6,196.8 234.4,196.8 234.4,299.2 198.7,263.5 176.8,285.6 250,358.8 "/>
</svg>
