<svg xmlns="http://www.w3.org/2000/svg" viewBox="0 0 500 500"><path d="M435.3 47.33H64.65C29.68 47.42 1.11 75.96 1 111.02v278.02c.11 34.95 28.68 63.52 63.7 63.63h370.67c34.99-.11 63.54-28.68 63.63-63.7v-278c-.09-35.01-28.64-63.55-63.7-63.64zM64.74 82.07h370.51c13.14.04 23.84 9.05 27.38 21.05L250 251.97 37.38 103.13c3.55-12.03 14.25-21.02 27.36-21.06zM435.3 417.93H64.77c-15.95-.05-28.98-13.07-29.02-28.95v-244.6l204.3 143.01c2.99 2.1 6.47 3.14 9.95 3.14s6.97-1.04 9.95-3.14l204.3-143.01v244.55c-.04 15.93-13.05 28.95-28.95 29z"/></svg>