<svg xmlns="http://www.w3.org/2000/svg" viewBox="0 0 25.455 20">
  <path d="M-3697.727-4779a2.175,2.175,0,0,1-1.49-.562l7.213-7.213c.181.128.347.25.5.36q.811.6,1.315.931a8,8,0,0,0,1.342.682,4.085,4.085,0,0,0,1.562.348h.029a4.085,4.085,0,0,0,1.562-.348,8.071,8.071,0,0,0,1.343-.682q.5-.335,1.314-.931l.5-.359,7.212,7.212a2.175,2.175,0,0,1-1.49.563Zm16.828-8.933q2.032-1.418,4.934-3.382a7.861,7.861,0,0,0,1.42-1.236v10.972Zm-19.1-4.618a7.556,7.556,0,0,0,1.434,1.236q3.019,2.049,4.922,3.379l-6.357,6.357Zm12.728,6.277h-.014a2.249,2.249,0,0,1-.71-.127,4.3,4.3,0,0,1-.817-.383c-.289-.171-.536-.324-.738-.461s-.46-.318-.767-.541c-.16-.114-.29-.208-.392-.282l-.213-.152c-.4-.278-.877-.614-1.433-1-.653-.457-1.414-.984-2.288-1.59q-2.428-1.684-2.911-2.023a7.047,7.047,0,0,1-1.662-1.642,3.315,3.315,0,0,1-.781-1.939,2.862,2.862,0,0,1,.59-1.846,2.025,2.025,0,0,1,1.683-.738h20.908a2.2,2.2,0,0,1,1.6.667,2.181,2.181,0,0,1,.674,1.605,3.757,3.757,0,0,1-.7,2.145,6.75,6.75,0,0,1-1.733,1.748l-5.21,3.617-1.437,1c-.046.033-.117.084-.213.152l-.39.282q-.462.334-.767.541c-.2.137-.45.29-.74.461a4.3,4.3,0,0,1-.817.383,2.249,2.249,0,0,1-.71.127Z" transform="translate(3700 4799)" />
</svg>
