<svg version="1.1" id="Layer_1" xmlns="http://www.w3.org/2000/svg" xmlns:xlink="http://www.w3.org/1999/xlink" x="0px" y="0px"
	 viewBox="0 0 500 500" style="enable-background:new 0 0 500 500;" xml:space="preserve">
<path d="M471.32,1c-15.28,0-27.67,12.39-27.67,27.67v193.67c0,45.76-37.24,83-83,83H95.44l91.11-91.11
	c10.81-10.81,10.81-28.32,0-39.12c-10.81-10.81-28.32-10.81-39.12,0L9.1,313.43c-2.56,2.55-4.58,5.61-5.99,9.01
	c-2.8,6.76-2.8,14.38,0,21.14c1.4,3.39,3.43,6.45,5.99,9.01l138.32,138.32c5.4,5.4,12.47,8.11,19.56,8.11s14.16-2.7,19.56-8.11
	c10.81-10.81,10.81-28.32,0-39.12l-91.11-91.11h265.21c76.28,0,138.33-62.06,138.33-138.33V28.67C498.98,13.39,486.6,1,471.32,1z"/>
</svg>
