<svg xmlns="http://www.w3.org/2000/svg" viewBox="0 0 37.45 27.861">
  <path d="M842.961,39.07A2.919,2.919,0,0,0,841.6,38.2a6.531,6.531,0,0,0-4.709-3.617,7.268,7.268,0,0,0-3.579.174.593.593,0,0,0-.068-.049c-3.865-2.36-8.716-3.2-10.655-2.479-1.964.733-4.071,2.956-5.935,6.261-.119.21-.226.419-.309.6-.246.38-.755,1.169-2.945,2.127s-4.1,1.79-5.133,4.181a3.14,3.14,0,0,0-.239,2.468,1.637,1.637,0,0,0,.356.528,4.515,4.515,0,0,0-.624,1.82,4.458,4.458,0,0,0,1.064,3.614,3.78,3.78,0,0,0,2.432,1.294,4.228,4.228,0,0,0,1.3,1.294,5.593,5.593,0,0,0,4.96.618l.066.649.011.052a.456.456,0,0,0,.552.3c1.088-.319,4.077-.045,6.231.185a60.847,60.847,0,0,0,6.868.455c.847,0,1.739-.024,2.685-.08,5.167-.312,6.494-2.554,6.522-2.953.018-.24,0-2.514-.138-5.145l-.033-.625c-.094-1.886-.118-2.338-.511-2.607.21-.357.433-.764.632-1.152a21.956,21.956,0,0,0,2.576-1.618,2.949,2.949,0,0,0,1.165-2.127A4.339,4.339,0,0,0,842.961,39.07Zm-11.213-3.076c.12.145.271.085.546-.027a7.433,7.433,0,0,1,4.427-.447,5.642,5.642,0,0,1,3.731,2.561,3.179,3.179,0,0,0-1.859.638l-.072.123.051.109c.085.179.254.147.565.092a3.276,3.276,0,0,1,3.12.662,3.4,3.4,0,0,1,.949,2.565,2.03,2.03,0,0,1-.783,1.462c-.406.3-.853.6-1.334.895a12.471,12.471,0,0,0,.553-1.477,1.716,1.716,0,0,1,.246-.5c.083-.127.144-.22.117-.337l-.031-.1-.079-.048c-.171-.1-.459-.085-.85.57a11.446,11.446,0,0,0-.52,1.11c-.21.48-.447,1.023-.721,1.571-.027.058-.056.113-.089.176-.048.1-.1.191-.15.285-.328.6-.6,1.169-.8,1.594l-.217.46c-.085.178-.158.335-.222.466-.066.062-.14.127-.22.189a9.543,9.543,0,0,1-2.287,1.2,9.725,9.725,0,0,0,.459-2.438,13.406,13.406,0,0,0-.4-5.038,2.55,2.55,0,0,0-1.124-1.633.953.953,0,0,0-.795-.01l-.137.061,0,.144a.249.249,0,0,0,.192.224,1.929,1.929,0,0,1,1.108,1.323c-.392-.391-.83-.7-1.094-.515l-.092.075-.006.1c-.007.143.087.229.318.438a4.39,4.39,0,0,1,1.088,1.328,13.935,13.935,0,0,1-.144,4.308c-.182,1.071-.316,1.657-.392,1.952a7.145,7.145,0,0,1-1,.181c-.405.04-.769.071-1.1.095a6.7,6.7,0,0,0,.728-1.914c.381-1.6.24-2.746-.1-3.045a.32.32,0,0,0-.329-.069c-.243.09-.213.352-.176.682a4.514,4.514,0,0,1-.184,2.082c-.464,1.365-.679,2-1.537,2.37-.288.023-.539.047-.771.082l-.84.16c.044-.474.055-.97.068-1.515a17.665,17.665,0,0,1,.171-2.367,2.476,2.476,0,0,1,.457-1.054,1.744,1.744,0,0,1,.656-.021,1.792,1.792,0,0,1,1.141.576.268.268,0,0,0,.282.114l.13-.044.024-.13c.075-.4-.261-.815-.919-1.143a2.591,2.591,0,0,0-.488-.188,9.185,9.185,0,0,1,1.076-.713c.349-.2.493-.287.43-.483-.017-.055-.07-.179-.3-.164-.522.038-3.082.963-3.43,3.1a18.191,18.191,0,0,0-.182,2.565,16.261,16.261,0,0,1-.1,1.7,3.852,3.852,0,0,1-.309,1.152c-.654,1.375-3.059,2.078-5.047,1.47a4.331,4.331,0,0,1-2.3-1.6c-.136-.174-.227-.3-.374-.282l-.123-.261.008.3-.023.018c-.095.075-.116.184-.174.476a5.6,5.6,0,0,1-1.334,2.878,3.878,3.878,0,0,1-.994.741,4.584,4.584,0,0,1-4.768-.224,3.525,3.525,0,0,1-1.2-1.261,4.708,4.708,0,0,1-.5-2.445c.007-.281.01-.452-.172-.507l-.151-.027-.092.1a3.6,3.6,0,0,0-.175,2.583,3.151,3.151,0,0,1-1.263-.87,3.533,3.533,0,0,1-.83-2.871,4.054,4.054,0,0,1,.676-1.786,7.48,7.48,0,0,1,2.1-1.961c.32-.216.453-.3.378-.5l-.062-.121-.12-.02a5.135,5.135,0,0,0-2.712,1.674.7.7,0,0,1-.071-.133,2.383,2.383,0,0,1,.243-1.707c.887-2.048,2.542-2.772,4.64-3.691a11.353,11.353,0,0,0,1.872-1,5.8,5.8,0,0,0,.119,3.672l.106.1.119-.028c.2-.047.2-.208.195-.6a10.263,10.263,0,0,1,.956-4.625l.031-.048a.464.464,0,0,0,.062-.143c.076-.151.157-.3.243-.456,1.756-3.113,3.687-5.186,5.439-5.839,1.633-.608,5.906.176,9.352,2.122-.291.181-.534.388-.569.549l-.021.123Zm7.621,14.55c.126,2.4.155,4.567.144,4.973-.178.361-1.643,1.889-5.634,2.129a52.135,52.135,0,0,1-9.4-.368,40.692,40.692,0,0,0-4.334-.316,15.339,15.339,0,0,0-1.676.086l-.042-.428a4.711,4.711,0,0,0,2.348-3.478,4.164,4.164,0,0,0,2.1,1.351c2.165.654,5.234.007,6.176-1.971a4.276,4.276,0,0,0,.315-.957c.483-.044,1.492-.145,2.9-.32.429-.055.812-.093,1.167-.128.548-.055,1.022-.1,1.5-.189a7.991,7.991,0,0,0,2.266-.789,6.094,6.094,0,0,0,2.058-1.512c.028.37.052.846.073,1.29Z" transform="translate(-807.22 -31.313)" stroke-width="1"/>
</svg>
