<svg xmlns="http://www.w3.org/2000/svg" viewBox="0 0 22.425 20">
  <path transform="translate(0 -33.095)" d="M21.51,36.482H18.764V34.01a.915.915,0,0,0-.915-.915H4.577a.915.915,0,0,0-.915.915v2.471H.915A.915.915,0,0,0,0,37.4v8.97a.915.915,0,0,0,.915.915H3.661v4.824a.9.9,0,0,0,.3.749.882.882,0,0,0,.37.206,1.437,1.437,0,0,0,.4.034H17.7a1.437,1.437,0,0,0,.4-.034.881.881,0,0,0,.371-.206.906.906,0,0,0,.3-.749V47.283H21.51a.915.915,0,0,0,.915-.915V37.4A.915.915,0,0,0,21.51,36.482ZM2.288,39.708a.8.8,0,1,1,.8-.8A.8.8,0,0,1,2.288,39.708ZM17.849,52.18H4.577V44.949H17.849V52.18Zm0-15.7H4.577V34.926a.915.915,0,0,1,.915-.915H16.934a.915.915,0,0,1,.915.915Q17.849,35.7,17.849,36.482Z" />
</svg>
