<svg xmlns="http://www.w3.org/2000/svg" viewBox="0 0 46.004 36.002">
  <path d="M13221.349,14236H13212a2,2,0,1,1,0-4h9.349a6,6,0,1,1,0,4Zm3.653-2a2,2,0,1,0,2-2A2,2,0,0,0,13225,14234Zm12,2a2,2,0,0,1,0-4h17a2,2,0,1,1,0,4Zm2.98-8.088a6,6,0,1,1,6.669-7.913H13254a2,2,0,1,1,0,4h-7.352a5.986,5.986,0,0,1-6.669,3.913ZM13239,14222a2,2,0,1,0,2-2A2,2,0,0,0,13239,14222Zm-27,2a2,2,0,1,1,0-4h19a2,2,0,1,1,0,4Zm5.35-12H13212a2,2,0,1,1,0-4h5.35a6,6,0,1,1,0,4Zm3.649-2a2,2,0,1,0,2-2A2,2,0,0,0,13221,14210Zm12,2a2,2,0,1,1,0-4h21a2,2,0,1,1,0,4Z" transform="translate(-13209.998 -14204)"/>
</svg>
