<svg xmlns="http://www.w3.org/2000/svg" viewBox="0 0 30 29.305">
  <path d="M733.529,44.488l.1.1.123-.055c.137-.06.137-.06.089-.875-.039-.628-.1-1.575-.076-2.241a14.57,14.57,0,0,1,.171-1.581c.12-.835.162-1.116-.064-1.206l-.139-.03-.085.057c-.313.217-.483,1.558-.464,2.729A11.323,11.323,0,0,0,733.529,44.488Z M752.382,35.368c-1.173-1.268-3.149-1.846-5.876-1.725a6.489,6.489,0,0,0-2.249-2.662,7.926,7.926,0,0,0-6.225-.97,6.424,6.424,0,0,0-1.629.7L736.4,30.7l-.007,0a6.6,6.6,0,0,0-4.235-1,7.372,7.372,0,0,0-6.663,5.309,9.105,9.105,0,0,0-.233.917l-.006,0v0a4.028,4.028,0,0,0-1.806,3.4,12.449,12.449,0,0,0,1.533,5.428l.364.817c.995,2.265,1.551,3.875,1.46,5.4l-.089.786c-.1.951-.215,1.936-.3,3.121a17.623,17.623,0,0,0-.056,3.748.451.451,0,0,0,.8.178c.01-.011,1.08-1.221,6.885-1.816a20.491,20.491,0,0,1,9.862,1.433c.569.222.741.286.96.195.349-.146.374-.292.537-3.126a32.666,32.666,0,0,1,.44-4.56l.106-.067h0l.054-.035.009,0,.417-.276-.019,0a24.537,24.537,0,0,0,2.412-2.109,4.419,4.419,0,0,0,1.626-2.934,2.1,2.1,0,0,0-.03-.324l.012-.009h0a6.381,6.381,0,0,0,2.4-2.5,2.148,2.148,0,0,0-.246-2.239l.01-.011-.009-.007a3.748,3.748,0,0,0,.818-1.8A4.033,4.033,0,0,0,752.382,35.368Zm-8.642-3.651a5.415,5.415,0,0,1,2.031,2.515.445.445,0,0,0,.459.321c2.575-.168,4.475.326,5.493,1.425a3.118,3.118,0,0,1,.8,2.515,4.962,4.962,0,0,1-1.192,2.3c-.24.295-.349.431-.24.583l.067.079.086.009h.022a1.544,1.544,0,0,0,.687-.382A1.246,1.246,0,0,1,752,42.345a6.238,6.238,0,0,1-2.285,2.249l-.09.065,0,0-.052.037h0l-.016.012h0l-.046.036-.833.607.035-.012c-.171.129-.333.242-.509.381-1.585,1.252-2.153,2.52-2.093,2.889l.041.152.107.039a.22.22,0,0,0,.081.015c.132,0,.237-.132.443-.393a11.258,11.258,0,0,1,1.977-2c.248-.2.491-.371.734-.55a4.3,4.3,0,0,1-1.292,1.929,18.355,18.355,0,0,1-2.733,2.315,2.948,2.948,0,0,0-.3-.215l-.059-.037a8.917,8.917,0,0,0-2.194-1.018l0-.01h0a30.108,30.108,0,0,1,2.228-4.172,31.172,31.172,0,0,1,3.544-4.753,2.617,2.617,0,0,1,.625-.448,1,1,0,0,1,.024.25,1.439,1.439,0,0,1-.241.743c-.087.152-.17.3-.065.432a.266.266,0,0,0,.295.092c.275-.079.572-.592.624-1.076.061-.564.047-1.264-.372-1.4-.528-.163-1.555.761-2.9,2.615a51.807,51.807,0,0,0-3.111,4.98c-.167.295-.313.553-.438.765a11.677,11.677,0,0,0-.884,1.771l-.01,0v0l-.01,0c-.522-.136-1.08-.256-1.651-.366l.031-.011-.153-.025a5.285,5.285,0,0,0,1.491-1.4c.1-.171.227-.364.348-.552.447-.686.614-.944.389-1.1-.2-.146-.361.055-.619.391a10.454,10.454,0,0,1-1.141,1.288h0c-.4.374-.788.686-1.075.915-.16.126-.272.22-.361.3l-.046-.007,0-.006h-.014a38.713,38.713,0,0,0,2.268-5.1,13.194,13.194,0,0,0,.909-4.939c-.018-.651-.171-1.033-.456-1.137-.152-.055-.4-.049-.71.3a2.819,2.819,0,0,0-.7,1.3l.014.1.142.1.082-.012c.109-.017.167-.1.3-.29a3.247,3.247,0,0,1,.341-.433,1.172,1.172,0,0,1,.185-.159,1.576,1.576,0,0,1,.059.539,16.309,16.309,0,0,1-1.515,6.064,24.062,24.062,0,0,1-1.637,3.567h0l0,0c-.381-.047-.755-.084-1.126-.115l0,0h-.006c.06-.107.13-.237.215-.394l.222-.407a2.722,2.722,0,0,0,.434-1.852l-.07-.1-.241.037-.036.115a11.946,11.946,0,0,1-1.212,2.439h0c-.03.041-.039.066-.061.1h-.02l0,0c-.517-.03-1.016-.045-1.489-.042v0H735.3v0a3.54,3.54,0,0,1-.382-1.2,5.638,5.638,0,0,1,.061-1.992.23.23,0,0,0-.066-.242l-.115-.076-.11.044a.679.679,0,0,0-.323.54l-.016.149a10.746,10.746,0,0,0-.064,2.544,1.768,1.768,0,0,0,.067.257l-.072,0,0,0c-.309.019-.624.05-.937.08l.009-.01-.124.012c.449-1.136.28-3.734.117-5.3a13.469,13.469,0,0,0-1.384-5.278l0,0h0c-.069-.086-.13-.132-.18-.132l-.271,0,.087.257a25.7,25.7,0,0,1,1.173,6.455,21.11,21.11,0,0,1-.081,3.623c-.011-.1-.021-.192-.026-.241-.021-.233-.04-.509-.056-.773-.064-.972-.081-1.068-.206-1.146l-.094-.052-.091.037c-.178.076-.187.235-.173,1.446l0,.456c0,.131,0,.252,0,.362,0,.171,0,.308.009.428l-.042.006v.006c-.226.031-.443.066-.658.1l0-.011-.021,0a5.921,5.921,0,0,0,.132-.827,3.965,3.965,0,0,0-.111-1.473l-.082-.112-.131.037c-.141.04-.146.135-.165.416a7.594,7.594,0,0,1-.185,1.37,2.15,2.15,0,0,1-.3.754l-.107.021a6.114,6.114,0,0,1-1.09-2.507,9.307,9.307,0,0,1-.238-1.694,4.954,4.954,0,0,1,.227.651c.166.634.347,1.2.349,1.209l.161.508.2-.494a5.209,5.209,0,0,0-.337-1.881c-.538-1.637-.81-1.571-.939-1.54l-.1.041-.041.07a7.8,7.8,0,0,0,.185,3.388,11.75,11.75,0,0,0,.839,2.429l-.035.009.006.007c-.724.21-.9.374-.965.5l-.055.116.074.1a.167.167,0,0,0,.162.084,5.712,5.712,0,0,0,.792-.142c.72-.151,1.928-.4,3.3-.575a21.651,21.651,0,0,1,4.1-.12,20.332,20.332,0,0,1,3.5.53,19.02,19.02,0,0,1,3.44,1.157,16.172,16.172,0,0,0-1.942.25c-1.01.2-1.157.316-1.118.525.024.132.062.331,1.383.1a22.029,22.029,0,0,1,2.435-.281c-.085.107-.186.231-.272.336-.623.761-.664.824-.62.959l.034.1.179.049.066-.027a.833.833,0,0,0,.272-.222l.5-.515c-.14.895-.23,2.284-.331,4.051-.041.719-.094,1.664-.149,2.193l-.136-.052a21.349,21.349,0,0,0-10.266-1.484c-3.868.4-5.795,1.048-6.755,1.583,0-.089,0-.185,0-.293.005-.649.042-1.471.111-2.445.081-1.149.186-2.1.3-3.146l.076-.7,0-.032h0a40.514,40.514,0,0,0,.27-4.266v-.426c-.009-3.156-.8-6.768-1.092-7l-.085-.061-.09.02c-.221.05-.211.131-.049,1.486a48.771,48.771,0,0,1,.417,5.558c0,.343-.017.676-.025,1.012-.27-.755-.584-1.5-.88-2.173L725.8,44.4a11.654,11.654,0,0,1-1.453-5.035,3.345,3.345,0,0,1,.726-2.059,7.525,7.525,0,0,0,.262,3.153l.08.071.092-.011c.21-.022.215-.161.242-.926a20.164,20.164,0,0,1,.321-3.219v0a10.011,10.011,0,0,1,.28-1.081A6.41,6.41,0,0,1,732.2,30.6a6.176,6.176,0,0,1,3.365.65c-.3.226-.761.6-.791.8l-.01.1.052.066c.132.168.286.087.934-.257a11.722,11.722,0,0,1,2.5-1.076A7.01,7.01,0,0,1,743.74,31.717Z" transform="translate(-723.442 -29.694)" />
</svg>
