<svg xmlns="http://www.w3.org/2000/svg" viewBox="0 0 21.859 21.835">
  <path d="M20.964.53a1.794,1.794,0,0,0-2.448.656L16.073,5.417H10.805a.427.427,0,0,0,0,.854H15.58l-1.773,3.07H3.843a.427.427,0,1,0,0,.854h9.472L12.328,11.9H3.843a.427.427,0,1,0,0,.854h8.309l-.184,1.708H3.843a.427.427,0,1,0,0,.854h8.033l-.023.211a.427.427,0,0,0,.676.39l2.726-1.992a.427.427,0,0,0,.118-.131L18.7,8.034V16.31a1.737,1.737,0,0,1-1.735,1.735H7.071a.427.427,0,0,0-.37.213L5.208,20.844,3.715,18.258a.427.427,0,0,0-.37-.213H2.589A1.737,1.737,0,0,1,.854,16.31v-8.3A1.737,1.737,0,0,1,2.589,6.271H6.962a.427.427,0,1,0,0-.854H2.589A2.592,2.592,0,0,0,0,8.006v8.3A2.592,2.592,0,0,0,2.589,18.9H3.1l1.739,3.013a.427.427,0,0,0,.739,0L7.317,18.9h9.648a2.592,2.592,0,0,0,2.589-2.589v-8.3a2.594,2.594,0,0,0-.226-1.059L21.62,2.978A1.794,1.794,0,0,0,20.964.53Zm-.427.739a.939.939,0,0,1,.343,1.282l-.244.423-1.625-.938.244-.423a.939.939,0,0,1,1.282-.343ZM12.993,12.916l1.229.71-1.417,1.035ZM14.847,13l-1.625-.938,5.362-9.287,1.625.938Z" transform="translate(0 -0.29)" />
</svg>
