<svg version="1.1" xmlns="http://www.w3.org/2000/svg" xmlns:xlink="http://www.w3.org/1999/xlink" x="0px" y="0px"
	 viewBox="0 0 500 500" style="enable-background:new 0 0 500 500;" xml:space="preserve">
<path d="M480.56,24.06H342.22c-38.47,0-72.39,19.75-92.22,49.62c-19.84-29.87-53.75-49.62-92.22-49.62H19.44
	C9.25,24.06,1,32.31,1,42.5v345.83c0,10.19,8.25,18.44,18.44,18.44h161.39c27.97,0,50.72,22.75,50.72,50.72
	c0,10.19,8.25,18.44,18.44,18.44s18.44-8.25,18.44-18.44c0-27.97,22.75-50.72,50.72-50.72h161.39c10.19,0,18.44-8.25,18.44-18.44
	V42.5C499,32.31,490.75,24.06,480.56,24.06z M231.56,386.1c-14.32-10.19-31.83-16.21-50.72-16.21H37.89V60.94h119.89
	c40.69,0,73.78,33.09,73.78,73.78V386.1z M462.11,369.89H319.17c-18.89,0-36.4,6.02-50.72,16.21V134.72
	c0-40.69,33.09-73.78,73.78-73.78h119.89V369.89z"/>
</svg>
