<svg version="1.1" xmlns="http://www.w3.org/2000/svg" xmlns:xlink="http://www.w3.org/1999/xlink" x="0px" y="0px"
	 width="500px" height="500px" viewBox="0 0 500 500" enable-background="new 0 0 500 500" xml:space="preserve">
<g>
	<path fill="#187798" d="M497.492,147.354c-1.191-26.554-5.398-44.597-11.574-60.438c-6.225-16.62-16.049-31.66-28.693-44.098
		c-12.45-12.656-27.526-22.432-44.109-28.669c-15.855-6.213-33.946-10.42-60.451-11.623C326.159,1.322,317.624,1.019,250,1.019
		l0.049-0.036c-67.636,0-76.123,0.291-102.676,1.507c-26.553,1.216-44.633,5.447-60.475,11.611
		c-16.621,6.249-31.672,16.049-44.11,28.718c-12.645,12.438-22.42,27.489-28.657,44.098C7.918,102.758,3.711,120.85,2.508,147.354
		C1.292,173.859,1,182.395,1,250.019s0.292,76.11,1.508,102.663c1.216,26.578,5.41,44.597,11.575,60.451
		c6.249,16.607,16.049,31.66,28.706,44.086c12.438,12.693,27.489,22.468,44.11,28.742c15.806,6.127,33.934,10.357,60.438,11.574
		c26.493,1.215,35.04,1.482,102.664,1.482s76.11-0.268,102.664-1.482c26.553-1.217,44.596-5.447,60.451-11.574
		c16.535-6.42,31.562-16.195,44.109-28.742c12.523-12.523,22.322-27.551,28.693-44.086c6.176-15.83,10.359-33.945,11.574-60.451
		c1.217-26.48,1.508-35.039,1.508-102.663S498.709,173.908,497.492,147.354z M452.727,350.664
		c-1.095,24.292-5.18,37.471-8.584,46.25c-4.135,10.748-10.48,20.475-18.627,28.645c-8.121,8.121-17.896,14.468-28.62,18.626
		c-8.778,3.404-21.958,7.44-46.226,8.56c-26.262,1.191-34.141,1.459-100.621,1.459c-66.505,0-74.372-0.268-100.633-1.459
		c-24.268-1.119-37.459-5.155-46.238-8.56c-10.821-3.987-20.621-10.358-28.657-18.626c-8.28-8.073-14.651-17.849-18.639-28.693
		c-3.404-8.754-7.453-21.934-8.56-46.226c-1.204-26.262-1.459-34.116-1.459-100.621c0-66.481,0.255-74.359,1.459-100.621
		c1.106-24.269,5.155-37.46,8.56-46.238c3.988-10.82,10.359-20.62,18.639-28.656c8.036-8.28,17.836-14.651,28.657-18.639
		c8.778-3.404,21.97-7.453,46.238-8.571c26.262-1.192,34.128-1.447,100.633-1.447L250,45.882c66.48,0,74.359,0.256,100.621,1.459
		c24.268,1.106,37.447,5.155,46.25,8.572c10.82,3.976,20.621,10.347,28.645,18.626c8.268,8.036,14.639,17.836,18.627,28.669
		c3.404,8.767,7.489,21.958,8.584,46.237c1.191,26.262,1.434,34.129,1.434,100.609C454.16,316.548,453.918,324.402,452.727,350.664z
		"/>
	<path fill="#187798" d="M340.408,159.622c-11.866-11.879-25.97-21.289-41.483-27.721c-15.515-6.419-32.146-9.727-48.925-9.727
		c-25.289,0-50.006,7.502-71.04,21.557c-21.022,14.043-37.411,34.019-47.089,57.387c-9.69,23.368-12.219,49.07-7.283,73.873
		c4.936,24.803,17.119,47.587,35.003,65.46c17.885,17.896,40.669,30.079,65.472,35.016c24.79,4.912,50.518,2.383,73.886-7.295
		c23.367-9.678,43.332-26.067,57.362-47.076c14.055-21.059,21.568-45.764,21.568-71.065c0-16.79-3.307-33.41-9.751-48.924
		C361.709,185.592,352.299,171.488,340.408,159.622z M308.699,308.718c-15.562,15.562-36.668,24.316-58.699,24.316
		c-16.414,0-32.475-4.888-46.128-13.981c-13.654-9.143-24.292-22.104-30.578-37.277s-7.927-31.866-4.717-47.964
		c3.198-16.109,11.101-30.906,22.724-42.518c11.611-11.61,26.396-19.514,42.505-22.724c16.097-3.197,32.803-1.556,47.953,4.729
		c15.173,6.286,28.158,16.925,37.276,30.578s13.981,29.702,13.981,46.128C333.016,272.024,324.287,293.131,308.699,308.718z"/>
	<path fill="#187798" d="M382.914,87.244c-16.486,0-29.861,13.374-29.861,29.885c0,16.499,13.375,29.873,29.861,29.873
		c16.51,0,29.885-13.374,29.885-29.873C412.799,100.618,399.424,87.244,382.914,87.244z"/>
</g>
</svg>
