<svg xmlns="http://www.w3.org/2000/svg" viewBox="0 0 20.001 19.998">
  <path d="M13215.414,5595a5.42,5.42,0,0,1-5.415-5.412v-9.174a5.42,5.42,0,0,1,5.415-5.412h9.171a5.42,5.42,0,0,1,5.415,5.412v9.174a5.42,5.42,0,0,1-5.415,5.412Zm-.883-10a5.468,5.468,0,1,0,5.469-5.468A5.473,5.473,0,0,0,13214.531,5585Zm9.453-5.793a1.615,1.615,0,1,0,1.616-1.617A1.619,1.619,0,0,0,13223.984,5579.205ZM13215.7,5585a4.3,4.3,0,1,1,4.3,4.3A4.3,4.3,0,0,1,13215.7,5585Zm9.453-5.793a.443.443,0,1,1,.444.445A.444.444,0,0,1,13225.156,5579.205Z" transform="translate(-13209.999 -5575.001)" />
</svg>
