<?xml version="1.0" encoding="utf-8"?>
<!-- Generator: Adobe Illustrator 23.0.6, SVG Export Plug-In . SVG Version: 6.00 Build 0)  -->
<svg version="1.1" id="Layer_1" xmlns="http://www.w3.org/2000/svg" xmlns:xlink="http://www.w3.org/1999/xlink" x="0px" y="0px"
	 viewBox="0 0 500 500" style="enable-background:new 0 0 500 500;" xml:space="preserve">
<path d="M250,0.99C112.7,0.99,1,112.7,1,250s111.7,249.01,249,249.01S499,387.3,499,250S387.3,0.99,250,0.99z M457.71,229.86h-97.34
	c-4.92-66.1-27.41-129.32-64.99-183.47C382.33,65.77,449.01,139.41,457.71,229.86z M179.82,270.14h140.32
	c-5.42,64.89-29.7,126.72-70.14,177.68C209.42,396.69,185.13,334.69,179.82,270.14z M179.86,229.86
	c5.42-64.89,29.7-126.72,70.14-177.68c40.58,51.14,64.87,113.13,70.18,177.68H179.86z M204.62,46.39
	c-37.45,53.99-59.93,117.07-64.95,183.47H42.29C50.99,139.41,117.67,65.76,204.62,46.39z M42.29,270.14h97.34
	c4.92,66.1,27.41,129.32,64.99,183.47C117.67,434.23,50.99,360.59,42.29,270.14z M295.38,453.61
	c37.45-53.99,59.93-117.07,64.95-183.47h97.38C449.01,360.59,382.33,434.24,295.38,453.61z"/>
</svg>
