<svg xmlns="http://www.w3.org/2000/svg" viewBox="0 0 20.044 20">
  <path d="M15.7-6080a.323.323,0,0,1-.322-.324v-6.285c0-1.76-.131-3.105-1.767-3.105-1.5,0-2.088.839-2.088,2.994v6.4a.324.324,0,0,1-.324.324H7.188a.323.323,0,0,1-.322-.324v-12.926a.323.323,0,0,1,.322-.324h3.854a.324.324,0,0,1,.324.324v.839A4.728,4.728,0,0,1,14.9-6093.9c4.532,0,5.144,3.276,5.144,6.48v7.091a.324.324,0,0,1-.324.324ZM.642-6080a.323.323,0,0,1-.324-.323v-12.928a.323.323,0,0,1,.324-.322H4.666a.323.323,0,0,1,.322.322v12.928a.322.322,0,0,1-.322.323ZM0-6097.348A2.657,2.657,0,0,1,2.656-6100a2.656,2.656,0,0,1,2.652,2.652,2.656,2.656,0,0,1-2.652,2.653A2.657,2.657,0,0,1,0-6097.348Z" transform="translate(0 6100)" />
</svg>
