<svg version="1.1" xmlns="http://www.w3.org/2000/svg" xmlns:xlink="http://www.w3.org/1999/xlink" x="0px" y="0px"
	 width="500px" height="500px" viewBox="0 0 500 500" enable-background="new 0 0 500 500" xml:space="preserve">
<g>
	<path fill="#187798" d="M455.232,206.604c-28.01-28.011-66-43.753-105.625-43.753c-39.623,0-77.613,15.742-105.654,43.753
		C215.941,234.63,200.2,272.62,200.2,312.229v174.312h99.601V312.229c0-13.188,5.223-25.852,14.56-35.203
		c9.337-9.337,22.03-14.574,35.247-14.574c13.189,0,25.852,5.237,35.189,14.574c9.337,9.352,14.589,22.016,14.589,35.203v174.312
		H499V312.229C499,272.62,483.244,234.63,455.232,206.604z"/>
	<rect x="1" y="187.756" fill="#187798" width="99.601" height="298.785"/>
	<path fill="#187798" d="M50.793,13.459C23.292,13.459,1,35.751,1,63.252c0,27.515,22.292,49.807,49.793,49.807
		c27.5,0,49.808-22.292,49.808-49.807C100.601,35.751,78.293,13.459,50.793,13.459z"/>
</g>
</svg>
