<svg xmlns="http://www.w3.org/2000/svg" viewBox="0 0 22 22">
  <path d="M8.591,15.464h2.921v1.718H8.591ZM5.37,15.25a1.074,1.074,0,1,0,1.074,1.074A1.074,1.074,0,0,0,5.37,15.25Zm11.9-5.241H8.591v1.718h8.677ZM5.37,9.794a1.074,1.074,0,1,0,1.074,1.074A1.074,1.074,0,0,0,5.37,9.794Zm11.9-4.94H8.591V6.572h8.677ZM5.37,4.639A1.074,1.074,0,1,0,6.443,5.713,1.074,1.074,0,0,0,5.37,4.639ZM1.718,19.417V2.577a.86.86,0,0,1,.859-.859H19.417a.86.86,0,0,1,.859.859v9.708h1.718V2.577A2.58,2.58,0,0,0,19.417,0H2.577A2.58,2.58,0,0,0,0,2.577V19.417a2.58,2.58,0,0,0,2.577,2.577H12.5V20.276H2.577A.86.86,0,0,1,1.718,19.417ZM20.785,22l-1.711-1.711A3.87,3.87,0,1,1,20.318,19.1L22,20.785ZM17.1,19.116a2.148,2.148,0,1,0-2.148-2.148A2.15,2.15,0,0,0,17.1,19.116Zm0,0" />
</svg>
