<svg xmlns="http://www.w3.org/2000/svg" viewBox="0 0 23.266 16.003">
  <path d="M11116.462,14219.99a1.159,1.159,0,0,1-.286-.029,1.2,1.2,0,0,1-.274-.078,1.113,1.113,0,0,1-.246-.139,1,1,0,0,1-.218-.183,1.439,1.439,0,0,1-.429-1.024,1.089,1.089,0,0,1,.029-.281,1.226,1.226,0,0,1,.078-.278,1.669,1.669,0,0,1,.14-.247.945.945,0,0,1,.182-.217,1.451,1.451,0,0,1,2.049,0,.945.945,0,0,1,.182.217,1.762,1.762,0,0,1,.14.247,1.558,1.558,0,0,1,.11.278,1.231,1.231,0,0,1,0,.281,1.274,1.274,0,0,1,0,.286,1.356,1.356,0,0,1-.11.3,1.076,1.076,0,0,1-.14.247,1.617,1.617,0,0,1-.4.4,1.325,1.325,0,0,1-.525.218.947.947,0,0,1-.139.011A.959.959,0,0,1,11116.462,14219.99Zm4.36,0a1.454,1.454,0,0,1,0-2.908h9.45a1.454,1.454,0,0,1,0,2.908Zm-4.36-6.545a1.1,1.1,0,0,1-.286-.028,1.309,1.309,0,0,1-.274-.078,1.117,1.117,0,0,1-.246-.14.971.971,0,0,1-.218-.182,1.415,1.415,0,0,1-.189-.218,1.756,1.756,0,0,1-.132-.246,1.6,1.6,0,0,1-.107-.561,1.453,1.453,0,0,1,2.478-1.024.971.971,0,0,1,.182.218,1.625,1.625,0,0,1,.14.253,1.412,1.412,0,0,1,.11.271,1.24,1.24,0,0,1,0,.282,1.24,1.24,0,0,1,0,.282,1.352,1.352,0,0,1-.11.307,1.158,1.158,0,0,1-.14.246,1.574,1.574,0,0,1-.4.4,1.171,1.171,0,0,1-.254.14,1.157,1.157,0,0,1-.271.078.829.829,0,0,1-.139.011A.844.844,0,0,1,11116.462,14213.448Zm4.36,0a1.452,1.452,0,0,1,0-2.9h15.992a1.452,1.452,0,0,1,0,2.9Zm-4.646-6.541a1.3,1.3,0,0,1-.3-.107,1.266,1.266,0,0,1-.246-.139,1.32,1.32,0,0,1-.218-.176,1.115,1.115,0,0,1-.183-.225,1.548,1.548,0,0,1-.139-.25,1.142,1.142,0,0,1-.079-.274,1.24,1.24,0,0,1,0-.282,1.453,1.453,0,0,1,2.478-1.023,1.456,1.456,0,0,1,.432,1.023,1.24,1.24,0,0,1,0,.282,1.414,1.414,0,0,1-.11.274,1.552,1.552,0,0,1-.14.25,1.22,1.22,0,0,1-.182.225,1.446,1.446,0,0,1-1.024.422.97.97,0,0,1-.143.011A1.059,1.059,0,0,1,11116.176,14206.907Zm4.646,0a1.455,1.455,0,0,1,0-2.909h14.54a1.455,1.455,0,0,1,0,2.909Z" transform="translate(-11115.001 -14203.998)"/>
</svg>
