<svg xmlns="http://www.w3.org/2000/svg" viewBox="0 0 134.4 52.1">
  <path  d="M80.3,51.7a1.216,1.216,0,0,1-.6-1,.976.976,0,0,1,.4-.9,1.778,1.778,0,0,1,1-.4h.5v.1h-.3a.6.6,0,0,0-.6.3,1.135,1.135,0,0,0-.3.8.973.973,0,0,0,.4.9,1.776,1.776,0,0,0,1,.4,3.771,3.771,0,0,0,2.5-1.1,21.789,21.789,0,0,0,3.1-4.3,6.391,6.391,0,0,1-1.5,1.4,2.659,2.659,0,0,1-1.3.5.519.519,0,0,1-.4-.2.763.763,0,0,1-.2-.5,1.091,1.091,0,0,1,.1-.5,2.215,2.215,0,0,1,.3-.5l1.033-1.522A1.635,1.635,0,0,1,85,45.4a2.893,2.893,0,0,1-.9.2,1.434,1.434,0,0,1-.7-.2c-.2-.1-.2-.3-.2-.6v-.3c0-.1.1-.2.1-.4a9.139,9.139,0,0,0-2,1.9,15.4,15.4,0,0,0-1.4,2.1l-.9.1.947-1.543a7.838,7.838,0,0,1-.847.743,4.754,4.754,0,0,1-2.4,1,.779.779,0,0,1-.7-.3,1.134,1.134,0,0,1-.3-.8,2.2,2.2,0,0,1,.4-1.3,5.729,5.729,0,0,1,.437-.642,1.96,1.96,0,0,1-.238.142,1.856,1.856,0,0,1-.7.2.753.753,0,0,1-.5-.1,1.38,1.38,0,0,1-.4-.3,3.1,3.1,0,0,1-.5,1,8.059,8.059,0,0,1-.9,1,8.29,8.29,0,0,1-1.2.8,2.653,2.653,0,0,1-1.054.3,2,2,0,0,0,.854-.3,7,7,0,0,0,1-.8,8.355,8.355,0,0,0,.8-1.2,4.953,4.953,0,0,0,.4-1.3c0-.1-.1-.2-.1-.3v-.2a.353.353,0,0,1,.4-.4.519.519,0,0,1,.4.2c.1.1.1.3.1.6V45c-.2-.1-.2,0-.3.1a.785.785,0,0,0,.4.4.905.905,0,0,0,.5.1,1.846,1.846,0,0,0,.7-.2,3.188,3.188,0,0,0,.7-.6l.085.084q.1-.092.216-.184a4.157,4.157,0,0,1,.986-.666c-.09.076-.185.165-.286.265a9.076,9.076,0,0,0-1.1,1.6,5.064,5.064,0,0,0,1.8-.8c.4-.3.7-.6.7-1a.367.367,0,0,0-.1-.3.421.421,0,0,0-.094-.08,2.041,2.041,0,0,1,.293-.02.751.751,0,0,1,.5.1.519.519,0,0,1,.2.4c0,.3-.2.6-.7.9a11.848,11.848,0,0,1-2.7.9,1.856,1.856,0,0,0-.2.7,1.269,1.269,0,0,0-.1.6.845.845,0,0,0,.2.6.764.764,0,0,0,.5.2,3.464,3.464,0,0,0,2-.9,8.3,8.3,0,0,0,1.2-1.117L81.7,43.8l.9-.1L81,46.2A11.994,11.994,0,0,1,82.1,45a14.987,14.987,0,0,1,1.3-1.1c.1-.2.3-.2.4-.3l.7.1c-.2.3-.3.5-.5.8a3.961,3.961,0,0,0-.2.6c0,.1,0,.3.1.3s.2.1.4.1a2.548,2.548,0,0,0,.7-.2,1.341,1.341,0,0,0,.7-.6l.034.034L86.3,43.9l1-.1c-.8,1-1.4,1.8-1.9,2.5a3.325,3.325,0,0,0-.7,1.4.367.367,0,0,0,.1.3h.4c.4,0,1-.4,1.7-1.2a19.54,19.54,0,0,0,2.2-3h1l-2.9,4.3A6.041,6.041,0,0,0,89.5,47a11.056,11.056,0,0,0,2.1-2.2l.1.1a9.713,9.713,0,0,1-2.2,2.3,6.443,6.443,0,0,1-2.4,1.1,8.434,8.434,0,0,1-2.4,2.8,5.343,5.343,0,0,1-2.9,1A2.408,2.408,0,0,1,80.3,51.7ZM0,39.8V34.9l10.4,9.6v5Zm23-.5.9,1.1L11.5,49Zm77.3,9a.766.766,0,0,1-.2-.5.6.6,0,0,1,.1-.4c.08-.08.1-.224.2-.38A6.26,6.26,0,0,1,99.3,48a1.858,1.858,0,0,1-1.1.4.605.605,0,0,1-.6-.3,1.444,1.444,0,0,1-.2-.7,2.6,2.6,0,0,1,.3-1.1c.037-.073.076-.146.12-.219A9.221,9.221,0,0,1,96.4,47.4a3.467,3.467,0,0,1-2,.9.6.6,0,0,1-.6-.3.734.734,0,0,1-.2-.6.6.6,0,0,1,.1-.4c.1-.2.1-.3.2-.4l1.6-2.5h-.7l.1-.1h.7l1-1.5.7-.2-1,1.6H98l-.1.1H96.2l-1.7,2.6-.3.6a1.091,1.091,0,0,0-.1.5.367.367,0,0,0,.1.3c.1.1.2.1.4.1a3.638,3.638,0,0,0,1.8-.9,10.3,10.3,0,0,0,2.2-2.4l.1.1c-.066.1-.132.2-.2.3l.1-.1a4.689,4.689,0,0,1,1.2-.9,3.557,3.557,0,0,0-1,1.1,3,3,0,0,0-.6,1.1,4.394,4.394,0,0,0-.2,1c0,.2,0,.3.1.4a.519.519,0,0,0,.4.2,2.538,2.538,0,0,0,.7-.2,4.933,4.933,0,0,0,.8-.7,6.054,6.054,0,0,0,1-1.4,5.029,5.029,0,0,0,.2-1.2.749.749,0,0,0-.1-.5,1.255,1.255,0,0,0-.108-.1H101a1.424,1.424,0,0,1,.6.2c-.2,0-.1.2,0,.5l.5-.7h.9c-.7,1-1.3,1.8-1.8,2.6a4.1,4.1,0,0,0-.7,1.5c0,.1,0,.2.1.2.1.1.1.1.2.1a3.122,3.122,0,0,0,1.5-.9c.54-.541,1.243-1.326,1.963-2.207L108,39.4h.8q-.45.6-1.2,1.8c-.5.8-1.5,2.2-2.9,4.4a8.747,8.747,0,0,0-.7,1.2,3.064,3.064,0,0,0-.2.8c0,.2,0,.4.1.4.1.1.2.1.4.1a1.617,1.617,0,0,0,1-.4,11.415,11.415,0,0,0,1.1-1.1,7.406,7.406,0,0,0,.7-1.2,4.689,4.689,0,0,0,.3-.9c0-.1-.1-.2-.1-.3V44c0-.1,0-.2.1-.2.1-.1.1-.1.2-.1a.519.519,0,0,1,.4.2,1.42,1.42,0,0,1,.2.6V45a.535.535,0,0,0,.3.4,1.142,1.142,0,0,0,1.287.006L113.5,39.5l1-.1-4.9,7.5c-.1.2-.2.4-.3.6a.755.755,0,0,0-.1.4c0,.1,0,.2.1.2a.352.352,0,0,0,.2.1,3.116,3.116,0,0,0,1.5-.9,13.808,13.808,0,0,0,2.1-2.5l.1.1c-.062.085-.123.169-.185.25a4.294,4.294,0,0,1,.484-.45,7.3,7.3,0,0,1,.779-.571q-.086.078-.178.17c-.4.5-.7,1-1.1,1.6a5.079,5.079,0,0,0,1.8-.8c.4-.3.7-.6.7-1a.367.367,0,0,0-.1-.3.6.6,0,0,0-.073-.067,1.982,1.982,0,0,1,.373-.033.749.749,0,0,1,.5.1.519.519,0,0,1,.2.4c0,.3-.2.6-.7.9-.8.2-1.6.6-2.7.9a1.842,1.842,0,0,0-.2.7,1.269,1.269,0,0,0-.1.6.845.845,0,0,0,.2.6.768.768,0,0,0,.5.2,3.461,3.461,0,0,0,2-.9,11.339,11.339,0,0,0,2.3-2.5l.1.1a12.309,12.309,0,0,1-2.4,2.6,4.755,4.755,0,0,1-2.4,1,.777.777,0,0,1-.7-.3,1.135,1.135,0,0,1-.3-.8,2.2,2.2,0,0,1,.4-1.3c.052-.087.105-.172.158-.254A19.937,19.937,0,0,1,111,47.5a3.1,3.1,0,0,1-1.7.9.683.683,0,0,1-.7-.7,1.091,1.091,0,0,1,.1-.5,5.73,5.73,0,0,1,.4-.7l.6-.953a1.857,1.857,0,0,1-.7.153.749.749,0,0,1-.5-.1c-.1-.1-.3-.2-.4-.3a3.12,3.12,0,0,1-.5,1,5.73,5.73,0,0,1-.7.8,7.66,7.66,0,0,1-1.3.9,2.653,2.653,0,0,1-1.2.3,1.133,1.133,0,0,1-.8-.3.907.907,0,0,1-.3-.7,2.9,2.9,0,0,1,.407-1.148c-.481.583-.933,1.074-1.307,1.448a2.913,2.913,0,0,1-1.6.9A.768.768,0,0,1,100.3,48.3Zm-29.272.1h0Zm.019,0h0ZM71,48.4h0Zm-.315-.038A1.318,1.318,0,0,0,71,48.4.731.731,0,0,1,70.685,48.362ZM65.8,48.1a1.134,1.134,0,0,1-.3-.8,2.2,2.2,0,0,1,.4-1.3A4.5,4.5,0,0,1,67,44.7a7.3,7.3,0,0,1,.778-.571c-.058.052-.116.109-.178.17a9.072,9.072,0,0,0-1.1,1.6,5.071,5.071,0,0,0,1.8-.8c.4-.3.7-.6.7-1a.367.367,0,0,0-.1-.3.6.6,0,0,0-.073-.067A1.965,1.965,0,0,1,69.2,43.7a.749.749,0,0,1,.5.1.517.517,0,0,1,.2.4c0,.3-.2.6-.7.9-.8.2-1.6.6-2.7.9a1.856,1.856,0,0,0-.2.7,1.269,1.269,0,0,0-.1.6.845.845,0,0,0,.2.6.763.763,0,0,0,.5.2,3.463,3.463,0,0,0,2-.9,11.359,11.359,0,0,0,2.3-2.5l.1.1a12.331,12.331,0,0,1-2.4,2.6,4.754,4.754,0,0,1-2.4,1A.778.778,0,0,1,65.8,48.1Zm4.4,0a.907.907,0,0,1-.3-.7,2.537,2.537,0,0,1,.2-.7,1.613,1.613,0,0,1,.4-.7l1.4-2h.9A22.168,22.168,0,0,0,71,46.5a3.4,3.4,0,0,0-.5,1.4c0,.2,0,.3.1.4a.312.312,0,0,0,.086.062A1.027,1.027,0,0,1,70.2,48.1Zm-10.483.182A3.372,3.372,0,0,0,61.2,47.4a7.5,7.5,0,0,0,.767-.772c-.222.264-.445.518-.667.772a2.46,2.46,0,0,1-1.5.9A.23.23,0,0,1,59.717,48.281ZM59,48.1a.84.84,0,0,1-.2-.6,3.776,3.776,0,0,1,1-1.9c.1-.1.1-.2.2-.2.3-.5.6-.8.6-1a.755.755,0,0,0,.1-.4c0-.1,0-.2-.1-.2-.1-.1-.1-.1-.2-.1a2.954,2.954,0,0,0-1.9,1.2c-.061.061-.121.124-.182.189A6.544,6.544,0,0,1,59.2,44.2a2.385,2.385,0,0,1,1.4-.6,1.421,1.421,0,0,1,.6.2.763.763,0,0,1,.2.5,2.862,2.862,0,0,1-.7,1.4c-.2.3-.4.5-.5.7a5.79,5.79,0,0,0-.7,1.1.9.9,0,0,0-.1.5c0,.1,0,.2.1.2a.667.667,0,0,1,.217.081,1.269,1.269,0,0,1-.217.019A.759.759,0,0,1,59,48.1ZM50.8,48a1.222,1.222,0,0,1-.3-.9,2.648,2.648,0,0,1,.5-1.4,4.663,4.663,0,0,1,1.4-1.4,4.075,4.075,0,0,1,.9-.5,3.109,3.109,0,0,1,.8-.2c.5,0,.8.4,1,1.3a2.151,2.151,0,0,0,.3.5.915.915,0,0,1-.4-.6,4.952,4.952,0,0,1-.4,1.3,3.13,3.13,0,0,1-.9,1.1,7.577,7.577,0,0,1-1.1.8,2.225,2.225,0,0,1-1,.3A.984.984,0,0,1,50.8,48Zm2.5-4.1a4.627,4.627,0,0,0-.7.7,6.56,6.56,0,0,0-1,1.5,3.82,3.82,0,0,0-.4,1.3,1.42,1.42,0,0,0,.2.6.4.4,0,0,0,.4.2,1.6,1.6,0,0,0,.8-.3,3.789,3.789,0,0,0,.9-.9,4.135,4.135,0,0,0,.7-1.3,4.528,4.528,0,0,0,.3-1.3.743.743,0,0,0-.1-.5.519.519,0,0,0-.4-.2A2.554,2.554,0,0,0,53.3,43.9Zm4.9-.1.9-.1L57.5,46h.08a19.34,19.34,0,0,0-1.28,2.1l-.9.1Zm4.274,2.205c-.172.224-.34.432-.508.623C62.136,46.427,62.305,46.221,62.474,46.005ZM63.4,44.7a15.994,15.994,0,0,1-.925,1.305C62.771,45.619,63.077,45.185,63.4,44.7ZM57.58,46a9.275,9.275,0,0,1,.738-.911c-.227.267-.464.571-.718.911Zm-1.53-.4a1.471,1.471,0,0,0,.65-.2,1.6,1.6,0,0,0,.9-.7,1.194,1.194,0,0,1-.7.7,1.87,1.87,0,0,1-.8.2Zm-.566-.157a1.342,1.342,0,0,0,.566.157H56A1.213,1.213,0,0,1,55.484,45.442ZM55.4,45.4l.084.042Zm45.3-1.6a.444.444,0,0,1,.292.1,2.678,2.678,0,0,0-1.192.3A1.626,1.626,0,0,1,100.7,43.8Zm14.4-.1c.139,0,.181,0,.227.033A2.727,2.727,0,0,0,114.6,44a1.328,1.328,0,0,0-.321.13A1.285,1.285,0,0,1,115.1,43.7Zm-46.5,0c.139,0,.181,0,.228.033A2.727,2.727,0,0,0,68.1,44a1.335,1.335,0,0,0-.322.13A1.287,1.287,0,0,1,68.6,43.7Zm10.3,0a.5.5,0,0,1,.206.02A2.578,2.578,0,0,0,78.3,44c-.039.01-.076.022-.113.034A1.144,1.144,0,0,1,78.9,43.7ZM0,33.2V28.3l10.4,9.6v5Zm23-.3.9,1.2L11.5,42.7Zm0-6.1.9,1.1L11.5,36.5ZM0,26.5V21.6l10.4,9.6v5ZM36.9,34a3.575,3.575,0,0,1-1.5-1l-.6-.9a4.653,4.653,0,0,1-.4-1.4c-.1-.5-.1-1.3-.2-2.2s-.1-2.1-.1-3.5V21.5c0-1.4,0-2.6.1-3.5a12.735,12.735,0,0,1,.2-2.2,3.9,3.9,0,0,1,.4-1.4l.6-.9a2.375,2.375,0,0,1,1.5-1,10.075,10.075,0,0,1,2.7-.3,10.075,10.075,0,0,1,2.7.3,3.567,3.567,0,0,1,1.5,1l.6.9a4.645,4.645,0,0,1,.4,1.4c.1.5.1,1.3.2,2.2s.1,2.1.1,3.5V25c0,1.4,0,2.6-.1,3.5a12.744,12.744,0,0,1-.2,2.2,3.907,3.907,0,0,1-.4,1.4l-.6.9a2.379,2.379,0,0,1-1.5,1,9.58,9.58,0,0,1-2.7.3A10.075,10.075,0,0,1,36.9,34Zm2-20.5c-.1.1-.2.1-.3.2a.923.923,0,0,0-.4.6,5.764,5.764,0,0,0-.1,1.5V30.5a6.23,6.23,0,0,0,.1,1.6,1.546,1.546,0,0,0,.4.6c0,.1.2.2.3.2.1.1.3.1.6.1.2,0,.4-.1.6-.1.2-.1.3-.1.4-.2a.917.917,0,0,0,.4-.6,6.612,6.612,0,0,0,.1-1.6V15.8a5.714,5.714,0,0,0-.1-1.5,1.541,1.541,0,0,0-.4-.6.519.519,0,0,0-.4-.2c-.1-.1-.3-.1-.6-.1A3.549,3.549,0,0,0,38.9,13.5ZM114.2,34a3.452,3.452,0,0,1-1.6-.8,3.228,3.228,0,0,1-.8-1.4,12.483,12.483,0,0,1-.2-2.1V12.5h4.1V29.6a4.272,4.272,0,0,0,.5,2.4,1.652,1.652,0,0,0,1.6.7,1.876,1.876,0,0,0,1.6-.7,4.947,4.947,0,0,0,.4-2.4V12.5h1.6V30a6.024,6.024,0,0,1-.3,2,2.881,2.881,0,0,1-.8,1.3,2.653,2.653,0,0,1-1.4.7,12.492,12.492,0,0,1-2.1.2A9.787,9.787,0,0,1,114.2,34ZM81,33.7a3.821,3.821,0,0,1-1.8-1.2,4.488,4.488,0,0,1-1-2.2,15.859,15.859,0,0,1-.3-3.4V20c0-1,.1-1.9.1-2.7a10.084,10.084,0,0,1,.2-1.9,4.953,4.953,0,0,1,.4-1.3,1.455,1.455,0,0,1,.6-.9,4.457,4.457,0,0,1,1.7-.8,18.388,18.388,0,0,1,2.6-.2,6.467,6.467,0,0,1,2.6.4,3.014,3.014,0,0,1,1.7.8,3.478,3.478,0,0,1,.6.9,3.993,3.993,0,0,1,.4,1.3,9.222,9.222,0,0,1,.2,1.9,21.812,21.812,0,0,1,.1,2.7v2.9c0,.5-.1.9-.1,1.2H82.1V28a14.065,14.065,0,0,0,.2,2.3,3.771,3.771,0,0,0,.5,1.4,1.776,1.776,0,0,0,.8.7,3.732,3.732,0,0,0,1.2.2,2.932,2.932,0,0,0,2.1-.6,2.659,2.659,0,0,0,.6-2v-.6c0-.1-.1-.3-.1-.4h1.2v.6a11.087,11.087,0,0,1-.2,1.9,3.219,3.219,0,0,1-.8,1.4,3.777,3.777,0,0,1-1.5.9,7.815,7.815,0,0,1-2.4.3A9.609,9.609,0,0,1,81,33.7Zm1.9-19.9c-.1,0-.2.1-.3.2a.918.918,0,0,0-.4.6,6.23,6.23,0,0,0-.1,1.6v6.6h3V16.2a5.137,5.137,0,0,0-.2-1.6,1.536,1.536,0,0,0-.4-.6.517.517,0,0,0-.4-.2c-.1-.1-.3-.1-.6-.1A3.531,3.531,0,0,0,82.9,13.8ZM130.3,34V15.1c0-.3-.2-.5-.6-.5a2.228,2.228,0,0,0-1,.3,6.726,6.726,0,0,0-1.1.7V34h-4.2V12.5h4.2v1.7a8.608,8.608,0,0,1,1.8-1.4,4.753,4.753,0,0,1,2.4-.6,2.94,2.94,0,0,1,1.9.7,2.492,2.492,0,0,1,.7,1.9V34Zm-.1,0h.1ZM97.8,34V15.1c0-.3-.2-.5-.6-.5a2.228,2.228,0,0,0-1,.3,6.687,6.687,0,0,0-1.1.7V34H90.9V12.5h4.2v1.7a8.608,8.608,0,0,1,1.8-1.4,4.75,4.75,0,0,1,2.4-.6,2.935,2.935,0,0,1,1.9.7,2.49,2.49,0,0,1,.7,1.9V34Zm-.1,0h.1ZM72.1,34V15.1c0-.3-.2-.5-.6-.5a2.231,2.231,0,0,0-1,.3c-.3.2-.7.4-1.1.7V34H65.2V15.1c0-.3-.2-.5-.6-.5a2.225,2.225,0,0,0-1,.3,6.732,6.732,0,0,0-1.1.7V34H58.3V12.5h4.2v1.7a8.655,8.655,0,0,1,1.8-1.4,4.756,4.756,0,0,1,2.4-.6,2.46,2.46,0,0,1,1.7.5,2.37,2.37,0,0,1,.9,1.5,13.318,13.318,0,0,1,1.9-1.4,4.756,4.756,0,0,1,2.4-.6,2.937,2.937,0,0,1,1.9.7,2.493,2.493,0,0,1,.7,1.9V34ZM46.3,34h-.1V32.7L52.4,14H50.1a2.447,2.447,0,0,0-2,.7,3.987,3.987,0,0,0-.6,2.5v.5H46.3V12.4H56.5v1.3l-6,18.7h2.3a2.443,2.443,0,0,0,2-.7,3.983,3.983,0,0,0,.6-2.5v-.5h1.2V34ZM23,20.6l.9,1.2L11.5,30.4ZM0,19.9V15l10.4,9.6v5Zm23-5.5.9,1.2L11.5,24.2ZM0,13.2V8.3l10.4,9.6v5ZM23,8.3l.9,1.2L11.5,18.1ZM2.7,2.5,4,1.9l6,13.8ZM17.6,1.2l1.3.6L12.4,15.4ZM10.4,0h1.4l-.7,15.1ZM40.6,11.2V8.5h2.7v2.7Zm-.1,0h.1Zm-4.7,0V8.5h2.7v2.7Z" />
</svg>
