<svg xmlns="http://www.w3.org/2000/svg" viewBox="0 0 30 27.425">
  <path d="M793.505,40c.194-.208.333-.355.343-.365a.456.456,0,0,0,0-.633,10.984,10.984,0,0,0-3.7-2.224l.009-.013.008-.009a.457.457,0,0,0-.055-.633c-2.159-1.863-5.546-2.622-6.811-2.852.061-.158.1-.276.124-.348a.654.654,0,0,0-.221-.651c-.773-.784-5.156-2.5-8.479-1.648a.452.452,0,0,0-.339.413v.014c-.115-.04-.218-.066-.321-.092v-.009l-.012,0-.006-.021,0-.009,0-.008,0-.008a1.049,1.049,0,0,0-.126-.374l-.333-.99.054.686c-.434-.295-1.2-.323-3.272-.137a13.9,13.9,0,0,0-4.645,1.2.469.469,0,0,0-.236.3c-.065.281-.606,2.916.4,8.806A61.838,61.838,0,0,0,768.8,51.117h0l-.133.043a.452.452,0,0,0-.309.394,13.816,13.816,0,0,0,.584,4.531.453.453,0,0,0,.239.282.439.439,0,0,0,.373.011c.308-.119,3.171-1.16,8.931-.769a61.588,61.588,0,0,1,9.345,1.268,2.5,2.5,0,0,0,.433.078h0c.44,0,.515-.353.7-1.206a22.017,22.017,0,0,1,1.005-3.535l0-.016.009-.019h0c.047-.109.1-.234.157-.378l.037-.091a45.244,45.244,0,0,1,2.054-4.373c.952-1.8,1.693-3.1,2.185-3.955l.061-.1c.654-1.136.808-1.415.808-1.67C795.282,41.4,795.265,41.1,793.505,40ZM769.252,51.932c.1-.03.193-.061.291-.09h.006c3.022-.915,7.765-1.616,10.478-1.205.861.181,1.726.386,2.57.61,2.283.608,3.744,1.069,4.712,1.375.669.212,1.094.344,1.406.4l0,.014h0c-.323,1.024-.518,1.917-.648,2.523-.03.147-.062.294-.09.417a62.448,62.448,0,0,0-9.433-1.278,24.872,24.872,0,0,0-8.851.668,13.829,13.829,0,0,1-.441-3.362Zm20.072-.546-.052.125c-.053.129-.1.246-.146.349v0c-.071.16-.115.248-.142.294-.207-.027-.821-.22-1.4-.4-.9-.286-2.414-.764-4.752-1.387-.995-.264-2.01-.491-3.019-.674-.1-.019-.2-.035-.3-.051h0l-.179-.03h-.008l-.168-.027v0c-2.746-.443-5.062-.469-5.3-.263l-.07.066v.084c0,.2.091.216,1.17.349h0a34.852,34.852,0,0,0-5.282,1.038,60.614,60.614,0,0,1-2.888-10.627,36.42,36.42,0,0,1-.586-6.147A13.655,13.655,0,0,1,766.333,32a13.641,13.641,0,0,1,4.115-1.011,9.393,9.393,0,0,1,2.671-.025,1.819,1.819,0,0,0,.049.459c.014.067.027.128.033.178.037.331.07.663.1,1l.041.412c.117,1.165.256,2.52.428,3.857.969,7.486,1.1,7.617,1.154,7.672a.226.226,0,0,0,.163.071.219.219,0,0,0,.084-.018c.09-.037.328-.138.287-1.748-.01-.331-.047-.818-.083-1.293l-.026-.331a47.694,47.694,0,0,1-.2-5.965c.069-1.27.166-2.1.225-2.591.07-.6.091-.784-.034-.909a.24.24,0,0,0-.084-.056l.015-.259a11.532,11.532,0,0,1,7.217,1.4c-.042.115-.1.275-.172.45h0l-.056.144-.1.168.03.012a40.459,40.459,0,0,0-2.262,7.423,41.283,41.283,0,0,0-.559,6.878,3.373,3.373,0,0,0,.31,1.659.236.236,0,0,0,.168.073h.009c.22-.008.221-.04.3-1.645a55.763,55.763,0,0,1,.663-6.8,39.145,39.145,0,0,1,2.142-7.071,16.032,16.032,0,0,1,6.212,2.408l-.03.04h0l-.084.114-.013.018-.118.161h0a25.5,25.5,0,0,0-2.872,5.227c-1.363,3.357-2.058,7.56-1.889,7.863l.048.081.083.015a.417.417,0,0,0,.071.008c.157,0,.214-.206.635-1.718a57.321,57.321,0,0,1,1.894-5.908,25.04,25.04,0,0,1,2.679-4.91,11.745,11.745,0,0,1,3.281,1.807c-.076.082-.176.193-.273.3h0l-.119.133a31.859,31.859,0,0,0-3.142,4.052,15.781,15.781,0,0,0-2.213,5.828l.04.095.088.025a.3.3,0,0,0,.075.012c.151,0,.238-.2.627-1.124a30.828,30.828,0,0,1,2.154-4.348,30.165,30.165,0,0,1,2.779-3.626,12.839,12.839,0,0,1,1.435,1c-.114.229-.381.694-.646,1.154-.5.873-1.259,2.192-2.255,4.076A45.516,45.516,0,0,0,789.325,51.385Zm-14.739-17.85-.04.566c-.036.493-.075,1.1-.107,1.722-.088-.942-.172-1.937-.222-2.74-.012-.188-.015-.381-.019-.577l.019.056-.027-.262c0-.122-.008-.241-.013-.362.235.088.421.181.426.184a.454.454,0,0,0,.136.029A9.442,9.442,0,0,0,774.586,33.535Z" transform="translate(-765.28 -29.532)" />
</svg>
