<svg xmlns="http://www.w3.org/2000/svg" viewBox="0 0 500 500"><path class="st0" d="M434.44 24.06H65.56C29.96 24.06 1 53.02 1 88.61v138.33c0 137.31 111.69 249 249 249s249-111.69 249-249V88.61c0-35.59-28.96-64.55-64.56-64.55zm27.67 202.88c0 116.95-95.16 212.11-212.11 212.11S37.89 343.9 37.89 226.94V88.61c0-15.26 12.41-27.67 27.67-27.67h368.89c15.26 0 27.67 12.41 27.67 27.67v138.33z"/><path class="st0" d="M329.18 190.85L250 270.03l-79.18-79.18c-7.2-7.2-18.88-7.2-26.08 0-7.2 7.2-7.2 18.88 0 26.08l92.22 92.22c3.6 3.6 8.32 5.4 13.04 5.4s9.44-1.8 13.04-5.4l92.22-92.22c7.2-7.2 7.2-18.88 0-26.08-7.2-7.21-18.87-7.21-26.08 0z"/></svg>