<svg xmlns="http://www.w3.org/2000/svg" viewBox="0 0 45 56"><g transform="translate(-7.105 -1.474)"><path d="M34.046,37.314c-.829-.707-1.658-1.592-2.605-2.535a15.189,15.189,0,0,1-1.954-2.771c1.125-3.832,1.658-7.486.474-9.255a2.714,2.714,0,0,0-2.428-1.238,2.5,2.5,0,0,0-2.487,1.533c-.947,2.122.474,6.013,2.191,9.2-.474,1.533-1.066,3.183-1.776,5.011-.414,1-.888,2-1.362,2.947-4.855,1.886-7.816,4.008-8.23,6.013a2.345,2.345,0,0,0,.947,2.417,2.666,2.666,0,0,0,1.6.589,2.984,2.984,0,0,0,.711-.118c2.25-.589,4.678-3.891,6.454-7.251a33.73,33.73,0,0,1,3.671-1.179q2.4-.707,4.263-1.061c2.309,1.827,4.263,2.829,5.98,2.829a3.925,3.925,0,0,0,3.138-1.3,2.116,2.116,0,0,0,.592-2.712C42.158,36.783,38.9,36.429,34.046,37.314ZM18.533,47.04a.588.588,0,0,1-.474-.059c-.237-.177-.237-.295-.178-.413.118-.707,1.48-2,4.441-3.419C20.9,45.272,19.48,46.8,18.533,47.04Zm8.408-23.166c.059-.118.118-.295.592-.295a.889.889,0,0,1,.711.295c.533.766.474,2.712-.178,5.305C27.059,26.939,26.526,24.817,26.941,23.874ZM28.6,38.611l-1.776.531c.178-.413.355-.825.533-1.179.414-1.12.888-2.24,1.3-3.419a14.723,14.723,0,0,0,1.3,1.651c.533.589,1.066,1.12,1.6,1.651C30.612,38.08,29.605,38.316,28.6,38.611Zm12.493,1.061a1.984,1.984,0,0,1-1.6.648,6.119,6.119,0,0,1-3.2-1.238C39.73,38.611,41.684,38.964,41.092,39.672Z"/><path d="M50.8,15.68,37.836,2.771a4.414,4.414,0,0,0-3.079-1.3H11.487a4.31,4.31,0,0,0-3.079,1.3,4.272,4.272,0,0,0-1.3,3.065V53.112a4.362,4.362,0,0,0,4.382,4.362H47.724a4.362,4.362,0,0,0,4.382-4.362V18.745A4.375,4.375,0,0,0,50.8,15.68Zm-2.487,1.061H38.724A1.967,1.967,0,0,1,36.77,14.8V5.305Zm-.592,38.2H11.487a1.841,1.841,0,0,1-1.836-1.827V5.836a1.816,1.816,0,0,1,1.836-1.827H34.224V14.8a4.488,4.488,0,0,0,4.5,4.48H49.559V53.112A1.841,1.841,0,0,1,47.724,54.939Z"/></g></svg>