<svg version="1.1" xmlns="http://www.w3.org/2000/svg" xmlns:xlink="http://www.w3.org/1999/xlink" x="0px" y="0px"
	 viewBox="0 0 500 500" style="enable-background:new 0 0 500 500;" xml:space="preserve">
<g>
	<path d="M498.8,265.9L498.8,265.9C485.2,121.5,393.4,25.1,247.2,1.9c-23.8-5-30.6,33.2-5.1,36.5
		C369.6,60,447.8,143,461.4,269.2C463.1,294.1,502.2,289.1,498.8,265.9z"/>
	<path d="M466.4,365.5l-66.3-28.2c-44.1-14.9-73.1,28.2-88.4,36.5c-79.8-29.9-163.1-116.2-188.6-197.6
		c10.2-13.3,57.8-38.2,44.1-83l-23.8-66.4C124.8-23,48.3,13.5,36.4,23.4C22.8,35.1,9.2,46.7,5.8,65
		c-44.1,177.7,226.1,461.5,411.3,431.7c17.1-4.1,32.5-13.4,44.1-26.6C473.2,458.4,515.7,387,466.4,365.5z"/>
	<path d="M247.2,194.5L247.2,194.5c27.2,0,56.1,31.5,56.1,58.1c0,24.9,37.4,24.9,39.1,0c0-48.1-44.2-93-93.5-96.3
		c-0.2,0-0.4,0-0.6,0c-10.6-0.3-19.3,8-19.6,18.6C228.3,185.4,236.6,194.2,247.2,194.5z"/>
	<path d="M381.5,259.3c1.7,24.9,40.8,23.2,39.1-1.7v-0.1c-3.2-44.2-21.9-85.9-52.7-117.8
		c-30.5-33.6-72.2-54.8-117.3-59.8c-0.6-0.1-1.2-0.2-1.8-0.2c-10.2-0.9-19.1,6.6-20,16.7c-0.9,10.2,6.6,19.1,16.7,20
		C318.5,126.7,374.8,185.9,381.5,259.3z"/>
</g>
</svg>