<svg version="1.1" id="Layer_1" xmlns="http://www.w3.org/2000/svg" xmlns:xlink="http://www.w3.org/1999/xlink" x="0px" y="0px"
	 viewBox="0 0 500 500" style="enable-background:new 0 0 500 500;" xml:space="preserve">

<g>
	<path  d="M322.97,284.48c-5.68,1.58-8.99,7.48-7.4,13.15c4.42,15.79,1.07,32.99-8.96,45.99
		c-8.53,11.07-20.86,18.17-34.73,19.97c-13.82,1.81-27.6-1.91-38.68-10.44l-41.6-32.04l32.89-42.7c3.6-4.67,2.73-11.37-1.94-14.96
		c-4.67-3.6-11.37-2.72-14.97,1.95l-32.89,42.7l-41.6-32.04c-11.08-8.53-18.17-20.86-19.97-34.73c-1.8-13.87,1.91-27.61,10.44-38.68
		c16.53-21.45,46.31-26.78,69.25-12.41c5,3.13,11.59,1.62,14.71-3.38c3.13-5,1.61-11.58-3.38-14.71
		c-32.3-20.22-74.2-12.71-97.48,17.48c-12.01,15.59-17.23,34.93-14.69,54.45c2.54,19.52,12.52,36.88,28.11,48.89l100.12,77.11
		c13.37,10.3,29.18,15.28,44.88,15.28c22.1,0,43.97-9.88,58.46-28.69c14.12-18.31,18.83-42.52,12.61-64.77
		C334.53,286.21,328.66,282.86,322.97,284.48z"/>
	<path  d="M143.99,204.88c-4.67-3.6-11.37-2.72-14.97,1.96c-15.25,19.85-11.54,48.43,8.27,63.74
		c1.94,1.5,4.24,2.22,6.52,2.22c3.19,0,6.35-1.42,8.45-4.15c3.6-4.66,2.74-11.37-1.92-14.97c-10.52-8.13-12.49-23.31-4.39-33.84
		C149.55,215.17,148.67,208.47,143.99,204.88z"/>
	<path  d="M273.05,223.88c2.73,0,5.47-1.04,7.55-3.13l56.23-56.28c4.16-4.17,4.16-10.93-0.01-15.09
		c-4.17-4.16-10.93-4.17-15.1,0.01l-56.23,56.28c-4.16,4.17-4.16,10.93,0.01,15.09C267.58,222.83,270.31,223.88,273.05,223.88z"/>
	<path  d="M393.3,160.5c-0.05-0.18-0.14-0.34-0.2-0.52c-4.55-16.23-18.79-28.37-40.23-34.18
		c-19.63-5.33-43.47-4.79-67.11,1.51c-32.69,8.71-60.24,27.53-71.69,48.73c-5.98,10.05-7.81,21.86-5.05,33.56
		c0,0.01,0,0.01,0.01,0.02l11.42,42.84c4.13,15.51,18.34,26.77,40.02,31.69c7.85,1.79,16.41,2.67,25.39,2.67
		c13.07,0,27.02-1.88,40.95-5.59c51.65-13.77,85.89-47.98,77.92-77.9L393.3,160.5z M232.63,186.59
		c8.83-16.33,31.84-31.5,58.62-38.65c11.12-2.96,22.18-4.45,32.56-4.45c8.37,0,16.31,0.97,23.48,2.91
		c13.81,3.75,23.06,10.88,25.37,19.59c0.01,0,0.01,0,0.01,0.01c2.32,8.71-2.15,19.51-12.27,29.63
		c-11.76,11.77-29.28,21.19-49.36,26.54c-20.07,5.35-39.96,5.9-56.03,1.54c-13.8-3.74-23.04-10.87-25.29-19.26l-0.01-0.04
		C228.32,198.44,229.28,192.24,232.63,186.59z M321.3,260.62c-20.22,5.38-40.14,6.36-56.11,2.73c-13.37-3.04-22.16-9.01-24.13-16.38
		l-1.63-6.13c3.16,1.3,6.44,2.51,10.01,3.47c8.94,2.42,18.76,3.63,29.04,3.63c12.28,0,25.21-1.72,38.07-5.16
		c23.64-6.3,44.58-17.69,58.95-32.08c2.62-2.62,4.87-5.3,6.97-8.01l1.63,6.14C388.21,224.32,363.44,249.39,321.3,260.62z"/>
	<path  d="M498.93,252.84c0.01-0.95,0.07-1.89,0.07-2.84C499,112.7,387.3,1,250,1S1,112.7,1,250
		c0,0.95,0.06,1.89,0.07,2.84C1.06,253.08,1,253.31,1,253.56c0,0.41,0.08,0.8,0.12,1.2C3.67,389.86,114.3,499,250,499
		s246.33-109.14,248.88-244.25c0.05-0.4,0.12-0.79,0.12-1.2C499,253.31,498.94,253.08,498.93,252.84z M260.67,477.39v-42.41
		c0-5.89-4.78-10.67-10.67-10.67s-10.67,4.78-10.67,10.67v42.41c-115.86-5.38-209.34-97.76-216.5-213.16h38.64
		c5.89,0,10.67-4.78,10.67-10.67c0-5.89-4.78-10.67-10.67-10.67H22.52C26.19,124.19,121.09,28.1,239.33,22.61v42.41
		c0,5.89,4.78,10.67,10.67,10.67s10.67-4.78,10.67-10.67V22.61C378.9,28.1,473.81,124.19,477.48,242.88h-38.95
		c-5.89,0-10.67,4.78-10.67,10.67c0,5.9,4.78,10.67,10.67,10.67h38.64C470.01,379.63,376.53,472.01,260.67,477.39z"/>
</g>
</svg>
