<svg xmlns="http://www.w3.org/2000/svg" viewBox="0 0 48 48">
  <path  d="M2699.841-4752.441l-6.721-6.719a20.918,20.918,0,0,1-11.52,3.36,21.511,21.511,0,0,1-21.6-21.6,21.511,21.511,0,0,1,21.6-21.6,21.51,21.51,0,0,1,21.6,21.6,20.931,20.931,0,0,1-3.359,11.52l6.719,6.719a4.64,4.64,0,0,1,0,6.719,4.736,4.736,0,0,1-3.36,1.44A4.733,4.733,0,0,1,2699.841-4752.441ZM2664.8-4777.4a16.7,16.7,0,0,0,16.8,16.8,16.849,16.849,0,0,0,16.8-16.8,16.7,16.7,0,0,0-16.8-16.8A16.7,16.7,0,0,0,2664.8-4777.4Zm14.4,9.6v-7.2H2672a2.268,2.268,0,0,1-2.4-2.4,2.4,2.4,0,0,1,2.4-2.4h7.2v-7.2a2.4,2.4,0,0,1,2.4-2.4,2.269,2.269,0,0,1,2.4,2.4v7.2h7.2a2.4,2.4,0,0,1,2.4,2.4,2.268,2.268,0,0,1-2.4,2.4H2684v7.2a2.269,2.269,0,0,1-2.4,2.4A2.268,2.268,0,0,1,2679.2-4767.8Z" transform="translate(-2660 4799)" />
</svg>
