<svg version="1.1" xmlns="http://www.w3.org/2000/svg" xmlns:xlink="http://www.w3.org/1999/xlink" x="0px" y="0px"
	 viewBox="0 0 500 500" style="enable-background:new 0 0 500 500;" xml:space="preserve">
<path  d="M467.42,126.93c-0.36-0.95-0.44-1.95-0.96-2.85c-0.67-1.16-1.68-1.94-2.55-2.89
	c-5.38-7.94-12.44-14.78-21-19.72L282.17,9.62c-19.88-11.5-44.52-11.47-64.26-0.04L57.02,101.52c-8.52,4.92-15.54,11.74-20.91,19.64
	c-0.87,0.96-1.9,1.75-2.58,2.92c-0.54,0.93-0.63,1.96-0.99,2.93c-4.89,9.16-7.68,19.46-7.69,30.16v183.81
	c0.03,22.88,12.35,44.2,32.23,55.69l160.74,91.86c7.32,4.22,15.29,6.86,23.43,7.97c2.63,1.46,5.51,2.51,8.73,2.51
	c3.22,0,6.09-1.05,8.72-2.5c8.13-1.1,16.09-3.74,23.38-7.95l160.88-91.93c19.81-11.45,32.14-32.77,32.16-55.66v-0.02V157.15
	C475.13,146.43,472.33,136.11,467.42,126.93z M236.21,41.44c4.24-2.45,9-3.67,13.77-3.67c4.78,0,9.57,1.24,13.87,3.72l155.28,88.73
	L250,228.05L80.88,130.22L236.21,41.44z M75.4,364.79c-8.49-4.9-13.77-14.03-13.78-23.83V161.54l170,98.33v194.18L75.4,364.79z
	 M424.67,364.75l-156.3,89.3V259.88l170.01-98.33v179.39C438.36,350.74,433.09,359.89,424.67,364.75z"/>
</svg>
