<svg version="1.1" xmlns="http://www.w3.org/2000/svg" xmlns:xlink="http://www.w3.org/1999/xlink" x="0px" y="0px"
	 viewBox="0 0 500 500" style="enable-background:new 0 0 500 500;" xml:space="preserve">
<path d="M498.22,246.19c-0.17-0.4-0.5-0.7-0.71-1.07c-0.42-0.72-0.79-1.48-1.39-2.08L344.05,90.97
	c-3.85-3.85-10.09-3.85-13.94,0s-3.85,10.09,0,13.94l135.24,135.24H10.86c-5.44,0-9.86,4.42-9.86,9.86s4.42,9.86,9.86,9.86h454.49
	L330.11,395.09c-3.85,3.85-3.85,10.09,0,13.94c1.93,1.93,4.44,2.89,6.97,2.89c2.53,0,5.04-0.96,6.97-2.89l152.07-152.05
	c0.6-0.6,0.97-1.36,1.39-2.08c0.22-0.37,0.55-0.67,0.71-1.07c0.51-1.2,0.78-2.5,0.78-3.82C499,248.68,498.72,247.39,498.22,246.19z"
	/>
</svg>
