<?xml version="1.0" encoding="utf-8"?>
<!-- Generator: Adobe Illustrator 23.0.6, SVG Export Plug-In . SVG Version: 6.00 Build 0)  -->
<svg version="1.1" id="Layer_1" xmlns="http://www.w3.org/2000/svg" xmlns:xlink="http://www.w3.org/1999/xlink" x="0px" y="0px"
	 viewBox="0 0 500 500" style="enable-background:new 0 0 500 500;" xml:space="preserve">
<path d="M491.71,456.49l-91.68-91.68c30.7-38.35,49.18-86.88,49.18-139.71C449.2,101.54,348.67,1,225.1,1C101.53,1,1,101.54,1,225.1
	s100.53,224.1,224.1,224.1c52.83,0,101.36-18.48,139.72-49.18l91.68,91.68c4.86,4.86,11.22,7.29,17.6,7.29
	c6.38,0,12.74-2.43,17.6-7.29C501.43,481.97,501.43,466.22,491.71,456.49z M348.71,347.83c-0.16,0.15-0.37,0.19-0.53,0.35
	s-0.2,0.37-0.35,0.53c-31.53,31.3-74.9,50.69-122.73,50.69c-96.11,0-174.3-78.18-174.3-174.3c0-96.11,78.19-174.3,174.3-174.3
	S399.4,128.99,399.4,225.1C399.4,272.93,380.01,316.3,348.71,347.83z"/>
</svg>
