<?xml version="1.0" encoding="utf-8"?>
<!-- Generator: Adobe Illustrator 23.0.6, SVG Export Plug-In . SVG Version: 6.00 Build 0)  -->
<svg version="1.1" id="Layer_1" xmlns="http://www.w3.org/2000/svg" xmlns:xlink="http://www.w3.org/1999/xlink" x="0px" y="0px"
	 viewBox="0 0 500 500" style="enable-background:new 0 0 500 500;" xml:space="preserve">
<g>
	<path d="M474.66,105.53c-0.3-0.77-0.74-1.42-1.12-2.15c-0.49-0.93-0.82-1.94-1.46-2.79L403.42,9.05C399.62,3.99,393.66,1,387.32,1
		H112.69c-6.34,0-12.31,2.99-16.11,8.05L27.93,100.6c-0.63,0.84-0.96,1.85-1.45,2.77c-0.39,0.73-0.83,1.38-1.13,2.16
		c-0.87,2.29-1.44,4.68-1.44,7.15V433.1c0,36.35,29.57,65.9,65.91,65.9H410.2c36.35,0,65.9-29.55,65.9-65.9V112.68
		C476.11,110.21,475.54,107.82,474.66,105.53z M122.76,41.28h254.49l38.45,51.26H84.32L122.76,41.28z M410.2,458.74H89.81
		c-14.13,0-25.63-11.51-25.63-25.64V132.83h371.66V433.1C435.84,447.22,424.33,458.74,410.2,458.74z"/>
	<path d="M341.54,184.09c-11.12,0-20.13,9.02-20.13,20.14c0,39.37-32.04,71.4-71.41,71.4s-71.39-32.03-71.39-71.4
		c0-11.12-9.02-20.14-20.14-20.14c-11.12,0-20.14,9.02-20.14,20.14c0,61.59,50.1,111.68,111.68,111.68s111.68-50.1,111.68-111.68
		C361.68,193.11,352.66,184.09,341.54,184.09z"/>
</g>
</svg>
