<svg version="1.1" id="Layer_1" xmlns="http://www.w3.org/2000/svg" xmlns:xlink="http://www.w3.org/1999/xlink" x="0px" y="0px"
	 viewBox="0 0 500 500" style="enable-background:new 0 0 500 500;" xml:space="preserve">
<g>
	<path d="M499,270.79c0-5.43-4.41-9.84-9.84-9.84h-84.98c-36.61-0.54-72.95,4.64-107.94,15.4c-5.19,1.59-8.11,7.09-6.51,12.29
		c1.3,4.23,5.19,6.95,9.39,6.95c0.96,0,1.93-0.14,2.89-0.44c32.88-10.09,67.07-15,101.53-14.53
		c-19.55,10.31-39.51,24.17-57.56,40.51c-4.03,3.65-4.34,9.87-0.69,13.9c1.95,2.15,4.62,3.23,7.29,3.23c2.36,0,4.72-0.84,6.6-2.54
		c41.79-37.84,85.79-55.08,108.98-55.08h8.5c-27.01,100.67-126.24,177.9-231.37,177.9c-102.45,0-193.15-72.6-221.17-174.69
		c38.49,14.84,123.56,79.24,172.35,152.51c1.9,2.85,5.01,4.39,8.2,4.39c1.87,0,3.77-0.53,5.44-1.65c4.52-3.02,5.74-9.12,2.73-13.64
		c-34.75-52.2-89.88-103.66-135.9-134.76c71.4,19.58,154.29,66.39,202.04,128.46c1.93,2.52,4.85,3.84,7.8,3.84
		c2.09,0,4.2-0.67,5.99-2.04c4.3-3.31,5.11-9.48,1.79-13.79c-45.21-58.77-116.84-102.83-184.08-126.54h27.16
		c81.36,0,148.35,35.6,217.21,115.43c1.95,2.25,4.69,3.41,7.45,3.41c2.27,0,4.56-0.79,6.42-2.39c4.12-3.55,4.57-9.76,1.02-13.87
		c-71.95-83.41-145.7-122.26-232.1-122.26H10.87c-0.54,0-1.1,0.07-1.65,0.16c-0.14,0.02-0.28,0.02-0.42,0.05c0,0,0,0,0,0
		c-0.04,0.01-0.07,0.02-0.1,0.03c-0.61,0.13-1.2,0.32-1.76,0.56c-0.27,0.12-0.51,0.28-0.76,0.41c-0.31,0.16-0.62,0.31-0.91,0.5
		c-0.29,0.2-0.55,0.44-0.81,0.67c-0.21,0.18-0.44,0.34-0.64,0.54c-0.23,0.24-0.42,0.51-0.63,0.76c-0.19,0.24-0.4,0.46-0.57,0.71
		c-0.17,0.26-0.3,0.55-0.45,0.82c-0.15,0.28-0.32,0.55-0.45,0.85c-0.14,0.35-0.23,0.72-0.34,1.08c-0.07,0.25-0.17,0.48-0.22,0.74
		c-0.21,1.04-0.21,2.13-0.07,3.23c0.03,0.24,0.03,0.49,0.08,0.72c0,0,0,0.01,0,0.01c24.76,119.02,127.42,205.41,244.11,205.41
		c118.17,0,229.5-90.19,253.48-205.34C498.91,272.21,499,271.51,499,270.79z"/>
	<path d="M249.98,93.44c5.43,0,9.84-4.4,9.84-9.84v-52c0-5.43-4.4-9.84-9.84-9.84s-9.84,4.4-9.84,9.84v52
		C240.15,89.04,244.55,93.44,249.98,93.44z"/>
	<path d="M188.73,89.24c1.18,4.4,5.15,7.29,9.49,7.29c0.84,0,1.7-0.11,2.55-0.34c5.25-1.41,8.36-6.8,6.95-12.04L196,40.4
		c-1.4-5.25-6.8-8.36-12.04-6.95c-5.25,1.41-8.36,6.8-6.95,12.04L188.73,89.24z"/>
	<path d="M142.93,110.99c1.82,3.16,5.13,4.92,8.53,4.92c1.67,0,3.36-0.43,4.91-1.32c4.7-2.72,6.32-8.73,3.6-13.43l-22.65-39.22
		c-2.71-4.71-8.72-6.32-13.43-3.6c-4.7,2.72-6.32,8.73-3.6,13.43L142.93,110.99z"/>
	<path d="M104.32,143.85c1.92,1.92,4.44,2.88,6.95,2.88c2.52,0,5.04-0.96,6.95-2.88c3.84-3.84,3.84-10.07,0-13.91L86.2,97.92
		c-3.84-3.84-10.07-3.84-13.91,0c-3.84,3.84-3.84,10.07,0,13.91L104.32,143.85z"/>
	<path d="M36.31,162.95l39.23,22.64c1.55,0.89,3.24,1.32,4.91,1.32c3.4,0,6.71-1.77,8.53-4.92c2.72-4.71,1.1-10.72-3.6-13.44
		l-39.23-22.64c-4.7-2.71-10.72-1.1-13.44,3.6C29.99,154.21,31.6,160.23,36.31,162.95z"/>
	<path d="M14.78,221.63l43.76,11.72c0.85,0.23,1.71,0.34,2.55,0.34c4.34,0,8.32-2.9,9.49-7.29c1.41-5.25-1.71-10.64-6.95-12.04
		l-43.76-11.72c-5.25-1.42-10.64,1.71-12.04,6.95C6.42,214.83,9.54,220.22,14.78,221.63z"/>
	<path d="M296.08,96.2c0.86,0.23,1.71,0.34,2.55,0.34c4.34,0,8.32-2.9,9.5-7.29l11.72-43.75c1.4-5.25-1.71-10.64-6.95-12.04
		c-5.24-1.4-10.64,1.71-12.05,6.95l-11.72,43.75C287.72,89.4,290.83,94.79,296.08,96.2z"/>
	<path d="M340.49,114.59c1.55,0.9,3.24,1.32,4.91,1.32c3.39,0,6.7-1.76,8.52-4.92l22.65-39.22c2.72-4.7,1.11-10.72-3.6-13.43
		c-4.69-2.72-10.72-1.11-13.43,3.6l-22.65,39.22C334.17,105.86,335.78,111.88,340.49,114.59z"/>
	<path d="M378.62,143.85c1.92,1.92,4.44,2.88,6.95,2.88s5.03-0.96,6.95-2.88l32.03-32.03c3.84-3.84,3.84-10.07,0-13.91
		c-3.84-3.84-10.07-3.84-13.91,0l-32.03,32.03C374.78,133.78,374.78,140.01,378.62,143.85z"/>
	<path d="M407.88,181.99c1.82,3.15,5.13,4.92,8.52,4.92c1.67,0,3.36-0.43,4.91-1.32l39.23-22.64c4.71-2.72,6.31-8.73,3.6-13.44
		c-2.72-4.71-8.74-6.31-13.43-3.6l-39.23,22.64C406.77,171.27,405.17,177.28,407.88,181.99z"/>
	<path d="M426.27,226.39c1.18,4.39,5.15,7.29,9.5,7.29c0.85,0,1.7-0.11,2.55-0.34l43.75-11.72c5.25-1.4,8.36-6.8,6.96-12.04
		c-1.41-5.25-6.82-8.36-12.04-6.95l-43.75,11.72C427.98,215.75,424.87,221.14,426.27,226.39z"/>
	<path d="M90.13,226.56c-1.45,5.23,1.61,10.66,6.85,12.11c5.21,1.44,10.66-1.62,12.11-6.85c10.44-37.63,34.92-68.95,68.91-88.18
		c34-19.23,73.45-24.07,111.08-13.62c49.15,13.64,88.16,52.65,101.8,101.8c1.21,4.36,5.16,7.21,9.47,7.21
		c0.87,0,1.75-0.12,2.64-0.36c5.23-1.45,8.3-6.87,6.85-12.11c-15.48-55.77-59.73-100.02-115.49-115.5
		c-42.69-11.86-87.46-6.36-126.03,15.45C129.74,148.33,101.98,183.86,90.13,226.56z"/>
</g>
</svg>
