<svg xmlns="http://www.w3.org/2000/svg" viewBox="0 0 500 500"><path d="M250 127.61c-67.49 0-122.39 54.9-122.39 122.39S182.51 372.39 250 372.39 372.39 317.49 372.39 250 317.49 127.61 250 127.61zm0 211.02c-48.86 0-88.63-39.76-88.63-88.63s39.76-88.63 88.63-88.63 88.63 39.76 88.63 88.63-39.77 88.63-88.63 88.63zM250 76.97c9.33 0 16.88-7.55 16.88-16.88v-42.2C266.88 8.55 259.33 1 250 1s-16.88 7.55-16.88 16.88v42.2c0 9.34 7.55 16.89 16.88 16.89zM250 423.03c-9.33 0-16.88 7.55-16.88 16.88v42.2c0 9.33 7.55 16.88 16.88 16.88s16.88-7.55 16.88-16.88v-42.2c0-9.33-7.55-16.88-16.88-16.88zM103.85 127.73c3.3 3.3 7.62 4.95 11.94 4.95s8.64-1.65 11.94-4.95c6.59-6.59 6.59-17.28 0-23.87L97.77 73.88c-6.59-6.59-17.28-6.59-23.87 0s-6.59 17.28 0 23.87l29.95 29.98zM396.15 372.26c-6.59-6.59-17.28-6.59-23.87 0s-6.59 17.28 0 23.87l29.97 29.97c3.3 3.3 7.62 4.95 11.94 4.95 4.32 0 8.64-1.65 11.94-4.95 6.59-6.59 6.59-17.28 0-23.87l-29.98-29.97zM76.97 250c0-9.33-7.55-16.88-16.88-16.88h-42.2C8.55 233.12 1 240.67 1 250s7.55 16.88 16.88 16.88h42.2c9.34 0 16.89-7.55 16.89-16.88zM482.12 233.12h-42.2c-9.33 0-16.88 7.55-16.88 16.88s7.55 16.88 16.88 16.88h42.2c9.33 0 16.88-7.55 16.88-16.88s-7.55-16.88-16.88-16.88zM103.85 372.26L73.9 402.23c-6.59 6.59-6.59 17.28 0 23.87 3.3 3.3 7.62 4.95 11.94 4.95 4.32 0 8.64-1.65 11.94-4.95l29.95-29.97c6.59-6.59 6.59-17.28 0-23.87-6.6-6.6-17.28-6.6-23.88 0zM384.21 132.67c4.32 0 8.64-1.65 11.94-4.95l29.97-29.97c6.59-6.59 6.59-17.28 0-23.87s-17.28-6.59-23.87 0l-29.97 29.97c-6.59 6.59-6.59 17.28 0 23.87 3.29 3.3 7.61 4.95 11.93 4.95z"/></svg>