<svg xmlns="http://www.w3.org/2000/svg"  viewBox="0 0 23.069 23.069">
  <path  d="M542.691,5598.07a2.694,2.694,0,0,1-2.69-2.692v-1.539a.384.384,0,0,1,.384-.383h21.567a1.118,1.118,0,0,1,0,2.236c-.034,0-.067,0-.1,0l-2.28-.208a1.633,1.633,0,0,1-1.448-1.256h-1.2v1.154a2.694,2.694,0,0,1-2.692,2.692Zm-1.922-2.692a1.924,1.924,0,0,0,1.922,1.922h11.534a1.924,1.924,0,0,0,1.923-1.922v-1.154h-15.38Zm18.87-.663,2.28.208a.341.341,0,0,0,.268-.09.348.348,0,0,0,.114-.258.351.351,0,0,0-.35-.35h-3.023A.87.87,0,0,0,559.639,5594.715Zm-4.26-2.029v-.769h.77v.769Zm-5.25-.9a3.076,3.076,0,0,1,0-4.35l1.631-1.632a3.844,3.844,0,1,1,6.524,2.176l-3.806,3.806a3.076,3.076,0,0,1-4.35,0Zm3.262-8.7a3.076,3.076,0,0,0-.842,2.775.38.38,0,0,1-.105.346l-1.772,1.773a2.307,2.307,0,1,0,3.262,3.262l3.806-3.806a3.076,3.076,0,0,0-4.35-4.35Zm-7.137,9.216a.387.387,0,0,1-.278-.139l-1.468-1.763a1.9,1.9,0,0,1-1.01.437,1.735,1.735,0,0,1-.215.264,3.393,3.393,0,0,1-2.72-4.893,1.7,1.7,0,0,1,.266-.215,1.922,1.922,0,0,1,1.694-1.694,1.729,1.729,0,0,1,.215-.266,8.653,8.653,0,0,0,3.535-.563,1.922,1.922,0,0,1,1.36,3.282,1.694,1.694,0,0,1-.266.216,1.9,1.9,0,0,1-.436,1.007l1.763,1.471a.385.385,0,0,1,.025.567l-2.176,2.176a.388.388,0,0,1-.273.112Zm-1.075-3.642a1.936,1.936,0,0,1-.183,1.125l1.3,1.563,1.581-1.582-1.56-1.3a1.935,1.935,0,0,1-1.128.184Zm-3.257-3.268a1.146,1.146,0,0,0-.337.822.382.382,0,0,1-.2.341,1.132,1.132,0,0,0-.275,1.827.385.385,0,0,1,0,.543,1.153,1.153,0,0,0,1.631,1.631,1.091,1.091,0,0,0,.2-.274.383.383,0,0,1,.339-.2h.01a1.145,1.145,0,0,0,1.108-1.447.386.386,0,0,1,.1-.371l.3-.3a.383.383,0,0,1,.37-.1,1.144,1.144,0,0,0,1.447-1.115.387.387,0,0,1,.2-.342,1.188,1.188,0,0,0,.275-.2,1.156,1.156,0,0,0,0-1.632,1.181,1.181,0,0,0-1.631,0,.4.4,0,0,1-.544,0,1.181,1.181,0,0,0-1.631,0,1.159,1.159,0,0,0-.2.275.383.383,0,0,1-.339.2h-.008A1.145,1.145,0,0,0,541.922,5585.393Zm13.1-.132a1.153,1.153,0,0,1,0-1.631,1.18,1.18,0,0,1,1.63,0h0a1.153,1.153,0,0,1-1.631,1.631Zm.545-1.087a.378.378,0,0,0-.114.271.384.384,0,0,0,.114.272.393.393,0,0,0,.542,0,.384.384,0,0,0,.114-.272.385.385,0,0,0-.656-.271Zm-6.339.055a2.693,2.693,0,0,1,2.69-2.691v.768a1.925,1.925,0,0,0-1.922,1.923Zm7.421-.6,0,0Zm-.058-.059.058.059Zm-.01-.01.01.01Zm-.02-.021.02.021Zm0,0h0Zm0,0Zm-14.637-.46a1.539,1.539,0,0,0-1.538-1.538v-.769a2.308,2.308,0,0,1,2.307,2.307Zm2.307-1.153a.386.386,0,0,1-.365-.507l.384-1.15a2.514,2.514,0,0,1-.787.119,2.136,2.136,0,0,1-1.923-2.307c0-1.482,1.444-3.076,4.614-3.076s4.614,1.593,4.614,3.076a2.136,2.136,0,0,1-1.922,2.307,2.516,2.516,0,0,1-.788-.119l.384,1.15a.384.384,0,0,1-.364.507Zm.92-3.043a.384.384,0,0,1,.214.473l-.6,1.8h2.778l-.6-1.8a.384.384,0,0,1,.708-.293,1.311,1.311,0,0,0,1.194.556c.555,0,1.153-.588,1.153-1.538,0-.8-.8-2.307-3.845-2.307s-3.844,1.509-3.844,2.307c0,.95.6,1.538,1.153,1.538a1.3,1.3,0,0,0,1.2-.562.393.393,0,0,1,.344-.2A.374.374,0,0,1,545.15,5578.878Zm7.922-.034a3.849,3.849,0,0,1,3.845-3.844v.769a3.079,3.079,0,0,0-3.075,3.076Zm4.615-3.076V5575h.768v.769Z" transform="translate(-540 -5575)" />
</svg>
