<svg version="1.1" xmlns="http://www.w3.org/2000/svg" xmlns:xlink="http://www.w3.org/1999/xlink" x="0px" y="0px"
	 width="500px" height="500px" viewBox="0 0 500 500" enable-background="new 0 0 500 500" xml:space="preserve">
<path fill="#187798" d="M499,47.132c-21.672,15.293-45.68,26.991-71.065,34.631c-13.635-15.664-31.778-26.779-51.939-31.819
	c-20.134-5.04-41.354-3.78-60.746,3.634c-19.417,7.401-36.076,20.598-47.748,37.774c-11.672,17.189-17.772,37.549-17.508,58.319
	v22.641c-39.79,1.035-79.196-7.785-114.741-25.678c-35.546-17.892-66.105-44.3-88.984-76.861c0,0-90.536,203.739,113.19,294.248
	C112.836,395.693,57.303,411.557,1,409.328c203.739,113.163,452.719,0,452.719-260.333c0-6.3-0.637-12.587-1.804-18.781
	C475.02,107.427,491.334,78.659,499,47.132z"/>
</svg>
