<svg xmlns="http://www.w3.org/2000/svg"  viewBox="0 0 19.299 26">
  <g transform="translate(734 -258)">
    <path d="M700.317,30.666c.074.626.166,1.4.3,2.171.124.721.3,2.425.439,3.795a14.071,14.071,0,0,0,.273,2.239l.066.095.116-.032c.314-.085.129-2.128.065-2.752-.112-1.1-.335-2.665-.532-4.049-.154-1.085-.287-2.022-.325-2.441a7.685,7.685,0,0,1-.033-.812c0-.239,0-.427-.25-.435a.283.283,0,0,0-.2.076c-.144.14-.165.494-.061,1.05C700.217,29.817,700.263,30.212,700.317,30.666Z M701.871,44.088l-.081-.943a1.178,1.178,0,0,1,0-.129,6.27,6.27,0,0,1,.1-.641l.007-.036a26.169,26.169,0,0,0,.322-6.631c-.229-4.463-.793-7.356-1.631-8.368a1.511,1.511,0,0,0-1.511-.656,3.077,3.077,0,0,0-.845-.578,3.393,3.393,0,0,0-3.144.091c-.074.052-.148.1-.223.148a3.879,3.879,0,0,1-.83-.083,8.144,8.144,0,0,0-2.878-.055,4.607,4.607,0,0,0-2.217,1.1,4,4,0,0,0-3.182-.113,3.037,3.037,0,0,0-1.518,1.473,1.36,1.36,0,0,0-1.23,1.055c-.129.769.675,3,1.607,5.588l.224.626a53.691,53.691,0,0,0,3.15,7.291,14.306,14.306,0,0,1,.8,1.651c.221.554.38,1.07.565,1.666l.866,2.709c.385,1.212.568,1.771.708,2.087a.882.882,0,0,0,.2.322.41.41,0,0,0,.275.1,1.609,1.609,0,0,0,.592-.191,13.209,13.209,0,0,1,4.215-1.1,23.431,23.431,0,0,1,5.177-.075c.467.042.609.055.75-.034C702.357,50.231,702.4,50.2,701.871,44.088Zm-.436,5.733a24.161,24.161,0,0,0-5.322.078,14.2,14.2,0,0,0-4.274,1.089,8.291,8.291,0,0,1,3.077-1.04,12.24,12.24,0,0,1,2.038-.182,5.837,5.837,0,0,0,.852-.056l.155-.031-.03-.128c-.025-.106-.386-.15-.9-.15a19.1,19.1,0,0,0-2.749.24,6.736,6.736,0,0,0-2.89,1.1c-.146-.417-.336-1.014-.534-1.641L690,46.4c-.16-.521-.3-.973-.477-1.446.011-.161.2-.5,1.275-1.073a11.619,11.619,0,0,1,1.943-.82c.269-.089.341-.113.363-.2l.02-.089-.08-.051a6.43,6.43,0,0,0-2.587.81,5.026,5.026,0,0,0-1.194.781c-.186-.423-.4-.852-.666-1.332a52.818,52.818,0,0,1-3.114-7.213l-.227-.626a40.835,40.835,0,0,1-1.54-4.771,1.841,1.841,0,0,1-.042-.561.6.6,0,0,1,.278-.423,1.537,1.537,0,0,0-.1.853l.043.056.07.009c.148.018.184-.076.294-.349a7.369,7.369,0,0,1,.4-.862,2.914,2.914,0,0,1,1.386-1.367,3.282,3.282,0,0,1,2.463.046c-.09.125-.131.237-.021.31s.211.009.461-.175l.124-.091a5.483,5.483,0,0,1,2.219-1.038,7.541,7.541,0,0,1,2.635.059l.032,0c-.112.072-.154.131-.127.217l.04.08.069.025a2.079,2.079,0,0,0,1.142-.26.359.359,0,0,0,.163-.085,2.958,2.958,0,0,0,.271-.17,2.611,2.611,0,0,1,2.406-.026,5.035,5.035,0,0,1,1.255.91c.25.232.344.316.479.251l.066-.04.015-.056a.642.642,0,0,0-.14-.381,1.357,1.357,0,0,1,.445.371A6.606,6.606,0,0,1,701,30.525a41.506,41.506,0,0,1,.539,5.209,25.593,25.593,0,0,1-.315,6.516l-.012.066c-.017.1-.034.191-.047.275a7.976,7.976,0,0,0-1.3-.349,10.448,10.448,0,0,0,.182-2.884c0-.03-.106-2.991-.368-3.086l-.094-.032-.072.056c-.227.181-.079,2.845-.048,3.377a6.6,6.6,0,0,1-.146,2.481c-.329-.042-.667-.073-1.011-.09a6.347,6.347,0,0,0-.022-1.436,29.486,29.486,0,0,0-.9-5.109l-.088-.041-.079.047c-.232.138.354,3.166.36,3.2a22.267,22.267,0,0,1,.3,2.554c0,.08.006.148.007.2a.346.346,0,0,0-.066-.023.234.234,0,0,0-.234.078.618.618,0,0,0-.063.513,13.553,13.553,0,0,0-4.119.542l-.048.054.018.063c.037.131.095.124.64.062,1.305-.149,4.747-.54,7.113.446l.078.917c.1,1.2.413,4.738.424,5.706Z M698.492,33.281c.2,1.29.592,4.381.777,6.367a.167.167,0,0,0-.1-.082l-.1-.027-.07.051c-.217.157.111,1.611.216,2.052.138.576.218.774.326.827l.015.1.009-.087a.2.2,0,0,0,.081.006c.169-.016.233-.111.222-1.058-.016-1.407-.493-5.253-.722-7.1l-.034-.269c0-.038-.487-3.774-.908-3.774h0l-.078.006-.043.046c-.08.083-.064.191.1,1.148C698.268,31.933,698.375,32.534,698.492,33.281Z M692.59,29.222l.068.014a.244.244,0,0,0,.092,0,2.177,2.177,0,0,1,.173.508c.047.193.089.491.147.9.116.817.291,2.051.7,4.013a62.734,62.734,0,0,0,2.015,7.436l.061.031.065-.019c.158-.046.237-.068-.793-3.908-.313-1.163-.648-2.764-1.024-4.9-.085-.487-.163-.963-.235-1.407a18.862,18.862,0,0,0-.448-2.289c-.167-.5-.408-.853-.615-.9a.207.207,0,0,0-.184.036.368.368,0,0,0-.133.276.232.232,0,0,0,.077.169Z M692.174,39.874c-.892-2.293-.946-2.294-1.083-2.288l-.081,0-.044.054a11.21,11.21,0,0,0,.867,2.791c.518,1.333,1.066,2.968,1.252,3.578a.18.18,0,0,0-.154.006l-.093.066.016.088a.858.858,0,0,0,.366.52.33.33,0,0,0,.138.032.309.309,0,0,0,.109-.021c.327-.125.294-.3-.117-1.612C693.129,42.384,692.6,40.966,692.174,39.874Z M688.43,29.659l.068-.022a.254.254,0,0,0,.151-.179.444.444,0,0,1,.038-.082.213.213,0,0,0,.03-.013l0,.036a10.433,10.433,0,0,0,.441,2.382,5.865,5.865,0,0,0,1.024,2.648l.1.017.057-.07c.058-.069.045-.11-.09-.505-.11-.323-.276-.81-.434-1.417a18.6,18.6,0,0,1-.507-3.035c0-.24-.031-.474-.219-.567a.609.609,0,0,0-.521.073c-.325.163-.374.355-.374.455a.268.268,0,0,0,.14.246Z M690.874,44.546a47.661,47.661,0,0,1-2.238-4.415c-.562-1.2-.562-1.2-.671-1.2l-.086,0-.051.058a16.955,16.955,0,0,0,1.149,3.111,16.777,16.777,0,0,0,1.73,3.171.669.669,0,0,0,.255.05.463.463,0,0,0,.169-.028.269.269,0,0,0,.168-.166.189.189,0,0,0-.1-.245A1.1,1.1,0,0,1,690.874,44.546Z" transform="translate(-1417.72 231.776)" />
  </g>
</svg>
