<svg xmlns="http://www.w3.org/2000/svg"  viewBox="0 0 58 55"><g transform="translate(-0.402 -2.268)"><path d="M58.4,11.162a1.446,1.446,0,0,0-1.436-1.454H32.675V3.72A1.453,1.453,0,0,0,32.156,2.6a1.429,1.429,0,0,0-1.182-.308L1.574,7.874A1.447,1.447,0,0,0,.4,9.3V50.233A1.446,1.446,0,0,0,1.573,51.66l29.4,5.582a1.4,1.4,0,0,0,1.179-.307,1.454,1.454,0,0,0,.521-1.12V49.826H56.966A1.446,1.446,0,0,0,58.4,48.372Zm-28.6,42.9L3.273,49.026V10.508L29.8,5.473Zm25.727-7.142H32.675V42.384H49.616a1.454,1.454,0,0,0,0-2.907H32.675V34.942H49.616a1.454,1.454,0,0,0,0-2.907H32.675V27.5H49.616a1.454,1.454,0,0,0,0-2.907H32.675V20.058H49.616a1.454,1.454,0,0,0,0-2.907H32.675V12.615H55.531Z"/><path d="M23.479,39.228l1.838-16.744a1.436,1.436,0,1,0-2.854-.324l-1.174,10.7-3.406-9.192a1.4,1.4,0,0,0-1.347-.824h0a1.391,1.391,0,0,0-1.342.824l-3.54,9.563-1.042-7.4a1.458,1.458,0,0,0-.576-.974,1.364,1.364,0,0,0-1.042-.26,1.427,1.427,0,0,0-.952.567,1.454,1.454,0,0,0-.273,1.076L9.6,39.272a1.432,1.432,0,0,0,2.765.31l4.169-11.257,4.169,11.257a1.445,1.445,0,0,0,1.344.941.791.791,0,0,0,.153-.011l.026,0A1.438,1.438,0,0,0,23.479,39.228Z"/></g></svg>