<svg xmlns="http://www.w3.org/2000/svg" viewBox="0 0 29.306 22">
  <path d="M667.548,42.664A1.488,1.488,0,0,0,666,41.5a2.281,2.281,0,0,0,.311-1.679,2.464,2.464,0,0,0-.6-.914c-.359-.4-.678-.739-.976-1.045a18.108,18.108,0,0,0-2.028-1.827,5.236,5.236,0,0,0-2.433-1.162,3.96,3.96,0,0,0-2.381.511c-.329.175-.648.384-.96.589a7.568,7.568,0,0,1-1.6.876,8.322,8.322,0,0,1-2.355.345l-.333.018a13.6,13.6,0,0,0-7.692,2.853c-.65.482-1.287,1-1.911,1.513l-.272.224c-.48.392-.987.762-1.482,1.124l-.47.345c-1.287.952-2.54,2.017-2.489,3.654a8.652,8.652,0,0,0,.364,1.945l.014.052c.038.145.078.287.114.432.093.369.167.75.239,1.124.078.4.158.808.262,1.207.516,1.977,1.5,3.168,3.019,3.645a10.162,10.162,0,0,0,1.9.341c.275.031.549.063.822.1a6.2,6.2,0,0,1,1.356.332c.051.02.1.044.153.067.2.094.392.182.577.04a24.823,24.823,0,0,0,5.317.634,17.29,17.29,0,0,0,2.223-.139,14.573,14.573,0,0,0,3.146-.885l.349-.126c.488-.177.987-.327,1.475-.474.628-.189,1.278-.386,1.9-.637a10.575,10.575,0,0,0,1.682-.833,4.006,4.006,0,0,0,1.127-1.16.313.313,0,0,0,.291-.1.609.609,0,0,0,.068-.565l-.407-2.352a1.55,1.55,0,0,0,.334-.324c.033-.038.064-.076.094-.109a8.968,8.968,0,0,0,.623-.765,12.054,12.054,0,0,0,1.091-1.863c.078-.162.163-.329.25-.5l0-.005A4.986,4.986,0,0,0,667.548,42.664Zm-2.345-1.27c-.039.09-.088.187-.14.293a2.53,2.53,0,0,0-.332.952.439.439,0,0,0,.2.385.344.344,0,0,0,.356,0,1.21,1.21,0,0,0,.267-.231,1.367,1.367,0,0,1,.205-.191,1.118,1.118,0,0,1,.575-.251c.344,0,.44.383.461.7a5.434,5.434,0,0,1-.759,2.559c-.056.117-.112.232-.165.346a10.415,10.415,0,0,1-1.705,2.651c-.026-.21-.047-.419-.067-.63-.031-.311-.063-.633-.112-.946a3.217,3.217,0,0,0,.344-.552l.083-.151a10.806,10.806,0,0,0,.5-1.028c.144-.338.269-.682.376-1.022l.017-.054c.06-.184.134-.414-.036-.581a.394.394,0,0,0-.441-.072.665.665,0,0,0-.271.477c-.013.05-.026.1-.039.142a10.013,10.013,0,0,1-.835,1.846,1.1,1.1,0,0,0-.309-.362,2.859,2.859,0,0,0-.526-.287,3.589,3.589,0,0,1-.389-.195,3.789,3.789,0,0,1-.932-.783,3.245,3.245,0,0,1-.512-.941l-.067-.163c-.162-.39-.382-.924-.85-.972a1.451,1.451,0,0,0-.409.042l-.065.013a8.229,8.229,0,0,0,1.228-1.615,8.736,8.736,0,0,0,.545-1.133c.109-.275.181-.577-.121-.729a.316.316,0,0,0-.26-.029.477.477,0,0,0-.251.284l-.038.088a10.108,10.108,0,0,1-.582,1.2,7.527,7.527,0,0,1-.786,1.087c-.152.172-.313.342-.48.5-.039.038-.082.075-.132.118a2.144,2.144,0,0,0-.191.18,2.7,2.7,0,0,1-1.042-.711,1.1,1.1,0,0,0-.722-.427,1.926,1.926,0,0,0-1.157.442,2.1,2.1,0,0,1-1.045.441,4.2,4.2,0,0,1-1.023-.138,3.58,3.58,0,0,0-1.2-.127,1.409,1.409,0,0,0-.844.392,1.759,1.759,0,0,0-.319.5,1.376,1.376,0,0,1-.32.456,3.352,3.352,0,0,0-.309-.149,2.633,2.633,0,0,1-.351-.176,3.538,3.538,0,0,1-.738-.616,2.045,2.045,0,0,1-.147-.2c-.185-.264-.354-.484-.564-.506a.346.346,0,0,0-.269.112c-.323.307.125.783.365,1.038l.068.075a4.2,4.2,0,0,0,.571.518.63.63,0,0,0-.431.165,2.4,2.4,0,0,0-.334.408c-.043.06-.084.119-.128.178a1.342,1.342,0,0,1-.966.516c-.29.018-.358-.084-.482-.27-.031-.047-.066-.1-.107-.152a3.723,3.723,0,0,0-.482-.521,3.64,3.64,0,0,0-1.136-.683,2.2,2.2,0,0,0-1.266-.186.382.382,0,0,0-.234.281.407.407,0,0,0,.1.373.509.509,0,0,0,.374.111c.035,0,.069,0,.1,0a2.586,2.586,0,0,1,.832.212,2.858,2.858,0,0,1,1.038.8.954.954,0,0,0-.6.574l-.072.163a2.17,2.17,0,0,1-.311.556,1.482,1.482,0,0,1-.244.211,1.393,1.393,0,0,0-.256.225,2.816,2.816,0,0,0-.462,1.139,1.525,1.525,0,0,0,.307,1.072,6.883,6.883,0,0,1-2.271.96,6.349,6.349,0,0,1-.737.116c-.05.005-.1.006-.158.007a.993.993,0,0,0-.336.043.4.4,0,0,0-.217.518c.1.269.384.244.61.222l.054-.005a7.74,7.74,0,0,0,1.217-.2,7.491,7.491,0,0,0,2.181-.961,5.466,5.466,0,0,1,.113.876c.015.2.03.386.055.563.08.545.185,1.119.312,1.705.19.88.43,1.8.777,2.985A11.705,11.705,0,0,0,644.4,54.9l-.045-.005c-.3-.042-.615-.082-.923-.135a3.922,3.922,0,0,1-2.343-1.085,7.271,7.271,0,0,1-1.371-3.666c-.036-.2-.071-.4-.11-.589-.054-.279-.127-.566-.2-.845a8.261,8.261,0,0,1-.3-1.611A3.075,3.075,0,0,1,640.57,44.5c.363-.3.739-.584,1.106-.864.418-.321.852-.654,1.266-1l.274-.229c.73-.607,1.486-1.235,2.268-1.8a13.425,13.425,0,0,1,5.832-2.441c.468-.073.951-.1,1.419-.135a13.23,13.23,0,0,0,1.705-.185A8.613,8.613,0,0,0,657,36.8c.15-.085.3-.176.454-.267a4.955,4.955,0,0,1,2.384-.919h.035a4.639,4.639,0,0,1,2.915,1.513c.236.213.48.422.744.648.444.38.9.773,1.317,1.191a2.019,2.019,0,0,1,.7,1.15A2.838,2.838,0,0,1,665.2,41.394Zm-8.845,8.979a19.19,19.19,0,0,0-3.861.725,18.2,18.2,0,0,0-3.64,1.413,4.44,4.44,0,0,0-1.963,1.938q-.177-.623-.336-1.249a6.406,6.406,0,0,0,.524-.5c.155-.159.315-.323.481-.462a10.07,10.07,0,0,1,1.4-.977,9.912,9.912,0,0,1,3.16-1.162c.049-.01.1-.016.167-.023a.868.868,0,0,0,.569-.2.33.33,0,0,0,.061-.259.37.37,0,0,0-.138-.267.877.877,0,0,0-.631-.047,10.5,10.5,0,0,0-3.108,1.025,10.983,10.983,0,0,0-2.692,1.978c-.054-.245-.107-.489-.156-.734a2.832,2.832,0,0,0,.211-.237c.061-.073.121-.147.183-.21a7.2,7.2,0,0,1,.588-.534,6.8,6.8,0,0,1,1.266-.811,6.866,6.866,0,0,1,1.483-.527c.2-.049.434-.1.522-.261a.353.353,0,0,0,0-.295c-.126-.352-.487-.261-.752-.195l-.048.012a7.551,7.551,0,0,0-1.467.527,7.661,7.661,0,0,0-2.152,1.558c-.028-.212-.051-.424-.075-.635-.035-.32-.072-.651-.124-.971a2.113,2.113,0,0,0-.263-.657,2.378,2.378,0,0,1-.237-.546,1.329,1.329,0,0,1,.466-1.213c.082-.1.165-.194.239-.3a1.832,1.832,0,0,0,.153-.255.619.619,0,0,1,.3-.273c.072-.039.137-.08.21-.125a1.343,1.343,0,0,1,.764-.292,1.809,1.809,0,0,0,1.3-.339,1.711,1.711,0,0,0,.317-.4c.223-.346.4-.566.763-.468a1.763,1.763,0,0,0,1.169.024,1.284,1.284,0,0,0,.771-.879c.2-.568.62-.759,1.314-.6l.049.012a4.851,4.851,0,0,0,1.554.179,3.274,3.274,0,0,0,1.248-.474l.155-.085a1.323,1.323,0,0,1,.56-.214,1.061,1.061,0,0,1,.63.348l.087.077a2.315,2.315,0,0,0,1.319.642c.139.014.28.019.42.023s.271.009.4.022l.059.007a.844.844,0,0,0,.368-.012l0,.007a.9.9,0,0,0,.105.185,1.306,1.306,0,0,1,.072.117c.049.1.091.195.138.31.033.079.066.158.1.235a4.4,4.4,0,0,0,1.044,1.331,3.684,3.684,0,0,0,.707.449,3.539,3.539,0,0,1,.7.444,2.226,2.226,0,0,1,.5,1.459l.013.123c.138,1.276.352,2.526.562,3.739A17.241,17.241,0,0,0,656.358,50.372Zm4.247,3.69c-1.384.543-2.793,1-4.481,1.532a9.768,9.768,0,0,1-2.969.327h-.314c-1.1-.006-2.266-.07-3.666-.2-.649-.061-1.331-.135-1.83-.2l.012-.075a2.613,2.613,0,0,1,.3-1.042,2.9,2.9,0,0,1,.955-.946,9.562,9.562,0,0,1,2.1-.91l.38-.131a23.509,23.509,0,0,1,4.086-1.128,15.22,15.22,0,0,1,4.179-.071,17.244,17.244,0,0,1,4.346,1.128A10.416,10.416,0,0,1,660.606,54.063Z" transform="translate(-638.317 -34.842)"/>
</svg>
