<svg xmlns="http://www.w3.org/2000/svg" xmlns:xlink="http://www.w3.org/1999/xlink" width="80" height="99" viewBox="0 0 80 99"><defs><style>.a{fill:none;}.b,.e{fill:#fff;}.c{fill:#93ba4a;}.d{fill:url(#a);}.e{font-size:1px;font-family:Gilroy-Black, Gilroy;font-weight:800;letter-spacing:0.2em;}.f{fill:url(#b);}.g{fill:url(#c);}.h{fill:url(#d);}.i{fill:url(#e);}.j{clip-path:url(#f);}.k{fill:url(#g);}.l{clip-path:url(#h);}.m{fill:url(#i);}.n{clip-path:url(#j);}.o{fill:url(#k);}.p{clip-path:url(#l);}.q{fill:url(#m);}.r{clip-path:url(#n);}.s{fill:url(#o);}.t{clip-path:url(#p);}.u{fill:url(#q);}.v{clip-path:url(#r);}.w{fill:url(#s);}.x{clip-path:url(#t);}.y{fill:url(#u);}.z{clip-path:url(#v);}.aa{fill:url(#w);}.ab{clip-path:url(#x);}.ac{fill:url(#y);}.ad{fill:url(#z);}.ae{fill:#5b5b5a;}</style><linearGradient id="a" x1="1.058" y1="0.346" x2="-0.236" y2="0.703" gradientUnits="objectBoundingBox"><stop offset="0" stop-color="#62a122"/><stop offset="1" stop-color="#8eb744"/></linearGradient><linearGradient id="b" x1="0.934" y1="0.047" x2="-0.215" y2="1.363" gradientUnits="objectBoundingBox"><stop offset="0" stop-color="#9dc06a"/><stop offset="0.21" stop-color="#98be5d"/><stop offset="0.564" stop-color="#6faa2f"/><stop offset="1" stop-color="#629f23"/></linearGradient><linearGradient id="c" x1="-0.216" y1="0.497" x2="0.756" y2="0.501" xlink:href="#b"/><linearGradient id="d" x1="0" y1="0.5" x2="1" y2="0.5" xlink:href="#b"/><linearGradient id="e" x1="0" y1="0.5" x2="1" y2="0.5" xlink:href="#b"/><clipPath id="f"><path class="a" d="M607.8,36a3.528,3.528,0,0,0-2.632,3.84,3.182,3.182,0,0,0,1.141,2.227c.089.076.186.151.281.221h0c.048.033.091.068.137.095s.062.043.1.062c.048.035.1.062.159.1a.885.885,0,0,0,.151.089l.308.165a.8.8,0,0,0,.118.054l.143.062c.132.062.269.118.4.172l.412.165c.412.165.825.323,1.224.5a2.6,2.6,0,0,1,.693.44.3.3,0,0,1,.062.07.8.8,0,0,1,.143.219.7.7,0,0,1,.062.242.939.939,0,0,1-.033.337.471.471,0,0,1-.043.095.727.727,0,0,1-.081.137c-.035.041-.07.083-.11.124a.907.907,0,0,1-.138.1,1.517,1.517,0,0,1-.3.151,1.6,1.6,0,0,1-.2.056A3.255,3.255,0,0,1,608,45.563a1.744,1.744,0,0,1-.165-.07c-.056-.021-.11-.048-.167-.076-.108-.048-.213-.11-.308-.165a4.256,4.256,0,0,1-.44-.3c-.1-.068-.194-.137-.283-.213-.186-.143-.308-.151-.445-.014-.008.014-.021.021-.029.035-.453.5-.9,1.011-1.346,1.518a.319.319,0,0,0-.1.24.2.2,0,0,0,.014.056l.021.054a.866.866,0,0,0,.054.083h0c.048.054.1.116.151.17a.525.525,0,0,0,.056.056,6.269,6.269,0,0,0,.92.755c.083.054.165.1.24.151s.167.1.248.137a6.136,6.136,0,0,0,1.437.536c.089.021.178.041.267.054a6.664,6.664,0,0,0,.687.089.987.987,0,0,0,.151.008,9.556,9.556,0,0,0,3.065-6.954,2.689,2.689,0,0,0-.393-.221c-.494-.246-1.017-.426-1.532-.624-.391-.151-.79-.283-1.181-.455a1.877,1.877,0,0,1-.536-.364.741.741,0,0,1,.1-1.154,1.3,1.3,0,0,1,.5-.205,2.374,2.374,0,0,1,1.5.205c.343.165.674.372,1.009.558a.394.394,0,0,0,.283.076,9.44,9.44,0,0,0-1.774-3.739,5.179,5.179,0,0,0-.653-.041A5.719,5.719,0,0,0,607.8,36" transform="translate(-604.716 -35.757)"/></clipPath><linearGradient id="g" x1="130.88" y1="501.627" x2="130.901" y2="501.627" xlink:href="#b"/><clipPath id="h"><path class="a" d="M606.91,45.8c.041,0,.083.008.124.008a6.367,6.367,0,0,0,1.607-.207c.083-.019.159-.048.24-.068l.234-.083c.089-.035.178-.068.269-.11a4.093,4.093,0,0,0,1.27-.871c.1-.1.192-.213.281-.323.035-.041.062-.083.1-.124s.056-.083.083-.13c.054-.083.1-.172.151-.261a2.233,2.233,0,0,0,.124-.269,3.416,3.416,0,0,0,.138-.412,3.939,3.939,0,0,0,.13-.982v-.035a5.369,5.369,0,0,0-.049-.658,1.249,1.249,0,0,0-.035-.2c-.006-.027-.006-.056-.013-.083a.573.573,0,0,0-.027-.11l-.019-.089a.052.052,0,0,1-.008-.033l-.021-.083-.019-.062c-.008-.027-.021-.054-.029-.076l-.006-.021c-.014-.033-.027-.068-.041-.108s-.029-.07-.048-.11-.035-.07-.048-.1-.021-.048-.035-.07c-.041-.081-.089-.157-.138-.234a.177.177,0,0,1-.033-.054c-.021-.027-.043-.062-.062-.089s-.056-.07-.083-.1-.054-.062-.083-.095h0a.568.568,0,0,0-.089-.091c-.048-.046-.1-.095-.157-.143a6.062,6.062,0,0,0-.633-.474A9.606,9.606,0,0,1,606.91,45.8" transform="translate(-606.91 -38.844)"/></clipPath><linearGradient id="i" x1="136.388" y1="738.515" x2="136.416" y2="738.515" xlink:href="#b"/><clipPath id="j"><path class="a" d="M607.449,35.785a9.462,9.462,0,0,1,1.774,3.739.351.351,0,0,0,.192-.145c.412-.515.833-1.03,1.237-1.545.159-.2.151-.316-.054-.488-.234-.2-.469-.4-.715-.571A5.386,5.386,0,0,0,607.449,35.785Z" transform="translate(-607.449 -35.785)"/></clipPath><linearGradient id="k" x1="394.287" y1="1409.561" x2="394.344" y2="1409.561" xlink:href="#b"/><clipPath id="l"><path class="a" d="M600.99,43.715h-.07a6.573,6.573,0,0,0,1.933.3c.267-.019.529-.033.8-.06a6.248,6.248,0,0,0,2.289-.763.673.673,0,0,1,.1-.056c.1-.054.178-.11.275-.165.035-.021.068-.048.1-.068l.207-.145c.068-.048.138-.1.2-.151.033-.021.06-.048.095-.076a1.065,1.065,0,0,0,.089-.076c.035-.027.062-.054.1-.083s.068-.062.1-.089a.9.9,0,0,0,.076-.068c.014-.014.027-.021.033-.035.132-.137.124-.254-.013-.4a.982.982,0,0,0-.089-.089c-.186-.2-.383-.385-.577-.577-.076-.076-.151-.143-.227-.221a.333.333,0,0,0-.143-.095,6.213,6.213,0,0,1-5.271,2.912" transform="translate(-600.92 -40.803)"/></clipPath><linearGradient id="m" x1="99.621" y1="872.995" x2="99.655" y2="872.995" xlink:href="#b"/><clipPath id="n"><path class="a" d="M604.168,40.155h0m.109-.887a3.883,3.883,0,0,1-.109.895c-.008.054-.008.095-.014.13a1.2,1.2,0,0,1-.172.4,3.241,3.241,0,0,1-2.632,1.931l.035.015c.019.006.047.019.068.027.048.019.1.033.137.048l.07.019c.047.014.095.027.151.041l.076.021a.3.3,0,0,0,.081.014.354.354,0,0,0,.089.014c.021.008.048.008.07.014s.054.008.081.015.048.006.075.006.062.008.091.008c.081.006.164.006.24.006a3.94,3.94,0,0,0,1.065-.157l.186-.062h0a1.5,1.5,0,0,0,.171-.07h0c.021-.006.042-.021.062-.027l.124-.062a.332.332,0,0,0,.062-.035h0c.054-.027.1-.062.151-.089l.145-.1a3.267,3.267,0,0,0,.267-.227l.11-.11a.269.269,0,0,0,.041-.048h0c.048-.054.089-.11.138-.172a.4.4,0,0,0,.054-.076.9.9,0,0,0,.1-.151h0a1.024,1.024,0,0,0,.089-.157h0l.083-.165a2.977,2.977,0,0,0,.17-.44,4.031,4.031,0,0,0,.159-1.348v-.44a.141.141,0,0,0-.143-.145h-1.383c.008.159.014.318.014.474" transform="translate(-601.35 -38.794)"/></clipPath><linearGradient id="o" x1="151.534" y1="995.031" x2="151.573" y2="995.031" xlink:href="#b"/><clipPath id="p"><path class="a" d="M601.746,37.367c-.013,0-.027.006-.048.006a.618.618,0,0,0-.1.027h0a3.406,3.406,0,0,1,2.308,2.028.252.252,0,0,0,.054-.048c.269-.289.558-.536.825-.825.1-.108.1-.17-.006-.281a2.868,2.868,0,0,0-.914-.653,3.556,3.556,0,0,0-1.45-.323,3.065,3.065,0,0,0-.666.07" transform="translate(-601.595 -37.297)"/></clipPath><linearGradient id="q" x1="550.72" y1="1394.166" x2="550.78" y2="1394.166" xlink:href="#b"/><clipPath id="r"><path class="a" d="M602.061,35.78a6.692,6.692,0,0,0-1.119.219h.019a6.214,6.214,0,0,1,5.325,3,.314.314,0,0,0,.2-.1l.331-.331c.13-.13.259-.254.383-.383l.1-.1c.145-.151.192-.254.151-.358a.7.7,0,0,0-.2-.227,6.758,6.758,0,0,0-4.466-1.758,3.69,3.69,0,0,0-.722.035" transform="translate(-600.942 -35.74)"/></clipPath><linearGradient id="s" x1="291.942" y1="811.121" x2="291.975" y2="811.121" xlink:href="#b"/><clipPath id="t"><path class="a" d="M593.5,48.04c0,.281.083.364.364.37h2.378c.254,0,.337-.081.351-.337v-.645a10.605,10.605,0,0,1-3.093-7.49v8.1Zm.379-12.19c-.3,0-.379.081-.379.37v3.71a10.5,10.5,0,0,1,.819-4.088c-.151.008-.3.008-.44.008" transform="translate(-593.504 -35.842)"/></clipPath><linearGradient id="u" x1="370.932" y1="740.139" x2="370.984" y2="740.139" xlink:href="#b"/><clipPath id="v"><path class="a" d="M591.174,45.644V43.219a.069.069,0,0,1,.07-.07h2.117a1.2,1.2,0,0,1,1.195,1.2v.137a1.221,1.221,0,0,1-1.224,1.222h-2.088a.063.063,0,0,1-.07-.062m-.006-5.07V38.622a.069.069,0,0,1,.068-.07h1.642a.907.907,0,0,1,.908.9v.186a.99.99,0,0,1-.99.99H591.23a.052.052,0,0,1-.062-.054m-2.742-4.715c-.254,0-.345.07-.358.289v2.3a17.588,17.588,0,0,0,4.055,9.969c.385,0,.777-.006,1.162-.006a6.541,6.541,0,0,0,2.02-.318A3.046,3.046,0,0,0,597.6,45.32a3.183,3.183,0,0,0-1.243-3.085,4.216,4.216,0,0,0-1.065-.542,4.812,4.812,0,0,0,.5-.4,2.723,2.723,0,0,0,.809-1.718,3.078,3.078,0,0,0-1.435-3.141,3.921,3.921,0,0,0-2.076-.577c-.79-.006-1.58-.006-2.378-.006-.755.006-1.524.006-2.287.006" transform="translate(-588.068 -35.853)"/></clipPath><linearGradient id="w" x1="90.689" y1="423.473" x2="90.704" y2="423.473" xlink:href="#b"/><clipPath id="x"><path class="a" d="M588.068,46.871c.014.227.11.289.378.289h3.677a17.588,17.588,0,0,1-4.055-9.969Z" transform="translate(-588.068 -37.191)"/></clipPath><linearGradient id="y" x1="145.359" y1="709.275" x2="145.383" y2="709.275" xlink:href="#b"/><linearGradient id="z" x1="0.502" y1="0.391" x2="0.195" y2="14.748" xlink:href="#b"/></defs><rect class="b" width="80" height="99" rx="7"/><g transform="translate(12 12)"><path class="c" d="M593,30.869s7.738,8.8,10.74,16.975A72.882,72.882,0,0,1,627.98,16.115s-12.556,6.4-24.8,20.8C603.183,36.913,598.052,31.934,593,30.869Z" transform="translate(-576.111 -16.115)"/><g transform="translate(0 15.287)"><path class="a" d="M638.731,24.009H625.906v.511h12.825a.953.953,0,0,1,.943.943V83.052a.953.953,0,0,1-.943.941H585.753a.959.959,0,0,1-.964-.941V25.463a.959.959,0,0,1,.964-.943h12.477v-.511H585.753a1.465,1.465,0,0,0-1.476,1.454V83.052a1.466,1.466,0,0,0,1.476,1.454h52.978a1.46,1.46,0,0,0,1.454-1.454V25.463A1.459,1.459,0,0,0,638.731,24.009Z" transform="translate(-584.277 -24.009)"/></g><rect class="d" width="41.235" height="5.056" rx="0.31" transform="translate(7.342 63.948)"/><text class="e" transform="translate(13.325 66.473)"><tspan x="0" y="0">CERTIFICATED</tspan></text><g transform="translate(7.341 38.004)"><path class="f" d="M596.594,41.526v-2.9a.069.069,0,0,1,.068-.068h1.216a1.474,1.474,0,0,1,1.629,1.435v.167a1.546,1.546,0,0,1-1.656,1.429h-1.189a.068.068,0,0,1-.068-.062m-2.275-5.676a10.623,10.623,0,0,0,2.275,11.578V44.295h.755l.124.184q1.165,1.827,2.33,3.664a.53.53,0,0,0,.418.275c.027,0,.056.006.083.006.17,0,.343,0,.521-.006h2.111a.148.148,0,0,0,.157-.089c.062-.132-.046-.275-.124-.393-.817-1.257-2.678-4.136-2.707-4.177.124-.062.248-.11.366-.178a3.593,3.593,0,0,0,1.642-2.124,4.8,4.8,0,0,0,.143-2.117,3.734,3.734,0,0,0-1.944-2.864,5.283,5.283,0,0,0-2.535-.62c-.563-.006-1.135-.014-1.7-.014-.653,0-1.284.008-1.917.008" transform="translate(-582.98 -35.645)"/><path class="g" d="M603.161,35.877a6.074,6.074,0,0,0-2.548,1.478,6.262,6.262,0,0,0-2.033,4.727v.076a7.007,7.007,0,0,0,.075.928v.021c.006.041.014.076.019.11a6.39,6.39,0,0,0,4.446,5.112h.07a6.235,6.235,0,0,0,5.277-2.914h0a.287.287,0,0,0-.248.07c-.048.033-.132.1-.178.137a4.531,4.531,0,0,1-3.189,1.052,4.23,4.23,0,0,1-3.524-2.049,4.563,4.563,0,0,1-.42-4.191,4.439,4.439,0,0,1,6.328-2.37,11.235,11.235,0,0,1,1.046.707.451.451,0,0,0,.232.1.491.491,0,0,0-.054-.081,6.22,6.22,0,0,0-5.277-2.92h-.021Z" transform="translate(-578.225 -35.618)"/><path class="h" d="M602.191,38.8a.41.41,0,0,0-.1.008c-.081.014-.13.054-.13.137v1.065a.129.129,0,0,0,.116.136c.041.008,1.429.008,1.5.008h0a3.463,3.463,0,0,0,.11-.893,3.73,3.73,0,0,0-.027-.469c-.488.008-.984.008-1.477.008" transform="translate(-575.055 -32.881)"/><path class="i" d="M602.9,37.35a3.565,3.565,0,0,0-.364.11,3.311,3.311,0,0,0-2.33,2.982c-.008.1-.013.192-.013.289v.124a3.256,3.256,0,0,0,1.264,2.535,3.718,3.718,0,0,0,.968.591,3.256,3.256,0,0,0,2.632-1.931,1.194,1.194,0,0,1-.585.426,2.073,2.073,0,0,1-1.065.1,1.7,1.7,0,0,1-1.265-.86,1.987,1.987,0,0,1-.213-1.354,1.7,1.7,0,0,1,.97-1.292,1.926,1.926,0,0,1,1.909.137c.089.056.145.089.234.151.062.043.116.056.164.021A3.388,3.388,0,0,0,602.9,37.35Z" transform="translate(-576.71 -34.233)"/><g transform="translate(32.24 0.032)"><g class="j"><path class="k" d="M607.272,34.643,617.7,38.065,613.168,51.9l-10.431-3.422Z" transform="translate(-606.57 -36.8)"/></g></g><g transform="translate(36.487 6.01)"><g class="l"><path class="m" d="M610.753,37.62l6.047,5.538-5.635,6.15-6.047-5.538Z" transform="translate(-608.588 -39.99)"/></g></g><g transform="translate(37.531 0.087)"><g class="n"><path class="o" d="M606.843,36.713l4.164-1.477,1.553,4.384L608.4,41.1Z" transform="translate(-608.017 -36.3)"/></g></g><g transform="translate(24.888 9.804)"><g class="p"><path class="q" d="M605.5,39.142l4.3,5.092L604.4,48.783l-4.3-5.092Z" transform="translate(-601.687 -42.358)"/></g></g><g transform="translate(25.72 5.913)"><g class="r"><path class="s" d="M603.72,37.723l4.9,3.408-3.36,4.831-4.9-3.415Z" transform="translate(-602.277 -39.797)"/></g></g><g transform="translate(26.195 3.014)"><g class="t"><path class="u" d="M601.052,39.012l2.907-2.556,2.487,2.831-2.913,2.556Z" transform="translate(-602.104 -38.085)"/></g></g><g transform="translate(24.93 0)"><g class="v"><path class="w" d="M600.1,39.028l4.762-4.982,5.057,4.831-4.755,4.989Z" transform="translate(-601.73 -37.326)"/></g></g><g transform="translate(10.527 0.197)"><g class="x"><path class="y" d="M598.924,48.393l-4.611.584-1.622-12.746,4.611-.584Z" transform="translate(-594.265 -36.025)"/></g></g><g transform="translate(0 0.218)"><g class="z"><path class="aa" d="M607.041,44.844,595.648,55.577,584.832,44.095l11.393-10.733Z" transform="translate(-591.098 -38.186)"/></g></g><g transform="translate(0 2.809)"><g class="ab"><path class="ac" d="M599.034,44.873l-7.407,5.105-5.964-8.658,7.407-5.105Z" transform="translate(-590.321 -38.105)"/></g></g></g><rect class="ad" width="41.235" height="0.609" transform="translate(7.342 53.746)"/><g transform="translate(16.433 56.917)"><path class="ae" d="M592.763,45.644h1.973v.4h-1.547v.984h1.441v.4h-1.441v1.357h-.426Z" transform="translate(-592.763 -45.379)"/><path class="ae" d="M593.87,47.257a1.063,1.063,0,0,1,.087-.432,1.135,1.135,0,0,1,.238-.351,1.1,1.1,0,0,1,.354-.236,1.166,1.166,0,0,1,.875,0,1.154,1.154,0,0,1,.356.236,1.2,1.2,0,0,1,.236.351,1.132,1.132,0,0,1,0,.862,1.127,1.127,0,0,1-.236.351,1.154,1.154,0,0,1-.356.236,1.142,1.142,0,0,1-.875,0,1.1,1.1,0,0,1-.354-.236,1.093,1.093,0,0,1-.325-.78Zm.426,0a.863.863,0,0,0,.048.294.634.634,0,0,0,.137.229.6.6,0,0,0,.217.151.731.731,0,0,0,.289.056.713.713,0,0,0,.286-.056.607.607,0,0,0,.219-.151.659.659,0,0,0,.136-.229.891.891,0,0,0,0-.591.668.668,0,0,0-.136-.23.659.659,0,0,0-.219-.151.713.713,0,0,0-.286-.054.73.73,0,0,0-.289.054.652.652,0,0,0-.217.151.643.643,0,0,0-.137.23A.859.859,0,0,0,594.3,47.257Z" transform="translate(-591.726 -44.902)"/><path class="ae" d="M595.142,47.257a1.063,1.063,0,0,1,.085-.432,1.208,1.208,0,0,1,.238-.351,1.136,1.136,0,0,1,.356-.236,1.087,1.087,0,0,1,.436-.085,1.1,1.1,0,0,1,.44.085,1.1,1.1,0,0,1,.591.587,1.1,1.1,0,0,1-.236,1.212,1.135,1.135,0,0,1-1.23.236,1.1,1.1,0,0,1-.594-.587A1.067,1.067,0,0,1,595.142,47.257Zm.426,0a.911.911,0,0,0,.046.294.668.668,0,0,0,.139.229.6.6,0,0,0,.217.151.764.764,0,0,0,.575,0,.624.624,0,0,0,.219-.151.686.686,0,0,0,.135-.229.89.89,0,0,0,0-.591.7.7,0,0,0-.135-.23.68.68,0,0,0-.219-.151.79.79,0,0,0-.575,0,.65.65,0,0,0-.217.151.677.677,0,0,0-.139.23A.907.907,0,0,0,595.568,47.257Z" transform="translate(-590.535 -44.902)"/><path class="ae" d="M598.621,48.885h-.4v-.3h-.01a.791.791,0,0,1-.318.263,1.015,1.015,0,0,1-.414.093,1.129,1.129,0,0,1-.442-.085.948.948,0,0,1-.337-.236,1.044,1.044,0,0,1-.215-.351,1.247,1.247,0,0,1-.076-.432,1.272,1.272,0,0,1,.076-.438,1.044,1.044,0,0,1,.215-.351.99.99,0,0,1,.337-.232,1.128,1.128,0,0,1,.442-.083.938.938,0,0,1,.424.095.705.705,0,0,1,.308.259h.01V45.535h.4Zm-1.09-.32a.723.723,0,0,0,.289-.056.616.616,0,0,0,.217-.151.664.664,0,0,0,.138-.229.891.891,0,0,0,0-.591.632.632,0,0,0-.354-.381.795.795,0,0,0-.577,0,.663.663,0,0,0-.215.151.643.643,0,0,0-.139.23.923.923,0,0,0,0,.591.635.635,0,0,0,.139.229.61.61,0,0,0,.215.151A.73.73,0,0,0,597.53,48.566Z" transform="translate(-589.345 -45.481)"/><path class="ae" d="M598.912,48.165a.724.724,0,0,0,.3.256.885.885,0,0,0,.37.081.724.724,0,0,0,.217-.035.593.593,0,0,0,.2-.1.531.531,0,0,0,.149-.165.445.445,0,0,0,.056-.225.333.333,0,0,0-.114-.277,1.027,1.027,0,0,0-.286-.161q-.171-.064-.372-.122a1.581,1.581,0,0,1-.372-.168.914.914,0,0,1-.287-.285.879.879,0,0,1-.114-.484.834.834,0,0,1,.058-.294.894.894,0,0,1,.19-.285,1.075,1.075,0,0,1,.331-.213,1.216,1.216,0,0,1,.484-.087,1.661,1.661,0,0,1,.492.072.846.846,0,0,1,.412.287l-.347.316a.58.58,0,0,0-.225-.2.715.715,0,0,0-.333-.076.837.837,0,0,0-.294.046.532.532,0,0,0-.188.12.409.409,0,0,0-.1.157.482.482,0,0,0-.029.157.393.393,0,0,0,.116.3.9.9,0,0,0,.285.174,3.692,3.692,0,0,0,.374.118,1.659,1.659,0,0,1,.372.149.881.881,0,0,1,.285.258.759.759,0,0,1,.116.443.931.931,0,0,1-.087.409.853.853,0,0,1-.232.306,1.027,1.027,0,0,1-.345.19,1.287,1.287,0,0,1-.428.068,1.591,1.591,0,0,1-.571-.107.958.958,0,0,1-.428-.329Z" transform="translate(-587.332 -45.417)"/><path class="ae" d="M599.9,46.463a1.067,1.067,0,0,1,.391-.232,1.311,1.311,0,0,1,.442-.077,1.279,1.279,0,0,1,.4.056.807.807,0,0,1,.273.155.619.619,0,0,1,.155.223.7.7,0,0,1,.052.265v1.073c0,.074,0,.141,0,.2s.008.122.014.178h-.354c-.01-.107-.014-.213-.014-.32h-.008a.775.775,0,0,1-.314.289,1,1,0,0,1-.422.085.956.956,0,0,1-.281-.043A.674.674,0,0,1,600,48.2a.58.58,0,0,1-.215-.471.608.608,0,0,1,.091-.341.666.666,0,0,1,.25-.223,1.158,1.158,0,0,1,.368-.126,2.721,2.721,0,0,1,.449-.037h.292v-.089a.472.472,0,0,0-.031-.161.446.446,0,0,0-.093-.141.408.408,0,0,0-.155-.1.6.6,0,0,0-.223-.039,1.02,1.02,0,0,0-.2.021,1.063,1.063,0,0,0-.157.056.724.724,0,0,0-.13.077l-.11.085Zm1.127.833a2.535,2.535,0,0,0-.292.015,1.054,1.054,0,0,0-.269.06.556.556,0,0,0-.2.124.278.278,0,0,0-.077.2.289.289,0,0,0,.122.261.588.588,0,0,0,.329.079.634.634,0,0,0,.279-.054.514.514,0,0,0,.188-.145.573.573,0,0,0,.1-.2.848.848,0,0,0,.031-.217V47.3Z" transform="translate(-586.183 -44.902)"/><path class="ae" d="M601.023,47.155h0V46.81h0V46.34a1.008,1.008,0,0,1,.163-.627.672.672,0,0,1,.556-.205c.043,0,.091,0,.138,0a1.013,1.013,0,0,1,.159.027l-.045.354a.473.473,0,0,0-.11-.031.716.716,0,0,0-.116-.008.411.411,0,0,0-.176.031.265.265,0,0,0-.1.1.411.411,0,0,0-.05.149,1.926,1.926,0,0,0-.01.2v.484h.474v.345h-.478v1.756h-.4Z" transform="translate(-585.029 -45.507)"/><path class="ae" d="M602.036,47.4a.532.532,0,0,0,.058.25.661.661,0,0,0,.157.194.683.683,0,0,0,.225.122.791.791,0,0,0,.267.046.6.6,0,0,0,.326-.087,1.06,1.06,0,0,0,.25-.229l.3.23a1.114,1.114,0,0,1-.932.432,1.148,1.148,0,0,1-.449-.085.956.956,0,0,1-.343-.234,1.027,1.027,0,0,1-.215-.351,1.269,1.269,0,0,1-.075-.434,1.151,1.151,0,0,1,.083-.438,1.1,1.1,0,0,1,.225-.351,1.06,1.06,0,0,1,.345-.232,1.1,1.1,0,0,1,.434-.083,1.059,1.059,0,0,1,.473.1.932.932,0,0,1,.316.254,1.022,1.022,0,0,1,.18.354,1.5,1.5,0,0,1,.056.4V47.4Zm1.257-.32a.869.869,0,0,0-.041-.244.52.52,0,0,0-.116-.192.483.483,0,0,0-.188-.128.643.643,0,0,0-.261-.048.65.65,0,0,0-.269.056.672.672,0,0,0-.207.143.686.686,0,0,0-.13.2.542.542,0,0,0-.045.215Z" transform="translate(-584.48 -44.902)"/><path class="ae" d="M603.882,46.809h-.571v.953c0,.06,0,.12,0,.176a.467.467,0,0,0,.035.155.236.236,0,0,0,.089.11.289.289,0,0,0,.174.043.966.966,0,0,0,.145-.014.5.5,0,0,0,.139-.048v.364a.559.559,0,0,1-.184.054,1.648,1.648,0,0,1-.176.017.8.8,0,0,1-.356-.066.414.414,0,0,1-.186-.167.48.48,0,0,1-.072-.227c-.008-.085-.012-.172-.012-.256v-1.1h0v-.345h0v-.589h.4v.589h.571Z" transform="translate(-583.259 -45.161)"/><path class="ae" d="M603.577,46.18h.461l.622,1.64h.008l.6-1.64h.424l-1,2.552c-.037.091-.074.176-.11.252a.785.785,0,0,1-.139.192.587.587,0,0,1-.19.124.728.728,0,0,1-.277.045,1.4,1.4,0,0,1-.178-.012.611.611,0,0,1-.174-.046l.048-.362a.649.649,0,0,0,.236.046.429.429,0,0,0,.159-.023.287.287,0,0,0,.109-.072.4.4,0,0,0,.077-.108c.021-.041.041-.089.062-.141l.128-.333Z" transform="translate(-582.636 -44.877)"/></g></g></svg>