<svg xmlns="http://www.w3.org/2000/svg" width="28.244" height="58.59" viewBox="0 0 28.244 58.59">
  <g id="Group_305" data-name="Group 305" transform="translate(-110 -61)">
    <path id="Path_17798" data-name="Path 17798" d="M323.917,84.31l1.048,1.342L310.341,95.869Zm-13.576,18.806L324.965,92.9l-1.048-1.342Zm0,7.493,14.626-10.216-1.05-1.342Zm0-22.081L324.965,78.31l-1.048-1.34Zm0-7.31L324.965,71l-1.048-1.34Zm0-7.214,14.624-10.217-1.048-1.342Zm-.466-3.6.8-17.83h-1.7Zm1.488.433,7.651-16.124-1.569-.66Zm-2.8.29-7.149-16.353-1.527.751Zm.51,8.582V73.767L296.725,62.443v5.8Zm0,7.865V81.633L296.725,70.309v5.8Zm0,7.864V89.5L296.725,78.173v5.8Zm0,7.862V97.359L296.725,86.035v5.8Zm0,7.864v-5.943L296.725,93.9v5.8Z" transform="translate(-186.725 8.427)" fill="#2b5135"/>
  </g>
</svg>
