<svg xmlns="http://www.w3.org/2000/svg" xmlns:xlink="http://www.w3.org/1999/xlink" width="56.808" height="51.614" viewBox="0 0 56.808 51.614">
  <defs>
    <linearGradient id="linear-gradient" x1="0.5" x2="0.5" y2="1" gradientUnits="objectBoundingBox">
      <stop offset="0" stop-color="#f2e0cb"/>
      <stop offset="1" stop-color="#dcb383"/>
    </linearGradient>
  </defs>
  <path id="Path_18538" data-name="Path 18538" d="M817.72,48.972c.361-.387.62-.659.637-.678a.848.848,0,0,0,.009-1.176,20.406,20.406,0,0,0-6.87-4.133l.018-.024.015-.017a.849.849,0,0,0-.1-1.176c-4.011-3.461-10.3-4.872-12.655-5.3.113-.293.194-.513.23-.646a1.215,1.215,0,0,0-.411-1.209c-1.437-1.457-9.579-4.641-15.753-3.061a.839.839,0,0,0-.631.767l0,.026c-.213-.074-.4-.122-.6-.172l0-.017-.022,0-.011-.039,0-.017-.007-.015,0-.015a1.95,1.95,0,0,0-.235-.7l-.62-1.839.1,1.274c-.807-.548-2.231-.6-6.078-.254a25.826,25.826,0,0,0-8.631,2.222.871.871,0,0,0-.439.559c-.121.522-1.126,5.418.75,16.361a114.894,114.894,0,0,0,5.409,19.942h0l0,0-.248.08a.841.841,0,0,0-.574.733,25.668,25.668,0,0,0,1.085,8.418.841.841,0,0,0,.443.524.816.816,0,0,0,.694.02c.572-.222,5.891-2.154,16.594-1.428a114.427,114.427,0,0,1,17.362,2.357,4.635,4.635,0,0,0,.8.146h0c.818,0,.957-.657,1.3-2.241a40.911,40.911,0,0,1,1.867-6.568l0-.03.017-.035,0,0c.087-.2.183-.435.291-.7l.07-.17a84.064,84.064,0,0,1,3.815-8.124c1.769-3.35,3.145-5.755,4.059-7.348l.113-.193c1.215-2.111,1.5-2.628,1.5-3.1C821.02,51.578,820.99,51.026,817.72,48.972ZM772.66,71.149c.178-.057.359-.113.541-.167l.011,0c5.615-1.7,14.426-3,19.468-2.239,1.6.337,3.207.717,4.774,1.133,4.241,1.13,6.957,1.987,8.755,2.554,1.244.393,2.033.639,2.613.752l-.009.026.009,0c-.6,1.9-.963,3.561-1.2,4.687-.056.274-.115.546-.167.774a116.026,116.026,0,0,0-17.527-2.374c-9.033-.615-14.318.583-16.444,1.241a25.7,25.7,0,0,1-.82-6.246Zm37.293-1.015-.1.233c-.1.239-.189.457-.272.648v0c-.133.3-.213.461-.263.546-.385-.05-1.526-.409-2.607-.748-1.676-.53-4.485-1.42-8.828-2.576-1.848-.491-3.735-.913-5.609-1.252-.191-.035-.374-.065-.561-.1v0l-.333-.057-.015,0-.313-.05v0c-5.1-.824-9.4-.872-9.85-.489l-.13.122,0,.157c0,.38.169.4,2.174.648h0a64.752,64.752,0,0,0-9.813,1.928,112.621,112.621,0,0,1-5.366-19.744,67.662,67.662,0,0,1-1.089-11.42,25.371,25.371,0,0,1,.252-3.87,25.343,25.343,0,0,1,7.646-1.878c1.228-.113,4.452-.407,4.963-.046a3.382,3.382,0,0,0,.091.852c.026.124.05.237.061.33.07.615.13,1.233.191,1.85l.076.765c.218,2.165.476,4.683.8,7.165,1.8,13.909,2.044,14.153,2.144,14.255a.419.419,0,0,0,.3.133.406.406,0,0,0,.157-.033c.167-.07.608-.257.533-3.248-.02-.615-.087-1.52-.154-2.4l-.048-.615a88.6,88.6,0,0,1-.363-11.083c.128-2.359.309-3.894.418-4.813.13-1.12.169-1.457-.063-1.689a.446.446,0,0,0-.156-.1l.028-.48c5.513-1.1,12.263,1.659,13.409,2.607-.078.213-.193.511-.319.837h0l-.1.267-.189.313.056.022a75.165,75.165,0,0,0-4.2,13.792,76.7,76.7,0,0,0-1.039,12.779c0,.974.15,2.674.576,3.083a.438.438,0,0,0,.313.135h.017c.409-.015.411-.074.565-3.057a103.629,103.629,0,0,1,1.233-12.64,72.731,72.731,0,0,1,3.981-13.137c1.661.293,7.633,1.513,11.542,4.474l-.057.074h0l-.157.211-.024.033-.22.3,0,0a47.385,47.385,0,0,0-5.335,9.711c-2.533,6.237-3.824,14.046-3.509,14.609l.089.15.154.028a.776.776,0,0,0,.133.015c.291,0,.4-.383,1.18-3.191a106.484,106.484,0,0,1,3.52-10.976,46.516,46.516,0,0,1,4.978-9.122,21.82,21.82,0,0,1,6.1,3.357c-.141.152-.326.359-.507.554h0l-.222.248a59.213,59.213,0,0,0-5.837,7.528c-2.648,4.191-4.342,10.224-4.111,10.829l.074.176.163.046a.558.558,0,0,0,.139.022c.281,0,.442-.38,1.165-2.089a57.277,57.277,0,0,1,4-8.079,56.045,56.045,0,0,1,5.163-6.737,23.858,23.858,0,0,1,2.665,1.863c-.211.426-.709,1.289-1.2,2.144-.93,1.622-2.339,4.072-4.189,7.572A84.591,84.591,0,0,0,809.953,70.133ZM782.569,36.969l-.074,1.052c-.067.915-.139,2.044-.2,3.2-.163-1.75-.319-3.6-.413-5.091-.022-.35-.028-.709-.035-1.072l.035.1-.05-.487c0-.226-.015-.448-.024-.672.437.163.782.337.791.341a.842.842,0,0,0,.252.054A17.54,17.54,0,0,0,782.569,36.969Z" transform="translate(-764.71 -29.372)" stroke="rgba(0,0,0,0)" stroke-width="1" fill="url(#linear-gradient)"/>
</svg>
