<svg xmlns="http://www.w3.org/2000/svg" width="94.293" height="71.078" viewBox="0 0 94.293 71.078">
  <path id="Path_9063" data-name="Path 9063" d="M731.426,59.756a4.741,4.741,0,0,0-4.937-3.72c.827-1.689,1.563-3.489.99-5.347a7.852,7.852,0,0,0-1.923-2.913c-1.142-1.265-2.16-2.353-3.109-3.33a57.692,57.692,0,0,0-6.459-5.818c-2.122-1.611-4.706-3.313-7.751-3.7a12.611,12.611,0,0,0-7.585,1.627c-1.048.556-2.065,1.224-3.059,1.875a24.091,24.091,0,0,1-5.109,2.79,26.5,26.5,0,0,1-7.5,1.1l-1.061.058a43.319,43.319,0,0,0-24.5,9.087c-2.071,1.536-4.1,3.194-6.086,4.818l-.868.712c-1.529,1.248-3.143,2.428-4.72,3.581l-1.5,1.1c-4.1,3.031-8.09,6.425-7.928,11.64a27.551,27.551,0,0,0,1.16,6.195l.044.166c.122.461.248.915.363,1.377.295,1.177.532,2.39.763,3.58.247,1.265.5,2.573.834,3.845,1.644,6.3,4.791,10.091,9.616,11.61a32.37,32.37,0,0,0,6.066,1.085c.875.1,1.749.2,2.618.329a19.749,19.749,0,0,1,4.319,1.058c.163.064.325.139.489.214.641.3,1.248.58,1.838.129a79.071,79.071,0,0,0,16.936,2.021,55.075,55.075,0,0,0,7.08-.444,46.42,46.42,0,0,0,10.019-2.818l1.112-.4c1.553-.563,3.143-1.041,4.7-1.509,2-.6,4.072-1.231,6.052-2.028a33.7,33.7,0,0,0,5.357-2.655,12.766,12.766,0,0,0,3.591-3.7,1,1,0,0,0,.925-.329,1.941,1.941,0,0,0,.217-1.8l-1.3-7.493a4.939,4.939,0,0,0,1.065-1.031c.105-.122.2-.241.3-.346a28.6,28.6,0,0,0,1.983-2.438A38.4,38.4,0,0,0,727.947,72c.248-.515.519-1.048.8-1.594l.01-.017C730.439,67.09,732.348,63.353,731.426,59.756Zm-7.469-4.045c-.125.288-.281.6-.448.932a8.056,8.056,0,0,0-1.058,3.031,1.4,1.4,0,0,0,.631,1.227,1.094,1.094,0,0,0,1.132.01,3.857,3.857,0,0,0,.851-.736,4.369,4.369,0,0,1,.654-.607,3.561,3.561,0,0,1,1.831-.8c1.1,0,1.4,1.221,1.468,2.238.18,2.767-1.187,5.6-2.418,8.151-.18.373-.356.739-.525,1.1a33.186,33.186,0,0,1-5.432,8.443c-.081-.668-.149-1.336-.214-2.007-.1-.99-.2-2.017-.356-3.014a10.229,10.229,0,0,0,1.1-1.76l.265-.481a34.471,34.471,0,0,0,1.59-3.275c.458-1.078.858-2.173,1.2-3.255l.054-.173c.19-.587.427-1.319-.115-1.851a1.256,1.256,0,0,0-1.4-.231,2.118,2.118,0,0,0-.865,1.519c-.041.159-.081.315-.126.451a31.862,31.862,0,0,1-2.658,5.879,3.512,3.512,0,0,0-.983-1.153,9.115,9.115,0,0,0-1.675-.915,11.439,11.439,0,0,1-1.238-.62,12.073,12.073,0,0,1-2.97-2.5,10.348,10.348,0,0,1-1.631-3L710.4,61.8c-.515-1.241-1.217-2.943-2.709-3.1a4.622,4.622,0,0,0-1.3.132l-.207.041a26.225,26.225,0,0,0,3.913-5.144,27.811,27.811,0,0,0,1.736-3.608c.349-.875.577-1.838-.387-2.323a1.006,1.006,0,0,0-.827-.092,1.521,1.521,0,0,0-.8.905l-.122.281a32.238,32.238,0,0,1-1.854,3.838,23.954,23.954,0,0,1-2.5,3.462c-.485.549-1,1.088-1.529,1.594-.126.122-.261.237-.42.376a6.877,6.877,0,0,0-.607.573,8.6,8.6,0,0,1-3.32-2.265,3.5,3.5,0,0,0-2.3-1.36,6.136,6.136,0,0,0-3.685,1.407,6.673,6.673,0,0,1-3.33,1.4,13.366,13.366,0,0,1-3.258-.441,11.4,11.4,0,0,0-3.828-.4,4.491,4.491,0,0,0-2.689,1.248,5.607,5.607,0,0,0-1.017,1.59,4.387,4.387,0,0,1-1.021,1.451,10.634,10.634,0,0,0-.983-.475,8.389,8.389,0,0,1-1.119-.559,11.255,11.255,0,0,1-2.35-1.963,6.491,6.491,0,0,1-.468-.627c-.59-.841-1.129-1.543-1.8-1.611a1.1,1.1,0,0,0-.858.356c-1.028.976.4,2.5,1.163,3.306l.217.237a13.367,13.367,0,0,0,1.817,1.651,2.008,2.008,0,0,0-1.373.526,7.663,7.663,0,0,0-1.065,1.3c-.136.19-.268.38-.407.566a4.275,4.275,0,0,1-3.075,1.644c-.922.058-1.139-.268-1.536-.861-.1-.149-.21-.312-.342-.485a11.842,11.842,0,0,0-1.536-1.658A11.6,11.6,0,0,0,661,60.546c-1.275-.478-3.011-.963-4.032-.593a1.215,1.215,0,0,0-.746.9,1.3,1.3,0,0,0,.329,1.187,1.622,1.622,0,0,0,1.19.353c.112,0,.221,0,.325.014a8.237,8.237,0,0,1,2.652.675,9.1,9.1,0,0,1,3.306,2.546,3.038,3.038,0,0,0-1.926,1.828l-.23.519a6.909,6.909,0,0,1-.99,1.77,4.719,4.719,0,0,1-.777.671,4.444,4.444,0,0,0-.817.715,8.971,8.971,0,0,0-1.472,3.628,4.858,4.858,0,0,0,.977,3.414,21.919,21.919,0,0,1-7.232,3.058,20.235,20.235,0,0,1-2.346.37c-.159.017-.329.02-.5.024a3.165,3.165,0,0,0-1.071.136,1.272,1.272,0,0,0-.692,1.651c.329.858,1.224.776,1.943.709l.173-.017a24.654,24.654,0,0,0,3.876-.641,23.857,23.857,0,0,0,6.948-3.062,17.4,17.4,0,0,1,.359,2.79c.047.634.095,1.231.176,1.794.254,1.736.59,3.564.993,5.432.607,2.8,1.37,5.74,2.475,9.507a37.284,37.284,0,0,0-6.208-1.173l-.143-.017c-.966-.132-1.96-.261-2.94-.431-2.536-.441-5.408-1.193-7.463-3.455-2.818-3.106-3.642-7.659-4.367-11.677-.115-.637-.227-1.265-.349-1.875-.173-.888-.4-1.8-.631-2.692a26.319,26.319,0,0,1-.943-5.13c-.156-3.472,2.139-5.835,4.645-7.876,1.156-.943,2.353-1.861,3.523-2.753,1.333-1.024,2.712-2.082,4.031-3.174l.871-.729C656.245,57,658.653,55,661.145,53.2a42.764,42.764,0,0,1,18.577-7.775c1.492-.234,3.028-.332,4.52-.431a42.148,42.148,0,0,0,5.432-.59,27.44,27.44,0,0,0,8.168-3.333c.478-.271.963-.559,1.445-.851,2.359-1.41,4.8-2.872,7.595-2.926h.112c3.631,0,6.693,2.482,9.287,4.818.753.678,1.529,1.343,2.37,2.065,1.414,1.21,2.872,2.462,4.194,3.794.844.851,2.119,2.143,2.224,3.662A9.044,9.044,0,0,1,723.956,55.711Zm-28.173,28.6a61.116,61.116,0,0,0-12.3,2.309,57.97,57.97,0,0,0-11.6,4.5,14.145,14.145,0,0,0-6.252,6.174q-.565-1.984-1.071-3.977a20.3,20.3,0,0,0,1.668-1.587c.495-.505,1-1.027,1.532-1.472a32.073,32.073,0,0,1,4.452-3.113,31.576,31.576,0,0,1,10.067-3.7c.156-.031.332-.051.532-.075a2.763,2.763,0,0,0,1.814-.637,1.051,1.051,0,0,0,.193-.824,1.18,1.18,0,0,0-.441-.851,2.794,2.794,0,0,0-2.011-.149,33.433,33.433,0,0,0-9.9,3.265,34.975,34.975,0,0,0-8.575,6.3c-.173-.78-.343-1.556-.5-2.34a9,9,0,0,0,.672-.756c.193-.234.386-.468.583-.668a23.013,23.013,0,0,1,1.872-1.7,21.492,21.492,0,0,1,8.755-4.262c.651-.156,1.384-.329,1.661-.831a1.124,1.124,0,0,0,.01-.939c-.4-1.122-1.553-.831-2.394-.621l-.152.037a24.055,24.055,0,0,0-4.672,1.678,24.4,24.4,0,0,0-6.856,4.964c-.088-.675-.163-1.349-.237-2.024-.112-1.021-.231-2.075-.393-3.092a6.723,6.723,0,0,0-.837-2.092,7.564,7.564,0,0,1-.756-1.739c-.4-1.644.556-2.77,1.485-3.865.261-.309.525-.617.763-.943a5.8,5.8,0,0,0,.488-.814,1.969,1.969,0,0,1,.966-.868c.227-.125.437-.254.668-.4a4.28,4.28,0,0,1,2.434-.929,5.761,5.761,0,0,0,4.14-1.078,5.443,5.443,0,0,0,1.011-1.268c.712-1.1,1.265-1.8,2.431-1.492a5.615,5.615,0,0,0,3.723.078,4.09,4.09,0,0,0,2.455-2.8c.644-1.811,1.974-2.418,4.184-1.919l.156.037a15.453,15.453,0,0,0,4.95.57,10.426,10.426,0,0,0,3.974-1.509l.5-.271a4.211,4.211,0,0,1,1.783-.682,3.377,3.377,0,0,1,2.007,1.109l.278.244a7.374,7.374,0,0,0,4.2,2.045c.444.044.891.061,1.339.075s.865.027,1.289.071l.186.024a2.69,2.69,0,0,0,1.173-.037l.01.024a2.87,2.87,0,0,0,.336.59,4.077,4.077,0,0,1,.23.373c.156.305.288.62.441.987.105.251.21.5.332.749a14.011,14.011,0,0,0,3.326,4.238,11.747,11.747,0,0,0,2.251,1.431,11.271,11.271,0,0,1,2.218,1.414c1.237,1.092,1.441,3.065,1.607,4.649l.041.393c.441,4.065,1.122,8.046,1.79,11.911A54.917,54.917,0,0,0,695.784,84.311Zm13.529,11.755c-4.408,1.729-8.9,3.2-14.275,4.879a31.111,31.111,0,0,1-9.457,1.041h-1c-3.509-.02-7.219-.224-11.677-.641-2.068-.193-4.239-.431-5.828-.641l.037-.237a8.328,8.328,0,0,1,.959-3.319,9.255,9.255,0,0,1,3.041-3.014,30.458,30.458,0,0,1,6.68-2.9L679,90.817a74.882,74.882,0,0,1,13.013-3.594A48.482,48.482,0,0,1,705.328,87a54.924,54.924,0,0,1,13.844,3.594A33.179,33.179,0,0,1,709.312,96.066Z" transform="translate(-637.818 -34.342)" fill="#fff" stroke="rgba(0,0,0,0)" stroke-width="1"/>
</svg>
