<svg xmlns="http://www.w3.org/2000/svg" xmlns:xlink="http://www.w3.org/1999/xlink" width="69.846" height="52.715" viewBox="0 0 69.846 52.715">
  <defs>
    <linearGradient id="linear-gradient" x1="0.5" x2="0.5" y2="1" gradientUnits="objectBoundingBox">
      <stop offset="0" stop-color="#f2e0cb"/>
      <stop offset="1" stop-color="#dcb383"/>
    </linearGradient>
  </defs>
  <path id="Path_9063" data-name="Path 9063" d="M707.027,53.227a3.5,3.5,0,0,0-3.643-2.745,5.361,5.361,0,0,0,.731-3.946,5.794,5.794,0,0,0-1.419-2.149c-.843-.933-1.594-1.736-2.294-2.457a42.575,42.575,0,0,0-4.767-4.294,12.307,12.307,0,0,0-5.72-2.732,9.307,9.307,0,0,0-5.6,1.2c-.773.41-1.524.9-2.257,1.384a17.778,17.778,0,0,1-3.771,2.059,19.56,19.56,0,0,1-5.535.811l-.783.043a31.967,31.967,0,0,0-18.081,6.706c-1.529,1.133-3.025,2.357-4.491,3.556l-.641.525c-1.128.921-2.319,1.792-3.483,2.642l-1.106.811c-3.025,2.237-5.97,4.742-5.85,8.59a20.33,20.33,0,0,0,.856,4.571l.033.123c.09.34.183.676.268,1.016.218.868.393,1.764.563,2.642.183.933.37,1.9.615,2.837,1.214,4.646,3.536,7.446,7.1,8.567a23.887,23.887,0,0,0,4.476.8c.646.073,1.291.148,1.932.243a14.573,14.573,0,0,1,3.188.781c.12.048.24.1.361.158.473.22.921.428,1.356.1a58.351,58.351,0,0,0,12.5,1.491,40.643,40.643,0,0,0,5.224-.328,34.255,34.255,0,0,0,7.394-2.079l.821-.3c1.146-.415,2.319-.768,3.468-1.113,1.476-.445,3.005-.908,4.466-1.5a24.868,24.868,0,0,0,3.953-1.959,9.42,9.42,0,0,0,2.65-2.727.737.737,0,0,0,.683-.243,1.432,1.432,0,0,0,.16-1.329l-.956-5.53a3.645,3.645,0,0,0,.786-.761c.078-.09.15-.178.22-.255a21.1,21.1,0,0,0,1.464-1.8,28.333,28.333,0,0,0,2.565-4.379c.183-.38.383-.773.588-1.176l.007-.013C706.3,58.639,707.708,55.882,707.027,53.227Zm-5.512-2.985c-.093.213-.208.44-.33.688a5.945,5.945,0,0,0-.781,2.237,1.031,1.031,0,0,0,.465.906.807.807,0,0,0,.836.007,2.846,2.846,0,0,0,.628-.543,3.223,3.223,0,0,1,.483-.448,2.627,2.627,0,0,1,1.351-.59c.808,0,1.033.9,1.083,1.651.133,2.042-.876,4.131-1.784,6.015-.133.275-.262.545-.388.813a24.491,24.491,0,0,1-4.008,6.23c-.06-.493-.11-.986-.158-1.481-.073-.731-.148-1.489-.263-2.224a7.547,7.547,0,0,0,.808-1.3l.2-.355a25.438,25.438,0,0,0,1.174-2.417c.338-.8.633-1.6.883-2.4l.04-.128c.14-.433.315-.973-.085-1.366a.927.927,0,0,0-1.036-.17,1.564,1.564,0,0,0-.638,1.121c-.03.118-.06.233-.093.333a23.511,23.511,0,0,1-1.962,4.339,2.592,2.592,0,0,0-.726-.851,6.725,6.725,0,0,0-1.236-.676,8.441,8.441,0,0,1-.913-.458,8.909,8.909,0,0,1-2.192-1.842,7.638,7.638,0,0,1-1.2-2.212l-.158-.383c-.38-.916-.9-2.172-2-2.284a3.41,3.41,0,0,0-.961.1l-.153.03a19.353,19.353,0,0,0,2.887-3.8,20.517,20.517,0,0,0,1.281-2.662c.258-.646.426-1.356-.285-1.714a.743.743,0,0,0-.61-.068,1.123,1.123,0,0,0-.591.668l-.09.208a23.792,23.792,0,0,1-1.368,2.832,17.681,17.681,0,0,1-1.847,2.555c-.358.405-.736.8-1.128,1.176-.093.09-.193.175-.31.278a5.071,5.071,0,0,0-.448.423,6.349,6.349,0,0,1-2.45-1.671,2.579,2.579,0,0,0-1.7-1,4.528,4.528,0,0,0-2.72,1.038,4.924,4.924,0,0,1-2.457,1.036,9.863,9.863,0,0,1-2.4-.325,8.413,8.413,0,0,0-2.825-.3,3.314,3.314,0,0,0-1.984.921,4.138,4.138,0,0,0-.751,1.174,3.237,3.237,0,0,1-.753,1.071,7.849,7.849,0,0,0-.726-.35,6.191,6.191,0,0,1-.826-.413,8.307,8.307,0,0,1-1.734-1.449,4.8,4.8,0,0,1-.345-.463c-.435-.621-.833-1.138-1.326-1.189a.813.813,0,0,0-.633.263c-.758.721.293,1.842.858,2.44l.16.175a9.863,9.863,0,0,0,1.341,1.219,1.482,1.482,0,0,0-1.013.388,5.658,5.658,0,0,0-.786.958c-.1.14-.2.28-.3.418a3.155,3.155,0,0,1-2.27,1.214c-.68.043-.841-.2-1.133-.636-.073-.11-.155-.23-.253-.358a8.74,8.74,0,0,0-1.133-1.224,8.557,8.557,0,0,0-2.67-1.606,5.184,5.184,0,0,0-2.975-.438.9.9,0,0,0-.55.661.956.956,0,0,0,.243.876,1.2,1.2,0,0,0,.878.26c.083,0,.163,0,.24.01a6.078,6.078,0,0,1,1.957.5,6.719,6.719,0,0,1,2.44,1.879,2.242,2.242,0,0,0-1.421,1.349l-.17.383a5.1,5.1,0,0,1-.73,1.306,3.485,3.485,0,0,1-.573.5,3.277,3.277,0,0,0-.6.528,6.619,6.619,0,0,0-1.086,2.677,3.585,3.585,0,0,0,.721,2.52,16.175,16.175,0,0,1-5.337,2.257,14.931,14.931,0,0,1-1.732.273c-.118.013-.243.015-.37.018a2.336,2.336,0,0,0-.79.1.938.938,0,0,0-.511,1.219c.243.633.9.573,1.434.523l.128-.013a18.192,18.192,0,0,0,2.86-.473,17.605,17.605,0,0,0,5.127-2.259,12.832,12.832,0,0,1,.265,2.059c.035.468.07.908.13,1.324.188,1.281.435,2.63.733,4.008.448,2.069,1.011,4.236,1.827,7.016A27.514,27.514,0,0,0,652.608,82l-.105-.013c-.713-.1-1.446-.193-2.169-.318a9.219,9.219,0,0,1-5.507-2.55c-2.079-2.292-2.687-5.652-3.223-8.617-.085-.47-.168-.933-.258-1.384-.128-.656-.3-1.331-.465-1.987a19.426,19.426,0,0,1-.7-3.786c-.115-2.562,1.579-4.306,3.428-5.812.853-.7,1.736-1.374,2.6-2.032.983-.756,2-1.536,2.975-2.342l.643-.538c1.716-1.426,3.493-2.9,5.332-4.234a31.558,31.558,0,0,1,13.709-5.737c1.1-.173,2.234-.245,3.335-.318a31.1,31.1,0,0,0,4.008-.435,20.249,20.249,0,0,0,6.028-2.46c.353-.2.711-.413,1.066-.628,1.741-1.041,3.54-2.119,5.6-2.159H689c2.68,0,4.939,1.832,6.853,3.556.555.5,1.128.991,1.749,1.524,1.043.893,2.119,1.817,3.1,2.8a4.746,4.746,0,0,1,1.641,2.7A6.674,6.674,0,0,1,701.515,50.242Zm-20.79,21.106a45.1,45.1,0,0,0-9.075,1.7,42.779,42.779,0,0,0-8.557,3.32,10.439,10.439,0,0,0-4.614,4.556q-.417-1.464-.791-2.935a14.987,14.987,0,0,0,1.231-1.171c.365-.373.74-.758,1.131-1.086a23.668,23.668,0,0,1,3.285-2.3,23.3,23.3,0,0,1,7.429-2.732c.115-.023.245-.038.393-.055a2.039,2.039,0,0,0,1.339-.47.776.776,0,0,0,.143-.608.871.871,0,0,0-.325-.628,2.062,2.062,0,0,0-1.484-.11,24.672,24.672,0,0,0-7.306,2.41,25.81,25.81,0,0,0-6.328,4.649c-.128-.575-.253-1.148-.368-1.726a6.64,6.64,0,0,0,.5-.558c.142-.173.285-.345.43-.493a16.983,16.983,0,0,1,1.381-1.256,15.859,15.859,0,0,1,6.461-3.145c.48-.115,1.021-.243,1.226-.613a.83.83,0,0,0,.008-.693c-.3-.828-1.146-.613-1.767-.458l-.112.028a17.75,17.75,0,0,0-3.448,1.239,18.007,18.007,0,0,0-5.059,3.663c-.065-.5-.12-1-.175-1.494-.083-.753-.17-1.531-.29-2.282a4.961,4.961,0,0,0-.618-1.544,5.581,5.581,0,0,1-.558-1.284c-.3-1.214.41-2.044,1.1-2.852.193-.228.388-.455.563-.7a4.281,4.281,0,0,0,.36-.6,1.453,1.453,0,0,1,.713-.641c.168-.093.323-.188.493-.293a3.158,3.158,0,0,1,1.8-.686,4.252,4.252,0,0,0,3.055-.8,4.017,4.017,0,0,0,.746-.936c.525-.813.933-1.331,1.794-1.1a4.144,4.144,0,0,0,2.747.058,3.018,3.018,0,0,0,1.812-2.067c.475-1.336,1.456-1.784,3.088-1.416l.115.028a11.4,11.4,0,0,0,3.653.42,7.694,7.694,0,0,0,2.933-1.113l.365-.2a3.108,3.108,0,0,1,1.316-.5,2.492,2.492,0,0,1,1.481.818l.205.18a5.442,5.442,0,0,0,3.1,1.509c.328.033.658.045.988.055s.638.02.951.053l.138.018a1.985,1.985,0,0,0,.866-.028l.007.018a2.121,2.121,0,0,0,.248.435,3,3,0,0,1,.17.275c.115.225.213.458.325.728.078.185.155.37.245.553a10.341,10.341,0,0,0,2.455,3.128,8.671,8.671,0,0,0,1.661,1.056,8.317,8.317,0,0,1,1.636,1.043c.913.806,1.063,2.262,1.186,3.43l.03.29c.325,3,.828,5.938,1.321,8.79A40.527,40.527,0,0,0,680.725,71.348Zm9.984,8.675c-3.253,1.276-6.565,2.362-10.534,3.6a22.958,22.958,0,0,1-6.979.768h-.738c-2.59-.015-5.327-.165-8.617-.473-1.526-.143-3.128-.318-4.3-.473l.027-.175a6.145,6.145,0,0,1,.708-2.45,6.831,6.831,0,0,1,2.244-2.224,22.478,22.478,0,0,1,4.929-2.139l.893-.308a55.26,55.26,0,0,1,9.6-2.652,35.778,35.778,0,0,1,9.823-.168,40.532,40.532,0,0,1,10.216,2.652A24.485,24.485,0,0,1,690.708,80.023Z" transform="translate(-637.818 -34.341)" stroke="rgba(0,0,0,0)" stroke-width="1" fill="url(#linear-gradient)"/>
</svg>
