<svg xmlns="http://www.w3.org/2000/svg" width="77.494" height="70" viewBox="0 0 77.494 70">
  <g id="harvest_2_" data-name="harvest (2)" transform="translate(0.009 -0.017)">
    <path id="Path_18375" data-name="Path 18375" d="M146.484,231.941l.12-.024a5.444,5.444,0,0,0,4.283-6.4L147.8,209.906l-5.46,1.081Zm0,0" transform="translate(-118.522 -174.763)" fill="#fcda4f"/>
    <path id="Path_18376" data-name="Path 18376" d="M122.622,23.648c-6.252-.131-11.479,7.285-11.674,16.565s4.715,16.909,10.968,17.04S133.4,49.969,133.59,40.689,128.875,23.779,122.622,23.648Zm0,0" transform="translate(-92.383 -19.675)" fill="#ccc033"/>
    <path id="Path_18377" data-name="Path 18377" d="M128.2,36.286a25.418,25.418,0,0,0-6.178-12.552c-6.118.349-11.05,7.871-11.078,17-.027,8.933,4.65,16.149,10.58,16.572C127.118,54.3,130.049,45.623,128.2,36.286Zm0,0" transform="translate(-92.385 -19.748)" fill="#99af17"/>
    <path id="Path_18378" data-name="Path 18378" d="M119.316,237.318l-.12.024a5.444,5.444,0,0,1-6.4-4.283l-3.092-15.614,5.46-1.081Zm0,0" transform="translate(-91.354 -180.14)" fill="#fcda4f"/>
    <path id="Path_18379" data-name="Path 18379" d="M22.736,60.377C19.02,51.872,11.362,47.006,5.631,49.51S-1.733,60.939,1.983,69.445,13.358,82.816,19.089,80.312,26.453,68.882,22.736,60.377Zm0,0" transform="translate(0 -40.662)" fill="#99af17"/>
    <path id="Path_18380" data-name="Path 18380" d="M68.1,16.964C65.987,6.269,58.4-1.239,51.162.194s-11.393,11.265-9.275,21.96,9.7,18.2,16.942,16.769S70.222,27.658,68.1,16.964Zm0,0" transform="translate(-34.424 -0.002)" fill="#eacf32"/>
    <path id="Path_18381" data-name="Path 18381" d="M49.009,20.741c-1.757-8.871.8-17.148,5.857-20.53a9.382,9.382,0,0,0-3.7-.018c-7.239,1.433-11.392,11.265-9.275,21.958s9.7,18.2,16.942,16.769a9.4,9.4,0,0,0,3.418-1.429C56.283,36.29,50.765,29.612,49.009,20.741Zm0,0" transform="translate(-34.424)" fill="#ccc033"/>
    <path id="Path_18382" data-name="Path 18382" d="M90.414,99.311a9.9,9.9,0,0,1-5.046-1.539,1,1,0,0,1,1.124-1.665,7.44,7.44,0,0,0,4.987,1.088,5.791,5.791,0,0,0,3.648-2.784,1,1,0,1,1,1.691,1.083,7.709,7.709,0,0,1-4.947,3.671A7.2,7.2,0,0,1,90.414,99.311Zm0,0" transform="translate(-70.721 -78.21)" fill="#ffeea4"/>
    <path id="Path_18383" data-name="Path 18383" d="M87.206,141.347c-4.122,0-7.592-2.894-7.757-3.033a1,1,0,0,1,1.3-1.533c.039.032,3.888,3.229,7.745,2.429,2.2-.455,4.038-2.148,5.476-5.033a1,1,0,1,1,1.8.9c-1.729,3.469-4.043,5.523-6.879,6.107A8.3,8.3,0,0,1,87.206,141.347Zm0,0" transform="translate(-65.865 -111.244)" fill="#ffeea4"/>
    <path id="Path_18384" data-name="Path 18384" d="M110.9,75.843a1.379,1.379,0,0,0-2.688.528l6.675,41.1a1.164,1.164,0,0,0,.095.3,2.643,2.643,0,0,0,3.069,1.745l.028-.007.033-.005a2.6,2.6,0,0,0,2.125-2.774,1.126,1.126,0,0,0-.027-.312Zm0,0" transform="translate(-90.096 -62.34)" fill="#fff9dc"/>
    <path id="Path_18385" data-name="Path 18385" d="M116.594,117.456a1.14,1.14,0,0,1-.095-.3l-6.675-41.1a1.219,1.219,0,0,1,.35-1.049,1.445,1.445,0,0,0-.856-.088,1.319,1.319,0,0,0-1.107,1.455l6.675,41.1a1.157,1.157,0,0,0,.095.3,2.642,2.642,0,0,0,3.069,1.745l.028-.007.033-.005a2.728,2.728,0,0,0,.748-.267A2.6,2.6,0,0,1,116.594,117.456Zm0,0" transform="translate(-90.096 -62.341)" fill="#fff4c1"/>
    <path id="Path_18386" data-name="Path 18386" d="M279.474,133.219a3.733,3.733,0,0,1-1.772-4.443l8.474-24.963a8.472,8.472,0,1,1,14.661,8.116L284.18,132.362A3.732,3.732,0,0,1,279.474,133.219Zm0,0" transform="translate(-231.075 -81.811)" fill="#ff624b"/>
    <path id="Path_18387" data-name="Path 18387" d="M401.87,33.784h0a3.778,3.778,0,0,0,.669-.875,3.962,3.962,0,0,0-6.931-3.837,3.793,3.793,0,0,0-.387,1.031h0l0,.011q-.031.149-.051.3l-1.183,6.927a1.4,1.4,0,0,0,2.273,1.283l5.268-4.542a3.778,3.778,0,0,0,.335-.288Zm0,0" transform="translate(-328.039 -22.556)" fill="#eacf32"/>
    <g id="Group_1015" data-name="Group 1015" transform="translate(49.931 23.865)">
      <path id="Path_18388" data-name="Path 18388" d="M303.662,231.166a1,1,0,0,1-.4-.084L299,229.23a1,1,0,1,1,.8-1.842l4.262,1.852a1,1,0,0,1-.4,1.925Zm0,0" transform="translate(-298.396 -213.115)" fill="#ff4b34"/>
      <path id="Path_18389" data-name="Path 18389" d="M335.235,208.9a1,1,0,0,1-.4-.084l-5.542-2.406a1,1,0,0,1,.8-1.842l5.542,2.406a1,1,0,0,1-.4,1.926Zm0,0" transform="translate(-323.62 -194.117)" fill="#ff4b34"/>
      <path id="Path_18390" data-name="Path 18390" d="M328.528,168.572a.993.993,0,0,1-.4-.084l-4.262-1.852a1,1,0,1,1,.8-1.842l4.262,1.851a1,1,0,0,1-.4,1.926Zm0,0" transform="translate(-319.101 -160.997)" fill="#ff4b34"/>
      <path id="Path_18391" data-name="Path 18391" d="M361.759,147.846a1.006,1.006,0,0,1-.4-.083l-7.644-3.32a1,1,0,0,1,.8-1.842l7.645,3.32a1,1,0,0,1-.4,1.925Zm0,0" transform="translate(-343.954 -142.517)" fill="#ff4b34"/>
    </g>
    <path id="Path_18392" data-name="Path 18392" d="M395.8,38.882c0-.024.005-.049.009-.074l1.182-6.927c.013-.1.03-.2.052-.3l0-.011h0a3.791,3.791,0,0,1,.386-1.031,3.9,3.9,0,0,1,4.887-1.671,4.028,4.028,0,0,0-1.379-1.253,3.912,3.912,0,0,0-5.335,1.458,3.775,3.775,0,0,0-.386,1.031h0l0,.012c-.022.1-.039.2-.052.3l-1.182,6.928a1.381,1.381,0,0,0,.7,1.432A1.4,1.4,0,0,0,395.8,38.882Zm0,0" transform="translate(-328.039 -22.557)" fill="#ccc033"/>
    <path id="Path_18393" data-name="Path 18393" d="M363.929,48.493l-1.188-5.6a3.069,3.069,0,0,0-.075-.356l0-.01h0a3.221,3.221,0,0,0-.365-.837,3.281,3.281,0,0,0-4.423-1.13,3.108,3.108,0,0,0-1.049,4.34,3.282,3.282,0,0,0,.587.706h0l.008.006c.063.057.127.111.195.163l4.5,3.76a1.14,1.14,0,0,0,1.3.116A1.077,1.077,0,0,0,363.929,48.493Zm0,0" transform="translate(-296.717 -33.395)" fill="#fce575"/>
    <path id="Path_18394" data-name="Path 18394" d="M359.872,44.744c-.066-.051-.131-.105-.195-.162l-.007-.007h0a3.268,3.268,0,0,1-.587-.706,3.122,3.122,0,0,1,.309-3.736,3.178,3.178,0,0,0-1.517.435,3.108,3.108,0,0,0-1.049,4.34,3.282,3.282,0,0,0,.587.706h0l.008.006c.063.057.127.111.195.163l4.5,3.76a1.14,1.14,0,0,0,1.3.116,1.077,1.077,0,0,0,.509-1.158l-.095-.447Zm0,0" transform="translate(-296.717 -33.402)" fill="#eacf32"/>
    <path id="Path_18395" data-name="Path 18395" d="M410.048,81.067a3.281,3.281,0,0,0-3.306-3.149,3.225,3.225,0,0,0-.9.135h0l-.01,0a3.178,3.178,0,0,0-.342.125l-5.376,1.965a1.078,1.078,0,0,0-.711,1.047,1.14,1.14,0,0,0,.79,1.043l5.576,1.819c.078.029.159.056.241.079l.01,0h0a3.274,3.274,0,0,0,.91.123A3.108,3.108,0,0,0,410.048,81.067Zm0,0" transform="translate(-332.565 -64.864)" fill="#fce575"/>
    <path id="Path_18396" data-name="Path 18396" d="M409.185,91.154a3.271,3.271,0,0,1-.91-.122h0l-.01,0c-.082-.023-.162-.05-.241-.078l-5.576-1.82a1.139,1.139,0,0,1-.79-1.042,1.074,1.074,0,0,1,.189-.643l-1.736.635a1.077,1.077,0,0,0-.711,1.047,1.139,1.139,0,0,0,.79,1.042l5.576,1.82c.078.029.159.056.241.078l.01,0h0a3.275,3.275,0,0,0,.91.123,3.15,3.15,0,0,0,2.335-1.041Zm0,0" transform="translate(-332.565 -72.797)" fill="#eacf32"/>
    <path id="Path_18397" data-name="Path 18397" d="M282.127,129.908l8.474-24.963a8.214,8.214,0,0,1,7.688-5.539l-.075-.042a8.357,8.357,0,0,0-12.04,4.449L277.7,128.776a3.733,3.733,0,0,0,1.772,4.443,3.794,3.794,0,0,0,3.3.191A3.684,3.684,0,0,1,282.127,129.908Zm0,0" transform="translate(-231.073 -81.811)" fill="#ff4b34"/>
    <path id="Path_18398" data-name="Path 18398" d="M230.435,113.405a.964.964,0,0,1-.945-.926l-.42-7.128a.971.971,0,0,1,.946-1.047h.839a.97.97,0,0,1,.946,1.047l-.42,7.128A.964.964,0,0,1,230.435,113.405Zm0,0" transform="translate(-190.739 -86.835)" fill="#bf6c0d"/>
    <path id="Path_18399" data-name="Path 18399" d="M240.229,106.564c5.723,3.17,7.285-3.428,7.636-5.586a.652.652,0,0,0-.538-.757c-2.133-.3-8.908-.754-7.576,5.685A.975.975,0,0,0,240.229,106.564Zm0,0" transform="translate(-199.491 -83.314)" fill="#eacf32"/>
    <path id="Path_18400" data-name="Path 18400" d="M230.374,112.48l-.42-7.128a.971.971,0,0,1,.923-1.045h-.862a.971.971,0,0,0-.946,1.047l.42,7.128a.964.964,0,0,0,.945.926.917.917,0,0,0,.443-.114A.989.989,0,0,1,230.374,112.48Zm0,0" transform="translate(-190.739 -86.835)" fill="#8c4c17"/>
    <path id="Path_18401" data-name="Path 18401" d="M161.662,139.667a10,10,0,0,0-8.471,2.325,10,10,0,0,0-8.472-2.325c-6.013,1.294-9.6,8.51-8.021,16.118s7.741,12.728,13.754,11.435a9,9,0,0,0,2.738-1.083,9,9,0,0,0,2.738,1.083c6.013,1.293,12.171-3.826,13.754-11.435S167.675,140.96,161.662,139.667Zm0,0" transform="translate(-113.517 -116.112)" fill="#ff624b"/>
    <path id="Path_18402" data-name="Path 18402" d="M241.473,106.765c-1.137-5.5,3.647-5.969,6.393-5.8a.65.65,0,0,0-.539-.744c-2.133-.3-8.907-.754-7.576,5.685a.979.979,0,0,0,.479.658,7.529,7.529,0,0,0,1.447.628A1,1,0,0,1,241.473,106.765Zm0,0" transform="translate(-199.491 -83.312)" fill="#ccc033"/>
    <path id="Path_18403" data-name="Path 18403" d="M141.868,155.786c-1.522-7.313,1.738-14.264,7.334-15.94a9.106,9.106,0,0,0-4.483-.178c-6.013,1.294-9.6,8.51-8.021,16.118s7.741,12.728,13.754,11.435c.233-.05.462-.11.686-.177C146.805,165.785,143.054,161.484,141.868,155.786Zm0,0" transform="translate(-113.517 -116.114)" fill="#ff4b34"/>
    <path id="Path_18404" data-name="Path 18404" d="M37.008,209.274V171.012a1.621,1.621,0,0,1,1.621-1.621h7.664a1.621,1.621,0,0,1,1.621,1.621v38.263a1.621,1.621,0,0,1-1.621,1.621H38.629A1.621,1.621,0,0,1,37.008,209.274Zm0,0" transform="translate(-30.822 -141.028)" fill="#db9c2e"/>
    <path id="Path_18405" data-name="Path 18405" d="M361.84,209.274V171.012a1.621,1.621,0,0,1,1.621-1.621h7.664a1.621,1.621,0,0,1,1.621,1.621v38.263a1.621,1.621,0,0,1-1.621,1.621h-7.664A1.621,1.621,0,0,1,361.84,209.274Zm0,0" transform="translate(-301.291 -141.028)" fill="#db9c2e"/>
    <path id="Path_18406" data-name="Path 18406" d="M80.645,202.163H8.681a1.673,1.673,0,0,1-1.674-1.674v-7.531a1.673,1.673,0,0,1,1.674-1.674H80.645a1.673,1.673,0,0,1,1.674,1.674v7.531A1.673,1.673,0,0,1,80.645,202.163Zm0,0" transform="translate(-5.842 -159.258)" fill="#ffc34c"/>
    <path id="Path_18407" data-name="Path 18407" d="M80.645,283.163H8.681a1.673,1.673,0,0,1-1.674-1.674v-7.531a1.673,1.673,0,0,1,1.674-1.674H80.645a1.673,1.673,0,0,1,1.674,1.674v7.531A1.673,1.673,0,0,1,80.645,283.163Zm0,0" transform="translate(-5.842 -226.703)" fill="#ffc34c"/>
    <path id="Path_18408" data-name="Path 18408" d="M80.645,364.163H8.681a1.673,1.673,0,0,1-1.674-1.674v-7.531a1.673,1.673,0,0,1,1.674-1.674H80.645a1.673,1.673,0,0,1,1.674,1.674v7.531A1.673,1.673,0,0,1,80.645,364.163Zm0,0" transform="translate(-5.842 -294.147)" fill="#ffc34c"/>
    <path id="Path_18409" data-name="Path 18409" d="M434.012,372.143a1,1,0,0,1-1-1v-4.853a1,1,0,1,1,2.008,0v4.853A1,1,0,0,1,434.012,372.143Zm0,0" transform="translate(-360.548 -304.135)" fill="#ffd551"/>
    <path id="Path_18410" data-name="Path 18410" d="M387.355,374.959a1.674,1.674,0,1,1-1.674-1.674A1.673,1.673,0,0,1,387.355,374.959Zm0,0" transform="translate(-319.749 -310.799)" fill="#ffdf74"/>
    <path id="Path_18411" data-name="Path 18411" d="M387.355,293.959a1.674,1.674,0,1,1-1.674-1.674A1.673,1.673,0,0,1,387.355,293.959Zm0,0" transform="translate(-319.749 -243.355)" fill="#ffdf74"/>
    <path id="Path_18412" data-name="Path 18412" d="M387.355,212.959a1.674,1.674,0,1,1-1.674-1.674A1.673,1.673,0,0,1,387.355,212.959Zm0,0" transform="translate(-319.749 -175.911)" fill="#ffdf74"/>
    <path id="Path_18413" data-name="Path 18413" d="M17.049,281.49v-7.531a1.673,1.673,0,0,1,1.674-1.674H8.681a1.673,1.673,0,0,0-1.674,1.674v7.531a1.673,1.673,0,0,0,1.674,1.674H18.723A1.673,1.673,0,0,1,17.049,281.49Zm0,0" transform="translate(-5.842 -226.703)" fill="#f9bb32"/>
    <path id="Path_18414" data-name="Path 18414" d="M17.049,362.49v-7.531a1.673,1.673,0,0,1,1.674-1.674H8.681a1.673,1.673,0,0,0-1.674,1.674v7.531a1.673,1.673,0,0,0,1.674,1.674H18.723A1.673,1.673,0,0,1,17.049,362.49Zm0,0" transform="translate(-5.842 -294.147)" fill="#f9bb32"/>
    <path id="Path_18415" data-name="Path 18415" d="M17.049,200.49v-7.531a1.673,1.673,0,0,1,1.674-1.674H8.681a1.673,1.673,0,0,0-1.674,1.674v7.531a1.673,1.673,0,0,0,1.674,1.674H18.723A1.673,1.673,0,0,1,17.049,200.49Zm0,0" transform="translate(-5.842 -159.258)" fill="#f9bb32"/>
    <path id="Path_18416" data-name="Path 18416" d="M63.355,212.959a1.674,1.674,0,1,1-1.674-1.674A1.673,1.673,0,0,1,63.355,212.959Zm0,0" transform="translate(-49.973 -175.911)" fill="#ffdf74"/>
    <path id="Path_18417" data-name="Path 18417" d="M63.355,293.959a1.674,1.674,0,1,1-1.674-1.674A1.673,1.673,0,0,1,63.355,293.959Zm0,0" transform="translate(-49.973 -243.355)" fill="#ffdf74"/>
    <path id="Path_18418" data-name="Path 18418" d="M63.355,374.959a1.674,1.674,0,1,1-1.674-1.674A1.673,1.673,0,0,1,63.355,374.959Zm0,0" transform="translate(-49.973 -310.799)" fill="#ffdf74"/>
    <path id="Path_18419" data-name="Path 18419" d="M61.179,295.936v-3.194a1.674,1.674,0,0,0,0,3.194Zm0,0" transform="translate(-49.973 -243.736)" fill="#ffd551"/>
    <path id="Path_18420" data-name="Path 18420" d="M61.179,376.936v-3.194a1.674,1.674,0,0,0,0,3.194Zm0,0" transform="translate(-49.973 -311.18)" fill="#ffd551"/>
    <path id="Path_18421" data-name="Path 18421" d="M61.179,214.936v-3.193a1.674,1.674,0,0,0,0,3.193Zm0,0" transform="translate(-49.973 -176.292)" fill="#ffd551"/>
    <path id="Path_18422" data-name="Path 18422" d="M119.83,206.714a2.929,2.929,0,1,1-2.929-2.929A2.929,2.929,0,0,1,119.83,206.714Zm0,0" transform="translate(-94.906 -169.666)" fill="#f9bb32"/>
    <path id="Path_18423" data-name="Path 18423" d="M179.83,287.714a2.929,2.929,0,1,1-2.929-2.929A2.929,2.929,0,0,1,179.83,287.714Zm0,0" transform="translate(-144.865 -237.111)" fill="#f9bb32"/>
    <path id="Path_18424" data-name="Path 18424" d="M434.012,291.143a1,1,0,0,1-1-1v-4.853a1,1,0,1,1,2.008,0v4.853A1,1,0,0,1,434.012,291.143Zm0,0" transform="translate(-360.548 -236.691)" fill="#ffd551"/>
    <path id="Path_18425" data-name="Path 18425" d="M434.012,207.143a1,1,0,0,1-1-1v-4.853a1,1,0,1,1,2.008,0v4.853A1,1,0,0,1,434.012,207.143Zm0,0" transform="translate(-360.548 -166.749)" fill="#ffd551"/>
  </g>
</svg>
