<svg xmlns="http://www.w3.org/2000/svg" width="80.057" height="70" viewBox="0 0 80.057 70">
  <g id="potato" transform="translate(0 -0.5)">
    <path id="Path_18498" data-name="Path 18498" d="M38.514.5A21.717,21.717,0,0,0,19,12.347,80.023,80.023,0,0,1,7.591,29.33,29.229,29.229,0,0,0,.008,48.677Q0,48.961,0,49.246A21.255,21.255,0,0,0,21.254,70.5h.067q.241,0,.481-.006A38.81,38.81,0,0,0,60.066,31.688v-9.2A21.893,21.893,0,0,0,38.514.5Zm0,0" fill="#f0a65f"/>
    <path id="Path_18499" data-name="Path 18499" d="M81.533,53.771v-9.2a22.1,22.1,0,0,0-9.115-17.9h0a22.081,22.081,0,0,1,4.222,13v2.234a8.1,8.1,0,0,1-6.716,7.976,51.615,51.615,0,0,1-5.978.7,25.952,25.952,0,0,0-16.771,7.322q-.184.175-.365.355a19.536,19.536,0,0,0-5.76,13.906,18.934,18.934,0,0,0,1.97,8.149,5.119,5.119,0,0,1-4.55,7.365h-.092a20.376,20.376,0,0,1-12.931-3.971,21.226,21.226,0,0,0,17.276,8.872C63.869,92.48,81.533,75,81.533,53.771Zm0,0" transform="translate(-21.467 -22.083)" fill="#e28540"/>
    <path id="Path_18500" data-name="Path 18500" d="M281.027,166.909a1.221,1.221,0,0,1-1.149-.809,6.357,6.357,0,0,0-3.809-3.49,1.22,1.22,0,0,1,.8-2.3,8.821,8.821,0,0,1,5.305,4.979,1.222,1.222,0,0,1-1.151,1.625Zm0,0" transform="translate(-232.212 -134.759)" fill="#e28540"/>
    <path id="Path_18501" data-name="Path 18501" d="M198.506,180.692a16.769,16.769,0,0,0-17.124-4.187,61.784,61.784,0,0,1-15.5,3.043,22.574,22.574,0,0,0-14.7,6.424c-.106.1-.211.2-.315.307a16.412,16.412,0,0,0,0,23.211l.037.036c.089.088.177.175.266.26a29.969,29.969,0,0,0,42.081-.3l5.023-5.023A16.906,16.906,0,0,0,198.506,180.692Zm0,0" transform="translate(-123.216 -147.797)" fill="#f0a65f"/>
    <g id="Group_1038" data-name="Group 1038" transform="translate(8.87 4.813)">
      <path id="Path_18502" data-name="Path 18502" d="M215.973,197.368a16.891,16.891,0,0,0-2.244-1.911,16.961,16.961,0,0,1-1.956,21.723L206.75,222.2a29.971,29.971,0,0,1-39.992,2.146,17.411,17.411,0,0,0,1.873,2.111,29.969,29.969,0,0,0,42.081-.3l5.023-5.023A16.906,16.906,0,0,0,215.973,197.368Zm0,0" transform="translate(-149.553 -169.286)" fill="#e28540"/>
      <path id="Path_18503" data-name="Path 18503" d="M148.16,30.519a14.434,14.434,0,0,1,5.2.737,1.22,1.22,0,0,0,.823-2.3,16.34,16.34,0,0,0-4.663-.876,21.888,21.888,0,0,0-2.353,2.034A1.21,1.21,0,0,0,148.16,30.519Zm0,0" transform="translate(-133.023 -28.082)" fill="#e28540"/>
      <path id="Path_18504" data-name="Path 18504" d="M158.1,143.919a1.221,1.221,0,0,1-1-.523c-1.708-2.454-5.484-2.569-5.522-2.569a1.22,1.22,0,0,1,.015-2.441h.015c.205,0,5.049.1,7.5,3.615a1.221,1.221,0,0,1-1,1.918Zm0,0" transform="translate(-135.731 -121.139)" fill="#e28540"/>
      <path id="Path_18505" data-name="Path 18505" d="M274.083,64.049a1.222,1.222,0,0,1-1.185-.933c-.669-2.763-3.809-3.458-3.943-3.486a1.22,1.22,0,0,1,.49-2.391c.195.039,4.786,1.017,5.825,5.3a1.221,1.221,0,0,1-.9,1.474A1.237,1.237,0,0,1,274.083,64.049Zm0,0" transform="translate(-234.952 -52.659)" fill="#e28540"/>
      <path id="Path_18506" data-name="Path 18506" d="M64.289,225.84a1.22,1.22,0,0,1-1.178-.9c-.908-3.372-5.279-3.982-5.323-3.988a1.22,1.22,0,0,1,.307-2.421c.246.031,6.036.81,7.373,5.775a1.221,1.221,0,0,1-1.179,1.538Zm0,0" transform="translate(-56.725 -188.741)" fill="#e28540"/>
      <path id="Path_18507" data-name="Path 18507" d="M380.763,175.906a16.856,16.856,0,0,0-3.287.532,1.217,1.217,0,0,0,.724.834c.038.016,3.858,1.6,4.292,5.043a1.221,1.221,0,0,0,1.209,1.068,1.2,1.2,0,0,0,.155-.01,1.221,1.221,0,0,0,1.058-1.364A8.786,8.786,0,0,0,380.763,175.906Zm0,0" transform="translate(-327.323 -152.792)" fill="#e28540"/>
      <path id="Path_18508" data-name="Path 18508" d="M310.337,235.139a1.22,1.22,0,0,1-1.214-1.119c-.26-3.122-3.965-4.828-4-4.845a1.22,1.22,0,0,1,.994-2.229c.206.092,5.058,2.3,5.439,6.871a1.22,1.22,0,0,1-1.115,1.317C310.405,235.138,310.371,235.139,310.337,235.139Zm0,0" transform="translate(-265.674 -195.762)" fill="#e28540"/>
      <path id="Path_18509" data-name="Path 18509" d="M401.176,266.816a1.221,1.221,0,0,1-1.211-1.081,4.857,4.857,0,0,0-2.3-3.3,1.22,1.22,0,0,1,1.168-2.143,7.263,7.263,0,0,1,3.56,5.164,1.225,1.225,0,0,1-1.214,1.361Zm0,0" transform="translate(-343.821 -223.859)" fill="#e28540"/>
      <path id="Path_18510" data-name="Path 18510" d="M174.13,242.04a1.221,1.221,0,0,1-1.218-1.159c-.114-2.278-2.913-2.858-2.942-2.865a1.22,1.22,0,1,1,.475-2.394c1.623.322,4.738,1.81,4.9,5.136a1.22,1.22,0,0,1-1.158,1.28Zm0,0" transform="translate(-151.433 -203.151)" fill="#e28540"/>
      <path id="Path_18511" data-name="Path 18511" d="M316.411,392.136a1.22,1.22,0,0,0-2.339.7,7.382,7.382,0,0,1-1.086,6.376,1.219,1.219,0,0,0-.255.923q1.328,0,2.652-.124A9.836,9.836,0,0,0,316.411,392.136Zm0,0" transform="translate(-272.693 -334.475)" fill="#e28540"/>
    </g>
  </g>
</svg>
