<svg xmlns="http://www.w3.org/2000/svg" width="37.375" height="40" viewBox="0 0 37.375 40">
  <g id="Group_982" data-name="Group 982" transform="translate(-422.47 -1215)">
    <path id="Path_18274" data-name="Path 18274" d="M305.914,280.1a3.436,3.436,0,0,0,.187-1.1,3.3,3.3,0,0,0-1.074-2.451l.9-.964-.85-.912-1.155,1.24a2.517,2.517,0,0,0-1.648,0l-1.155-1.24-.85.912.9.964A3.3,3.3,0,0,0,300.092,279a3.437,3.437,0,0,0,.187,1.1,5.091,5.091,0,0,0-1.247.983c-1.393,1.5-1.756,3.452-.824,4.453a1.809,1.809,0,0,0,1.359.555,2.641,2.641,0,0,0,.563-.069,4.793,4.793,0,0,0,2.445,3.738l.522.279.522-.281a4.789,4.789,0,0,0,2.445-3.738,2.635,2.635,0,0,0,.563.069,1.811,1.811,0,0,0,1.359-.556c.931-1,.569-2.956-.824-4.452A5.113,5.113,0,0,0,305.914,280.1Zm-4.62-1.1a1.807,1.807,0,1,1,3.6,0,2.043,2.043,0,0,1-.135.692,3.347,3.347,0,0,1-3.336,0A2.042,2.042,0,0,1,301.294,279Zm-2.237,5.627c-.383-.412-.112-1.623.824-2.628a2.977,2.977,0,0,1,1.944-1.065.669.669,0,0,1,.5.18c.383.412.112,1.623-.824,2.628a3.472,3.472,0,0,1-1.539,1.006A.91.91,0,0,1,299.057,284.626ZM303.1,288.6a3.538,3.538,0,0,1-1.8-3.071,5.255,5.255,0,0,0,1.055-.876,5.5,5.5,0,0,0,.742-1.015,5.492,5.492,0,0,0,.742,1.015,5.28,5.28,0,0,0,1.055.876A3.535,3.535,0,0,1,303.1,288.6Zm4.039-3.974a.912.912,0,0,1-.908.121,3.469,3.469,0,0,1-1.539-1.006c-.936-1.005-1.207-2.217-.824-2.628a.668.668,0,0,1,.5-.18A2.978,2.978,0,0,1,306.311,282C307.247,283,307.518,284.215,307.136,284.626Zm0,0" transform="translate(147.136 962.452)"/>
    <path id="Path_18275" data-name="Path 18275" d="M27.762,19.683a8.965,8.965,0,0,0-3,.523v-7.62h1.971l-.9-3.871H24.579A9.844,9.844,0,0,0,15.145.328,9.844,9.844,0,0,0,5.711,8.715H4.462l-.9,3.871H5.532V23.647a7,7,0,0,0-4.247,5.517L0,36.457H20.27a9.367,9.367,0,0,0,7.492,3.871c5.3,0,9.613-4.631,9.613-10.323S33.062,19.683,27.762,19.683ZM15.145,1.618a8.6,8.6,0,0,1,8.214,7.1H6.931A8.6,8.6,0,0,1,15.145,1.618ZM5.4,10.006H24.889l.3,1.29H5.1Zm3.737,2.581H21.153v3.871a6.249,6.249,0,0,1-6.008,6.452,6.249,6.249,0,0,1-6.008-6.452Zm-1.2,0v3.871a7.5,7.5,0,0,0,7.21,7.742,7.5,7.5,0,0,0,7.21-7.742V12.586h1.2v8.151a10.142,10.142,0,0,0-4.816,5.737,20.5,20.5,0,0,1-3.6.3c-5.277,0-7.764-1.7-8.411-2.235V12.586Zm-2.008,20H1.9l.227-1.29H6.087ZM13.342,28v7.17H6.819L7.87,26.7A15.991,15.991,0,0,0,13.342,28Zm1.2.059c.2.005.392.015.6.015s.4-.009.6-.014v7.11h-1.2ZM5.532,25.028v.084l.176.189a5.62,5.62,0,0,0,1.026.79l-.486,3.915H2.359l.109-.622A5.8,5.8,0,0,1,5.532,25.028ZM1.677,33.877H5.767l-.16,1.29H1.45Zm15.27,1.29V28c.484-.037.959-.085,1.417-.151a11.048,11.048,0,0,0-.215,2.159,10.829,10.829,0,0,0,1.3,5.161Zm10.815,3.871c-4.638,0-8.411-4.051-8.411-9.032s3.773-9.032,8.411-9.032,8.411,4.051,8.411,9.032S32.4,39.038,27.762,39.038Zm0,0" transform="translate(422.47 1214.672)"/>
  </g>
</svg>
