<svg xmlns="http://www.w3.org/2000/svg" xmlns:xlink="http://www.w3.org/1999/xlink" width="323.15" height="358.697" viewBox="0 0 323.15 358.697">
  <defs>
    <linearGradient id="linear-gradient" x1="0.181" x2="0.751" y2="2.378" gradientUnits="objectBoundingBox">
      <stop offset="0" stop-color="#ffe6c9"/>
      <stop offset="1" stop-color="#dcb383"/>
    </linearGradient>
    <filter id="Path_18047" x="31.812" y="190.029" width="291.338" height="168.668" filterUnits="userSpaceOnUse">
      <feOffset dy="23" input="SourceAlpha"/>
      <feGaussianBlur stdDeviation="23" result="blur"/>
      <feFlood flood-opacity="0.706"/>
      <feComposite operator="in" in2="blur"/>
      <feComposite in="SourceGraphic"/>
    </filter>
    <filter id="Path_18048" x="0" y="35.293" width="195.294" height="191.635" filterUnits="userSpaceOnUse">
      <feOffset dy="23" input="SourceAlpha"/>
      <feGaussianBlur stdDeviation="23" result="blur-2"/>
      <feFlood flood-opacity="0.706"/>
      <feComposite operator="in" in2="blur-2"/>
      <feComposite in="SourceGraphic"/>
    </filter>
    <filter id="Path_18784" x="129.098" y="0" width="158.831" height="163.656" filterUnits="userSpaceOnUse">
      <feOffset dy="23" input="SourceAlpha"/>
      <feGaussianBlur stdDeviation="23" result="blur-3"/>
      <feFlood flood-opacity="0.706"/>
      <feComposite operator="in" in2="blur-3"/>
      <feComposite in="SourceGraphic"/>
    </filter>
    <filter id="Path_18049" x="124.981" y="79.854" width="188.755" height="194.175" filterUnits="userSpaceOnUse">
      <feOffset dy="23" input="SourceAlpha"/>
      <feGaussianBlur stdDeviation="23" result="blur-4"/>
      <feFlood flood-opacity="0.706"/>
      <feComposite operator="in" in2="blur-4"/>
      <feComposite in="SourceGraphic"/>
    </filter>
    <filter id="Path_18050" x="152.185" y="89.25" width="149.498" height="149.444" filterUnits="userSpaceOnUse">
      <feOffset dy="23" input="SourceAlpha"/>
      <feGaussianBlur stdDeviation="23" result="blur-5"/>
      <feFlood flood-opacity="0.706"/>
      <feComposite operator="in" in2="blur-5"/>
      <feComposite in="SourceGraphic"/>
    </filter>
    <filter id="Path_18051" x="102.206" y="48.52" width="161.475" height="161.475" filterUnits="userSpaceOnUse">
      <feOffset dy="23" input="SourceAlpha"/>
      <feGaussianBlur stdDeviation="23" result="blur-6"/>
      <feFlood flood-opacity="0.706"/>
      <feComposite operator="in" in2="blur-6"/>
      <feComposite in="SourceGraphic"/>
    </filter>
    <filter id="Path_18052" x="69.896" y="96.611" width="149.5" height="149.5" filterUnits="userSpaceOnUse">
      <feOffset dy="23" input="SourceAlpha"/>
      <feGaussianBlur stdDeviation="23" result="blur-7"/>
      <feFlood flood-opacity="0.706"/>
      <feComposite operator="in" in2="blur-7"/>
      <feComposite in="SourceGraphic"/>
    </filter>
    <filter id="Path_18053" x="97.981" y="107.444" width="151.417" height="151.417" filterUnits="userSpaceOnUse">
      <feOffset dy="23" input="SourceAlpha"/>
      <feGaussianBlur stdDeviation="23" result="blur-8"/>
      <feFlood flood-opacity="0.706"/>
      <feComposite operator="in" in2="blur-8"/>
      <feComposite in="SourceGraphic"/>
    </filter>
    <filter id="Path_18054" x="123.229" y="71.703" width="142.695" height="142.695" filterUnits="userSpaceOnUse">
      <feOffset dy="23" input="SourceAlpha"/>
      <feGaussianBlur stdDeviation="23" result="blur-9"/>
      <feFlood flood-opacity="0.706"/>
      <feComposite operator="in" in2="blur-9"/>
      <feComposite in="SourceGraphic"/>
    </filter>
    <filter id="Path_18055" x="113.648" y="168.196" width="141.833" height="141.833" filterUnits="userSpaceOnUse">
      <feOffset dy="23" input="SourceAlpha"/>
      <feGaussianBlur stdDeviation="23" result="blur-10"/>
      <feFlood flood-opacity="0.706"/>
      <feComposite operator="in" in2="blur-10"/>
      <feComposite in="SourceGraphic"/>
    </filter>
    <filter id="Path_18056" x="47.981" y="119.083" width="182.026" height="182.029" filterUnits="userSpaceOnUse">
      <feOffset dy="23" input="SourceAlpha"/>
      <feGaussianBlur stdDeviation="23" result="blur-11"/>
      <feFlood flood-opacity="0.706"/>
      <feComposite operator="in" in2="blur-11"/>
      <feComposite in="SourceGraphic"/>
    </filter>
  </defs>
  <g id="cooking" transform="translate(117.979 145.86)" opacity="0.844">
    <g transform="matrix(1, 0, 0, 1, -117.98, -145.86)" filter="url(#Path_18047)">
      <path id="Path_18047-2" data-name="Path 18047" d="M147.9,50H4.556A2.557,2.557,0,0,0,2,52.556V62.778A17.909,17.909,0,0,0,19.889,80.668H96.559a17.909,17.909,0,0,0,17.889-17.889V55.111h8a10.868,10.868,0,0,0,9.63,8.352l15.155,1.377c.222.02.447.031.67.031A7.436,7.436,0,1,0,147.9,50ZM109.337,62.778A12.793,12.793,0,0,1,96.559,75.556H19.889A12.793,12.793,0,0,1,7.111,62.778V55.111H109.337Zm40.134-3.626a2.253,2.253,0,0,1-1.776.6L132.54,58.37a5.808,5.808,0,0,1-4.733-3.258h20.1a2.326,2.326,0,0,1,2.323,2.323,2.3,2.3,0,0,1-.756,1.717Z" transform="translate(98.81 186.03)" fill="url(#linear-gradient)"/>
    </g>
    <g transform="matrix(1, 0, 0, 1, -117.98, -145.86)" filter="url(#Path_18048)">
      <path id="Path_18048-2" data-name="Path 18048" d="M15.584,28.834a12.563,12.563,0,0,0,3.927-.592L17.6,33.977A1.92,1.92,0,0,0,19.417,36.5H38.584A1.92,1.92,0,0,0,40.4,33.977L38.49,28.242a12.562,12.562,0,0,0,3.927.592c4.61,0,9.584-4.4,9.584-11.5C52,9.949,44.8,2,29,2S6,9.949,6,17.334c0,7.1,4.974,11.5,9.584,11.5ZM29,5.833c15.161,0,19.167,7.523,19.167,11.5,0,4.736-2.984,7.667-5.75,7.667-4.4,0-5.9-2.685-5.951-2.774a1.916,1.916,0,0,0-3.533,1.462l2.992,8.978H22.076l2.994-8.978A1.906,1.906,0,0,0,24,21.338a1.931,1.931,0,0,0-2.455.863c-.061.115-1.56,2.8-5.965,2.8-2.766,0-5.75-2.931-5.75-7.667,0-3.977,4.006-11.5,19.167-11.5Z" transform="matrix(0.85, 0.53, -0.53, 0.85, 83.25, 76.42)" fill="url(#linear-gradient)"/>
    </g>
    <g transform="matrix(1, 0, 0, 1, -117.98, -145.86)" filter="url(#Path_18784)">
      <path id="Path_18784-2" data-name="Path 18784" d="M10.837,15.544a6.341,6.341,0,0,0,1.982-.3l-.965,2.894a.969.969,0,0,0,.918,1.274h9.674a.969.969,0,0,0,.918-1.274L22.4,15.245a6.341,6.341,0,0,0,1.982.3c2.327,0,4.837-2.219,4.837-5.8C29.218,6.012,25.585,2,17.609,2S6,6.012,6,9.739c0,3.585,2.51,5.8,4.837,5.8ZM17.609,3.935c7.652,0,9.674,3.8,9.674,5.8,0,2.39-1.506,3.87-2.9,3.87a3.289,3.289,0,0,1-3-1.4.967.967,0,0,0-1.783.738l1.51,4.531H14.114l1.511-4.531a.962.962,0,0,0-.538-1.187.974.974,0,0,0-1.239.435,3.283,3.283,0,0,1-3.011,1.413c-1.4,0-2.9-1.479-2.9-3.87,0-2.007,2.022-5.8,9.674-5.8Z" transform="translate(200.69 77.9) rotate(-99)" fill="url(#linear-gradient)"/>
    </g>
    <g transform="matrix(1, 0, 0, 1, -117.98, -145.86)" filter="url(#Path_18049)">
      <path id="Path_18049-2" data-name="Path 18049" d="M38.624,40.556l-8.133,8.135A15.334,15.334,0,0,0,52.177,70.376L71.15,51.4A19.167,19.167,0,1,0,38.624,40.556Zm3.937.286a15.333,15.333,0,1,1,25.88,7.851L49.466,67.666A11.5,11.5,0,0,1,33.2,51.4l8.832-8.834A1.906,1.906,0,0,0,42.56,40.842Z" transform="translate(167.98 107.16)" fill="url(#linear-gradient)"/>
    </g>
    <g transform="matrix(1, 0, 0, 1, -117.98, -145.86)" filter="url(#Path_18050)">
      <path id="Path_18050-2" data-name="Path 18050" d="M45.941,35.039a5.751,5.751,0,0,0,4.067-9.816h0a5.888,5.888,0,0,0-8.131,0,5.748,5.748,0,0,0,4.063,9.816Zm-1.353-7.105a1.916,1.916,0,1,1,2.71,2.71,1.961,1.961,0,0,1-2.71,0,1.916,1.916,0,0,1,0-2.71Z" transform="translate(180.99 111.66)" fill="url(#linear-gradient)"/>
    </g>
    <g transform="matrix(1, 0, 0, 1, -117.98, -145.86)" filter="url(#Path_18051)">
      <path id="Path_18051-2" data-name="Path 18051" d="M55.167,5.833V2A19.189,19.189,0,0,0,36,21.167h3.833A15.352,15.352,0,0,1,55.167,5.833Z" transform="matrix(0.26, 0.97, -0.97, 0.26, 182.33, 59.23)" fill="url(#linear-gradient)"/>
    </g>
    <g transform="matrix(1, 0, 0, 1, -117.98, -145.86)" filter="url(#Path_18052)">
      <path id="Path_18052-2" data-name="Path 18052" d="M10.667,28.5H14.5A11.512,11.512,0,0,0,3,17v3.833A7.675,7.675,0,0,1,10.667,28.5Z" transform="translate(135.9 125.61)" fill="url(#linear-gradient)"/>
    </g>
    <g transform="matrix(1, 0, 0, 1, -117.98, -145.86)" filter="url(#Path_18053)">
      <path id="Path_18053-2" data-name="Path 18053" d="M26,32.417h3.833a9.594,9.594,0,0,1,9.584-9.584V19A13.432,13.432,0,0,0,26,32.417Z" transform="translate(140.98 134.44)" fill="url(#linear-gradient)"/>
    </g>
    <g transform="matrix(1, 0, 0, 1, -117.98, -145.86)" filter="url(#Path_18054)">
      <path id="Path_18054-2" data-name="Path 18054" d="M48,2h3.833V5.833H48Z" transform="matrix(0.26, 0.97, -0.97, 0.26, 185.44, 70.82)" fill="url(#linear-gradient)"/>
    </g>
    <g transform="matrix(1, 0, 0, 1, -117.98, -145.86)" filter="url(#Path_18055)">
      <path id="Path_18055-2" data-name="Path 18055" d="M42,46h3.833v3.833H42Z" transform="translate(140.65 168.2)" fill="url(#linear-gradient)"/>
    </g>
    <g transform="matrix(1, 0, 0, 1, -117.98, -145.86)" filter="url(#Path_18056)">
      <path id="Path_18056-2" data-name="Path 18056" d="M4.805,62.074a9.583,9.583,0,0,0,13.555,0,8.842,8.842,0,0,0,1.077-1.321,9.463,9.463,0,0,0,5.029-2.177l7.322,8.792a1.918,1.918,0,0,0,1.386.688c.029,0,.058,0,.086,0a1.915,1.915,0,0,0,1.355-.562L45.465,56.648a1.917,1.917,0,0,0-.127-2.827l-8.786-7.331a9.448,9.448,0,0,0,2.17-5.022,8.648,8.648,0,0,0,1.323-1.077,9.586,9.586,0,0,0-12.2-14.684,9.592,9.592,0,0,0-12.2,1.129,8.69,8.69,0,0,0-1.077,1.323A9.576,9.576,0,0,0,6.126,36.6,8.467,8.467,0,0,0,4.8,37.68a9.6,9.6,0,0,0-1.127,12.2,9.6,9.6,0,0,0,1.129,12.2ZM33.389,63.3l-6.482-7.786a9.649,9.649,0,0,0,.91-5.61l.058-.057a9.643,9.643,0,0,0,5.624-.916l7.774,6.488ZM7.516,48.523a5.76,5.76,0,0,1,0-8.133,5.668,5.668,0,0,1,1.374-.976,1.915,1.915,0,0,0,1.012-1.7,5.736,5.736,0,0,1,5.748-5.779h.044a1.917,1.917,0,0,0,1.691-1.012,5.654,5.654,0,0,1,.976-1.372,5.887,5.887,0,0,1,8.133,0,1.973,1.973,0,0,0,2.71,0,5.887,5.887,0,0,1,8.133,0,5.76,5.76,0,0,1,0,8.133,5.646,5.646,0,0,1-1.37.974,1.919,1.919,0,0,0-1.016,1.7,5.707,5.707,0,0,1-7.215,5.56,1.914,1.914,0,0,0-1.844.5l-1.5,1.5a1.918,1.918,0,0,0-.5,1.846,5.706,5.706,0,0,1-5.528,7.215.338.338,0,0,0-.044,0,1.916,1.916,0,0,0-1.691,1.014,5.609,5.609,0,0,1-.974,1.37,5.751,5.751,0,0,1-8.133-8.133,1.916,1.916,0,0,0,0-2.708Z" transform="translate(114.98 141.05)" fill="url(#linear-gradient)"/>
    </g>
  </g>
</svg>
