<svg xmlns="http://www.w3.org/2000/svg" width="42.008" height="40" viewBox="0 0 42.008 40"><defs><style>.a{fill:#95a585;}</style></defs><g transform="translate(0 -12.239)"><g transform="translate(0 12.239)"><path class="a" d="M37.047,48.18H38.53a3.479,3.479,0,0,0,0-6.958H14.545l-5.458-12.3a2.679,2.679,0,0,0-4.95,2.048l3.8,10.251H3.479a3.479,3.479,0,0,0,0,6.958H4.959a16.6,16.6,0,0,0,6.025,9.166,7.652,7.652,0,0,0-1.242,3.095H5.053a3.232,3.232,0,0,0-3.23,3.228v1.568a.821.821,0,0,0,.82.82H39.362a.821.821,0,0,0,.82-.82V63.668a3.231,3.231,0,0,0-3.228-3.228H32.266a7.651,7.651,0,0,0-1.243-3.094,16.6,16.6,0,0,0,6.025-9.167Zm3.32-3.479a1.84,1.84,0,0,1-1.838,1.838H37.365a16.4,16.4,0,0,0,.166-2.315V42.864h1A1.84,1.84,0,0,1,40.367,44.7ZM5.676,30.4a1.075,1.075,0,0,1,.546-1.387,1.053,1.053,0,0,1,1.365.575L12.75,41.223H9.685ZM1.641,44.7a1.84,1.84,0,0,1,1.838-1.838h1v1.361a16.385,16.385,0,0,0,.166,2.315H3.479A1.84,1.84,0,0,1,1.641,44.7ZM6.657,48.18H17.319a.82.82,0,1,0,0-1.641H6.3a14.743,14.743,0,0,1-.183-2.315V42.864H35.89v1.361a14.761,14.761,0,0,1-.183,2.315H24.687a.82.82,0,1,0,0,1.641H35.35a14.961,14.961,0,0,1-5.335,7.872q-.27-.3-.569-.591a.821.821,0,0,0-1.145,0,10.782,10.782,0,0,0-2.046,2.679,10.785,10.785,0,0,0-2.046-2.679.821.821,0,0,0-1.145,0,10.8,10.8,0,0,0-2.048,2.679,10.8,10.8,0,0,0-2.048-2.679.821.821,0,0,0-1.145,0,10.762,10.762,0,0,0-2.058,2.7,10.754,10.754,0,0,0-2.061-2.7.82.82,0,0,0-1.144,0q-.3.291-.568.59A14.966,14.966,0,0,1,6.657,48.18Zm18.7,12.26H21.91a7.177,7.177,0,0,1,1.725-3.2,7.171,7.171,0,0,1,1.723,3.2Zm-5.238,0H16.673a7.171,7.171,0,0,1,1.723-3.2A7.177,7.177,0,0,1,20.121,60.441Zm-6.988-3.2a7.165,7.165,0,0,1,1.725,3.2H11.41a7.174,7.174,0,0,1,1.723-3.2Zm25.408,6.43v.747H3.464v-.747a1.59,1.59,0,0,1,1.589-1.587h31.9A1.588,1.588,0,0,1,38.542,63.668ZM27.15,60.441a7.17,7.17,0,0,1,1.723-3.2,7.177,7.177,0,0,1,1.725,3.2Z" transform="translate(0 -26.056)"/><path class="a" d="M210.266,60.558a.821.821,0,1,0,1.344-.941,2.479,2.479,0,0,1,0-2.574,4.116,4.116,0,0,0,0-4.457.82.82,0,1,0-1.344.941,2.485,2.485,0,0,1,0,2.575A4.11,4.11,0,0,0,210.266,60.558Z" transform="translate(-192.412 -48.954)"/><path class="a" d="M283.711,20.561a.82.82,0,1,0,1.344-.941,2.48,2.48,0,0,1,0-2.574,4.116,4.116,0,0,0,0-4.457.82.82,0,1,0-1.344.941,2.484,2.484,0,0,1,0,2.575A4.111,4.111,0,0,0,283.711,20.561Z" transform="translate(-259.831 -12.239)"/><path class="a" d="M357.183,60.557a.82.82,0,0,0,1.344-.941,2.479,2.479,0,0,1,0-2.574,4.116,4.116,0,0,0,0-4.457.82.82,0,1,0-1.344.941,2.484,2.484,0,0,1,0,2.575A4.111,4.111,0,0,0,357.183,60.557Z" transform="translate(-327.275 -48.954)"/><path class="a" d="M246.806,263.53h0a.82.82,0,1,0-.825-.82A.819.819,0,0,0,246.811,263.53Z" transform="translate(-225.803 -241.406)"/></g></g></svg>