<svg xmlns="http://www.w3.org/2000/svg" width="40" height="40" viewBox="0 0 40 40"><defs><style>.a{fill:#95a585;}</style></defs><g transform="translate(-1 -1)"><path class="a" d="M18.244,27.468A3.325,3.325,0,0,0,21.4,25.191l.033-.1-1.224-.408-.033.1a2.04,2.04,0,0,1-3.871,0l-.033-.1-1.224.408.033.1a3.324,3.324,0,0,0,3.159,2.278Z" transform="translate(-4.986 -8.404)"/><path class="a" d="M30.244,50.468A3.325,3.325,0,0,0,33.4,48.191l.033-.1-1.224-.408-.033.1a2.04,2.04,0,0,1-3.871,0l-.033-.1-1.224.408.033.1a3.324,3.324,0,0,0,3.159,2.278Z" transform="translate(-9.244 -16.565)"/><path class="a" d="M46.213,23.684l-.033.1a2.04,2.04,0,0,1-3.871,0l-.033-.1-1.224.408.033.1a3.33,3.33,0,0,0,6.319,0l.033-.1Z" transform="translate(-14.212 -8.049)"/><path class="a" d="M39.864,25.552a6.744,6.744,0,0,0-1.445-1.561V11.433a7.861,7.861,0,0,0-7.852-7.852,5.014,5.014,0,0,0-3.379,1.3A5.807,5.807,0,0,0,22.52,7.624,6.56,6.56,0,0,0,21,5.252l-.661-.661A3.839,3.839,0,0,0,16.516,1H13.149A7.328,7.328,0,0,0,7.015,4.35l-.13.052A5.258,5.258,0,0,0,3.85,10.946l1.036,3.107a2.576,2.576,0,0,0,2.565,2.43H7.49a5.811,5.811,0,0,0,2.543,4.179v2.4l-3.463.77A7.112,7.112,0,0,0,1,30.775V41H41V29.3a6.742,6.742,0,0,0-1.136-3.752ZM39.71,29.3v3.309H37.129V30.032h-1.29V39.71H31.061a7.592,7.592,0,0,0-6.225-3.856,6.48,6.48,0,0,0,1.954-2.346l.1.1a3.2,3.2,0,0,0,2.281.945h3.052l-.838-2.514a3.866,3.866,0,0,0-2.454-2.45l.057-.173a7.789,7.789,0,0,0,.089-4.668,3.78,3.78,0,0,0,.96.127,3.734,3.734,0,0,0,2.659-1.1l.155-.155,2.07.259A5.473,5.473,0,0,1,39.71,29.3ZM12.637,26.452c-.009.157-.024.314-.024.474,0,.029,0,.058,0,.088l-2.137.855L9.63,24.474l.841-.187Zm1.656,4.225h.255a6.434,6.434,0,0,0,.18,1.488l-.526.526a1.948,1.948,0,0,1-1.368.566H11.572l.272-.816a2.577,2.577,0,0,1,2.448-1.765Zm.255-2.083v.793h-.18L14.241,29a6.571,6.571,0,0,1,6.234-8.649h1.052A6.572,6.572,0,0,1,27.76,29l-.128.384h-.18v-.206a3.245,3.245,0,0,0-2.958-3.215l-3.573-.3a1.321,1.321,0,0,1-.308-2.57l.592-.2L20.8,21.678l-.591.2a2.607,2.607,0,0,0-1.786,2.477c0,.072,0,.143.009.214l-1.072.306a3.888,3.888,0,0,0-2.808,3.722Zm4.516-15.981a1.29,1.29,0,1,1,0,2.581Zm-.038,3.871h.038a2.576,2.576,0,0,0,2.561-2.39l.019-.039V19.07c-.04,0-.079-.006-.119-.006H20.474a7.811,7.811,0,0,0-2.786.519,5.777,5.777,0,0,0,1.339-3.1ZM30.032,19.71a4.521,4.521,0,0,1-4.516-4.516v-2.1a3.848,3.848,0,0,1,1.92-3.343,4.5,4.5,0,0,0,3.886,2.221h1.935a1.292,1.292,0,0,1,1.29,1.29v1.935a4.521,4.521,0,0,1-4.516,4.516Zm0,1.29a5.772,5.772,0,0,0,1.495-.2l.385,1.926-.134.134a2.529,2.529,0,0,1-3.493,0l-.118-.118-.014-.024.384-1.918a5.745,5.745,0,0,0,1.495.2Zm-2.581,9.677h.255a2.577,2.577,0,0,1,2.448,1.765l.272.816H29.166a1.948,1.948,0,0,1-1.368-.566l-.526-.526a6.434,6.434,0,0,0,.18-1.488ZM15.839,28.594a2.592,2.592,0,0,1,1.872-2.481l1.143-.326a2.621,2.621,0,0,0,1.959,1.168l3.573.3a1.947,1.947,0,0,1,1.775,1.929v1.5a5.161,5.161,0,1,1-10.323,0Zm8.575,8.535a6.31,6.31,0,0,1,5.1,2.581H12.483a6.31,6.31,0,0,1,5.1-2.581ZM27.452,6.161h.267l.189-.189a3.735,3.735,0,0,1,2.659-1.1,6.57,6.57,0,0,1,6.562,6.562V23.192a6.773,6.773,0,0,0-2.054-.6l-1.921-.241-.406-2.031a5.807,5.807,0,0,0,3.091-5.128V13.258a2.583,2.583,0,0,0-2.581-2.581H31.323A3.226,3.226,0,0,1,28.1,7.452h-1.29a4.473,4.473,0,0,0,.135,1.092,5.135,5.135,0,0,0-2.716,4.546v2.1a5.809,5.809,0,0,0,3.091,5.128l-.214,1.07A7.845,7.845,0,0,0,22.935,19.2V10.677a4.521,4.521,0,0,1,4.516-4.516ZM19.23,7.553a3.825,3.825,0,0,0,.879-1.368,5.3,5.3,0,0,1,.975,6.106l-.008.016a2.566,2.566,0,0,0-2.012-.985h-.521l-1.856-.743a1.343,1.343,0,0,1-.849-1.254,1.23,1.23,0,0,1,2.4-.389l.218.654,1.224-.408-.218-.654a2.528,2.528,0,0,0-.428-.776ZM7.365,5.6l.528-.212L8,5.2A6.03,6.03,0,0,1,13.149,2.29h3.367a2.548,2.548,0,0,1,1.8,4.35l-.342.342a2.5,2.5,0,0,0-3.383,1.905l-1.611.46a17.77,17.77,0,0,1-4.885.685.645.645,0,1,1,0-1.29h.645V7.452H8.1A1.931,1.931,0,0,0,7.452,11.2v.119a2.57,2.57,0,0,0-1.852.791l-.525-1.575A3.969,3.969,0,0,1,7.365,5.6Zm-1.2,8.3a1.292,1.292,0,0,1,1.29-1.29v2.581A1.292,1.292,0,0,1,6.161,13.9Zm2.581,1.935V11.3a19.065,19.065,0,0,0,4.594-.712L14.7,10.2a2.623,2.623,0,0,0,1.508,1.579l1.566.626v3.434a4.516,4.516,0,1,1-9.032,0Zm4.516,5.806a5.772,5.772,0,0,0,1.624-.235,7.853,7.853,0,0,0-1.99,3.473l-1.57-1.569V21.306A5.765,5.765,0,0,0,13.258,21.645ZM4,26.659a5.812,5.812,0,0,1,2.854-1.566l1.521-.338,1.215,4.861,3.163-1.265a7.793,7.793,0,0,0,.268,1.061l.057.173a3.866,3.866,0,0,0-2.454,2.45l-.837,2.514h3.052a3.2,3.2,0,0,0,2.281-.945l.1-.1a6.487,6.487,0,0,0,1.954,2.346,7.592,7.592,0,0,0-6.225,3.856H6.161V30.677H4.871v2.581H2.29V30.775A5.783,5.783,0,0,1,4,26.659ZM2.29,34.548H4.871V39.71H2.29ZM37.129,39.71V33.9H39.71V39.71Z"/></g></svg>