<svg id="XMLID_335_" xmlns="http://www.w3.org/2000/svg" width="37.243" height="40" viewBox="0 0 37.243 40">
  <path id="XMLID_729_" d="M37.206,15.592c-1.385-2.666-3.179-3.522-4.441-3.771a5.166,5.166,0,0,0-1.048-.1,10.672,10.672,0,0,0,.241-1.385.783.783,0,0,0-.521-.845,8.446,8.446,0,0,0-4.789-.316A22.26,22.26,0,0,0,26.809.635.743.743,0,0,0,26.094,0h-3a.709.709,0,0,0-.56.283.824.824,0,0,0-.154.644,17.934,17.934,0,0,1,.273,3.027,2.4,2.4,0,0,1-2.313,2.464,1.774,1.774,0,0,1-1.706-1.831,1.268,1.268,0,0,1,1.219-1.309.756.756,0,0,0,.728-.781.756.756,0,0,0-.728-.781,2.781,2.781,0,0,0-2.674,2.871,3.287,3.287,0,0,0,3.161,3.394,3.559,3.559,0,0,0,2-.622,17.193,17.193,0,0,1-3.616,7.781,4.844,4.844,0,0,0,.609-2.371,4.761,4.761,0,0,0-1.259-3.263,4.083,4.083,0,0,0-5.853-.222,4.058,4.058,0,0,0-2.334-.74A4.126,4.126,0,0,0,6.856,9.9a4.863,4.863,0,0,0-.195,6.3A4.246,4.246,0,0,0,5.005,17.3a4.871,4.871,0,0,0-.186,6.311A4.235,4.235,0,0,0,3.16,24.72a4.871,4.871,0,0,0-.194,6.3,4.237,4.237,0,0,0-1.654,1.1,4.864,4.864,0,0,0,0,6.525,4.1,4.1,0,0,0,6.077,0,4.649,4.649,0,0,0,1.028-1.776,4.083,4.083,0,0,0,5.868-.209,4.65,4.65,0,0,0,1.03-1.783,4.083,4.083,0,0,0,5.863-.214,4.658,4.658,0,0,0,1.031-1.779,4.083,4.083,0,0,0,5.868-.209,4.761,4.761,0,0,0,1.259-3.263,4.869,4.869,0,0,0-.474-2.11,9.144,9.144,0,0,0,5.759-.167.756.756,0,0,0,.5-.541c.134-.512.243-1.016.325-1.5a.779.779,0,0,0-.586-.908.732.732,0,0,0-.846.629c-.051.3-.114.61-.188.927-5.714,1.544-6.916-2.1-7.036-2.532a.721.721,0,0,0-.9-.526.79.79,0,0,0-.5.957,5.421,5.421,0,0,1-.868,4,4.8,4.8,0,0,1-2.174-5.212.808.808,0,0,0-.332-.939.691.691,0,0,0-.88.14,2.97,2.97,0,0,1-1.218.445c-.494-2.209-.34-3.849.46-4.88a4.267,4.267,0,0,1,3.487-1.294.7.7,0,0,0,.588-.224.818.818,0,0,0,.211-.631c0-.025-.208-2.483,1.2-3.746.96-.859,2.487-1.024,4.545-.493A3.48,3.48,0,0,1,30,12.128a.825.825,0,0,0-.133.946.7.7,0,0,0,.872.357c.12-.043,2.815-.959,4.859,2.333a4.491,4.491,0,0,1-3.728.932.723.723,0,0,0-.891.538.792.792,0,0,0,.49.964,3.52,3.52,0,0,1,1.235.771.693.693,0,0,0,1.026-.077.822.822,0,0,0,.163-.674,7.264,7.264,0,0,0,3.127-1.632.819.819,0,0,0,.184-.993ZM11.082,28.144a3.217,3.217,0,0,1,0-4.316,2.706,2.706,0,0,1,4.019,0,3.213,3.213,0,0,1,0,4.316A2.709,2.709,0,0,1,11.082,28.144Zm3.86-6.514a2.728,2.728,0,0,1-2.01-.894,3.217,3.217,0,0,1,0-4.316,2.706,2.706,0,0,1,4.019,0,3.213,3.213,0,0,1,0,4.316A2.728,2.728,0,0,1,14.943,21.63Zm2.11-11.019a3.22,3.22,0,0,1,.2,4.077,4.052,4.052,0,0,0-3.141-.637,4.994,4.994,0,0,0,.08-.892,4.8,4.8,0,0,0-.885-2.8,2.7,2.7,0,0,1,1.737-.637,2.729,2.729,0,0,1,2.009.894ZM7.885,11A2.706,2.706,0,0,1,11.9,11a3.213,3.213,0,0,1,0,4.316,2.709,2.709,0,0,1-4.019,0,3.213,3.213,0,0,1,0-4.316ZM6.034,18.408a2.706,2.706,0,0,1,4.019,0,3.213,3.213,0,0,1,0,4.316,2.709,2.709,0,0,1-4.019,0A3.217,3.217,0,0,1,6.034,18.408ZM4.189,25.825a2.709,2.709,0,0,1,4.019,0,3.217,3.217,0,0,1,0,4.316,2.709,2.709,0,0,1-4.019,0A3.217,3.217,0,0,1,4.189,25.825ZM6.36,37.546a2.709,2.709,0,0,1-4.019,0,3.217,3.217,0,0,1,0-4.316,2.709,2.709,0,0,1,4.019,0A3.217,3.217,0,0,1,6.36,37.546Zm6.9-1.985a2.706,2.706,0,0,1-4.019,0,3.213,3.213,0,0,1,0-4.316,2.706,2.706,0,0,1,4.019,0A3.217,3.217,0,0,1,13.256,35.561Zm6.893-2a2.706,2.706,0,0,1-4.019,0,3.217,3.217,0,0,1,0-4.316,2.706,2.706,0,0,1,4.019,0,3.213,3.213,0,0,1,0,4.316Zm4.218-4.186a.687.687,0,0,0,.354.1.71.71,0,0,0,.571-.3,8.7,8.7,0,0,0,1.25-2.35,2.893,2.893,0,0,1,.506.431,3.213,3.213,0,0,1,0,4.316,2.706,2.706,0,0,1-4.019,0,3.228,3.228,0,0,1-.477-3.635A8.434,8.434,0,0,0,24.367,29.378Zm-3.6-5.893a6.383,6.383,0,0,0,.09,1.125,6.229,6.229,0,0,0,.683,1.949,2.684,2.684,0,0,1-1.547.492,2.728,2.728,0,0,1-2.01-.894,3.217,3.217,0,0,1,0-4.316,2.942,2.942,0,0,1,.35-.319,16.134,16.134,0,0,0,.357,1.662.73.73,0,0,0,.787.56,8.754,8.754,0,0,0,1.29-.259Zm2.443-9.138a6.025,6.025,0,0,0-2.49.648A19.162,19.162,0,0,0,24.111,4c0-.021,0-.042,0-.063s0-.029,0-.044a19.623,19.623,0,0,0-.156-2.327h1.527a20.542,20.542,0,0,1-.588,8.595A6.072,6.072,0,0,0,23.208,14.347Z" transform="translate(-0.056 0)"/>
  <path id="XMLID_780_" d="M467.5,264.77a.822.822,0,0,0,0,1.1.693.693,0,0,0,1.029,0,.822.822,0,0,0,0-1.1.692.692,0,0,0-1.029,0Z" transform="translate(-433.293 -243.873)"/>
</svg>
