<svg xmlns="http://www.w3.org/2000/svg" width="43.584" height="52.137" viewBox="0 0 43.584 52.137">
  <path id="humidity" d="M63.792,52.137A21.8,21.8,0,0,1,42,30.31c0-3.362,1.641-7.76,5.017-13.445A125.31,125.31,0,0,1,56.274,3.648a9.571,9.571,0,0,1,15.036,0,125.312,125.312,0,0,1,9.257,13.216c3.376,5.686,5.017,10.084,5.017,13.445A21.8,21.8,0,0,1,63.792,52.137Zm0-48.064a5.466,5.466,0,0,0-4.318,2.1c-8.516,10.811-13.4,19.61-13.4,24.141a17.719,17.719,0,1,0,35.437,0c0-4.531-4.884-13.33-13.4-24.141a5.466,5.466,0,0,0-4.318-2.1Zm-5.5,18.635a2.546,2.546,0,1,1-2.546,2.546A2.546,2.546,0,0,1,58.293,22.708Zm8.554,14.053a2.546,2.546,0,1,0,2.546-2.546A2.546,2.546,0,0,0,66.847,36.761ZM59.355,38.68,71.371,26.155a2.037,2.037,0,0,0-2.939-2.82L56.416,35.86a2.037,2.037,0,0,0,2.939,2.82Z" transform="translate(-42)" fill="#95a585" opacity="0.5"/>
</svg>
