<svg xmlns="http://www.w3.org/2000/svg" width="50.738" height="70" viewBox="0 0 50.738 70">
  <g id="bonfire" transform="translate(-21.467 -6.5)">
    <path id="Path_18316" data-name="Path 18316" d="M58.389,79.15,26.321,94.236c-2.086.981-2.752,3.948-1.49,6.628s3.973,4.058,6.057,3.078L62.955,88.855c2.086-.981,2.752-3.948,1.49-6.628s-3.97-4.058-6.055-3.078Z" transform="translate(-1.102 -29.233)" fill="#d58559"/>
    <ellipse id="Ellipse_107" data-name="Ellipse 107" cx="4.171" cy="5.363" rx="4.171" ry="5.363" transform="matrix(0.905, -0.426, 0.426, 0.905, 21.467, 66.781)" fill="#663325"/>
    <path id="Path_18317" data-name="Path 18317" d="M41.877,79.15,73.945,94.236c2.086.981,2.752,3.948,1.49,6.628s-3.973,4.058-6.057,3.078L37.311,88.855c-2.086-.981-2.752-3.948-1.49-6.628S39.792,78.17,41.877,79.15Z" transform="translate(-5.543 -29.233)" fill="#f2a66c"/>
    <ellipse id="Ellipse_108" data-name="Ellipse 108" cx="5.363" cy="4.171" rx="5.363" ry="4.171" transform="matrix(0.426, -0.905, 0.905, 0.426, 60.087, 72.946)" fill="#663325"/>
    <path id="Path_18318" data-name="Path 18318" d="M51.276,60.326c10.869,0,18.026-4.986,17.39-18.209-.313-6.522-3.887-13.67-2.006-21.822-2.926.753-6.143,9.907-6.143,11.538.251-4.514-6.9-8.778-5.769-25.332-6.148,4.515-8.153,16.93-7.9,24.455-2.634-1.129-5.1-5.225-4.473-7.608-5.769,6.835-7.15,12.6-7.19,18.458C35.151,46.069,37.751,59.829,51.276,60.326Z" transform="translate(-5.542)" fill="#f9d42f"/>
    <g id="Group_1008" data-name="Group 1008" transform="translate(32.309 32.509)">
      <path id="Path_18319" data-name="Path 18319" d="M40.706,59.173a.707.707,0,0,1-.106-.005,1.043,1.043,0,0,1-.933-1.142,22.174,22.174,0,0,1,.666-3.63,1.043,1.043,0,1,1,2.012.548,20.077,20.077,0,0,0-.6,3.291,1.043,1.043,0,0,1-1.036.938Z" transform="translate(-39.662 -51.555)" fill="#fb9401"/>
      <path id="Path_18320" data-name="Path 18320" d="M57.521,77.967c-5.546,0-8.947-3.252-8.524-9.679.233-3.553,2.5-6.793,1.527-11.009,1.512.389,3.175,5.12,3.175,5.963-.129-2.333,3.565-4.537,2.979-13.092,3.175,2.333,4.213,8.749,4.083,12.638A3.917,3.917,0,0,0,62.8,58.9a14.748,14.748,0,0,1,3.563,9.657c.159,2.583-1.845,9.41-8.844,9.41Z" transform="translate(-43.42 -50.15)" fill="#fb9401"/>
    </g>
  </g>
</svg>
