<svg xmlns="http://www.w3.org/2000/svg" width="85.821" height="70" viewBox="0 0 85.821 70">
  <g id="Flat" transform="translate(-24 -72.608)">
    <path id="Path_18321" data-name="Path 18321" d="M149.836,162.984v5.967a14.918,14.918,0,0,1-14.917,14.918H120v-8.578A15.3,15.3,0,0,1,135.291,160h11.561A2.983,2.983,0,0,1,149.836,162.984Z" transform="translate(-78.099 -71.096)" fill="#349966"/>
    <path id="Path_18322" data-name="Path 18322" d="M119.327,200v1.492a16.408,16.408,0,0,1-16.412,16.41H88v-2.984h14.918a13.435,13.435,0,0,0,13.426-13.426V200Z" transform="translate(-52.066 -103.637)" fill="#008051"/>
    <path id="Path_18323" data-name="Path 18323" d="M134.918,201.612v2.611H120v-8.578a15.232,15.232,0,0,1,4.3-10.625A18.3,18.3,0,0,1,134.918,201.612Z" transform="translate(-78.099 -91.45)" fill="#008051"/>
    <path id="Path_18324" data-name="Path 18324" d="M108.885,272.772v2.98a16.353,16.353,0,0,1-5.967,1.123H88V273.89h14.918a13.318,13.318,0,0,0,5.963-1.4C108.885,272.583,108.885,272.678,108.885,272.772Z" transform="translate(-52.066 -162.609)" fill="#017a4a"/>
    <path id="Path_18325" data-name="Path 18325" d="M53.836,207.291V227.8H47.868V215.868H38.918A14.918,14.918,0,0,1,24,200.951v-5.968A2.983,2.983,0,0,1,26.984,192H38.545a15.29,15.29,0,0,1,15.291,15.291Z" transform="translate(0 -97.128)" fill="#349966"/>
    <path id="Path_18326" data-name="Path 18326" d="M67.393,249.9H64.41A16.428,16.428,0,0,1,48,233.492V232h2.984v1.492A13.441,13.441,0,0,0,64.41,246.918h2.984Z" transform="translate(-19.525 -129.67)" fill="#008051"/>
    <path id="Path_18327" data-name="Path 18327" d="M281.35,272.951l-7.519,16.111a14.916,14.916,0,0,1-8.552,7.757H253.909c-.017-.065-.034-.132-.047-.2l-1.253-6.258a14.929,14.929,0,0,1,1.676-10.327L263.449,264Z" transform="translate(-185.745 -155.703)" fill="#c4d4e0"/>
    <path id="Path_18328" data-name="Path 18328" d="M278.4,357.6l-7.748,14.2h-3.4l8.527-15.632Z" transform="translate(-197.891 -230.685)" fill="#a6b2bc"/>
    <path id="Path_18329" data-name="Path 18329" d="M339.947,160l-15.293,29.2a2.674,2.674,0,1,0,4.738,2.482l15.03-28.694Z" transform="translate(-244.342 -71.096)" fill="#a6b2bc"/>
    <path id="Path_18330" data-name="Path 18330" d="M367.2,104.742h0a5.663,5.663,0,0,0,7.248-2.578L385.582,80.9a5.663,5.663,0,0,0-2.786-7.833h0a5.663,5.663,0,0,0-7.248,2.578L364.41,96.908a5.663,5.663,0,0,0,2.786,7.833Z" transform="translate(-276.407)" fill="#966342"/>
    <path id="Path_18331" data-name="Path 18331" d="M85.836,372.473v5.967H56a4.475,4.475,0,0,1,7.662-3.142,4.473,4.473,0,0,1,6.469-5.23,4.47,4.47,0,0,1,7.5-.065,4.474,4.474,0,0,1,8.2,2.471Z" transform="translate(-26.033 -240.307)" fill="#ad7d4d"/>
    <g id="Group_1009" data-name="Group 1009" transform="translate(25.492 127.871)">
      <path id="Path_18332" data-name="Path 18332" d="M100.475,395.291H97.492a4.46,4.46,0,0,0-1.289-3.142,4.467,4.467,0,0,1,.324-3.439,7.466,7.466,0,0,1,3.948,6.581Z" transform="translate(-84.066 -385.029)" fill="#966342"/>
      <path id="Path_18333" data-name="Path 18333" d="M137.042,374.756h-2.984a4.477,4.477,0,0,0-2.279-3.9,4.486,4.486,0,0,1,2.506-1.889A7.444,7.444,0,0,1,137.042,374.756Z" transform="translate(-113.174 -368.97)" fill="#966342"/>
      <path id="Path_18334" data-name="Path 18334" d="M32,416H66.311v2.984H32Z" transform="translate(-32 -407.23)" fill="#966342"/>
      <path id="Path_18335" data-name="Path 18335" d="M177.423,380.2v.149a7.484,7.484,0,0,0-5.818,5.818H168.58a10.463,10.463,0,0,1,7.933-8.671A4.461,4.461,0,0,1,177.423,380.2Z" transform="translate(-143.112 -375.909)" fill="#966342"/>
    </g>
    <path id="Path_18336" data-name="Path 18336" d="M225.77,400.972H184.149A7.566,7.566,0,0,1,184,399.48a7.461,7.461,0,0,1,14.314-2.943,4.312,4.312,0,0,1,.6-.041,4.463,4.463,0,0,1,3.412,1.581,5.965,5.965,0,0,1,8.093,0,4.472,4.472,0,0,1,7.142.423,4.474,4.474,0,0,1,8.2,2.471Z" transform="translate(-130.165 -259.856)" fill="#ad7d4d"/>
    <path id="Path_18337" data-name="Path 18337" d="M305.378,416.86a5.932,5.932,0,0,1,2.668,1.421,4.455,4.455,0,0,0-1.063,2.894H304A7.4,7.4,0,0,1,305.378,416.86Z" transform="translate(-227.788 -280.058)" fill="#966342"/>
    <path id="Path_18338" data-name="Path 18338" d="M367.729,421.378h-2.984a4.445,4.445,0,0,0-.746-2.471,4.468,4.468,0,0,1,2.383-1.8A7.409,7.409,0,0,1,367.729,421.378Z" transform="translate(-276.6 -280.262)" fill="#966342"/>
    <path id="Path_18339" data-name="Path 18339" d="M230.855,404.863a4.483,4.483,0,0,0-3.871,4.434H224a7.471,7.471,0,0,1,4.984-7.037A7.449,7.449,0,0,1,230.855,404.863Z" transform="translate(-162.706 -268.181)" fill="#966342"/>
    <path id="Path_18340" data-name="Path 18340" d="M160,432h58.179v2.984H160Z" transform="translate(-110.64 -292.375)" fill="#966342"/>
  </g>
</svg>
