<svg xmlns="http://www.w3.org/2000/svg" width="68.471" height="76" viewBox="0 0 68.471 76">
  <g id="cold" transform="translate(-25.362 0.001)">
    <path id="Path_18278" data-name="Path 18278" d="M262.574,422.724V420.9a3.472,3.472,0,0,0-3.472-3.472H255.04a3.424,3.424,0,0,0-5.529-3.251,6.691,6.691,0,1,0-13.227,2.036l-.084,0a6.51,6.51,0,0,0-6.51,6.51h32.884Z" transform="translate(-173.998 -347.838)" fill="#ddebfd"/>
    <path id="Path_18279" data-name="Path 18279" d="M129.131,389.982h-9.343l1.769-19.962h5.8Z" transform="translate(-80.41 -315.096)" fill="#8c5e5e"/>
    <path id="Path_18280" data-name="Path 18280" d="M75.605,255.4H48.06a1.813,1.813,0,0,1-1.6-2.66L60.23,226.683a1.813,1.813,0,0,1,3.205,0l13.772,26.053A1.813,1.813,0,0,1,75.605,255.4Z" transform="translate(-17.783 -192.213)" fill="#70c6db"/>
    <path id="Path_18281" data-name="Path 18281" d="M154.063,252.736,140.29,226.684a1.813,1.813,0,0,0-3.205,0L136.5,227.8l13.184,24.94a1.813,1.813,0,0,1-1.6,2.66h4.382A1.813,1.813,0,0,0,154.063,252.736Z" transform="translate(-94.638 -192.214)" fill="#64b0cb"/>
    <path id="Path_18282" data-name="Path 18282" d="M92.419,180.587H71.453a1.6,1.6,0,0,1-1.413-2.345l10.483-19.831a1.6,1.6,0,0,1,2.826,0l10.483,19.831A1.6,1.6,0,0,1,92.419,180.587Z" transform="translate(-37.886 -134.173)" fill="#94d8e6"/>
    <path id="Path_18283" data-name="Path 18283" d="M150.585,178.242,140.1,158.412a1.6,1.6,0,0,0-2.826,0l-.778,1.472,9.705,18.359a1.6,1.6,0,0,1-1.413,2.345h4.382A1.6,1.6,0,0,0,150.585,178.242Z" transform="translate(-94.639 -134.173)" fill="#70c6db"/>
    <path id="Path_18284" data-name="Path 18284" d="M107.424,161.159a.593.593,0,0,0,.525-.871L101.715,148.5a3.2,3.2,0,0,0-5.651,0l-6.233,11.791a.593.593,0,0,0,.525.871h6.589a.887.887,0,0,1,.887.887v2.385a2.551,2.551,0,0,0,5.1,0v-2.385a.887.887,0,0,1,.887-.887Z" transform="translate(-54.84 -125.006)" fill="#ddebfd"/>
    <path id="Path_18285" data-name="Path 18285" d="M151.839,160.288,145.606,148.5a3.2,3.2,0,0,0-4.3-1.341,3.192,3.192,0,0,1,1.348,1.341l6.233,11.791a.593.593,0,0,1-.524.871h2.955a.593.593,0,0,0,.524-.871Z" transform="translate(-98.731 -125.005)" fill="#bed9fd"/>
    <path id="Path_18286" data-name="Path 18286" d="M146.583,340.99a.5.5,0,0,0-.807,0c-.739,1.023-2.233,3.229-2.233,4.325a2.637,2.637,0,1,0,5.273,0C148.817,344.219,147.322,342.013,146.583,340.99Z" transform="translate(-100.639 -290.199)" fill="#cde2ff"/>
    <path id="Path_18287" data-name="Path 18287" d="M92.345,499.227H26.475a1.113,1.113,0,0,1,0-2.227h65.87a1.113,1.113,0,1,1,0,2.227Z" transform="translate(0 -423.227)" fill="#9ec8fc"/>
    <g id="Group_1006" data-name="Group 1006" transform="translate(68.977 37.097)">
      <g id="Group_1003" data-name="Group 1003" transform="translate(0)">
        <path id="Path_18288" data-name="Path 18288" d="M320.306,252.96a1.113,1.113,0,0,1-1.113-1.113v-.81a1.113,1.113,0,0,1,2.227,0v.81A1.113,1.113,0,0,1,320.306,252.96Z" transform="translate(-319.193 -249.923)" fill="#cde2ff"/>
        <path id="Path_18289" data-name="Path 18289" d="M320.306,306.53a1.113,1.113,0,0,1-1.113-1.113v-.81a1.113,1.113,0,0,1,2.227,0v.81A1.113,1.113,0,0,1,320.306,306.53Z" transform="translate(-319.193 -295.541)" fill="#cde2ff"/>
        <path id="Path_18290" data-name="Path 18290" d="M320.306,360.1a1.113,1.113,0,0,1-1.113-1.113v-.81a1.113,1.113,0,1,1,2.227,0v.81A1.113,1.113,0,0,1,320.306,360.1Z" transform="translate(-319.193 -341.159)" fill="#cde2ff"/>
      </g>
      <g id="Group_1004" data-name="Group 1004" transform="translate(7.796)">
        <path id="Path_18291" data-name="Path 18291" d="M372.827,252.96a1.113,1.113,0,0,1-1.113-1.113v-.81a1.113,1.113,0,0,1,2.227,0v.81A1.113,1.113,0,0,1,372.827,252.96Z" transform="translate(-371.714 -249.923)" fill="#cde2ff"/>
        <path id="Path_18292" data-name="Path 18292" d="M372.827,306.53a1.113,1.113,0,0,1-1.113-1.113v-.81a1.113,1.113,0,0,1,2.227,0v.81A1.113,1.113,0,0,1,372.827,306.53Z" transform="translate(-371.714 -295.541)" fill="#cde2ff"/>
        <path id="Path_18293" data-name="Path 18293" d="M372.827,360.1a1.113,1.113,0,0,1-1.113-1.113v-.81a1.113,1.113,0,1,1,2.227,0v.81A1.113,1.113,0,0,1,372.827,360.1Z" transform="translate(-371.714 -341.159)" fill="#cde2ff"/>
      </g>
      <g id="Group_1005" data-name="Group 1005" transform="translate(15.592)">
        <path id="Path_18294" data-name="Path 18294" d="M425.346,252.96a1.113,1.113,0,0,1-1.113-1.113v-.81a1.113,1.113,0,0,1,2.227,0v.81A1.113,1.113,0,0,1,425.346,252.96Z" transform="translate(-424.233 -249.923)" fill="#cde2ff"/>
        <path id="Path_18295" data-name="Path 18295" d="M425.346,306.53a1.113,1.113,0,0,1-1.113-1.113v-.81a1.113,1.113,0,0,1,2.227,0v.81A1.113,1.113,0,0,1,425.346,306.53Z" transform="translate(-424.233 -295.541)" fill="#cde2ff"/>
        <path id="Path_18296" data-name="Path 18296" d="M425.346,360.1a1.113,1.113,0,0,1-1.113-1.113v-.81a1.113,1.113,0,1,1,2.227,0v.81A1.113,1.113,0,0,1,425.346,360.1Z" transform="translate(-424.233 -341.159)" fill="#cde2ff"/>
      </g>
    </g>
    <g id="Group_1007" data-name="Group 1007" transform="translate(61.941 -0.001)">
      <path id="Path_18297" data-name="Path 18297" d="M350.3,5.592v5.516a1.113,1.113,0,0,0,2.227,0V5.592l3.437-3.724a1.113,1.113,0,0,0-1.636-1.51l-2.914,3.157L348.5.358a1.113,1.113,0,1,0-1.636,1.51Z" transform="translate(-335.469 0.001)" fill="#6cbff8"/>
      <path id="Path_18298" data-name="Path 18298" d="M272.9,37.347a1.118,1.118,0,0,0,.246-.028l4.944-1.115,4.777,2.758a1.113,1.113,0,1,0,1.113-1.928L279.2,34.277,277.7,29.438a1.113,1.113,0,0,0-2.126.662l1.277,4.1-4.191.945a1.114,1.114,0,0,0,.244,2.2Z" transform="translate(-271.788 -24.402)" fill="#6cbff8"/>
      <path id="Path_18299" data-name="Path 18299" d="M283.982,119.707a1.113,1.113,0,1,0-1.113-1.928l-4.777,2.758-4.944-1.115a1.113,1.113,0,0,0-.49,2.172l4.191.945-1.277,4.1a1.113,1.113,0,1,0,2.126.662l1.507-4.838Z" transform="translate(-271.789 -100.169)" fill="#6cbff8"/>
      <path id="Path_18300" data-name="Path 18300" d="M352.529,141.025v-5.516a1.113,1.113,0,1,0-2.227,0v5.516l-3.437,3.724a1.113,1.113,0,0,0,1.636,1.51l2.914-3.157,2.914,3.157a1.113,1.113,0,1,0,1.636-1.51Z" transform="translate(-335.47 -114.447)" fill="#6cbff8"/>
      <path id="Path_18301" data-name="Path 18301" d="M412.141,119.422l-4.944,1.115-4.777-2.758a1.113,1.113,0,0,0-1.113,1.928l4.777,2.758,1.507,4.838a1.113,1.113,0,0,0,2.126-.662l-1.277-4.1,4.191-.945a1.113,1.113,0,1,0-.49-2.172Z" transform="translate(-381.608 -100.168)" fill="#6cbff8"/>
      <path id="Path_18302" data-name="Path 18302" d="M401.308,37.036a1.113,1.113,0,1,0,1.113,1.928l4.777-2.758,4.944,1.115a1.113,1.113,0,0,0,.49-2.172L408.44,34.2l1.277-4.1a1.113,1.113,0,1,0-2.126-.662l-1.507,4.838Z" transform="translate(-381.608 -24.403)" fill="#6cbff8"/>
    </g>
    <path id="Path_18303" data-name="Path 18303" d="M346.4,69.834a5.719,5.719,0,1,0,5.719,5.719A5.726,5.726,0,0,0,346.4,69.834Z" transform="translate(-268.516 -59.469)" fill="#75cff9"/>
  </g>
</svg>
