<svg xmlns="http://www.w3.org/2000/svg" width="83.419" height="52.137" viewBox="0 0 83.419 52.137">
  <g id="powder" opacity="0.5">
    <path id="Path_9046" data-name="Path 9046" d="M81.79,35.844H80.055a11.08,11.08,0,0,0-1.727-4.771L63.952,9.732A6.665,6.665,0,0,0,58.5,6.517H58.5A6.649,6.649,0,0,0,53.06,9.71l-.5.739L48.073,3.77A7.773,7.773,0,0,0,41.723,0h-.007a7.756,7.756,0,0,0-6.335,3.744l-4.508,6.707-.485-.719A6.664,6.664,0,0,0,24.94,6.517h-.006A6.65,6.65,0,0,0,19.5,9.71l-1.083,1.608a1.629,1.629,0,1,0,2.7,1.821L22.2,11.53a3.432,3.432,0,0,1,2.734-1.755h0a3.451,3.451,0,0,1,2.748,1.774l1.226,1.821L18.2,29.309a12.947,12.947,0,0,0-2.471,6.536H6.658A7.431,7.431,0,0,1,8.02,32.572c.022-.029.043-.059.064-.088l5.75-8.535a1.629,1.629,0,0,0-2.7-1.82L5.411,30.62a10.8,10.8,0,0,0-2.049,5.225H1.629A1.63,1.63,0,0,0,0,37.473a8.16,8.16,0,0,0,6.654,8.01,8.161,8.161,0,0,0,8.01,6.655H68.755a8.161,8.161,0,0,0,8.01-6.655,8.159,8.159,0,0,0,6.654-8.01A1.629,1.629,0,0,0,81.79,35.844ZM55.762,11.53A3.432,3.432,0,0,1,58.5,9.776h0a3.449,3.449,0,0,1,2.747,1.774L75.626,32.893a7.615,7.615,0,0,1,1.137,2.951H67.691a13.289,13.289,0,0,0-2.086-5.99L54.524,13.368ZM20.808,31.259c.022-.029.044-.059.064-.089L32.237,14.263l0-.005,5.845-8.7a4.524,4.524,0,0,1,3.63-2.3h0a4.546,4.546,0,0,1,3.647,2.326l5.826,8.667.01.016,11.7,17.4a9.862,9.862,0,0,1,1.51,4.172h-45.4A9.667,9.667,0,0,1,20.808,31.259Zm54.464,11.1H68.755a1.629,1.629,0,0,0,0,3.259h4.608a4.9,4.9,0,0,1-4.608,3.259H14.663a4.9,4.9,0,0,1-4.608-3.259H55.721a1.629,1.629,0,0,0,0-3.259H8.146A4.9,4.9,0,0,1,3.538,39.1H79.881A4.9,4.9,0,0,1,75.273,42.361Zm0,0" fill="#95a585"/>
    <path id="Path_9047" data-name="Path 9047" d="M193.629,166A1.63,1.63,0,0,0,192,167.629h0A1.629,1.629,0,1,0,193.629,166Zm0,0" transform="translate(-160.718 -138.954)" fill="#95a585"/>
    <path id="Path_9048" data-name="Path 9048" d="M227.629,111A1.63,1.63,0,0,0,226,112.629h0A1.629,1.629,0,1,0,227.629,111Zm0,0" transform="translate(-189.178 -92.915)" fill="#95a585"/>
    <path id="Path_9049" data-name="Path 9049" d="M296.629,153A1.63,1.63,0,0,0,295,154.629h0A1.629,1.629,0,1,0,296.629,153Zm0,0" transform="translate(-246.936 -128.072)" fill="#95a585"/>
    <path id="Path_9050" data-name="Path 9050" d="M425.629,187.751a1.63,1.63,0,1,0-1.629-1.63h0A1.629,1.629,0,0,0,425.629,187.751Zm0,0" transform="translate(-354.919 -154.433)" fill="#95a585"/>
    <path id="Path_9051" data-name="Path 9051" d="M89.683,101.212a1.63,1.63,0,0,0,2.26-.452h0a1.629,1.629,0,1,0-2.261.453Zm0,0" transform="translate(-74.464 -82.223)" fill="#95a585"/>
    <path id="Path_9052" data-name="Path 9052" d="M373.63,260h0a1.629,1.629,0,1,0,1.631,1.629A1.629,1.629,0,0,0,373.629,260Zm0,0" transform="translate(-311.391 -217.639)" fill="#95a585"/>
  </g>
</svg>
