<svg xmlns="http://www.w3.org/2000/svg" width="48.328" height="41.71" viewBox="0 0 48.328 41.71">
  <g id="proteins" opacity="0.5">
    <path id="Path_9045" data-name="Path 9045" d="M125.65,133.112a3.879,3.879,0,0,1-2.228-.7l-14.5-10.145a1.082,1.082,0,0,1-.145-1.651l2.738-2.738a3.881,3.881,0,0,1,4.976-.436l13.566,9.49a1.72,1.72,0,0,0-.254-1.429L121,112.923a3.881,3.881,0,0,1,.437-4.976l2.738-2.738a3.882,3.882,0,0,1,4.976-.436l4.524,3.165a1.082,1.082,0,0,1-1.24,1.773l-4.524-3.165a1.721,1.721,0,0,0-2.206.194l-1.826,1.826,13.446,9.406a1.721,1.721,0,0,0,2.206-.194l1.826-1.826-5.4-3.779a1.082,1.082,0,1,1,1.24-1.773l5.522,3.862a1.721,1.721,0,0,0-.254-1.429l-8.8-12.576a3.881,3.881,0,0,1,.436-4.976l2.738-2.738a3.881,3.881,0,0,1,4.976-.436l14.5,10.145a1.082,1.082,0,0,1,.145,1.651l-2.738,2.738a3.881,3.881,0,0,1-4.976.437l-13.566-9.49a1.721,1.721,0,0,0,.254,1.429l8.8,12.576a3.881,3.881,0,0,1-.437,4.976l-2.738,2.738a3.881,3.881,0,0,1-4.976.436l-13.566-9.49a1.72,1.72,0,0,0,.254,1.429l8.8,12.576a3.881,3.881,0,0,1-.436,4.976l-2.738,2.738A3.88,3.88,0,0,1,125.65,133.112ZM111.216,121.23l13.446,9.406a1.721,1.721,0,0,0,2.206-.194l1.826-1.826-13.446-9.406a1.721,1.721,0,0,0-2.206.194ZM136.548,95.9l13.446,9.406a1.721,1.721,0,0,0,2.206-.194l1.826-1.826-13.446-9.406a1.721,1.721,0,0,0-2.206.194Z" transform="translate(-108.457 -91.402)" fill="#95a585"/>
  </g>
</svg>
