<svg xmlns="http://www.w3.org/2000/svg" width="60.769" height="70" viewBox="0 0 60.769 70">
  <g id="winter-hat" transform="translate(-33.758)">
    <path id="Path_18304" data-name="Path 18304" d="M263.674,146.152H262.3L256,182.324l25.769-9.231A29.072,29.072,0,0,0,263.674,146.152Z" transform="translate(-191.857 -126.17)" fill="#992a2a"/>
    <path id="Path_18305" data-name="Path 18305" d="M99.585,146.152H85.611a29.072,29.072,0,0,0-18.1,26.941l25.769,9.231,21.154-9.231C114.439,160.908,108.3,150.48,99.585,146.152Z" transform="translate(-29.143 -126.17)" fill="#df3333"/>
    <path id="Path_18306" data-name="Path 18306" d="M290.731,20.123a3.076,3.076,0,0,0-1.825-2.809,3.074,3.074,0,0,0-2.809-4.865,3.072,3.072,0,0,0-4.122-3.2V31a3.072,3.072,0,0,0,4.122-3.2,3.074,3.074,0,0,0,2.809-4.865A3.076,3.076,0,0,0,290.731,20.123Z" transform="translate(-214.281 -7.815)" fill="#ccc9c0"/>
    <path id="Path_18307" data-name="Path 18307" d="M183.082,19.982c.732.122,1.474-.435,1.866-1.52a4.667,4.667,0,0,0-.11-3.345,3.486,3.486,0,0,0,1.141-2.809A3.486,3.486,0,0,0,184.838,9.5a4.666,4.666,0,0,0,.11-3.345c-.392-1.085-1.134-1.642-1.866-1.52a3.849,3.849,0,0,0-.95-2.985,1.75,1.75,0,0,0-.294-.22,3.09,3.09,0,0,0-.743.4,3.074,3.074,0,0,0-5.618,0,3.074,3.074,0,0,0-4.865,2.809A3.074,3.074,0,0,0,167.8,9.5a3.074,3.074,0,0,0,0,5.618,3.074,3.074,0,0,0,2.809,4.865,3.074,3.074,0,0,0,4.865,2.809,3.074,3.074,0,0,0,5.618,0,3.079,3.079,0,0,0,.743.4,1.745,1.745,0,0,0,.295-.219A3.851,3.851,0,0,0,183.082,19.982Z" transform="translate(-114.143)" fill="#e8e5da"/>
    <path id="Path_18308" data-name="Path 18308" d="M38.373,343.208a4.629,4.629,0,0,0-4.615,4.615V361.67a4.629,4.629,0,0,0,4.615,4.615h4.615l4.066-11.539-4.066-11.539H38.373Z" transform="translate(0 -296.285)" fill="#e55c5c"/>
    <path id="Path_18309" data-name="Path 18309" d="M101.275,343.209v23.077h8.462l4.553-11.539-4.553-11.538Z" transform="translate(-58.286 -296.286)" fill="#ec8585"/>
    <path id="Path_18310" data-name="Path 18310" d="M163.165,343.209v23.077h8.462l4.553-11.539-4.553-11.538Z" transform="translate(-111.715 -296.286)" fill="#e55c5c"/>
    <path id="Path_18311" data-name="Path 18311" d="M225.055,343.209v23.077h8.462l4.553-11.539-4.553-11.538Z" transform="translate(-165.143 -296.286)" fill="#ec8585"/>
    <path id="Path_18312" data-name="Path 18312" d="M286.945,343.209v23.077h8.462l4.553-11.539-4.553-11.538Z" transform="translate(-218.572 -296.286)" fill="#e55c5c"/>
    <path id="Path_18313" data-name="Path 18313" d="M348.835,343.209v23.077H357.3l4.553-11.539L357.3,343.209Z" transform="translate(-272 -296.286)" fill="#ec8585"/>
    <path id="Path_18314" data-name="Path 18314" d="M415.341,343.209h-4.615v23.077h4.615a4.629,4.629,0,0,0,4.615-4.615V347.824A4.629,4.629,0,0,0,415.341,343.209Z" transform="translate(-325.429 -296.286)" fill="#df3333"/>
    <path id="Path_18315" data-name="Path 18315" d="M410.725,343.209v23.077a4.629,4.629,0,0,0,4.615-4.615V347.824A4.629,4.629,0,0,0,410.725,343.209Z" transform="translate(-325.429 -296.286)" fill="#e55c5c"/>
  </g>
</svg>
