<svg xmlns="http://www.w3.org/2000/svg" width="92.273" height="70" viewBox="0 0 92.273 70">
  <g id="harvest_1_" data-name="harvest (1)" transform="translate(-24 -80)">
    <path id="Path_18367" data-name="Path 18367" d="M24,226.063,74.909,243.09s-4.628-12.383-20.826-17.027a55.568,55.568,0,0,0-30.083,0Z" transform="translate(0 -115.363)" fill="#dadcde"/>
    <path id="Path_18368" data-name="Path 18368" d="M24,337.027,74.909,320s-4.628,12.383-20.826,17.027a55.568,55.568,0,0,1-30.083,0Z" transform="translate(0 -192.273)" fill="#dadcde"/>
    <path id="Path_18369" data-name="Path 18369" d="M299.045,224c-15.2,1-27.045,9.225-27.045,19.091s11.846,18.087,27.045,19.091h12.727v-6.364H299.045c-11.675-.829-20.682-6.272-20.682-12.727s9.007-11.9,20.682-12.727h12.727V224Z" transform="translate(-198.682 -115.364)" fill="#eb423f"/>
    <path id="Path_18370" data-name="Path 18370" d="M424,224h9.545v6.364H424Z" transform="translate(-320.455 -115.364)" fill="#95573a"/>
    <path id="Path_18371" data-name="Path 18371" d="M424,384h9.545v6.364H424Z" transform="translate(-320.455 -243.545)" fill="#95573a"/>
    <circle id="Ellipse_114" data-name="Ellipse 114" cx="6.364" cy="6.364" r="6.364" transform="translate(70.136 121.364)" fill="#d0d2d4"/>
    <circle id="Ellipse_115" data-name="Ellipse 115" cx="1.591" cy="1.591" r="1.591" transform="translate(74.909 126.136)" fill="#b6b9ba"/>
    <rect id="Rectangle_1145" data-name="Rectangle 1145" width="12.727" height="6.364" rx="3.182" transform="translate(109.909 150) rotate(-90)" fill="#eb423f"/>
    <rect id="Rectangle_1146" data-name="Rectangle 1146" width="12.727" height="6.364" rx="3.182" transform="translate(109.909 118.182) rotate(-90)" fill="#eb423f"/>
    <path id="Path_18372" data-name="Path 18372" d="M172.727,80h6.364v9.545a12.727,12.727,0,0,1-12.727,12.727H160V92.727A12.727,12.727,0,0,1,172.727,80Z" transform="translate(-108.955)" fill="#2e9163"/>
    <path id="Path_18373" data-name="Path 18373" d="M0,0H6.364A12.727,12.727,0,0,1,19.091,12.727v9.545H12.727A12.727,12.727,0,0,1,0,9.545Z" transform="translate(51.045 102.273) rotate(180)" fill="#35a872"/>
    <path id="Path_18374" data-name="Path 18374" d="M116.457,141.63l9.433-11a1.591,1.591,0,0,0-2.416-2.071l-8.338,9.727-8.338-9.727a1.591,1.591,0,0,0-2.416,2.071l8.866,10.344a25.382,25.382,0,0,0-1.878,6.909,30.775,30.775,0,0,0,3.965,19.075,1.591,1.591,0,1,0,2.781-1.545,27.485,27.485,0,0,1-3.611-16.969A21.246,21.246,0,0,1,116.457,141.63Z" transform="translate(-64.09 -38.454)" fill="#20754d"/>
  </g>
</svg>
