<svg id="vegetable" xmlns="http://www.w3.org/2000/svg" width="40" height="40" viewBox="0 0 40 40">
  <path id="Path_17999" data-name="Path 17999" d="M41,23.548a8.964,8.964,0,0,0-3.643-7.175,2.745,2.745,0,0,0-1.623-.534,2.716,2.716,0,0,0-1.91.786c-.094-.078-.179-.164-.275-.238a2.683,2.683,0,0,0-1.229-.5l.285-3.128c.006-.075.01-.15.01-.226a2.5,2.5,0,0,0-2.5-2.5h-.168a2.5,2.5,0,0,0-2.5,2.5c0,.075,0,.151.01.226l.286,3.142a2.762,2.762,0,0,0-1.139.485c-.115.086-.218.186-.329.277-.057-.059-.118-.115-.181-.168a3.77,3.77,0,0,0-.667-2.91,3.868,3.868,0,0,0-3.367-6.122A3.855,3.855,0,0,0,19.5,5.032a3.818,3.818,0,0,0-3.239-1.444,3.866,3.866,0,0,0-7-.65A3.889,3.889,0,0,0,5.651,5.843,5.184,5.184,0,0,0,2.29,10.677a5.132,5.132,0,0,0,2.257,4.263,3.853,3.853,0,0,0,1.08,4.515,3.736,3.736,0,0,0-.112.9A3.877,3.877,0,0,0,8.923,24.2l1.427,4a7.133,7.133,0,0,0-1.833,1.987l-3.38-.751a1.748,1.748,0,0,0-.394-.044,1.81,1.81,0,0,0-1.808,1.808v.255a1.788,1.788,0,0,0,.085.517H2.935a1.935,1.935,0,0,0,0,3.871H3.02a1.788,1.788,0,0,0-.085.517v.255a1.81,1.81,0,0,0,1.808,1.808,1.765,1.765,0,0,0,.392-.043l3.381-.752A7.091,7.091,0,0,0,14.548,41H14.7a7.127,7.127,0,0,0,1.079-.083l22.123-3.4a3.645,3.645,0,0,0,1.006-6.9A8.923,8.923,0,0,0,41,24.9Zm-8.237-6.136a7.931,7.931,0,0,1,3.075,6.275v2.37a7.965,7.965,0,0,1-.951,3.773l-5.174-.8a12.865,12.865,0,0,1-.327-2.852V23.561a12.844,12.844,0,0,1,.164-1.944c.158.014.315.028.481.028,1.839,0,3.226-.832,3.226-1.935a1.755,1.755,0,0,0-1.151-1.5l.095-1.044a1.352,1.352,0,0,1,.561.25Zm-2.815-6.089h.168a1.208,1.208,0,0,1,1.206,1.206,1.033,1.033,0,0,1-.005.11l-.586,6.443.492.158c.565.181.743.419.743.47,0,.161-.686.645-1.935.645S28.1,19.87,28.1,19.71c0-.051.178-.289.743-.47l.492-.158-.586-6.443c0-.037,0-.074,0-.11A1.208,1.208,0,0,1,29.948,11.323Zm-2.084,5.86.093,1.023a1.755,1.755,0,0,0-1.151,1.5c0,.711.58,1.305,1.481,1.641a14.215,14.215,0,0,0-.191,2.211v2.619a14.177,14.177,0,0,0,.25,2.642l-3.8-.585a7.769,7.769,0,0,1-.318-2.182v-2.37a7.859,7.859,0,0,1,3.155-6.27A1.443,1.443,0,0,1,27.865,17.183ZM20.892,27.675a7.5,7.5,0,0,1-.537-2.772V23.547a7.672,7.672,0,0,1,3.119-6.138,1.454,1.454,0,0,1,.857-.28,1.425,1.425,0,0,1,1.011.419,9.14,9.14,0,0,0-2.406,6.138v2.37a9.036,9.036,0,0,0,.223,1.968Zm.061-19.385.117.664.658-.146a2.576,2.576,0,0,1,2.4,4.32l-.444.452.444.452a2.565,2.565,0,0,1,.741,1.806c0,.019,0,.039,0,.059a2.673,2.673,0,0,0-2.159.474,8.994,8.994,0,0,0-2.726,3.277q-.367-1.142-.766-2.183a9.151,9.151,0,0,1,2.833-5l-.4-.5-.4-.5a10.211,10.211,0,0,0-2.815,4.068,40.091,40.091,0,0,0-2.691-5.2l-1.086.7A37.972,37.972,0,0,1,16.8,15.065a10.629,10.629,0,0,0-4.248-.513l.128,1.284c.97-.1,3.719-.05,5,1.26.452,1.112.9,2.33,1.292,3.636a10.921,10.921,0,0,0-4.423-1.022V21a8.672,8.672,0,0,1,4.6,1.371,8.713,8.713,0,0,0-.086,1.177V24.9a8.8,8.8,0,0,0,.383,2.55l-3.669-.565c-.194-.03-.389-.05-.585-.064a2.577,2.577,0,0,1-2.4-3.517l.188-.494-.447-.283a2.567,2.567,0,0,1-.778-3.6l.4-.6L11.509,18a3.866,3.866,0,0,1,.684-7.168l.4-.115.06-.412A2.587,2.587,0,0,1,15.194,8.1a.51.51,0,0,1,.07.008c.045.006.091.012.137.015l.463.037.182-.427a2.576,2.576,0,0,1,4.908.56ZM9.842,22.935H9.387a2.561,2.561,0,0,1-2.4-3.5l.189-.494-.447-.283a2.566,2.566,0,0,1-.779-3.6l.4-.6L5.7,14.127a3.866,3.866,0,0,1,.683-7.168l.4-.115.06-.412A2.588,2.588,0,0,1,9.387,4.226a.538.538,0,0,1,.072.008c.044.006.088.012.133.015l.465.039.183-.429a2.575,2.575,0,0,1,4.907.561l.117.664.658-.146a2.366,2.366,0,0,1,1.41.093,3.862,3.862,0,0,0-2.266,1.778,3.889,3.889,0,0,0-3.608,2.906A5.184,5.184,0,0,0,8.1,14.548a5.132,5.132,0,0,0,2.257,4.263,3.854,3.854,0,0,0,1.08,4.515,3.731,3.731,0,0,0-.112.9,3.882,3.882,0,0,0,1.26,2.863,7.027,7.027,0,0,0-1.105.426ZM4.226,31.45v-.255a.526.526,0,0,1,.63-.505l3.07.683c-.075.195-.142.393-.2.6H4.743A.518.518,0,0,1,4.226,31.45ZM2.29,33.9a.646.646,0,0,1,.645-.645H7.484c-.019.213-.032.427-.032.645s.014.432.033.645H2.935A.646.646,0,0,1,2.29,33.9Zm2.565,3.214a.531.531,0,0,1-.629-.505v-.255a.518.518,0,0,1,.517-.517H7.726c.057.2.125.4.2.6ZM39.71,33.9a2.35,2.35,0,0,1-2,2.335l-22.123,3.4a5.819,5.819,0,0,1-.884.068h-.152a5.806,5.806,0,0,1,0-11.613H14.7a5.887,5.887,0,0,1,.883.067l22.123,3.4A2.351,2.351,0,0,1,39.71,33.9Zm0-9a7.638,7.638,0,0,1-2.2,5.328l-1.282-.2a9.254,9.254,0,0,0,.9-3.979v-2.37a9.256,9.256,0,0,0-2.374-6.163,1.426,1.426,0,0,1,.979-.394,1.445,1.445,0,0,1,.857.281,7.669,7.669,0,0,1,3.119,6.137Z" transform="translate(-1 -1)"/>
  <path id="Path_18000" data-name="Path 18000" d="M21,47h1.29v6.452H21Z" transform="translate(-8.097 -17.323)"/>
  <path id="Path_18001" data-name="Path 18001" d="M29,47h1.29v6.452H29Z" transform="translate(-10.936 -17.323)"/>
  <path id="Path_18002" data-name="Path 18002" d="M37,47h1.29v6.452H37Z" transform="translate(-13.774 -17.323)"/>
  <path id="Path_18003" data-name="Path 18003" d="M45,49h1.29v3.871H45Z" transform="translate(-16.613 -18.032)"/>
  <path id="Path_18004" data-name="Path 18004" d="M53,50h1.29v2.581H53Z" transform="translate(-19.452 -18.387)"/>
</svg>
