<svg xmlns="http://www.w3.org/2000/svg" width="39.975" height="40" viewBox="0 0 39.975 40"><defs><style>.a{fill:#95a585;}</style></defs><g transform="translate(-0.148 0)"><g transform="translate(0.148 0)"><g transform="translate(0 0)"><path class="a" d="M.792,19.991H.815a.667.667,0,0,0,.667-.644,18.666,18.666,0,0,1,30.2-14.013H28.136a.667.667,0,1,0,0,1.333h5.343a.673.673,0,0,0,.153-.031.715.715,0,0,0,.1-.022c.019-.008.033-.025.051-.035a.637.637,0,0,0,.163-.114l.007,0A.639.639,0,0,0,34,6.389a.643.643,0,0,0,.087-.139.635.635,0,0,0,.033-.165A.563.563,0,0,0,34.136,6V.668a.667.667,0,0,0-1.333,0V4.529A19.994,19.994,0,0,0,.149,19.3.667.667,0,0,0,.792,19.991Z" transform="translate(-0.148 0)"/><path class="a" d="M59.793,386.408a.668.668,0,1,0-1,.886,20.314,20.314,0,0,0,1.453,1.472.667.667,0,0,0,.9-.984A18.815,18.815,0,0,1,59.793,386.408Z" transform="translate(-53.752 -354.001)"/><path class="a" d="M137.8,443.624a18.583,18.583,0,0,1-1.793-.713.667.667,0,0,0-.592,1.195l.035.016a19.686,19.686,0,0,0,1.923.765.667.667,0,1,0,.427-1.263Z" transform="translate(-123.807 -405.939)"/><path class="a" d="M96.51,419.606h0a19.121,19.121,0,0,1-1.609-1.067.667.667,0,1,0-.826,1.047l.033.025a20.223,20.223,0,0,0,1.722,1.143.667.667,0,0,0,.68-1.147Z" transform="translate(-86.015 -383.53)"/><path class="a" d="M32.949,349.308a18.919,18.919,0,0,1-1.045-1.622.668.668,0,1,0-1.157.667,20.17,20.17,0,0,0,1.12,1.734.667.667,0,0,0,1.082-.779Z" transform="translate(-28.115 -318.406)"/><path class="a" d="M13.2,305.789a.667.667,0,0,0-.057-.27v0a18.617,18.617,0,0,1-.69-1.8.667.667,0,0,0-1.286.35q.009.031.02.061a20.041,20.041,0,0,0,.739,1.933.667.667,0,0,0,1.276-.27Z" transform="translate(-10.221 -277.955)"/><path class="a" d="M2.418,260h0a.667.667,0,0,0,.513-.79,18.893,18.893,0,0,1-.3-1.906.667.667,0,0,0-1.327.141,20.125,20.125,0,0,0,.324,2.041A.667.667,0,0,0,2.418,260Z" transform="translate(-1.204 -235.314)"/><path class="a" d="M451.741,287.834h0a.667.667,0,0,0-.807.487,18.686,18.686,0,0,1-.559,1.847.667.667,0,0,0,1.255.452,20.041,20.041,0,0,0,.6-1.979A.667.667,0,0,0,451.741,287.834Z" transform="translate(-412.819 -263.83)"/><path class="a" d="M183.35,458.636a18.673,18.673,0,0,1-1.9-.327.667.667,0,0,0-.294,1.3,20.033,20.033,0,0,0,2.038.35.637.637,0,0,0,.08,0,.667.667,0,0,0,.077-1.329Z" transform="translate(-165.594 -420.102)"/><path class="a" d="M431.418,332.952h0a.667.667,0,0,0-.89.31,18.55,18.55,0,0,1-.929,1.691.667.667,0,0,0,1.133.7,19.98,19.98,0,0,0,1-1.813A.667.667,0,0,0,431.418,332.952Z" transform="translate(-393.725 -305.146)"/><path class="a" d="M402.554,373.7a.667.667,0,0,0-.937.107l-.012.015h0a18.683,18.683,0,0,1-1.257,1.467.667.667,0,0,0,.967.919,20.4,20.4,0,0,0,1.345-1.57A.667.667,0,0,0,402.554,373.7Z" transform="translate(-366.831 -342.423)"/><path class="a" d="M462.645,240.377a.657.657,0,0,0-.689.622c0,.007,0,.014,0,.02a18.68,18.68,0,0,1-.167,1.923.667.667,0,0,0,.568.751.635.635,0,0,0,.093.007.667.667,0,0,0,.659-.575,20.184,20.184,0,0,0,.179-2.059A.667.667,0,0,0,462.645,240.377Z" transform="translate(-423.312 -220.346)"/><path class="a" d="M365.571,408.49v0a18.868,18.868,0,0,1-1.533,1.179.668.668,0,0,0,.76,1.1,20.438,20.438,0,0,0,1.64-1.267.667.667,0,1,0-.867-1.013Z" transform="translate(-333.45 -374.304)"/><path class="a" d="M278.341,454.211h0a18.59,18.59,0,0,1-1.873.46.667.667,0,0,0,.125,1.321.682.682,0,0,0,.126-.011,19.734,19.734,0,0,0,2.008-.494.667.667,0,0,0-.385-1.276Z" transform="translate(-252.945 -416.339)"/><path class="a" d="M230.841,463.13l-.037,0,0,0c-.533.045-1.079.067-1.623.067h-.3a.69.69,0,0,0-.679.655.667.667,0,0,0,.654.679h.33c.583,0,1.167-.026,1.733-.075a.667.667,0,0,0-.077-1.331Z" transform="translate(-209.197 -424.535)"/><path class="a" d="M323.839,435.66h0a18.821,18.821,0,0,1-1.737.839.667.667,0,0,0,.5,1.236l.015-.006a20.065,20.065,0,0,0,1.861-.9.667.667,0,1,0-.641-1.169Z" transform="translate(-294.892 -399.28)"/><path class="a" d="M86.009,72.011a14,14,0,1,0,14,14A14,14,0,0,0,86.009,72.011ZM96.675,86.677h1.966A12.662,12.662,0,0,1,86.675,98.643V96.677a.667.667,0,0,0-1.333,0v1.966A12.662,12.662,0,0,1,73.376,86.677h1.966a.667.667,0,0,0,0-1.333H73.376A12.662,12.662,0,0,1,85.342,73.378v1.966a.667.667,0,0,0,1.333,0V73.378A12.662,12.662,0,0,1,98.641,85.344H96.675a.667.667,0,1,0,0,1.333Z" transform="translate(-66.021 -66.01)"/><path class="a" d="M174.676,142.8v-6.123a.667.667,0,1,0-1.333,0V142.8a2,2,0,0,0-1.211,1.211h-3.456a.667.667,0,1,0,0,1.333h3.456a2,2,0,1,0,2.544-2.544Zm-.667,2.544a.667.667,0,1,1,.667-.667A.667.667,0,0,1,174.009,145.344Z" transform="translate(-154.021 -124.677)"/></g></g></g></svg>